<svg version="1.1" id="Layer_1" xmlns="http://www.w3.org/2000/svg" xmlns:xlink="http://www.w3.org/1999/xlink" x="0px" y="0px"
	 width="100%" viewBox="0 0 1024 500" enable-background="new 0 0 1024 500" xml:space="preserve">
<path fill="#FFFFFF" opacity="1.000000" stroke="none" 
	d="
M633.000000,501.000000 
	C422.034515,501.000000 211.569000,501.000000 1.051755,501.000000 
	C1.051755,334.395172 1.051755,167.790314 1.051755,1.092734 
	C342.215546,1.092734 683.431152,1.092734 1024.823364,1.092734 
	C1024.823364,167.666519 1024.823364,334.333252 1024.823364,501.000000 
	C894.456848,501.000000 763.978455,501.000000 633.000000,501.000000 
M946.890808,285.328766 
	C949.591187,270.121155 952.316223,254.917847 954.965881,239.701401 
	C955.372925,237.363876 955.432617,234.965866 955.604431,233.118088 
	C950.911926,231.967834 947.099854,231.033386 943.244446,229.141891 
	C941.340942,194.954056 939.437500,160.766235 937.518677,126.302971 
	C793.060852,134.687057 649.216003,143.035568 504.500610,151.196121 
	C501.212982,150.694016 497.910767,150.272110 494.639984,149.677338 
	C464.198425,144.141525 433.771088,138.526810 403.322388,133.030579 
	C356.511505,124.580856 309.680389,116.243103 262.870056,107.790390 
	C212.951660,98.776443 163.050476,89.667213 113.131401,80.657005 
	C108.996643,79.910706 103.294334,77.747437 101.002243,79.585991 
	C98.441856,81.639748 98.890656,87.500694 98.120155,91.721176 
	C92.981949,119.866371 87.867882,148.015976 81.955956,176.183197 
	C67.410065,177.165329 52.864182,178.147461 37.924213,179.156204 
	C42.386642,255.200241 46.816944,330.696838 51.219383,405.718628 
	C57.630447,405.718628 63.434547,406.004059 69.202942,405.671051 
	C100.268753,403.877411 131.323196,401.887817 162.386612,400.051300 
	C182.157776,398.882385 201.940598,397.911438 221.713089,396.763947 
	C254.773315,394.845276 287.828827,392.845978 320.887543,390.901093 
	C339.329224,389.816132 357.775055,388.801941 376.215942,387.703735 
	C407.776611,385.824249 439.336212,383.926239 470.893494,381.991089 
	C486.670990,381.023590 502.442444,379.956879 519.048218,379.013550 
	C520.540833,379.134857 522.055481,379.132965 523.522827,379.395447 
	C564.145630,386.662323 604.775146,393.892334 645.379333,401.262085 
	C691.864746,409.699341 738.317749,418.315460 784.802124,426.758606 
	C823.603088,433.806244 862.426453,440.730408 901.246826,447.670624 
	C906.365173,448.585663 911.524475,449.271759 916.895691,450.099457 
	C919.747620,434.406921 922.397522,419.696655 925.099060,404.995941 
	C928.166138,388.306458 931.279602,371.625458 935.193970,354.932190 
	C940.280945,354.515167 945.367920,354.098145 950.775696,353.654785 
	C949.434937,330.922913 948.115723,308.556396 946.890808,285.328766 
z"/>
<path fill="#743DFF" opacity="1.000000" stroke="none" 
	d="
M82.745979,176.164139 
	C87.867882,148.015976 92.981949,119.866371 98.120155,91.721176 
	C98.890656,87.500694 98.441856,81.639748 101.002243,79.585991 
	C103.294334,77.747437 108.996643,79.910706 113.131401,80.657005 
	C163.050476,89.667213 212.951660,98.776443 262.870056,107.790390 
	C309.680389,116.243103 356.511505,124.580856 403.322388,133.030579 
	C433.771088,138.526810 464.198425,144.141525 494.639984,149.677338 
	C497.910767,150.272110 501.212982,150.694016 505.214142,151.479156 
	C526.013367,155.361237 546.108215,158.910019 566.180664,162.581406 
	C575.617371,164.307449 585.011047,166.269455 593.914734,168.164459 
	C590.240051,168.238464 587.074890,168.302261 583.909668,168.302353 
	C422.964050,168.307190 262.018463,168.306610 101.072845,168.306595 
	C98.961121,168.306595 96.849396,168.306580 94.201233,168.306580 
	C94.201233,170.753006 94.201241,172.541870 94.201218,174.330719 
	C94.200867,206.819748 94.217896,239.308777 94.189774,271.797791 
	C94.181122,281.789398 94.049049,291.780884 93.583336,301.746216 
	C84.554489,300.137695 75.951920,298.298157 67.262367,297.078064 
	C62.691368,296.436279 61.273571,294.307861 62.048721,290.142670 
	C65.536324,271.402374 69.123703,252.680252 72.529579,233.925171 
	C76.023094,214.687485 79.347534,195.419098 82.745979,176.164139 
z"/>
<path fill="#753DFF" opacity="1.000000" stroke="none" 
	d="
M943.287720,230.098938 
	C947.099854,231.033386 950.911926,231.967834 955.604431,233.118088 
	C955.432617,234.965866 955.372925,237.363876 954.965881,239.701401 
	C952.316223,254.917847 949.591187,270.121155 946.627686,286.041687 
	C944.355408,297.791565 942.293152,308.819214 940.351440,319.868042 
	C938.298828,331.548462 936.360901,343.249023 934.372864,354.940796 
	C931.279602,371.625458 928.166138,388.306458 925.099060,404.995941 
	C922.397522,419.696655 919.747620,434.406921 916.895691,450.099457 
	C911.524475,449.271759 906.365173,448.585663 901.246826,447.670624 
	C862.426453,440.730408 823.603088,433.806244 784.802124,426.758606 
	C738.317749,418.315460 691.864746,409.699341 645.379333,401.262085 
	C604.775146,393.892334 564.145630,386.662323 523.522827,379.395447 
	C522.055481,379.132965 520.540833,379.134857 518.327454,378.718109 
	C506.783356,376.332153 495.959991,374.241669 485.590637,372.113464 
	C488.709381,372.040741 491.374207,371.975281 494.039001,371.975159 
	C626.482727,371.969940 758.926453,371.970306 891.370178,371.970062 
	C893.326050,371.970062 895.281921,371.970062 897.809265,371.970062 
	C897.809265,369.706848 897.809265,367.924530 897.809265,366.142181 
	C897.809265,334.655548 897.788879,303.168915 897.817627,271.682312 
	C897.832520,255.359772 897.934326,239.037308 898.423340,222.749786 
	C902.264038,223.368546 905.674805,223.973114 909.093018,224.532272 
	C920.489807,226.396622 931.889282,228.244644 943.287720,230.098938 
z"/>
<path fill="#4DD5FF" opacity="1.000000" stroke="none" 
	d="
M485.136658,372.151184 
	C495.959991,374.241669 506.783356,376.332153 517.911621,378.678894 
	C502.442444,379.956879 486.670990,381.023590 470.893494,381.991089 
	C439.336212,383.926239 407.776611,385.824249 376.215942,387.703735 
	C357.775055,388.801941 339.329224,389.816132 320.887543,390.901093 
	C287.828827,392.845978 254.773315,394.845276 221.713089,396.763947 
	C201.940598,397.911438 182.157776,398.882385 162.386612,400.051300 
	C131.323196,401.887817 100.268753,403.877411 69.202942,405.671051 
	C63.434547,406.004059 57.630447,405.718628 51.219383,405.718628 
	C46.816944,330.696838 42.386642,255.200241 37.924213,179.156204 
	C52.864182,178.147461 67.410065,177.165329 82.350967,176.173676 
	C79.347534,195.419098 76.023094,214.687485 72.529579,233.925171 
	C69.123703,252.680252 65.536324,271.402374 62.048721,290.142670 
	C61.273571,294.307861 62.691368,296.436279 67.262367,297.078064 
	C75.951920,298.298157 84.554489,300.137695 93.654610,302.231873 
	C94.116035,325.677979 94.116035,348.612183 94.116035,371.976624 
	C96.799149,371.976624 98.765198,371.976654 100.731239,371.976624 
	C225.703644,371.976257 350.676056,371.974609 475.648468,371.982880 
	C478.811188,371.983093 481.973938,372.092621 485.136658,372.151184 
z"/>
<path fill="#4DD5FF" opacity="1.000000" stroke="none" 
	d="
M943.266113,229.620407 
	C931.889282,228.244644 920.489807,226.396622 909.093018,224.532272 
	C905.674805,223.973114 902.264038,223.368546 898.363403,222.311462 
	C897.866699,206.026001 897.608276,190.207916 897.985840,174.405045 
	C898.111816,169.132339 896.424377,168.123062 891.523010,168.131088 
	C804.472656,168.273636 717.422058,168.238739 630.371460,168.229691 
	C618.389038,168.228455 606.406616,168.161209 594.424194,168.124527 
	C585.011047,166.269455 575.617371,164.307449 566.180664,162.581406 
	C546.108215,158.910019 526.013367,155.361237 505.649414,151.573120 
	C649.216003,143.035568 793.060852,134.687057 937.518677,126.302971 
	C939.437500,160.766235 941.340942,194.954056 943.266113,229.620407 
z"/>
<path fill="#50D2FF" opacity="1.000000" stroke="none" 
	d="
M934.783447,354.936493 
	C936.360901,343.249023 938.298828,331.548462 940.351440,319.868042 
	C942.293152,308.819214 944.355408,297.791565 946.580566,286.472229 
	C948.115723,308.556396 949.434937,330.922913 950.775696,353.654785 
	C945.367920,354.098145 940.280945,354.515167 934.783447,354.936493 
z"/>
<path fill="#FEFEFE" opacity="1.000000" stroke="none" 
	d="
M593.914734,168.164459 
	C606.406616,168.161209 618.389038,168.228455 630.371460,168.229691 
	C717.422058,168.238739 804.472656,168.273636 891.523010,168.131088 
	C896.424377,168.123062 898.111816,169.132339 897.985840,174.405045 
	C897.608276,190.207916 897.866699,206.026001 897.936890,222.276459 
	C897.934326,239.037308 897.832520,255.359772 897.817627,271.682312 
	C897.788879,303.168915 897.809265,334.655548 897.809265,366.142181 
	C897.809265,367.924530 897.809265,369.706848 897.809265,371.970062 
	C895.281921,371.970062 893.326050,371.970062 891.370178,371.970062 
	C758.926453,371.970306 626.482727,371.969940 494.039001,371.975159 
	C491.374207,371.975281 488.709381,372.040741 485.590637,372.113464 
	C481.973938,372.092621 478.811188,371.983093 475.648468,371.982880 
	C350.676056,371.974609 225.703644,371.976257 100.731239,371.976624 
	C98.765198,371.976654 96.799149,371.976624 94.116035,371.976624 
	C94.116035,348.612183 94.116035,325.677979 94.044762,302.258087 
	C94.049049,291.780884 94.181122,281.789398 94.189774,271.797791 
	C94.217896,239.308777 94.200867,206.819748 94.201218,174.330719 
	C94.201241,172.541870 94.201233,170.753006 94.201233,168.306580 
	C96.849396,168.306580 98.961121,168.306595 101.072845,168.306595 
	C262.018463,168.306610 422.964050,168.307190 583.909668,168.302353 
	C587.074890,168.302261 590.240051,168.238464 593.914734,168.164459 
M568.044495,246.591858 
	C564.454407,239.908951 561.684387,232.590454 557.101196,226.677231 
	C547.935181,214.851151 539.887390,202.707901 536.817017,187.777634 
	C536.200989,184.781937 534.201050,182.777237 530.677979,183.294327 
	C527.178772,183.807938 527.419617,186.410126 527.385864,188.973602 
	C526.975769,220.134613 526.539124,251.295273 526.097961,282.455872 
	C526.073914,284.152832 525.948486,285.848358 525.871094,287.527740 
	C521.865051,285.835785 518.643616,283.882080 515.159485,283.102966 
	C496.949768,279.030914 481.678864,284.665985 469.170044,298.088867 
	C466.729614,300.707611 464.674652,303.990143 463.393921,307.331421 
	C458.329895,320.542755 465.552948,332.478180 480.304260,335.348358 
	C494.034302,338.019806 506.375580,334.287201 517.506531,326.233368 
	C527.180542,319.233734 531.943115,309.914703 531.960388,297.673279 
	C531.998108,271.011749 532.647034,244.351044 533.061340,217.690231 
	C533.079224,216.537186 533.248535,215.386505 533.424194,213.337402 
	C539.976501,221.506760 545.919861,228.864609 551.805786,236.268219 
	C559.844727,246.380142 563.932434,257.672180 561.138489,270.644653 
	C559.736572,277.154083 557.629211,283.511627 555.965820,289.488831 
	C564.752808,283.623749 572.189148,260.692169 568.044495,246.591858 
M775.577393,247.157394 
	C770.509827,248.755096 765.407593,250.254288 760.396729,252.013489 
	C758.984436,252.509293 757.839539,253.767044 756.572021,254.675308 
	C756.840149,255.124878 757.108337,255.574463 757.376465,256.024048 
	C758.507812,256.079834 759.640808,256.205383 760.770325,256.179840 
	C766.850464,256.042175 768.705505,257.302521 768.825256,263.504913 
	C769.092041,277.325836 768.914856,291.156006 768.857971,304.982147 
	C768.840515,309.230469 766.932190,311.796753 762.371765,312.235657 
	C760.994324,312.368195 759.723938,313.613220 758.404480,314.348663 
	C758.639954,314.781921 758.875427,315.215179 759.110840,315.648438 
	C769.656799,315.648438 780.202698,315.648438 790.748657,315.648438 
	C790.949646,315.186249 791.150696,314.724091 791.351746,314.261902 
	C790.105103,313.563934 788.887329,312.330780 787.606812,312.261841 
	C782.430969,311.983032 780.385254,309.413513 780.422974,304.332977 
	C780.502136,293.674622 780.137878,283.012024 780.280029,272.355469 
	C780.364197,266.044128 783.234070,260.826569 788.139709,256.825684 
	C792.914001,252.931885 798.340515,251.712723 804.007385,254.238663 
	C809.565430,256.716156 812.047241,261.599854 812.086304,267.533844 
	C812.166382,279.695923 811.971436,291.859680 812.026550,304.022125 
	C812.048767,308.927216 810.388611,311.958740 805.007812,312.284180 
	C803.744751,312.360596 802.554871,313.646729 801.331299,314.376343 
	C801.543213,314.899261 801.755127,315.422211 801.967041,315.945129 
	C811.562988,315.945129 821.159485,315.993073 830.754272,315.887878 
	C832.036621,315.873810 833.310547,315.085327 834.588379,314.655487 
	C833.372070,313.826630 832.177429,312.323730 830.935852,312.283936 
	C825.128967,312.097870 823.165222,308.917725 823.178284,303.610535 
	C823.204468,292.948090 822.777161,282.272980 823.172852,271.626678 
	C823.486328,263.191132 828.526489,257.313782 836.040222,254.122177 
	C844.765015,250.416153 853.445068,255.717133 854.984070,265.149292 
	C855.278076,266.951569 855.461060,268.796600 855.448608,270.620239 
	C855.372375,281.779907 855.096130,292.939850 855.159668,304.098145 
	C855.188354,309.135590 853.423828,311.947845 848.115112,312.324280 
	C846.873169,312.412354 845.725891,313.834229 844.535034,314.642426 
	C844.827271,315.076111 845.119507,315.509796 845.411743,315.943481 
	C854.721924,315.943481 864.032715,315.996765 873.341675,315.888611 
	C874.812134,315.871521 876.274231,315.125305 877.740173,314.716248 
	C876.398071,313.848480 875.116211,312.362823 873.702881,312.224976 
	C868.807983,311.747406 866.784607,309.502106 866.874146,304.466736 
	C867.099060,291.810760 867.067810,279.146515 866.909973,266.488403 
	C866.734619,252.425385 856.903198,244.010864 842.989258,245.670044 
	C836.123474,246.488770 830.937744,250.136963 826.534790,255.156311 
	C825.133484,256.753754 823.856689,258.460419 822.326538,260.361023 
	C819.098816,250.606949 812.791077,245.417252 802.604065,245.468979 
	C792.692444,245.519302 786.308350,251.645355 780.078979,259.652283 
	C780.078979,254.300140 780.078979,250.238525 780.078979,245.779419 
	C778.490051,246.279083 777.421875,246.614990 775.577393,247.157394 
M131.243271,223.076935 
	C133.944641,211.498627 140.636398,206.338699 152.222153,207.001358 
	C159.523392,207.418945 165.320511,210.892273 169.464020,216.690277 
	C171.941956,220.157639 173.463486,224.296921 175.597000,228.030136 
	C176.127243,228.957962 177.363602,229.482285 178.275391,230.192078 
	C178.692413,229.257599 179.519760,228.296783 179.461716,227.392792 
	C178.984848,219.965088 178.343384,212.547943 177.807983,205.831726 
	C171.546265,204.814529 165.722458,203.694168 159.849777,202.970322 
	C155.248550,202.403183 150.556519,201.840027 145.957764,202.126099 
	C133.304413,202.913193 122.877480,210.947906 119.702477,221.793381 
	C116.199234,233.760056 120.285019,245.504883 131.342682,253.236252 
	C136.756088,257.021240 142.955338,259.661591 148.585464,263.163208 
	C154.343185,266.744171 160.453857,270.099640 165.305038,274.715210 
	C172.387070,281.453308 173.173843,290.400787 169.818573,299.249023 
	C166.616333,307.693726 159.724945,311.595551 150.812744,312.296631 
	C143.009247,312.910461 136.003937,310.690460 130.857727,305.078308 
	C126.444733,300.265778 123.277802,294.317963 119.480377,288.928192 
	C118.585510,287.658112 117.371414,286.612885 116.304176,285.464233 
	C115.651833,285.825134 114.999489,286.186035 114.347145,286.546906 
	C116.036057,294.617065 117.643257,302.706360 119.524002,310.731567 
	C119.743004,311.666046 121.372124,312.537415 122.522202,312.944702 
	C133.177719,316.718323 144.107483,318.394592 155.411865,316.943420 
	C169.228973,315.169739 179.773376,306.740967 182.924911,294.920013 
	C186.800980,280.381470 182.682846,268.045685 170.529510,259.264496 
	C166.112289,256.072906 161.162964,253.592621 156.355331,250.973343 
	C151.403458,248.275513 146.115463,246.142624 141.357697,243.152847 
	C134.414749,238.789871 130.568024,232.435287 131.243271,223.076935 
M629.621704,321.825043 
	C629.140991,325.113892 628.881287,328.453827 628.135010,331.681274 
	C626.409119,339.144470 624.452087,340.412170 617.305359,337.891449 
	C612.153809,336.074432 608.671570,337.841248 606.534607,342.118408 
	C605.311218,344.567078 604.180725,348.519684 605.329529,350.282776 
	C606.459351,352.016754 611.080505,353.142273 613.187866,352.240509 
	C618.221008,350.086731 623.533752,347.385895 627.203308,343.471405 
	C638.095215,331.852600 643.233521,317.662811 643.185486,301.655151 
	C643.106445,275.336548 642.974487,249.017426 643.066040,222.699219 
	C643.101440,212.503586 644.258301,211.526367 654.072815,209.647202 
	C655.382141,209.396500 656.476379,208.022339 657.670227,207.168457 
	C656.237427,206.508133 654.811401,205.293381 653.370789,205.275864 
	C642.558105,205.144318 631.742554,205.252777 620.927856,205.273926 
	C619.763245,205.276215 618.530823,204.948502 617.454712,205.238037 
	C616.548889,205.481766 615.264160,206.331985 615.176758,207.040665 
	C615.088196,207.759094 616.105103,208.938278 616.924011,209.360367 
	C617.904480,209.865707 619.186951,209.791611 620.340759,209.953049 
	C628.096802,211.038101 629.902222,212.635056 629.913147,220.474686 
	C629.959778,253.952820 629.787170,287.431244 629.621704,321.825043 
M353.465332,311.096008 
	C347.203064,311.132996 347.333740,306.394073 347.314880,302.312317 
	C347.235474,285.155090 347.391296,267.996735 347.458893,250.838791 
	C347.466278,248.960434 347.459869,247.082031 347.459869,244.891418 
	C340.114777,246.335098 333.604584,247.539673 327.142120,248.961319 
	C326.109375,249.188538 325.290619,250.388412 324.372925,251.138626 
	C325.492249,251.749405 326.588776,252.837006 327.734650,252.891708 
	C334.027008,253.192017 335.613617,254.191788 335.779938,260.260712 
	C336.081116,271.248962 336.262604,282.264648 335.818481,293.241547 
	C335.459564,302.113251 325.953949,310.086334 317.020142,309.915771 
	C308.391052,309.750977 303.135132,303.977478 302.943420,293.382751 
	C302.684296,279.062195 302.957855,264.732056 303.001282,250.406021 
	C303.006561,248.665665 303.002014,246.925262 303.002014,244.839813 
	C296.535522,246.109818 290.850067,247.226028 285.164856,248.343369 
	C284.185303,248.535889 283.021942,248.467941 282.271332,248.990891 
	C281.176208,249.753860 280.378052,250.943115 278.844482,252.613922 
	C290.550537,253.369247 291.130615,253.909744 291.251953,264.651672 
	C291.370575,275.148438 291.203369,285.648315 291.302307,296.145477 
	C291.432953,310.008667 300.642578,318.305817 314.458710,317.467621 
	C323.614685,316.912170 330.202942,312.241486 336.105774,303.790955 
	C336.105774,309.243286 336.105774,313.235443 336.105774,317.353790 
	C342.602600,316.552521 348.549316,315.909058 354.459290,315.021179 
	C355.783478,314.822266 356.979126,313.767731 358.233948,313.107117 
	C356.909607,312.450714 355.585297,311.794312 353.465332,311.096008 
M704.900391,317.263733 
	C713.584839,316.743500 719.461792,311.449219 725.248291,303.976624 
	C725.248291,309.391266 725.248291,313.300781 725.248291,317.279022 
	C732.059570,316.500214 738.500793,315.822479 744.916992,314.958679 
	C745.755371,314.845795 746.465149,313.777161 747.234436,313.151184 
	C746.423584,312.509216 745.697144,311.486023 744.788696,311.284790 
	C736.550598,309.460052 736.293274,309.503662 736.242188,301.157471 
	C736.140259,284.501221 736.340088,267.843079 736.412842,251.185730 
	C736.421326,249.251862 736.414001,247.317932 736.414001,245.543961 
	C735.642273,245.273270 735.308167,245.024765 735.034546,245.079376 
	C728.844788,246.314560 722.641174,247.494980 716.495300,248.922958 
	C715.335022,249.192535 714.409241,250.471634 713.375305,251.284912 
	C714.543396,251.845062 715.694153,252.844467 716.882568,252.891617 
	C723.003174,253.134384 724.625122,254.235764 724.793152,260.407623 
	C725.087830,271.228546 725.235107,282.072540 724.861450,292.886749 
	C724.546021,302.014526 715.045410,310.155640 705.881653,309.915619 
	C697.321960,309.691467 692.124878,303.876831 691.933289,293.247803 
	C691.678162,279.095581 691.948853,264.933899 691.991821,250.776276 
	C691.997559,248.899338 691.992615,247.022354 691.992615,244.806732 
	C684.927368,246.234207 678.757202,247.482758 672.585571,248.724182 
	C672.096375,248.822586 671.416931,248.692749 671.135620,248.976273 
	C670.184570,249.934875 669.373108,251.031921 667.983398,252.709747 
	C679.405884,253.225067 680.052185,253.742386 680.227966,263.778656 
	C680.408875,274.105591 680.266296,284.438049 680.284668,294.768036 
	C680.312134,310.229401 688.474365,317.975525 704.900391,317.263733 
M438.076782,280.500000 
	C438.092712,275.173035 438.283386,269.839539 438.084015,264.520660 
	C437.776947,256.326782 432.741699,249.403442 424.917999,246.894821 
	C414.477539,243.547180 405.227509,245.817780 397.564392,253.822784 
	C396.151428,255.298828 394.884399,256.914551 392.805603,259.331146 
	C392.805603,254.192062 392.805603,250.175064 392.805603,246.115234 
	C385.527924,248.231339 378.680237,250.120743 371.925568,252.298553 
	C370.937683,252.617081 370.392670,254.309341 369.328522,255.808685 
	C380.200653,256.745361 381.473785,257.189209 381.634644,263.400208 
	C381.996490,277.371216 381.759033,291.358917 381.683105,305.339355 
	C381.660980,309.414368 379.609772,311.716003 375.379913,312.228271 
	C373.989532,312.396606 372.726288,313.614532 371.404907,314.352539 
	C371.636414,314.880707 371.867920,315.408905 372.099396,315.937073 
	C381.392242,315.937073 390.686096,316.003082 399.976776,315.861481 
	C401.278900,315.841644 402.565521,314.803894 403.859314,314.237305 
	C402.691803,313.554291 401.524109,312.286591 400.356781,312.286896 
	C394.494781,312.288452 393.064178,308.851654 393.081665,303.849670 
	C393.118896,293.193817 392.974182,282.536926 393.074066,271.882050 
	C393.093872,269.768372 393.615265,267.565857 394.351654,265.568878 
	C397.292389,257.594055 405.993073,252.156265 413.973755,253.112473 
	C421.243317,253.983490 426.458191,259.198883 426.692352,267.410980 
	C427.047882,279.878754 426.587799,292.369324 426.502167,304.850403 
	C426.470978,309.397430 424.459412,311.931091 419.723877,312.327209 
	C418.533356,312.426758 417.438660,313.671600 416.299927,314.390137 
	C417.503174,314.906555 418.699707,315.851379 419.910767,315.870361 
	C428.229980,316.000977 436.553528,316.011200 444.872162,315.862152 
	C446.204010,315.838318 447.518097,314.822510 448.840393,314.265289 
	C447.675171,313.564362 446.545013,312.334625 445.338654,312.254700 
	C440.327606,311.922668 438.335297,309.186249 438.304199,304.470520 
	C438.253693,296.813477 438.155182,289.156738 438.076782,280.500000 
M250.148499,248.231827 
	C230.548538,238.751068 209.306046,247.318314 203.420425,268.000031 
	C201.400650,275.097443 201.192490,283.250336 202.328598,290.584564 
	C204.231750,302.870636 211.597580,312.013000 223.754333,315.843903 
	C235.442398,319.527130 246.318710,317.490570 255.829117,309.087952 
	C271.773407,295.000916 272.046051,260.926544 250.148499,248.231827 
z"/>
<path fill="#090909" opacity="1.000000" stroke="none" 
	d="
M568.126221,247.010193 
	C572.189148,260.692169 564.752808,283.623749 555.965820,289.488831 
	C557.629211,283.511627 559.736572,277.154083 561.138489,270.644653 
	C563.932434,257.672180 559.844727,246.380142 551.805786,236.268219 
	C545.919861,228.864609 539.976501,221.506760 533.424194,213.337402 
	C533.248535,215.386505 533.079224,216.537186 533.061340,217.690231 
	C532.647034,244.351044 531.998108,271.011749 531.960388,297.673279 
	C531.943115,309.914703 527.180542,319.233734 517.506531,326.233368 
	C506.375580,334.287201 494.034302,338.019806 480.304260,335.348358 
	C465.552948,332.478180 458.329895,320.542755 463.393921,307.331421 
	C464.674652,303.990143 466.729614,300.707611 469.170044,298.088867 
	C481.678864,284.665985 496.949768,279.030914 515.159485,283.102966 
	C518.643616,283.882080 521.865051,285.835785 525.871094,287.527740 
	C525.948486,285.848358 526.073914,284.152832 526.097961,282.455872 
	C526.539124,251.295273 526.975769,220.134613 527.385864,188.973602 
	C527.419617,186.410126 527.178772,183.807938 530.677979,183.294327 
	C534.201050,182.777237 536.200989,184.781937 536.817017,187.777634 
	C539.887390,202.707901 547.935181,214.851151 557.101196,226.677231 
	C561.684387,232.590454 564.454407,239.908951 568.126221,247.010193 
M478.530334,305.013855 
	C475.551208,308.570374 472.302307,311.938538 469.656769,315.727966 
	C465.776184,321.286591 466.852173,323.834351 473.348999,325.609772 
	C474.615662,325.955902 475.972412,326.116425 477.287933,326.118011 
	C496.528412,326.140930 511.772430,317.685852 524.061462,303.492737 
	C528.326721,298.566559 526.911621,294.772552 520.614563,292.739044 
	C518.435181,292.035278 516.052734,291.603119 513.770813,291.633636 
	C500.694946,291.808533 489.124756,296.198242 478.530334,305.013855 
z"/>
<path fill="#080808" opacity="1.000000" stroke="none" 
	d="
M775.965576,247.054138 
	C777.421875,246.614990 778.490051,246.279083 780.078979,245.779419 
	C780.078979,250.238525 780.078979,254.300140 780.078979,259.652283 
	C786.308350,251.645355 792.692444,245.519302 802.604065,245.468979 
	C812.791077,245.417252 819.098816,250.606949 822.326538,260.361023 
	C823.856689,258.460419 825.133484,256.753754 826.534790,255.156311 
	C830.937744,250.136963 836.123474,246.488770 842.989258,245.670044 
	C856.903198,244.010864 866.734619,252.425385 866.909973,266.488403 
	C867.067810,279.146515 867.099060,291.810760 866.874146,304.466736 
	C866.784607,309.502106 868.807983,311.747406 873.702881,312.224976 
	C875.116211,312.362823 876.398071,313.848480 877.740173,314.716248 
	C876.274231,315.125305 874.812134,315.871521 873.341675,315.888611 
	C864.032715,315.996765 854.721924,315.943481 845.411743,315.943481 
	C845.119507,315.509796 844.827271,315.076111 844.535034,314.642426 
	C845.725891,313.834229 846.873169,312.412354 848.115112,312.324280 
	C853.423828,311.947845 855.188354,309.135590 855.159668,304.098145 
	C855.096130,292.939850 855.372375,281.779907 855.448608,270.620239 
	C855.461060,268.796600 855.278076,266.951569 854.984070,265.149292 
	C853.445068,255.717133 844.765015,250.416153 836.040222,254.122177 
	C828.526489,257.313782 823.486328,263.191132 823.172852,271.626678 
	C822.777161,282.272980 823.204468,292.948090 823.178284,303.610535 
	C823.165222,308.917725 825.128967,312.097870 830.935852,312.283936 
	C832.177429,312.323730 833.372070,313.826630 834.588379,314.655457 
	C833.310547,315.085327 832.036621,315.873810 830.754272,315.887878 
	C821.159485,315.993073 811.562988,315.945129 801.967041,315.945129 
	C801.755127,315.422211 801.543213,314.899261 801.331299,314.376343 
	C802.554871,313.646729 803.744751,312.360596 805.007812,312.284180 
	C810.388611,311.958740 812.048767,308.927216 812.026550,304.022125 
	C811.971436,291.859680 812.166382,279.695923 812.086304,267.533844 
	C812.047241,261.599854 809.565430,256.716156 804.007385,254.238663 
	C798.340515,251.712723 792.914001,252.931885 788.139709,256.825684 
	C783.234070,260.826569 780.364197,266.044128 780.280029,272.355469 
	C780.137878,283.012024 780.502136,293.674622 780.422974,304.332977 
	C780.385254,309.413513 782.430969,311.983032 787.606812,312.261841 
	C788.887329,312.330780 790.105103,313.563934 791.351746,314.261902 
	C791.150696,314.724091 790.949646,315.186249 790.748657,315.648438 
	C780.202698,315.648438 769.656799,315.648438 759.110840,315.648438 
	C758.875427,315.215179 758.639954,314.781921 758.404480,314.348663 
	C759.723938,313.613220 760.994324,312.368195 762.371765,312.235657 
	C766.932190,311.796753 768.840515,309.230469 768.857971,304.982147 
	C768.914856,291.156006 769.092041,277.325836 768.825256,263.504913 
	C768.705505,257.302521 766.850464,256.042175 760.770325,256.179840 
	C759.640808,256.205383 758.507812,256.079834 757.376465,256.024048 
	C757.108337,255.574463 756.840149,255.124878 756.572021,254.675308 
	C757.839539,253.767044 758.984436,252.509293 760.396729,252.013489 
	C765.407593,250.254288 770.509827,248.755096 775.965576,247.054138 
z"/>
<path fill="#060606" opacity="1.000000" stroke="none" 
	d="
M131.198395,223.492233 
	C130.568024,232.435287 134.414749,238.789871 141.357697,243.152847 
	C146.115463,246.142624 151.403458,248.275513 156.355331,250.973343 
	C161.162964,253.592621 166.112289,256.072906 170.529510,259.264496 
	C182.682846,268.045685 186.800980,280.381470 182.924911,294.920013 
	C179.773376,306.740967 169.228973,315.169739 155.411865,316.943420 
	C144.107483,318.394592 133.177719,316.718323 122.522202,312.944702 
	C121.372124,312.537415 119.743004,311.666046 119.524002,310.731567 
	C117.643257,302.706360 116.036057,294.617065 114.347145,286.546906 
	C114.999489,286.186035 115.651833,285.825134 116.304176,285.464233 
	C117.371414,286.612885 118.585510,287.658112 119.480377,288.928192 
	C123.277802,294.317963 126.444733,300.265778 130.857727,305.078308 
	C136.003937,310.690460 143.009247,312.910461 150.812744,312.296631 
	C159.724945,311.595551 166.616333,307.693726 169.818573,299.249023 
	C173.173843,290.400787 172.387070,281.453308 165.305038,274.715210 
	C160.453857,270.099640 154.343185,266.744171 148.585464,263.163208 
	C142.955338,259.661591 136.756088,257.021240 131.342682,253.236252 
	C120.285019,245.504883 116.199234,233.760056 119.702477,221.793381 
	C122.877480,210.947906 133.304413,202.913193 145.957764,202.126099 
	C150.556519,201.840027 155.248550,202.403183 159.849777,202.970322 
	C165.722458,203.694168 171.546265,204.814529 177.807983,205.831726 
	C178.343384,212.547943 178.984848,219.965088 179.461716,227.392792 
	C179.519760,228.296783 178.692413,229.257599 178.275391,230.192078 
	C177.363602,229.482285 176.127243,228.957962 175.597000,228.030136 
	C173.463486,224.296921 171.941956,220.157639 169.464020,216.690277 
	C165.320511,210.892273 159.523392,207.418945 152.222153,207.001358 
	C140.636398,206.338699 133.944641,211.498627 131.198395,223.492233 
z"/>
<path fill="#070707" opacity="1.000000" stroke="none" 
	d="
M629.658142,321.367310 
	C629.787170,287.431244 629.959778,253.952820 629.913147,220.474686 
	C629.902222,212.635056 628.096802,211.038101 620.340759,209.953049 
	C619.186951,209.791611 617.904480,209.865707 616.924011,209.360367 
	C616.105103,208.938278 615.088196,207.759094 615.176758,207.040665 
	C615.264160,206.331985 616.548889,205.481766 617.454712,205.238037 
	C618.530823,204.948502 619.763245,205.276215 620.927856,205.273926 
	C631.742554,205.252777 642.558105,205.144318 653.370789,205.275864 
	C654.811401,205.293381 656.237427,206.508133 657.670227,207.168457 
	C656.476379,208.022339 655.382141,209.396500 654.072815,209.647202 
	C644.258301,211.526367 643.101440,212.503586 643.066040,222.699219 
	C642.974487,249.017426 643.106445,275.336548 643.185486,301.655151 
	C643.233521,317.662811 638.095215,331.852600 627.203308,343.471405 
	C623.533752,347.385895 618.221008,350.086731 613.187866,352.240509 
	C611.080505,353.142273 606.459351,352.016754 605.329529,350.282776 
	C604.180725,348.519684 605.311218,344.567078 606.534607,342.118408 
	C608.671570,337.841248 612.153809,336.074432 617.305359,337.891449 
	C624.452087,340.412170 626.409119,339.144470 628.135010,331.681274 
	C628.881287,328.453827 629.140991,325.113892 629.658142,321.367310 
z"/>
<path fill="#070707" opacity="1.000000" stroke="none" 
	d="
M353.863159,311.116943 
	C355.585297,311.794312 356.909607,312.450714 358.233948,313.107117 
	C356.979126,313.767731 355.783478,314.822266 354.459290,315.021179 
	C348.549316,315.909058 342.602600,316.552521 336.105774,317.353790 
	C336.105774,313.235443 336.105774,309.243286 336.105774,303.790955 
	C330.202942,312.241486 323.614685,316.912170 314.458710,317.467621 
	C300.642578,318.305817 291.432953,310.008667 291.302307,296.145477 
	C291.203369,285.648315 291.370575,275.148438 291.251953,264.651672 
	C291.130615,253.909744 290.550537,253.369247 278.844482,252.613922 
	C280.378052,250.943115 281.176208,249.753860 282.271332,248.990891 
	C283.021942,248.467941 284.185303,248.535889 285.164856,248.343369 
	C290.850067,247.226028 296.535522,246.109818 303.002014,244.839813 
	C303.002014,246.925262 303.006561,248.665665 303.001282,250.406021 
	C302.957855,264.732056 302.684296,279.062195 302.943420,293.382751 
	C303.135132,303.977478 308.391052,309.750977 317.020142,309.915771 
	C325.953949,310.086334 335.459564,302.113251 335.818481,293.241547 
	C336.262604,282.264648 336.081116,271.248962 335.779938,260.260712 
	C335.613617,254.191788 334.027008,253.192017 327.734650,252.891708 
	C326.588776,252.837006 325.492249,251.749405 324.372925,251.138611 
	C325.290619,250.388412 326.109375,249.188538 327.142120,248.961319 
	C333.604584,247.539673 340.114777,246.335098 347.459869,244.891418 
	C347.459869,247.082031 347.466278,248.960434 347.458893,250.838791 
	C347.391296,267.996735 347.235474,285.155090 347.314880,302.312317 
	C347.333740,306.394073 347.203064,311.132996 353.863159,311.116943 
z"/>
<path fill="#070707" opacity="1.000000" stroke="none" 
	d="
M704.485229,317.313446 
	C688.474365,317.975525 680.312134,310.229401 680.284668,294.768036 
	C680.266296,284.438049 680.408875,274.105591 680.227966,263.778656 
	C680.052185,253.742386 679.405884,253.225067 667.983398,252.709747 
	C669.373108,251.031921 670.184570,249.934875 671.135620,248.976273 
	C671.416931,248.692749 672.096375,248.822586 672.585571,248.724182 
	C678.757202,247.482758 684.927368,246.234207 691.992615,244.806732 
	C691.992615,247.022354 691.997559,248.899338 691.991821,250.776276 
	C691.948853,264.933899 691.678162,279.095581 691.933289,293.247803 
	C692.124878,303.876831 697.321960,309.691467 705.881653,309.915619 
	C715.045410,310.155640 724.546021,302.014526 724.861450,292.886749 
	C725.235107,282.072540 725.087830,271.228546 724.793152,260.407623 
	C724.625122,254.235764 723.003174,253.134384 716.882568,252.891617 
	C715.694153,252.844467 714.543396,251.845062 713.375305,251.284912 
	C714.409241,250.471634 715.335022,249.192535 716.495300,248.922958 
	C722.641174,247.494980 728.844788,246.314560 735.034546,245.079376 
	C735.308167,245.024765 735.642273,245.273270 736.414001,245.543961 
	C736.414001,247.317932 736.421326,249.251862 736.412842,251.185730 
	C736.340088,267.843079 736.140259,284.501221 736.242188,301.157471 
	C736.293274,309.503662 736.550598,309.460052 744.788696,311.284790 
	C745.697144,311.486023 746.423584,312.509216 747.234436,313.151184 
	C746.465149,313.777161 745.755371,314.845795 744.916992,314.958679 
	C738.500793,315.822479 732.059570,316.500214 725.248291,317.279022 
	C725.248291,313.300781 725.248291,309.391266 725.248291,303.976624 
	C719.461792,311.449219 713.584839,316.743500 704.485229,317.313446 
z"/>
<path fill="#050505" opacity="1.000000" stroke="none" 
	d="
M438.076843,280.999939 
	C438.155182,289.156738 438.253693,296.813477 438.304199,304.470520 
	C438.335297,309.186249 440.327606,311.922668 445.338654,312.254700 
	C446.545013,312.334625 447.675171,313.564362 448.840393,314.265289 
	C447.518097,314.822510 446.204010,315.838318 444.872162,315.862152 
	C436.553528,316.011200 428.229980,316.000977 419.910767,315.870361 
	C418.699707,315.851379 417.503174,314.906555 416.299927,314.390137 
	C417.438660,313.671600 418.533356,312.426758 419.723877,312.327209 
	C424.459412,311.931091 426.470978,309.397430 426.502167,304.850403 
	C426.587799,292.369324 427.047882,279.878754 426.692352,267.410980 
	C426.458191,259.198883 421.243317,253.983490 413.973755,253.112473 
	C405.993073,252.156265 397.292389,257.594055 394.351654,265.568878 
	C393.615265,267.565857 393.093872,269.768372 393.074066,271.882050 
	C392.974182,282.536926 393.118896,293.193817 393.081665,303.849670 
	C393.064178,308.851654 394.494781,312.288452 400.356781,312.286896 
	C401.524109,312.286591 402.691803,313.554291 403.859314,314.237305 
	C402.565521,314.803894 401.278900,315.841644 399.976776,315.861481 
	C390.686096,316.003082 381.392242,315.937073 372.099396,315.937073 
	C371.867920,315.408905 371.636414,314.880707 371.404907,314.352539 
	C372.726288,313.614532 373.989532,312.396606 375.379913,312.228271 
	C379.609772,311.716003 381.660980,309.414368 381.683105,305.339355 
	C381.759033,291.358917 381.996490,277.371216 381.634644,263.400208 
	C381.473785,257.189209 380.200653,256.745361 369.328522,255.808685 
	C370.392670,254.309341 370.937683,252.617081 371.925568,252.298553 
	C378.680237,250.120743 385.527924,248.231339 392.805603,246.115234 
	C392.805603,250.175064 392.805603,254.192062 392.805603,259.331146 
	C394.884399,256.914551 396.151428,255.298828 397.564392,253.822784 
	C405.227509,245.817780 414.477539,243.547180 424.917999,246.894821 
	C432.741699,249.403442 437.776947,256.326782 438.084015,264.520660 
	C438.283386,269.839539 438.092712,275.173035 438.076843,280.999939 
z"/>
<path fill="#070707" opacity="1.000000" stroke="none" 
	d="
M250.450439,248.445648 
	C272.046051,260.926544 271.773407,295.000916 255.829117,309.087952 
	C246.318710,317.490570 235.442398,319.527130 223.754333,315.843903 
	C211.597580,312.013000 204.231750,302.870636 202.328598,290.584564 
	C201.192490,283.250336 201.400650,275.097443 203.420425,268.000031 
	C209.306046,247.318314 230.548538,238.751068 250.450439,248.445648 
M222.371307,253.855087 
	C211.698883,263.664154 212.281113,294.890839 219.923843,305.365631 
	C227.924194,316.330566 243.701630,315.298523 249.755783,302.604919 
	C256.534668,288.391815 256.409149,273.434265 250.028046,259.105103 
	C245.048050,247.922134 232.523926,245.654617 222.371307,253.855087 
z"/>
<path fill="#FAFAFA" opacity="1.000000" stroke="none" 
	d="
M478.782776,304.760773 
	C489.124756,296.198242 500.694946,291.808533 513.770813,291.633636 
	C516.052734,291.603119 518.435181,292.035278 520.614563,292.739044 
	C526.911621,294.772552 528.326721,298.566559 524.061462,303.492737 
	C511.772430,317.685852 496.528412,326.140930 477.287933,326.118011 
	C475.972412,326.116425 474.615662,325.955902 473.348999,325.609772 
	C466.852173,323.834351 465.776184,321.286591 469.656769,315.727966 
	C472.302307,311.938538 475.551208,308.570374 478.782776,304.760773 
z"/>
<path fill="#FDFDFD" opacity="1.000000" stroke="none" 
	d="
M222.632431,253.593414 
	C232.523926,245.654617 245.048050,247.922134 250.028046,259.105103 
	C256.409149,273.434265 256.534668,288.391815 249.755783,302.604919 
	C243.701630,315.298523 227.924194,316.330566 219.923843,305.365631 
	C212.281113,294.890839 211.698883,263.664154 222.632431,253.593414 
z"/>
</svg>