<svg version="1.1" id="Layer_1" xmlns="http://www.w3.org/2000/svg" xmlns:xlink="http://www.w3.org/1999/xlink" x="0px" y="0px"
	 width="100%" viewBox="0 0 1024 500" enable-background="new 0 0 1024 500" xml:space="preserve">
<path fill="#FFFFFF" opacity="1.000000" stroke="none" 
	d="
M623.000000,501.000000 
	C416.867035,501.000000 211.234085,500.990112 5.601171,501.081543 
	C2.041892,501.083130 0.888227,500.580231 0.891311,496.602509 
	C1.018329,332.796112 1.017745,168.989639 0.889555,5.183259 
	C0.886591,1.395318 1.889583,0.917675 5.315455,0.918558 
	C343.759949,1.005803 682.204468,1.005003 1020.648987,0.927649 
	C1023.972717,0.926889 1025.120972,1.257587 1025.117798,5.147686 
	C1024.980591,169.120697 1024.984497,333.093842 1025.102417,497.066895 
	C1025.104980,500.625275 1024.214111,501.087524 1020.934326,501.085083 
	C888.456238,500.985382 755.978149,501.000000 623.000000,501.000000 
z"/>
<path fill="#753EFF" opacity="1.000000" stroke="none" 
	d="
M928.174927,312.382416 
	C925.805542,345.703613 923.504578,378.561920 921.159241,411.417053 
	C920.760559,417.002533 920.137573,417.372620 913.429565,416.876343 
	C895.838196,415.574921 878.247681,414.262726 860.655273,412.975616 
	C823.657837,410.268799 786.660706,407.556244 749.660828,404.882141 
	C716.796204,402.506927 683.928711,400.171692 651.061340,397.835083 
	C618.195312,395.498566 585.324341,393.231049 552.462097,390.842773 
	C521.763855,388.611755 491.078644,386.200714 460.379730,383.979156 
	C417.064697,380.844574 373.742004,377.815399 330.423248,374.732269 
	C320.137390,374.000214 309.854095,373.232788 299.561310,371.965027 
	C305.839752,371.965027 312.118195,371.964996 318.396637,371.964996 
	C509.355011,371.965057 700.313416,371.969055 891.271790,371.950470 
	C898.648804,371.949768 897.786987,373.013580 897.790344,365.228882 
	C897.814087,310.574127 897.863342,255.919174 897.695068,201.264938 
	C897.680542,196.555908 898.935791,195.363480 903.535278,195.812286 
	C913.452515,196.779953 923.417542,197.328644 933.375549,197.761719 
	C936.325928,197.890045 936.159119,199.639832 936.074585,201.408249 
	C935.677734,209.710999 935.265625,218.015366 934.674561,226.306030 
	C933.100647,248.383972 931.442200,270.455933 929.794556,292.528564 
	C929.311829,298.994812 928.752563,305.455322 928.174927,312.382416 
z"/>
<path fill="#763EFF" opacity="1.000000" stroke="none" 
	d="
M506.954010,168.394760 
	C370.777771,168.417480 234.949310,168.382736 99.120979,168.231766 
	C95.195663,168.227402 94.108452,169.222168 94.117363,173.212540 
	C94.249832,232.544830 94.173172,291.877563 94.278557,351.209961 
	C94.286461,355.660980 94.253555,358.151642 88.328964,357.198822 
	C80.483627,355.937103 72.424057,355.893036 64.446465,355.612946 
	C59.980045,355.456146 58.644573,353.083038 58.948315,349.187592 
	C60.901585,324.137177 62.984596,299.096527 64.839821,274.038971 
	C66.732170,248.480057 68.371979,222.902527 70.197540,197.338531 
	C71.606491,177.608322 73.202049,157.891144 74.524734,138.155441 
	C74.710312,135.386581 76.172295,135.745270 77.810898,135.869476 
	C97.057091,137.328461 116.298859,138.846207 135.546707,140.282806 
	C173.709518,143.131134 211.871277,145.995850 250.041458,148.742584 
	C276.104187,150.618073 302.188141,152.200317 328.248688,154.103973 
	C358.126709,156.286484 387.981415,158.789536 417.861084,160.947784 
	C444.252777,162.854065 470.665497,164.468613 497.067108,166.238968 
	C500.051697,166.439102 503.024597,166.814224 506.439209,167.113831 
	C507.285095,167.424957 507.441223,167.820404 506.954010,168.394760 
z"/>
<path fill="#090909" opacity="1.000000" stroke="none" 
	d="
M559.256287,249.075409 
	C553.979370,236.943802 545.181580,227.808716 537.129028,218.139664 
	C536.012695,216.799225 534.800720,215.538406 532.284363,214.367538 
	C532.284363,229.933563 532.338928,245.499847 532.266846,261.065521 
	C532.210571,273.221222 531.672119,285.383423 531.943848,297.529419 
	C532.222412,309.979248 527.104248,319.400391 517.249939,326.438293 
	C506.241333,334.300598 494.044312,337.963989 480.503021,335.398499 
	C465.738312,332.601318 458.543365,320.851715 463.239197,307.526794 
	C464.468933,304.037292 466.438599,300.926910 468.961731,298.231506 
	C481.646576,284.680542 496.966400,279.079559 515.375183,283.092194 
	C517.138550,283.476562 518.880981,284.164154 520.497009,284.980438 
	C526.079590,287.800201 526.028870,287.845276 526.111572,281.756256 
	C526.529724,250.952789 526.965149,220.149567 527.388916,189.346176 
	C527.425354,186.698013 526.918518,183.781723 530.794617,183.283951 
	C534.336182,182.829178 536.219055,184.886398 536.839539,187.882202 
	C539.963867,202.968582 547.904541,215.387482 557.609985,227.008881 
	C571.695190,243.874588 572.656982,262.135406 562.565247,281.310913 
	C560.818665,284.629608 558.438232,287.438263 555.578003,290.089081 
	C561.066406,276.845612 564.753601,263.555573 559.256287,249.075409 
z"/>
<path fill="#080808" opacity="1.000000" stroke="none" 
	d="
M773.747925,247.906769 
	C775.069092,247.458664 776.055115,247.207520 776.926880,246.742096 
	C780.204712,244.992020 780.593506,246.819473 780.520508,249.486343 
	C780.443604,252.293335 780.503296,255.104065 780.503296,258.973328 
	C786.579773,251.477829 792.879150,245.517960 802.549377,245.464233 
	C812.726501,245.407669 819.070312,250.534790 822.277710,260.255310 
	C824.484863,257.699005 826.393066,255.223206 828.572449,253.015091 
	C834.893555,246.610687 842.556335,244.308884 851.395203,245.981873 
	C860.672791,247.737869 866.803772,255.663879 866.914307,266.429504 
	C867.044189,279.085022 867.093506,291.745361 866.876465,304.398438 
	C866.791077,309.374084 868.651062,311.841370 873.641602,312.160461 
	C875.269043,312.264557 877.988831,311.913757 877.632935,314.629150 
	C877.328003,316.955383 874.905640,315.888275 873.420471,315.903625 
	C864.929993,315.991425 856.437988,315.964691 847.946716,315.932678 
	C846.750610,315.928192 845.050720,316.620941 844.840942,314.533905 
	C844.648132,312.616302 846.257080,312.369141 847.522644,312.341736 
	C853.639893,312.209106 855.290894,308.763123 855.219788,303.191437 
	C855.081665,292.370789 855.391113,281.544952 855.443909,270.720886 
	C855.453613,268.731812 855.288391,266.710999 854.926514,264.756226 
	C853.228943,255.587967 844.719604,250.528320 836.139771,254.093719 
	C828.581543,257.234650 823.539734,263.118011 823.190369,271.518036 
	C822.747864,282.157898 822.991943,292.837036 823.252991,303.491577 
	C823.426514,310.576294 824.026123,310.950562 830.817871,312.166077 
	C832.355652,312.441254 834.733215,312.155975 834.477844,314.519470 
	C834.207825,317.017609 831.833801,315.885345 830.384277,315.901398 
	C822.060181,315.993500 813.734131,315.982635 805.409668,315.908325 
	C804.103210,315.896698 802.059021,316.910858 801.714905,314.652039 
	C801.394714,312.550018 803.324646,312.295013 804.775574,312.254364 
	C810.412720,312.096527 812.080750,308.881989 812.042969,303.753357 
	C811.954712,291.760986 812.173096,279.766449 812.100159,267.773834 
	C812.062988,261.659393 809.604736,256.623352 803.768860,254.149475 
	C797.832214,251.632828 792.334412,253.155853 787.560242,257.307983 
	C783.077393,261.206696 780.394348,266.182526 780.304626,272.109009 
	C780.135864,283.260498 779.961914,294.415619 780.506714,305.573944 
	C780.721436,309.971344 782.751709,311.838013 786.861877,312.083557 
	C787.686523,312.132812 788.508301,312.321136 789.318176,312.503815 
	C790.409729,312.749969 791.070740,313.366882 790.955383,314.592926 
	C790.820435,316.026733 789.747742,315.960632 788.755188,315.962250 
	C779.430359,315.977234 770.105469,315.968323 760.780762,315.998840 
	C759.635864,316.002594 758.817444,315.772614 758.766418,314.445709 
	C758.718811,313.210052 759.498840,312.837097 760.532898,312.443329 
	C768.893677,309.259644 768.967834,309.238647 769.030212,300.341980 
	C769.109619,289.016266 769.135010,277.688324 769.002075,266.363495 
	C768.898560,257.542511 768.155518,256.873596 759.646057,256.282501 
	C758.496399,256.202606 757.186523,256.417938 757.044739,254.722656 
	C756.897461,252.961014 758.224731,252.497360 759.512329,252.108704 
	C764.121277,250.717529 768.743347,249.369644 773.747925,247.906769 
z"/>
<path fill="#060606" opacity="1.000000" stroke="none" 
	d="
M180.733368,300.589905 
	C172.682587,314.523224 159.748154,317.524933 145.484604,317.447693 
	C139.147812,317.413361 133.021835,315.750397 126.827507,314.454254 
	C120.989868,313.232849 118.521584,310.156097 117.842911,304.537201 
	C117.226509,299.433746 115.932419,294.415009 115.078873,289.335144 
	C114.886040,288.187531 114.248489,286.521637 116.165695,286.017090 
	C118.091507,285.510284 118.681564,286.827118 119.292839,288.360352 
	C122.369896,296.078522 126.899193,302.727142 133.766754,307.624695 
	C140.444366,312.386719 147.868805,313.525116 155.623642,311.561615 
	C171.651093,307.503540 177.051453,287.202026 165.534302,274.678345 
	C160.721237,269.444641 154.541641,266.143890 148.298645,262.979980 
	C142.523315,260.053131 136.646896,257.316803 131.402771,253.440811 
	C120.405243,245.312469 116.127960,233.588654 119.795624,221.499725 
	C123.110924,210.572205 133.930496,202.714783 146.736649,201.998978 
	C152.247665,201.690933 157.690781,201.971970 163.013580,203.734451 
	C166.674225,204.946564 170.521988,205.402512 174.357224,204.997818 
	C177.000015,204.718964 178.109360,205.156021 178.172897,208.216003 
	C178.300568,214.365204 178.967560,220.503265 179.415421,226.645676 
	C179.517410,228.044495 180.418594,229.758453 178.080322,230.214157 
	C175.857162,230.647415 175.748917,228.712250 175.285278,227.448532 
	C173.785614,223.360992 171.907852,219.494705 169.126205,216.125961 
	C164.064499,209.995972 157.675232,206.624405 149.579468,206.951569 
	C142.003326,207.257690 136.035645,210.278473 132.895325,217.486740 
	C129.698212,224.825363 130.573456,231.809540 135.606171,238.083054 
	C138.900284,242.189285 143.318130,244.852432 148.033295,247.067947 
	C154.792480,250.243912 161.683975,253.161560 167.928757,257.343140 
	C183.801132,267.971405 188.226334,282.563202 180.733368,300.589905 
z"/>
<path fill="#070707" opacity="1.000000" stroke="none" 
	d="
M630.151001,278.999939 
	C630.115540,259.846649 630.181396,241.192413 630.004883,222.540482 
	C629.906311,212.123856 629.085327,211.430084 618.923462,209.763611 
	C617.302917,209.497849 614.795837,209.970917 615.054321,207.096909 
	C615.317627,204.168610 617.768799,205.148438 619.353516,205.225739 
	C630.835754,205.785889 642.310120,205.760391 653.789368,205.187393 
	C655.351624,205.109421 657.416626,204.590088 657.627258,207.084549 
	C657.833191,209.524429 655.768555,209.426376 654.179443,209.715546 
	C644.195068,211.532410 643.109680,212.483398 643.072937,222.606384 
	C642.977356,248.919846 643.102966,275.234283 643.191284,301.548157 
	C643.245667,317.741028 637.785156,331.828644 627.091614,343.891632 
	C622.804138,348.728119 617.819641,352.582947 610.939819,352.692657 
	C605.028748,352.786957 603.044800,349.832123 605.179565,344.367859 
	C607.642639,338.062836 611.464722,336.240692 618.107849,338.204376 
	C624.144653,339.988861 626.400818,338.885651 627.919983,332.789337 
	C630.358765,323.001984 630.015076,312.962799 630.131958,302.984192 
	C630.223572,295.157104 630.150757,287.328094 630.151001,278.999939 
z"/>
<path fill="#070707" opacity="1.000000" stroke="none" 
	d="
M302.720764,272.999695 
	C302.772888,280.160767 302.647644,286.828949 302.917877,293.481110 
	C303.346893,304.044220 308.436676,309.786957 317.109436,309.914124 
	C326.057129,310.045349 335.483704,302.052856 335.827118,293.163300 
	C336.251068,282.189819 336.083344,271.179962 335.773621,260.197052 
	C335.603851,254.177307 334.043549,253.125885 327.669495,252.983551 
	C326.361328,252.954330 324.716064,253.358322 324.428802,251.572769 
	C324.128448,249.705521 325.462921,249.145584 327.169281,248.840988 
	C332.567657,247.877396 338.006775,247.005554 343.288940,245.576370 
	C346.732819,244.644547 347.675659,245.250092 347.600159,248.879562 
	C347.288422,263.861542 347.223694,278.848755 347.094513,293.834290 
	C347.071564,296.497894 347.038605,299.173004 347.243713,301.824768 
	C347.835266,309.471802 347.899872,311.212830 355.471191,311.216125 
	C356.850250,311.216736 358.266083,311.448639 358.228394,313.312500 
	C358.196198,314.904144 356.990875,314.921021 355.768280,315.060028 
	C350.150421,315.698792 344.521423,316.289642 338.939301,317.169830 
	C336.325012,317.582001 335.724304,316.719208 335.863647,314.314606 
	C336.035370,311.350983 335.904694,308.369873 335.904694,304.579712 
	C334.507324,306.193390 333.515808,307.337799 332.524902,308.482727 
	C325.342987,316.781097 316.178619,319.019073 305.861877,316.620697 
	C296.707764,314.492554 291.424377,306.946777 291.302887,296.482666 
	C291.171387,285.158997 291.362213,273.830078 291.121399,262.509644 
	C290.939453,253.955185 290.545746,253.737961 282.256470,253.015503 
	C281.054810,252.910782 279.869476,253.038635 279.862274,251.316284 
	C279.856506,249.935455 280.476318,249.228577 281.859985,248.953125 
	C288.051208,247.720657 294.228577,246.418686 300.411957,245.146744 
	C303.579956,244.495056 303.016510,246.785706 303.001434,248.524994 
	C302.932159,256.516754 302.818481,264.508118 302.720764,272.999695 
z"/>
<path fill="#070707" opacity="1.000000" stroke="none" 
	d="
M714.974915,314.072571 
	C708.723877,317.725739 702.308472,318.122314 695.786011,316.873383 
	C686.266846,315.050690 680.428345,307.280060 680.300476,296.427124 
	C680.163025,284.763733 680.325134,273.095276 680.068542,261.435394 
	C679.906189,254.060776 678.929260,253.321991 671.672974,252.990158 
	C670.393982,252.931656 668.857544,253.351151 668.865540,251.226776 
	C668.872070,249.473724 669.991089,249.149521 671.445862,248.865616 
	C677.318359,247.719467 683.185303,246.531830 689.017883,245.199753 
	C692.416443,244.423553 692.032227,246.593704 692.016357,248.632614 
	C691.913818,261.795258 691.783264,274.957855 691.743347,288.120697 
	C691.732300,291.774445 691.647766,295.455139 692.608643,299.045135 
	C694.777893,307.149506 701.588562,311.376251 709.738953,309.660980 
	C717.875488,307.948639 724.825684,299.872864 724.953491,291.505066 
	C725.106201,281.509308 725.088440,271.505707 724.873840,261.511322 
	C724.719788,254.331924 723.451477,253.238449 716.479126,252.994415 
	C715.149353,252.947876 713.563721,253.257950 713.415588,251.385910 
	C713.260742,249.430710 714.748230,249.127518 716.362915,248.818451 
	C722.076355,247.724823 727.774780,246.540451 733.449219,245.259048 
	C737.297485,244.390060 736.548218,246.983536 736.526917,249.087280 
	C736.382080,263.414917 736.189270,277.742279 736.110840,292.070312 
	C736.087219,296.396332 736.401062,300.723450 736.515442,305.051239 
	C736.622803,309.108856 738.591248,311.085236 742.721375,311.167664 
	C744.343506,311.200043 747.058716,310.393158 747.118286,313.067291 
	C747.192017,316.374054 744.159851,314.791412 742.506836,315.092712 
	C738.418091,315.838013 734.235107,316.085449 730.163635,316.900818 
	C726.349854,317.664612 724.145386,317.257172 724.855896,312.543243 
	C725.213501,310.170990 724.918274,307.700348 724.918274,304.047089 
	C721.754639,308.452637 718.946716,311.630310 714.974915,314.072571 
z"/>
<path fill="#050505" opacity="1.000000" stroke="none" 
	d="
M383.741272,248.944717 
	C393.079956,245.433350 393.079285,245.433350 393.010101,255.069443 
	C393.002930,256.066803 393.009155,257.064209 393.009155,258.991119 
	C394.566376,257.207977 395.647675,255.966873 396.732147,254.728531 
	C403.023285,247.544907 410.860931,244.493408 420.376587,245.774948 
	C430.763214,247.173782 437.946198,254.852310 438.116241,265.322327 
	C438.289368,275.982574 438.088226,286.648590 438.092407,297.312103 
	C438.093384,299.808350 438.308472,302.303894 438.342682,304.800903 
	C438.404968,309.345093 440.465088,311.881500 445.185852,312.194672 
	C446.674561,312.293427 449.056824,312.151306 448.753021,314.596863 
	C448.488403,316.726685 446.390869,315.905151 445.029877,315.913544 
	C436.702606,315.964752 428.374847,315.957275 420.047394,315.921997 
	C418.667908,315.916138 416.641815,316.662537 416.375519,314.517456 
	C416.109833,312.377106 418.207611,312.371735 419.582550,312.302155 
	C424.635895,312.046356 426.350403,309.135529 426.581085,304.483276 
	C427.192322,292.157623 427.141663,279.823151 426.720581,267.509796 
	C426.452911,259.682587 421.794678,254.579834 415.044830,253.259155 
	C407.376587,251.758789 398.737030,256.428101 394.975220,264.146027 
	C393.798309,266.560608 393.034424,269.122192 393.034454,271.822937 
	C393.034607,282.653473 393.136047,293.484161 393.102539,304.314484 
	C393.087250,309.268188 394.861877,312.276733 400.335541,312.246552 
	C401.819153,312.238403 404.191772,312.202209 403.774994,314.699860 
	C403.420441,316.824768 401.334625,315.892487 399.999298,315.903748 
	C391.672089,315.974213 383.343872,315.961975 375.016296,315.917114 
	C373.838867,315.910736 372.093811,316.721252 371.805695,314.664429 
	C371.491302,312.419556 373.394653,312.320648 374.802185,312.261078 
	C379.914276,312.044678 381.761536,308.969940 381.785583,304.408325 
	C381.855896,291.080383 382.044067,277.747406 381.756592,264.425629 
	C381.608154,257.548187 379.914673,256.379272 372.920166,256.228455 
	C371.656677,256.201202 370.111603,256.731812 369.890015,254.673889 
	C369.695435,252.866913 370.995209,252.473495 372.318420,252.104889 
	C375.996063,251.080444 379.674286,250.058334 383.741272,248.944717 
z"/>
<path fill="#070707" opacity="1.000000" stroke="none" 
	d="
M203.986389,296.928009 
	C200.075714,286.301117 200.121658,276.007050 204.011520,265.843567 
	C209.492859,251.521866 223.663086,242.587372 237.605545,244.387634 
	C253.521561,246.442719 265.302612,258.368744 266.924133,274.318298 
	C267.565582,280.627502 267.472412,286.959534 265.643982,293.131989 
	C261.500763,307.118652 250.300186,316.294342 236.041611,317.400208 
	C222.150131,318.477661 210.985657,311.455719 203.986389,296.928009 
z"/>
<path fill="#C4ACFF" opacity="1.000000" stroke="none" 
	d="
M507.079773,168.648590 
	C506.664581,168.167068 506.743286,167.870728 506.858887,167.349625 
	C512.987610,166.206848 518.822327,168.716141 524.874817,168.828354 
	C519.101013,168.828354 513.327209,168.828354 507.079773,168.648590 
z"/>
<path fill="#FAFAFA" opacity="1.000000" stroke="none" 
	d="
M504.240143,319.291107 
	C496.338867,323.461182 488.454071,326.330170 479.727814,326.133392 
	C478.069336,326.095978 476.385956,326.154266 474.759186,325.890320 
	C467.054718,324.640137 465.659698,321.625275 469.907410,315.237122 
	C480.512054,299.288727 495.772034,291.958221 514.588562,291.681244 
	C519.081665,291.615112 524.227295,292.318146 526.027405,297.118408 
	C527.754761,301.724792 523.424744,304.663544 520.666565,307.542267 
	C516.051758,312.358673 510.569427,316.140656 504.240143,319.291107 
z"/>
<path fill="#FDFDFD" opacity="1.000000" stroke="none" 
	d="
M218.636139,303.188965 
	C212.969788,289.888794 212.822113,276.612030 216.898605,263.337311 
	C219.876709,253.639359 226.020966,248.959503 234.382050,249.008713 
	C242.997559,249.059418 249.199356,253.998291 252.047928,263.808838 
	C255.371628,275.255646 255.412766,286.879883 251.799118,298.250641 
	C248.216141,309.524902 239.312805,314.730072 229.324753,312.111115 
	C224.481689,310.841217 221.247452,307.697662 218.636139,303.188965 
z"/>
</svg>