<svg version="1.1" id="Layer_1" xmlns="http://www.w3.org/2000/svg" xmlns:xlink="http://www.w3.org/1999/xlink" x="0px" y="0px"
	 width="100%" viewBox="0 0 1024 500" enable-background="new 0 0 1024 500" xml:space="preserve">
<path fill="#FFFFFF" opacity="1.000000" stroke="none" 
	d="
M957.000000,501.000000 
	C639.551941,501.000000 322.603912,500.988464 5.655932,501.122284 
	C1.402942,501.124084 0.899156,500.016754 0.901854,496.157379 
	C1.016102,332.684235 1.019546,169.211029 0.887058,5.737929 
	C0.883752,1.659256 1.730446,0.889706 5.760643,0.891112 
	C343.871826,1.009121 681.983093,1.012104 1020.094238,0.869909 
	C1024.576904,0.868024 1025.095093,2.110657 1025.092407,6.092738 
	C1024.984497,169.565857 1024.984497,333.039062 1025.095947,496.512207 
	C1025.098511,500.289612 1024.215088,501.135162 1020.488220,501.098816 
	C999.493835,500.894073 978.496399,501.000000 957.000000,501.000000 
z"/>
<path fill="#753DFF" opacity="1.000000" stroke="none" 
	d="
M477.401672,411.681885 
	C464.634644,411.064392 452.333740,410.491791 440.032135,409.936096 
	C409.931305,408.576385 379.830597,407.214325 349.728973,405.871918 
	C312.481812,404.210815 275.234955,402.541748 237.985779,400.926483 
	C206.230423,399.549377 174.471756,398.248840 142.715073,396.902008 
	C136.230957,396.626984 129.744583,395.994934 123.267906,396.093872 
	C118.637749,396.164581 117.073402,393.631134 117.555862,389.996887 
	C118.195412,385.179260 118.073814,380.375366 118.311043,375.570374 
	C118.444817,372.860748 119.493057,371.626312 122.295921,371.940369 
	C123.777176,372.106354 125.292473,371.967621 126.792404,371.967621 
	C381.613464,371.967468 636.434509,371.970398 891.255554,371.952820 
	C898.648621,371.952301 897.788879,373.018707 897.792786,365.247528 
	C897.817627,315.416595 897.872070,265.585419 897.696960,215.755127 
	C897.680359,211.030212 898.944641,210.054398 903.540100,210.321518 
	C923.652527,211.490662 943.789490,212.243332 963.919067,213.112213 
	C971.720276,213.448914 979.525818,213.684280 987.328735,213.983047 
	C991.946777,214.159851 990.195923,217.961349 990.183594,219.983597 
	C990.133667,228.128784 989.509521,236.269470 989.144531,244.413925 
	C987.348755,284.488495 985.549377,324.562958 983.789856,364.639130 
	C982.870056,385.589813 982.029297,406.543945 981.153809,427.496582 
	C980.926514,432.935974 979.805481,433.838715 974.308167,433.581390 
	C945.875549,432.250427 917.442017,430.938660 889.005920,429.684845 
	C843.438721,427.675659 797.868958,425.722321 752.300720,423.735901 
	C705.895630,421.713043 659.491028,419.679901 613.086304,417.649261 
	C575.498291,416.004456 537.910400,414.356262 500.322449,412.710541 
	C492.837585,412.382843 485.352509,412.059662 477.401672,411.681885 
z"/>
<path fill="#090909" opacity="1.000000" stroke="none" 
	d="
M526.558105,253.005569 
	C526.844238,231.516052 527.117920,210.525894 527.387817,189.535706 
	C527.423889,186.728592 526.850464,183.568359 531.109253,183.281235 
	C534.957764,183.021759 536.173279,185.520554 537.030579,188.672943 
	C539.656372,198.327454 542.795837,207.808548 548.973755,215.876068 
	C553.311768,221.540894 557.672791,227.172516 561.836060,232.978561 
	C574.114624,250.102036 569.469727,272.331970 559.518005,285.671326 
	C558.425720,287.135468 558.337341,290.015930 554.921509,290.013733 
	C557.940979,283.411133 560.331055,277.041321 561.411438,270.117676 
	C563.397034,257.392395 559.692627,246.526443 552.124023,236.577927 
	C546.293579,228.914062 540.270447,221.411041 533.673828,214.271454 
	C532.296875,215.143860 533.117004,216.602570 533.097351,217.743744 
	C532.638184,244.395981 531.999817,271.049072 531.961609,297.702850 
	C531.944092,309.944244 527.163269,319.252167 517.494385,326.245392 
	C506.365845,334.294403 494.025818,338.023163 480.300476,335.350220 
	C465.549286,332.477478 458.446930,320.600403 463.307159,307.310730 
	C464.577911,303.836029 466.567291,300.723816 469.102936,298.048462 
	C481.721191,284.734894 496.895477,279.138702 515.147583,282.997223 
	C517.958130,283.591370 520.581970,284.706299 522.870544,286.362518 
	C525.679016,288.394989 526.095703,287.241638 526.117065,284.489624 
	C526.197327,274.160919 526.392395,263.833099 526.558105,253.005569 
z"/>
<path fill="#080808" opacity="1.000000" stroke="none" 
	d="
M798.868713,253.045242 
	C788.233521,253.936432 780.800598,261.279572 780.355469,272.088409 
	C779.896912,283.222351 779.964600,294.390839 780.504028,305.548828 
	C780.715698,309.929688 782.720459,311.731812 786.831421,312.128021 
	C788.424927,312.281586 791.129517,311.768372 790.853088,314.557007 
	C790.601624,317.093750 788.192993,315.869720 786.781738,315.889221 
	C778.458008,316.004395 770.131775,315.963165 761.806580,315.939148 
	C760.604126,315.935669 758.927429,316.622711 758.779846,314.471832 
	C758.646851,312.533539 760.234558,312.334137 761.494446,312.310120 
	C767.492859,312.195587 768.973877,308.464386 768.968079,303.366486 
	C768.953369,290.542084 769.113098,277.715668 768.931213,264.893921 
	C768.825562,257.447327 767.484375,256.363983 760.170044,256.227264 
	C758.905823,256.203644 757.319641,256.741119 757.060242,254.747192 
	C756.832520,252.996262 758.182495,252.439316 759.488342,252.126236 
	C765.637024,250.652039 771.668823,248.803848 777.531311,246.446854 
	C779.957458,245.471466 780.521545,246.573120 780.520325,248.659058 
	C780.518555,251.768677 780.519897,254.878311 780.519897,259.045074 
	C786.615479,251.352280 792.981873,245.471725 802.720642,245.462036 
	C812.875610,245.451920 819.117798,250.696213 822.332581,260.310944 
	C824.236267,258.009888 825.821289,255.875580 827.629822,253.951279 
	C831.971313,249.331741 837.120789,246.215469 843.605530,245.577927 
	C857.036804,244.257431 866.673523,252.555954 866.898010,266.098602 
	C867.107666,278.751587 867.105652,291.414093 866.858582,304.065796 
	C866.757996,309.215607 868.551636,311.893341 873.808472,312.172882 
	C875.317322,312.253113 877.699951,311.992371 877.655334,314.310394 
	C877.604248,316.962128 875.190247,315.891571 873.753784,315.905792 
	C865.430054,315.988373 857.104309,316.001160 848.781189,315.892181 
	C847.407471,315.874207 845.058289,317.132141 844.882080,314.366943 
	C844.744019,312.200409 846.831299,312.315857 848.182068,312.253845 
	C853.553894,312.007233 855.183838,309.006226 855.158936,304.025452 
	C855.103210,292.870117 855.370605,281.713440 855.444519,270.556915 
	C855.456543,268.733887 855.274292,266.888489 854.974426,265.087982 
	C853.408630,255.687607 844.677124,250.403076 835.985474,254.139755 
	C828.495300,257.359894 823.469177,263.239624 823.168274,271.679199 
	C822.788696,282.323700 823.203003,292.994934 823.181030,303.654449 
	C823.170044,308.976807 825.206970,312.164978 830.979858,312.220093 
	C832.540466,312.234955 834.834778,312.297058 834.494629,314.677094 
	C834.197266,316.757721 832.090820,315.914337 830.723572,315.922302 
	C822.065796,315.972748 813.407532,315.965393 804.749634,315.936310 
	C803.552063,315.932281 801.821533,316.622070 801.694824,314.501434 
	C801.585449,312.670410 803.129639,312.323090 804.439636,312.308807 
	C810.686279,312.240692 812.123108,308.521606 812.068054,303.094360 
	C811.948181,291.269531 812.236328,279.440002 812.076294,267.616241 
	C811.963440,259.283936 807.618286,254.601471 798.868713,253.045242 
z"/>
<path fill="#060606" opacity="1.000000" stroke="none" 
	d="
M120.711288,218.866699 
	C127.428223,205.786957 141.673340,199.399139 157.381683,202.389374 
	C163.571075,203.567581 169.594406,205.808640 176.044815,204.950089 
	C178.174896,204.666580 177.980377,206.079971 178.074280,207.405579 
	C178.544769,214.045807 179.017197,220.686050 179.536514,227.322556 
	C179.629822,228.514908 179.946426,229.726974 178.392670,230.167419 
	C176.708481,230.644867 176.064545,229.634109 175.569412,228.213150 
	C174.142792,224.118820 172.348541,220.186737 169.644562,216.759308 
	C164.619415,210.389648 158.220627,206.716888 149.899307,206.942810 
	C142.319336,207.148605 136.250259,210.056961 133.016983,217.193542 
	C129.639359,224.648743 130.492950,231.804001 135.722107,238.220627 
	C139.389023,242.720276 144.354691,245.455566 149.534744,247.804886 
	C156.496384,250.962173 163.457825,254.104156 169.713440,258.582764 
	C182.515137,267.747955 187.057785,280.449402 182.831314,295.318024 
	C179.351776,307.558990 168.168320,315.720581 153.538681,317.126862 
	C142.875748,318.151825 132.674637,316.408325 122.633575,313.044952 
	C120.986862,312.493408 119.524055,311.906097 119.138351,309.949158 
	C117.788948,303.102509 116.357689,296.271454 115.087334,289.410400 
	C114.877403,288.276581 114.218689,286.600250 116.093712,286.042664 
	C117.984215,285.480408 118.640900,286.716339 119.265312,288.288239 
	C122.397331,296.172852 127.032417,302.941345 134.113754,307.861572 
	C140.696243,312.435272 147.984573,313.467346 155.551254,311.587891 
	C171.577560,307.607208 177.058975,287.275085 165.588272,274.734314 
	C160.787933,269.486176 154.610428,266.178833 148.369659,263.013062 
	C142.595322,260.083893 136.715561,257.354156 131.464706,253.490158 
	C119.661034,244.803986 115.958710,233.215744 120.711288,218.866699 
z"/>
<path fill="#070707" opacity="1.000000" stroke="none" 
	d="
M630.150940,290.999939 
	C630.115601,267.849121 630.172546,245.197632 630.003723,222.547821 
	C629.926086,212.124725 629.083252,211.427200 618.930542,209.764267 
	C617.310974,209.499008 614.804077,209.976944 615.053772,207.103943 
	C615.308777,204.170227 617.761597,205.147995 619.346252,205.225296 
	C630.828552,205.785355 642.303040,205.760513 653.782471,205.187958 
	C655.343018,205.110107 657.409668,204.584091 657.626831,207.077576 
	C657.839233,209.517044 655.777405,209.424850 654.186584,209.714920 
	C644.190063,211.537689 643.109924,212.481216 643.073364,222.599472 
	C642.977661,249.079590 643.141235,275.560577 643.175720,302.041260 
	C643.196533,318.048462 637.657104,331.959839 627.096252,343.887451 
	C623.527710,347.917847 619.443970,351.307343 613.904968,352.345581 
	C610.722839,352.942017 607.225769,353.464233 605.155273,350.544037 
	C603.032776,347.550537 604.935059,344.439148 606.653564,341.782043 
	C608.618958,338.743073 611.046753,336.225220 615.245300,337.313721 
	C615.405090,337.355103 615.549744,337.455231 615.709595,337.495728 
	C625.520752,339.981476 627.659241,338.413727 628.959778,327.922363 
	C630.460510,315.815460 630.051697,303.650330 630.150940,290.999939 
z"/>
<path fill="#070707" opacity="1.000000" stroke="none" 
	d="
M692.160156,297.224487 
	C694.846069,306.797272 700.048706,310.749542 708.301880,309.869324 
	C716.296143,309.016724 724.612671,300.959015 724.860779,292.963440 
	C725.196350,282.146881 725.087097,271.305542 724.796997,260.484772 
	C724.628418,254.199997 723.237000,253.242523 716.454163,252.996445 
	C715.118713,252.947998 713.569336,253.237595 713.411865,251.362411 
	C713.277710,249.764908 714.360168,249.172073 715.889282,248.878677 
	C721.763733,247.751511 727.626160,246.551529 733.465454,245.254593 
	C737.324158,244.397583 736.545837,247.013214 736.525513,249.102036 
	C736.383240,263.758636 736.193726,278.414917 736.110352,293.071808 
	C736.087646,297.063293 736.405457,301.055756 736.514526,305.049225 
	C736.625183,309.103394 738.585754,311.084290 742.716431,311.167358 
	C744.338562,311.199982 747.051392,310.391937 747.118225,313.060913 
	C747.201172,316.373260 744.166687,314.788757 742.515259,315.092133 
	C738.592896,315.812653 734.567322,316.002319 730.669556,316.817963 
	C726.491760,317.692230 723.940796,317.353607 724.861267,312.057068 
	C725.242920,309.860870 724.924622,307.543060 724.924622,304.047363 
	C719.224060,312.230835 712.637329,316.893921 703.503479,317.467529 
	C689.696777,318.334503 680.448669,310.034943 680.296997,296.200287 
	C680.171021,284.706726 680.338196,273.208252 680.087769,261.718262 
	C679.920959,254.064651 679.129639,253.500824 671.460999,252.993958 
	C670.356018,252.920914 668.987305,253.316345 668.875122,251.515732 
	C668.773804,249.891479 669.551208,249.207275 671.157288,248.898605 
	C677.194458,247.738342 683.208252,246.454727 689.222778,245.179520 
	C692.791931,244.422806 692.001953,247.013626 691.993286,248.834732 
	C691.934509,261.160614 691.783386,273.486084 691.742004,285.811951 
	C691.729675,289.472961 691.973633,293.134827 692.160156,297.224487 
z"/>
<path fill="#070707" opacity="1.000000" stroke="none" 
	d="
M336.056335,271.032532 
	C335.945892,266.711365 336.018341,262.867828 335.675507,259.061646 
	C335.298279,254.873993 333.366760,252.213135 328.513672,252.884216 
	C327.064636,253.084564 324.748260,253.887177 324.453766,251.425430 
	C324.132477,248.739761 326.599365,249.040817 328.307037,248.694626 
	C333.356140,247.671051 338.487885,246.937088 343.427155,245.528412 
	C347.157227,244.464600 347.649231,245.713120 347.587250,249.027008 
	C347.307190,264.010559 347.224426,278.997833 347.093658,293.984009 
	C347.071838,296.481354 347.056274,298.986877 347.223175,301.476196 
	C347.800903,310.095032 348.257416,311.294708 355.621765,311.225128 
	C357.067261,311.211456 358.378052,311.643311 358.230225,313.461487 
	C358.100464,315.057068 356.792419,314.924072 355.617065,315.061157 
	C350.000580,315.716187 344.378967,316.350372 338.786499,317.177002 
	C336.583008,317.502686 335.732819,317.001312 335.852173,314.668304 
	C336.011017,311.564392 335.891388,308.446198 335.891388,304.345886 
	C334.374634,306.204590 333.434052,307.427490 332.421173,308.587250 
	C325.203217,316.851624 316.030884,319.053009 305.725220,316.565063 
	C296.557587,314.351868 291.412811,306.871857 291.297607,296.333527 
	C291.170166,284.676392 291.323761,273.014465 291.062927,261.361145 
	C290.897980,253.991394 290.027893,253.382172 282.606689,252.984680 
	C281.528595,252.926926 280.103912,253.414612 279.894653,251.661804 
	C279.710419,250.118866 280.330261,249.244858 282.007782,248.920532 
	C288.205750,247.722275 294.367584,246.337540 300.565002,245.136169 
	C303.810028,244.507126 302.992767,247.059891 302.986694,248.677460 
	C302.937256,261.833099 302.782806,274.988373 302.744049,288.143951 
	C302.733276,291.795410 302.649139,295.473663 303.613770,299.061646 
	C305.790680,307.158905 312.594452,311.375671 320.744415,309.659485 
	C328.874603,307.947418 335.755798,299.873016 335.965332,291.512939 
	C336.132233,284.854248 336.035736,278.188995 336.056335,271.032532 
z"/>
<path fill="#050505" opacity="1.000000" stroke="none" 
	d="
M404.895874,254.532242 
	C396.758575,258.838470 392.869476,265.223175 392.986511,274.112549 
	C393.118103,284.109131 393.104828,294.107971 393.102020,304.105835 
	C393.100677,308.885986 394.496857,312.244781 400.128235,312.228027 
	C401.584808,312.223694 404.032196,312.032440 403.772949,314.497192 
	C403.501953,317.073730 401.126343,315.866394 399.707245,315.885406 
	C391.547211,315.994904 383.384674,315.974335 375.223785,315.903717 
	C373.959473,315.892761 371.941711,316.922882 371.798676,314.375458 
	C371.689209,312.426086 373.359863,312.336151 374.597504,312.294952 
	C380.324097,312.104340 381.821838,308.443604 381.841278,303.616760 
	C381.892883,290.787079 382.060181,277.953766 381.821564,265.128571 
	C381.683289,257.696686 380.238251,256.617737 372.626007,256.255005 
	C371.513763,256.202026 370.198151,256.596558 369.906555,254.878220 
	C369.605499,253.104004 370.739075,252.439590 372.121399,252.162537 
	C378.338623,250.916504 384.308929,248.874756 390.173920,246.533066 
	C392.454681,245.622437 393.212952,246.250122 393.165253,248.571335 
	C393.100281,251.732605 393.149078,254.896210 393.149078,258.828491 
	C394.565826,257.207123 395.647064,255.967407 396.730743,254.729858 
	C403.021912,247.545837 410.859467,244.493317 420.375641,245.774734 
	C430.763062,247.173508 437.946167,254.851837 438.116272,265.322357 
	C438.289459,275.983002 438.088226,286.649414 438.092407,297.313324 
	C438.093414,299.809662 438.308746,302.305267 438.342896,304.802368 
	C438.405090,309.347687 440.467438,311.882202 445.187836,312.194824 
	C446.676941,312.293396 449.059174,312.153198 448.752899,314.598877 
	C448.486481,316.726471 446.389069,315.905243 445.027679,315.913605 
	C436.700104,315.964752 428.372040,315.957306 420.044281,315.921997 
	C418.665131,315.916168 416.638458,316.662811 416.375366,314.514465 
	C416.113251,312.374359 418.211182,312.371155 419.585724,312.301605 
	C424.641541,312.045746 426.351135,309.130005 426.581421,304.479584 
	C427.191833,292.153473 427.313232,279.805389 426.690643,267.507812 
	C426.100952,255.860138 417.300964,250.799744 404.895874,254.532242 
z"/>
<path fill="#070707" opacity="1.000000" stroke="none" 
	d="
M215.006531,250.968933 
	C236.376907,235.697891 264.356354,248.493607 266.945190,274.463715 
	C268.028809,285.334259 266.720062,295.764160 259.728394,304.743317 
	C251.596542,315.186707 240.785950,319.125793 227.930023,316.920471 
	C216.119751,314.894470 208.319244,307.569122 203.944489,296.640137 
	C197.472794,280.472626 201.762070,262.761353 215.006531,250.968933 
z"/>
<path fill="#FAFAFA" opacity="1.000000" stroke="none" 
	d="
M525.740723,301.166412 
	C513.739990,316.629517 498.439026,325.181000 479.121338,326.146240 
	C478.127411,326.195892 477.105957,326.194092 476.130035,326.026093 
	C467.605835,324.558838 464.656403,322.361847 470.490814,314.216187 
	C481.321503,299.094971 496.160858,292.048981 514.426392,291.646973 
	C517.570679,291.577789 520.710327,292.210297 523.468018,294.069763 
	C525.974060,295.759613 527.244934,297.788269 525.740723,301.166412 
z"/>
<path fill="#FDFDFD" opacity="1.000000" stroke="none" 
	d="
M214.874695,289.959167 
	C213.587875,280.490356 214.002914,271.560883 216.982193,262.909454 
	C220.244598,253.435928 226.309830,248.842514 234.797287,249.009354 
	C242.919388,249.169006 249.148056,254.039490 251.900253,263.224640 
	C255.368240,274.798615 255.463577,286.580994 251.841919,298.125977 
	C248.300354,309.415680 239.447403,314.661530 229.475632,312.148743 
	C224.213959,310.822815 220.827744,307.341431 218.425293,302.785461 
	C216.394363,298.934052 215.306870,294.749207 214.874695,289.959167 
z"/>
</svg>