<svg version="1.1" id="Layer_1" xmlns="http://www.w3.org/2000/svg" xmlns:xlink="http://www.w3.org/1999/xlink" x="0px" y="0px"
	 width="100%" viewBox="0 0 1024 500" enable-background="new 0 0 1024 500" xml:space="preserve">
<path fill="#FFFFFF" opacity="1.000000" stroke="none" 
	d="
M632.000000,501.000000 
	C421.367767,501.000000 211.235565,501.000000 1.051674,501.000000 
	C1.051674,334.395111 1.051674,167.790207 1.051674,1.092652 
	C342.215607,1.092652 683.431213,1.092652 1024.823486,1.092652 
	C1024.823486,167.666519 1024.823486,334.333252 1024.823486,501.000000 
	C894.123474,501.000000 763.311707,501.000000 632.000000,501.000000 
M519.998596,379.904663 
	C530.202271,381.923370 540.383667,384.065277 550.617432,385.917603 
	C557.473328,387.158508 564.406372,387.969299 571.299133,389.011230 
	C574.206848,389.450775 577.106567,389.952484 579.997803,390.490845 
	C587.971985,391.975677 595.929138,393.554749 603.913086,394.984039 
	C612.574158,396.534546 621.274902,397.866333 629.926636,399.465057 
	C637.433777,400.852295 644.867615,402.645386 652.386963,403.954193 
	C660.220032,405.317627 668.158997,406.087585 675.974060,407.535828 
	C684.428833,409.102570 692.763367,411.310364 701.206909,412.947296 
	C709.046753,414.467194 716.975464,415.522919 724.838867,416.929260 
	C733.815735,418.534790 742.754822,420.350281 751.726562,421.985779 
	C761.671387,423.798645 771.635986,425.502441 781.588989,427.270447 
	C788.504700,428.498932 795.398743,429.858398 802.332214,430.974487 
	C811.674072,432.478210 821.078003,433.614807 830.393433,435.258911 
	C839.997986,436.954102 849.504456,439.200500 859.099365,440.956940 
	C866.172119,442.251617 873.351135,442.967438 880.422607,444.268158 
	C887.915344,445.646362 895.309326,447.559082 902.799377,448.954193 
	C907.659973,449.859467 912.615417,450.255768 917.685730,450.900116 
	C918.657043,445.474731 919.518188,440.160889 920.573059,434.885834 
	C922.316040,426.170166 924.397522,417.517090 925.937439,408.767426 
	C927.380371,400.568939 928.110352,392.246063 929.509705,384.038513 
	C931.161133,374.352570 933.194397,364.731781 935.981079,355.017212 
	C940.947083,354.772980 945.913025,354.528778 951.450012,354.256500 
	C950.899109,347.654205 950.303955,342.275452 950.033020,336.880402 
	C949.578613,327.832306 949.483826,318.764771 948.948364,309.722534 
	C948.503784,302.213959 947.642761,294.730072 947.644165,286.759644 
	C947.861755,284.965424 947.952698,283.144928 948.318970,281.381592 
	C949.832642,274.096527 951.742615,266.878845 952.916504,259.541901 
	C954.378845,250.402603 955.260254,241.170319 956.384216,231.977158 
	C956.412415,231.746887 956.344116,231.504852 956.346497,231.529053 
	C952.173279,230.981476 948.124512,230.450241 944.017822,229.031967 
	C943.686829,226.091370 943.217163,223.158722 943.047546,220.208862 
	C941.994324,201.888290 940.966248,183.566040 940.018494,165.239761 
	C939.573669,156.638336 939.436157,148.020386 938.944336,139.422241 
	C938.693420,135.036087 937.967346,130.677109 937.368713,125.559669 
	C926.540771,126.373184 915.871338,127.298187 905.185181,127.950089 
	C887.034668,129.057327 868.871887,129.960999 850.717896,131.012253 
	C840.497803,131.604050 830.287964,132.372665 820.068115,132.968262 
	C802.080627,134.016556 784.087280,134.966019 766.099548,136.010468 
	C755.713440,136.613495 745.336060,137.365601 734.950195,137.972504 
	C717.128967,139.013855 699.302734,139.971115 681.481262,141.008545 
	C670.929199,141.622803 660.384521,142.365509 649.832214,142.975220 
	C631.844238,144.014587 613.851501,144.972610 595.863281,146.008087 
	C585.144714,146.625107 574.434021,147.382065 563.714233,147.974472 
	C544.561646,149.032867 525.404907,150.014359 505.765900,150.357422 
	C370.304749,125.991295 234.843597,101.625168 99.475883,77.275848 
	C99.661652,78.396011 100.101280,79.413811 99.937218,80.322624 
	C98.870743,86.230148 97.759216,92.132500 96.497513,98.001099 
	C94.742165,106.165840 92.648369,114.261940 91.061073,122.457458 
	C89.607704,129.961533 88.716675,137.572632 87.429909,145.111298 
	C85.675499,155.389801 83.780731,165.644363 81.039116,175.981277 
	C66.591019,176.806824 52.142918,177.632355 37.378315,178.475983 
	C38.275852,191.996170 39.156952,204.978241 39.993679,217.963165 
	C40.684269,228.680222 41.351845,239.398926 41.977062,250.119965 
	C43.006947,267.780151 43.982647,285.443451 45.004002,303.104156 
	C45.643250,314.157776 46.386101,325.205658 46.973042,336.261963 
	C48.025524,356.087677 48.961655,375.919586 50.030209,395.744415 
	C50.230164,399.454163 50.822330,403.142761 51.285446,407.308411 
	C61.396343,406.511566 70.917915,405.631805 80.457268,405.037384 
	C98.112839,403.937225 115.779579,403.017273 133.440186,401.996460 
	C144.493912,401.357574 155.544266,400.660431 166.597305,400.009186 
	C183.758377,398.998077 200.920685,398.008057 218.082001,397.001038 
	C229.301361,396.342682 240.519485,395.663361 251.738861,395.005310 
	C268.900177,393.998779 286.062439,393.009552 303.223541,391.999573 
	C314.276581,391.349091 325.327362,390.661346 336.380585,390.014069 
	C353.708191,388.999329 371.037109,388.006622 388.365234,387.000854 
	C399.751038,386.339996 411.136414,385.672668 422.522003,385.008087 
	C439.683624,384.006348 456.842072,382.945282 474.007843,382.020508 
	C489.052246,381.209991 504.104828,380.552521 519.998596,379.904663 
z"/>
<path fill="#733CFF" opacity="1.000000" stroke="none" 
	d="
M81.946136,175.909180 
	C83.780731,165.644363 85.675499,155.389801 87.429909,145.111298 
	C88.716675,137.572632 89.607704,129.961533 91.061073,122.457458 
	C92.648369,114.261940 94.742165,106.165840 96.497513,98.001099 
	C97.759216,92.132500 98.870743,86.230148 99.937218,80.322624 
	C100.101280,79.413811 99.661652,78.396011 99.475883,77.275848 
	C234.843597,101.625168 370.304749,125.991295 506.215088,150.986801 
	C525.709351,155.101105 544.763245,158.538971 563.796021,162.089905 
	C574.024719,163.998245 584.217224,166.100647 593.916504,168.156952 
	C590.075073,168.233551 586.743164,168.299316 583.411316,168.299423 
	C422.628174,168.304504 261.845001,168.303940 101.061852,168.304001 
	C98.950974,168.304016 96.840096,168.304001 94.202736,168.304001 
	C94.202736,170.767380 94.202728,172.552795 94.202728,174.338211 
	C94.202736,208.160995 94.218185,241.983780 94.192108,275.806549 
	C94.185432,284.465240 94.047577,293.123779 93.580032,301.753326 
	C84.881134,300.159698 76.593727,298.466431 68.256386,297.071655 
	C61.647942,295.966125 60.935223,295.139038 62.485916,288.709534 
	C62.679737,287.905914 62.874439,287.100769 63.021416,286.287781 
	C69.394707,251.034683 75.774597,215.782745 82.089447,180.519180 
	C82.354584,179.038544 82.007835,177.448334 81.946136,175.909180 
z"/>
<path fill="#733CFF" opacity="1.000000" stroke="none" 
	d="
M944.075806,229.919006 
	C948.124512,230.450241 952.173279,230.981476 956.346497,231.529053 
	C956.344116,231.504852 956.412415,231.746887 956.384216,231.977158 
	C955.260254,241.170319 954.378845,250.402603 952.916504,259.541901 
	C951.742615,266.878845 949.832642,274.096527 948.318970,281.381592 
	C947.952698,283.144928 947.861755,284.965424 947.086792,286.857727 
	C943.100342,305.168182 939.588135,323.365601 936.302490,341.603851 
	C935.505493,346.027710 935.455566,350.586151 935.062134,355.082733 
	C933.194397,364.731781 931.161133,374.352570 929.509705,384.038513 
	C928.110352,392.246063 927.380371,400.568939 925.937439,408.767426 
	C924.397522,417.517090 922.316040,426.170166 920.573059,434.885834 
	C919.518188,440.160889 918.657043,445.474731 917.685730,450.900116 
	C912.615417,450.255768 907.659973,449.859467 902.799377,448.954193 
	C895.309326,447.559082 887.915344,445.646362 880.422607,444.268158 
	C873.351135,442.967438 866.172119,442.251617 859.099365,440.956940 
	C849.504456,439.200500 839.997986,436.954102 830.393433,435.258911 
	C821.078003,433.614807 811.674072,432.478210 802.332214,430.974487 
	C795.398743,429.858398 788.504700,428.498932 781.588989,427.270447 
	C771.635986,425.502441 761.671387,423.798645 751.726562,421.985779 
	C742.754822,420.350281 733.815735,418.534790 724.838867,416.929260 
	C716.975464,415.522919 709.046753,414.467194 701.206909,412.947296 
	C692.763367,411.310364 684.428833,409.102570 675.974060,407.535828 
	C668.158997,406.087585 660.220032,405.317627 652.386963,403.954193 
	C644.867615,402.645386 637.433777,400.852295 629.926636,399.465057 
	C621.274902,397.866333 612.574158,396.534546 603.913086,394.984039 
	C595.929138,393.554749 587.971985,391.975677 579.997803,390.490845 
	C577.106567,389.952484 574.206848,389.450775 571.299133,389.011230 
	C564.406372,387.969299 557.473328,387.158508 550.617432,385.917603 
	C540.383667,384.065277 530.202271,381.923370 519.360962,379.557800 
	C517.682922,378.793091 516.677429,378.196259 515.596619,377.985321 
	C505.444458,376.003967 495.279449,374.088623 485.574280,372.116516 
	C488.695343,372.043488 491.360291,371.977325 494.025208,371.977234 
	C626.474976,371.971985 758.924805,371.972473 891.374573,371.972290 
	C893.330750,371.972290 895.286926,371.972260 897.809875,371.972260 
	C897.809875,369.722382 897.809937,367.934143 897.809937,366.145905 
	C897.809937,334.324615 897.789795,302.503326 897.818359,270.682068 
	C897.832642,254.692017 897.935486,238.702042 898.424438,222.748108 
	C905.888428,224.016754 912.910889,225.348038 919.968384,226.455765 
	C927.987854,227.714462 936.038635,228.773300 944.075806,229.919006 
z"/>
<path fill="#4CD6FF" opacity="1.000000" stroke="none" 
	d="
M485.118134,372.154144 
	C495.279449,374.088623 505.444458,376.003967 515.596619,377.985321 
	C516.677429,378.196259 517.682922,378.793091 518.938599,379.519165 
	C504.104828,380.552521 489.052246,381.209991 474.007843,382.020508 
	C456.842072,382.945282 439.683624,384.006348 422.522003,385.008087 
	C411.136414,385.672668 399.751038,386.339996 388.365234,387.000854 
	C371.037109,388.006622 353.708191,388.999329 336.380585,390.014069 
	C325.327362,390.661346 314.276581,391.349091 303.223541,391.999573 
	C286.062439,393.009552 268.900177,393.998779 251.738861,395.005310 
	C240.519485,395.663361 229.301361,396.342682 218.082001,397.001038 
	C200.920685,398.008057 183.758377,398.998077 166.597305,400.009186 
	C155.544266,400.660431 144.493912,401.357574 133.440186,401.996460 
	C115.779579,403.017273 98.112839,403.937225 80.457268,405.037384 
	C70.917915,405.631805 61.396343,406.511566 51.285446,407.308411 
	C50.822330,403.142761 50.230164,399.454163 50.030209,395.744415 
	C48.961655,375.919586 48.025524,356.087677 46.973042,336.261963 
	C46.386101,325.205658 45.643250,314.157776 45.004002,303.104156 
	C43.982647,285.443451 43.006947,267.780151 41.977062,250.119965 
	C41.351845,239.398926 40.684269,228.680222 39.993679,217.963165 
	C39.156952,204.978241 38.275852,191.996170 37.378315,178.475983 
	C52.142918,177.632355 66.591019,176.806824 81.492630,175.945221 
	C82.007835,177.448334 82.354584,179.038544 82.089447,180.519180 
	C75.774597,215.782745 69.394707,251.034683 63.021416,286.287781 
	C62.874439,287.100769 62.679737,287.905914 62.485916,288.709534 
	C60.935223,295.139038 61.647942,295.966125 68.256386,297.071655 
	C76.593727,298.466431 84.881134,300.159698 93.651459,302.237885 
	C94.112854,325.684052 94.112854,348.616547 94.112854,371.978790 
	C96.794914,371.978790 98.763794,371.978790 100.732666,371.978790 
	C226.531708,371.978546 352.330750,371.977386 478.129791,371.985382 
	C480.459229,371.985535 482.788696,372.095428 485.118134,372.154144 
z"/>
<path fill="#4CD6FF" opacity="1.000000" stroke="none" 
	d="
M944.046814,229.475494 
	C936.038635,228.773300 927.987854,227.714462 919.968384,226.455765 
	C912.910889,225.348038 905.888428,224.016754 898.364380,222.310059 
	C897.868286,206.024170 897.610962,190.206512 897.987610,174.403992 
	C898.113403,169.128098 896.417786,168.122498 891.517273,168.129730 
	C797.145630,168.268951 702.773743,168.234451 608.401917,168.227814 
	C603.743286,168.227493 599.084656,168.154602 594.426025,168.115494 
	C584.217224,166.100647 574.024719,163.998245 563.796021,162.089905 
	C544.763245,158.538971 525.709351,155.101105 506.457092,151.322083 
	C525.404907,150.014359 544.561646,149.032867 563.714233,147.974472 
	C574.434021,147.382065 585.144714,146.625107 595.863281,146.008087 
	C613.851501,144.972610 631.844238,144.014587 649.832214,142.975220 
	C660.384521,142.365509 670.929199,141.622803 681.481262,141.008545 
	C699.302734,139.971115 717.128967,139.013855 734.950195,137.972504 
	C745.336060,137.365601 755.713440,136.613495 766.099548,136.010468 
	C784.087280,134.966019 802.080627,134.016556 820.068115,132.968262 
	C830.287964,132.372665 840.497803,131.604050 850.717896,131.012253 
	C868.871887,129.960999 887.034668,129.057327 905.185181,127.950089 
	C915.871338,127.298187 926.540771,126.373184 937.368713,125.559669 
	C937.967346,130.677109 938.693420,135.036087 938.944336,139.422241 
	C939.436157,148.020386 939.573669,156.638336 940.018494,165.239761 
	C940.966248,183.566040 941.994324,201.888290 943.047546,220.208862 
	C943.217163,223.158722 943.686829,226.091370 944.046814,229.475494 
z"/>
<path fill="#4DD2FF" opacity="1.000000" stroke="none" 
	d="
M935.521606,355.049988 
	C935.455566,350.586151 935.505493,346.027710 936.302490,341.603851 
	C939.588135,323.365601 943.100342,305.168182 946.747803,287.095520 
	C947.642761,294.730072 948.503784,302.213959 948.948364,309.722534 
	C949.483826,318.764771 949.578613,327.832306 950.033020,336.880402 
	C950.303955,342.275452 950.899109,347.654205 951.450012,354.256500 
	C945.913025,354.528778 940.947083,354.772980 935.521606,355.049988 
z"/>
<path fill="#FEFEFE" opacity="1.000000" stroke="none" 
	d="
M593.916504,168.156952 
	C599.084656,168.154602 603.743286,168.227493 608.401917,168.227814 
	C702.773743,168.234451 797.145630,168.268951 891.517273,168.129730 
	C896.417786,168.122498 898.113403,169.128098 897.987610,174.403992 
	C897.610962,190.206512 897.868286,206.024170 897.938232,222.273956 
	C897.935486,238.702042 897.832642,254.692017 897.818359,270.682068 
	C897.789795,302.503326 897.809937,334.324615 897.809937,366.145905 
	C897.809937,367.934143 897.809875,369.722382 897.809875,371.972260 
	C895.286926,371.972260 893.330750,371.972290 891.374573,371.972290 
	C758.924805,371.972473 626.474976,371.971985 494.025208,371.977234 
	C491.360291,371.977325 488.695343,372.043488 485.574280,372.116455 
	C482.788696,372.095428 480.459229,371.985535 478.129791,371.985382 
	C352.330750,371.977386 226.531708,371.978546 100.732666,371.978790 
	C98.763794,371.978790 96.794914,371.978790 94.112854,371.978790 
	C94.112854,348.616547 94.112854,325.684052 94.041428,302.266968 
	C94.047577,293.123779 94.185432,284.465240 94.192108,275.806549 
	C94.218185,241.983780 94.202736,208.160995 94.202728,174.338211 
	C94.202728,172.552795 94.202736,170.767380 94.202736,168.304001 
	C96.840096,168.304001 98.950974,168.304016 101.061852,168.304001 
	C261.845001,168.303940 422.628174,168.304504 583.411316,168.299423 
	C586.743164,168.299316 590.075073,168.233551 593.916504,168.156952 
M843.273682,251.468079 
	C838.225159,254.736038 833.176697,258.003998 828.163086,261.249390 
	C825.405212,254.372345 820.369446,249.781235 811.828064,249.983398 
	C803.863831,250.171921 797.986084,254.699295 791.554016,260.387238 
	C792.044922,256.916229 792.362915,254.667633 792.703552,252.259094 
	C783.453125,252.259094 774.230286,252.259094 764.773621,252.259094 
	C760.848328,273.851135 756.961365,295.232086 753.035278,316.828308 
	C763.088501,316.828308 772.875244,316.828308 782.821594,316.828308 
	C783.222778,314.813080 783.621094,312.887360 783.988159,310.955688 
	C785.879700,301.000580 787.643433,291.018921 789.712158,281.100830 
	C790.471985,277.457886 792.071228,273.272339 796.686157,274.238007 
	C801.539246,275.253448 799.946167,279.684113 799.356323,282.975250 
	C797.342468,294.211700 795.154053,305.416901 793.016418,316.717529 
	C803.231079,316.717529 813.130432,316.717529 823.215759,316.717529 
	C823.845642,313.216339 824.369202,309.941925 825.030945,306.695709 
	C826.953491,297.265686 828.644836,287.770386 831.126526,278.487671 
	C831.631104,276.600281 835.194397,275.530579 837.347717,274.083984 
	C838.216492,276.184906 839.309509,278.228790 839.864502,280.409607 
	C840.165771,281.593445 839.589661,283.017548 839.343933,284.320953 
	C837.314514,295.088348 835.269714,305.852844 833.190979,316.822144 
	C843.486267,316.822144 853.614624,316.822144 863.974548,316.822144 
	C864.514954,314.214539 865.135559,311.645111 865.571594,309.044678 
	C867.741333,296.102814 870.646362,283.220795 871.777832,270.186279 
	C872.883911,257.443878 864.212891,249.608978 851.405212,250.050797 
	C848.936035,250.135971 846.486328,250.784531 843.273682,251.468079 
M125.040695,257.207367 
	C125.682419,266.120789 130.424591,272.491760 137.895035,276.770935 
	C142.766113,279.561157 148.165329,281.420410 153.094925,284.121918 
	C155.015442,285.174377 156.296570,287.393585 157.868942,289.081390 
	C155.581940,290.052612 152.977142,292.254761 151.068130,291.761932 
	C145.565048,290.341125 140.140320,288.224091 135.085052,285.607300 
	C131.996536,284.008575 129.645432,280.985260 126.729095,278.393768 
	C121.381210,286.494904 116.218201,294.316010 111.052086,302.141785 
	C118.508148,308.763794 126.320595,313.754089 135.407303,316.378448 
	C152.580017,321.338165 168.840698,320.375000 182.213547,307.014374 
	C196.724884,292.516327 193.347168,271.113068 175.340485,261.566071 
	C171.539978,259.551086 167.334396,258.270233 163.637695,256.101776 
	C161.764679,255.003098 160.610291,252.679321 159.130997,250.909424 
	C161.557632,249.976654 163.927399,248.571411 166.430038,248.270187 
	C168.224854,248.054169 170.335297,249.054611 172.062378,249.970001 
	C175.824249,251.963852 179.431183,254.249969 183.360199,256.569397 
	C187.570541,249.317947 191.712524,242.184235 196.009125,234.784225 
	C182.015823,223.454666 166.439423,220.446259 149.508698,224.798187 
	C133.715332,228.857758 125.148598,240.261215 125.040695,257.207367 
M672.049866,276.690613 
	C669.273560,286.390533 668.751282,296.065125 673.124939,305.435608 
	C679.313599,318.694733 694.338867,323.135010 705.614685,315.141479 
	C707.730774,313.641296 709.598511,311.790802 712.043030,309.708221 
	C711.572021,312.479492 711.208862,314.616241 710.827454,316.860504 
	C720.515930,316.860504 729.649963,316.860504 739.060059,316.860504 
	C743.027832,295.297516 746.979553,273.822021 750.995300,251.998474 
	C745.731567,251.998474 740.918823,251.998474 736.106140,251.998474 
	C731.174561,251.998474 726.242920,251.998474 721.410095,251.998474 
	C721.033936,255.074005 720.744873,257.436890 720.382996,260.395355 
	C708.994263,247.151627 694.256409,246.426254 682.906738,258.743439 
	C678.422729,263.609680 675.746155,270.141510 672.049866,276.690613 
M425.010590,254.460632 
	C411.676239,244.817368 400.883636,251.965500 389.959717,260.461853 
	C390.499725,257.280853 390.913605,254.842880 391.348358,252.281876 
	C382.018066,252.281876 372.953064,252.281876 363.670593,252.281876 
	C359.776062,273.884979 355.924072,295.252228 352.052216,316.729736 
	C362.091492,316.729736 371.849884,316.729736 381.686798,316.729736 
	C382.856445,309.943878 383.807892,303.371185 385.159058,296.881714 
	C386.507050,290.407501 387.888092,283.887726 390.069214,277.673859 
	C390.665710,275.974365 394.190247,275.302643 396.371063,274.159271 
	C397.234467,276.112732 398.333344,278.004089 398.871063,280.043427 
	C399.183319,281.227753 398.632507,282.656403 398.404816,283.963745 
	C396.508423,294.852386 394.596802,305.738373 392.662109,316.783081 
	C403.136841,316.783081 413.059570,316.783081 423.534821,316.783081 
	C426.022308,301.769928 428.684814,286.902924 430.865814,271.965637 
	C431.782471,265.687683 430.327423,259.693085 425.010590,254.460632 
M348.855927,264.341217 
	C349.518494,260.329956 350.181091,256.318665 350.872345,252.133835 
	C341.030853,252.133835 331.575745,252.133835 321.777863,252.133835 
	C320.842133,257.243988 319.963593,262.297089 318.983765,267.330505 
	C317.651459,274.174652 316.370270,281.033264 314.810730,287.826782 
	C314.035492,291.203979 311.901733,293.749481 308.032867,292.833374 
	C304.316376,291.953369 304.048920,288.844177 304.551697,285.640259 
	C304.835144,283.833771 305.163055,282.034210 305.479492,280.233032 
	C307.109192,270.956726 308.741699,261.680908 310.379700,252.368225 
	C300.057831,252.368225 290.173187,252.368225 280.319092,252.368225 
	C278.315552,263.859558 276.308380,274.976990 274.452820,286.119659 
	C272.388702,298.514801 276.588654,308.540344 286.035187,314.180939 
	C308.129272,327.373505 335.836578,316.976349 342.946350,292.456421 
	C345.526276,283.559021 346.820099,274.288666 348.855927,264.341217 
M226.227921,250.496109 
	C212.094467,253.171356 201.950439,260.934052 196.638672,274.386841 
	C189.561508,292.310852 196.378616,310.147919 212.494675,316.601593 
	C233.455887,324.995483 258.699524,311.945831 263.927795,290.013336 
	C268.253754,271.866058 260.132935,255.798386 243.868607,251.592026 
	C238.523148,250.209549 232.698730,250.679031 226.227921,250.496109 
M643.706787,312.249634 
	C651.256897,306.588165 655.678955,298.781281 657.539490,289.823517 
	C661.987549,268.407745 665.933289,246.887695 670.129211,225.164474 
	C658.880615,225.164474 648.096558,225.164474 636.948425,225.164474 
	C635.295349,234.122116 633.678894,243.081680 631.980957,252.025742 
	C630.216125,261.322266 628.679016,270.677673 626.465149,279.868317 
	C624.728577,287.077423 620.875366,288.531097 614.189453,285.420563 
	C613.470764,285.086182 612.758179,284.738373 611.640442,284.204681 
	C608.704895,294.011261 605.878540,303.453217 602.985718,313.117249 
	C616.706665,320.647003 629.967407,321.603027 643.706787,312.249634 
M513.580444,189.726685 
	C512.775635,186.844910 512.384705,183.747757 511.033112,181.150513 
	C509.979675,179.126266 507.906555,176.586838 505.976349,176.289383 
	C502.319916,175.725891 502.306763,179.042648 502.211853,181.835022 
	C501.476410,203.476318 500.696991,225.116150 499.898102,246.755219 
	C499.576660,255.462433 499.172455,264.166595 498.792755,273.185181 
	C479.379333,260.311096 453.352600,270.130280 443.188904,284.619965 
	C434.778107,296.610596 437.991486,309.790405 451.560242,315.115845 
	C463.988831,319.993805 475.840302,317.248138 486.939728,310.871979 
	C497.752502,304.660492 503.954468,295.602600 504.202301,282.541046 
	C504.584564,262.398834 505.595154,242.268311 506.364960,222.133820 
	C506.581177,216.478516 506.887756,210.826675 507.206055,204.039230 
	C513.282288,211.901718 518.654175,218.660767 523.814819,225.577362 
	C530.845276,234.999954 534.911987,245.365616 532.012390,257.281891 
	C530.377258,264.001434 528.001892,270.540863 525.698608,278.008881 
	C527.678955,275.453278 529.377502,273.544281 530.760193,271.428833 
	C537.407837,261.258362 541.104858,250.364624 539.246216,237.962448 
	C537.960083,229.380508 533.353088,222.505981 528.469238,215.775330 
	C522.709106,207.837173 516.369934,200.272247 513.580444,189.726685 
z"/>
<path fill="#020202" opacity="1.000000" stroke="none" 
	d="
M843.650635,251.320648 
	C846.486328,250.784531 848.936035,250.135971 851.405212,250.050797 
	C864.212891,249.608978 872.883911,257.443878 871.777832,270.186279 
	C870.646362,283.220795 867.741333,296.102814 865.571594,309.044678 
	C865.135559,311.645111 864.514954,314.214539 863.974548,316.822144 
	C853.614624,316.822144 843.486267,316.822144 833.190979,316.822144 
	C835.269714,305.852844 837.314514,295.088348 839.343933,284.320953 
	C839.589661,283.017548 840.165771,281.593445 839.864502,280.409607 
	C839.309509,278.228790 838.216492,276.184906 837.347717,274.083984 
	C835.194397,275.530579 831.631104,276.600281 831.126526,278.487671 
	C828.644836,287.770386 826.953491,297.265686 825.030945,306.695709 
	C824.369202,309.941925 823.845642,313.216339 823.215759,316.717529 
	C813.130432,316.717529 803.231079,316.717529 793.016418,316.717529 
	C795.154053,305.416901 797.342468,294.211700 799.356323,282.975250 
	C799.946167,279.684113 801.539246,275.253448 796.686157,274.238007 
	C792.071228,273.272339 790.471985,277.457886 789.712158,281.100830 
	C787.643433,291.018921 785.879700,301.000580 783.988159,310.955688 
	C783.621094,312.887360 783.222778,314.813080 782.821594,316.828308 
	C772.875244,316.828308 763.088501,316.828308 753.035278,316.828308 
	C756.961365,295.232086 760.848328,273.851135 764.773621,252.259094 
	C774.230286,252.259094 783.453125,252.259094 792.703552,252.259094 
	C792.362915,254.667633 792.044922,256.916229 791.554016,260.387238 
	C797.986084,254.699295 803.863831,250.171921 811.828064,249.983398 
	C820.369446,249.781235 825.405212,254.372345 828.163086,261.249390 
	C833.176697,258.003998 838.225159,254.736038 843.650635,251.320648 
z"/>
<path fill="#020202" opacity="1.000000" stroke="none" 
	d="
M125.020660,256.761841 
	C125.148598,240.261215 133.715332,228.857758 149.508698,224.798187 
	C166.439423,220.446259 182.015823,223.454666 196.009125,234.784225 
	C191.712524,242.184235 187.570541,249.317947 183.360199,256.569397 
	C179.431183,254.249969 175.824249,251.963852 172.062378,249.970001 
	C170.335297,249.054611 168.224854,248.054169 166.430038,248.270187 
	C163.927399,248.571411 161.557632,249.976654 159.130997,250.909424 
	C160.610291,252.679321 161.764679,255.003098 163.637695,256.101776 
	C167.334396,258.270233 171.539978,259.551086 175.340485,261.566071 
	C193.347168,271.113068 196.724884,292.516327 182.213547,307.014374 
	C168.840698,320.375000 152.580017,321.338165 135.407303,316.378448 
	C126.320595,313.754089 118.508148,308.763794 111.052086,302.141785 
	C116.218201,294.316010 121.381210,286.494904 126.729095,278.393768 
	C129.645432,280.985260 131.996536,284.008575 135.085052,285.607300 
	C140.140320,288.224091 145.565048,290.341125 151.068130,291.761932 
	C152.977142,292.254761 155.581940,290.052612 157.868927,289.081360 
	C156.296570,287.393585 155.015442,285.174377 153.094925,284.121918 
	C148.165329,281.420410 142.766113,279.561157 137.895035,276.770935 
	C130.424591,272.491760 125.682419,266.120789 125.020660,256.761841 
z"/>
<path fill="#020202" opacity="1.000000" stroke="none" 
	d="
M672.148254,276.302795 
	C675.746155,270.141510 678.422729,263.609680 682.906738,258.743439 
	C694.256409,246.426254 708.994263,247.151627 720.382996,260.395355 
	C720.744873,257.436890 721.033936,255.074005 721.410095,251.998474 
	C726.242920,251.998474 731.174561,251.998474 736.106140,251.998474 
	C740.918823,251.998474 745.731567,251.998474 750.995300,251.998474 
	C746.979553,273.822021 743.027832,295.297516 739.060059,316.860504 
	C729.649963,316.860504 720.515930,316.860504 710.827454,316.860504 
	C711.208862,314.616241 711.572021,312.479492 712.043030,309.708221 
	C709.598511,311.790802 707.730774,313.641296 705.614685,315.141479 
	C694.338867,323.135010 679.313599,318.694733 673.124939,305.435608 
	C668.751282,296.065125 669.273560,286.390533 672.148254,276.302795 
M713.896301,289.318481 
	C716.030823,285.177704 716.959961,280.617371 712.829102,277.684235 
	C710.828491,276.263702 706.662415,276.363922 704.211609,277.443665 
	C699.900818,279.342804 698.606812,286.946198 701.234497,290.560303 
	C703.766052,294.042267 708.715515,293.783051 713.896301,289.318481 
z"/>
<path fill="#020202" opacity="1.000000" stroke="none" 
	d="
M425.271729,254.720123 
	C430.327423,259.693085 431.782471,265.687683 430.865814,271.965637 
	C428.684814,286.902924 426.022308,301.769928 423.534821,316.783081 
	C413.059570,316.783081 403.136841,316.783081 392.662109,316.783081 
	C394.596802,305.738373 396.508423,294.852386 398.404816,283.963745 
	C398.632507,282.656403 399.183319,281.227753 398.871063,280.043427 
	C398.333344,278.004089 397.234467,276.112732 396.371063,274.159302 
	C394.190247,275.302643 390.665710,275.974365 390.069214,277.673859 
	C387.888092,283.887726 386.507050,290.407501 385.159058,296.881714 
	C383.807892,303.371185 382.856445,309.943878 381.686798,316.729736 
	C371.849884,316.729736 362.091492,316.729736 352.052216,316.729736 
	C355.924072,295.252228 359.776062,273.884979 363.670593,252.281876 
	C372.953064,252.281876 382.018066,252.281876 391.348358,252.281876 
	C390.913605,254.842880 390.499725,257.280853 389.959717,260.461853 
	C400.883636,251.965500 411.676239,244.817368 425.271729,254.720123 
z"/>
<path fill="#020202" opacity="1.000000" stroke="none" 
	d="
M348.778320,264.764832 
	C346.820099,274.288666 345.526276,283.559021 342.946350,292.456421 
	C335.836578,316.976349 308.129272,327.373505 286.035187,314.180939 
	C276.588654,308.540344 272.388702,298.514801 274.452820,286.119659 
	C276.308380,274.976990 278.315552,263.859558 280.319092,252.368225 
	C290.173187,252.368225 300.057831,252.368225 310.379700,252.368225 
	C308.741699,261.680908 307.109192,270.956726 305.479492,280.233032 
	C305.163055,282.034210 304.835144,283.833771 304.551697,285.640259 
	C304.048920,288.844177 304.316376,291.953369 308.032867,292.833374 
	C311.901733,293.749481 314.035492,291.203979 314.810730,287.826782 
	C316.370270,281.033264 317.651459,274.174652 318.983765,267.330505 
	C319.963593,262.297089 320.842133,257.243988 321.777863,252.133835 
	C331.575745,252.133835 341.030853,252.133835 350.872345,252.133835 
	C350.181091,256.318665 349.518494,260.329956 348.778320,264.764832 
z"/>
<path fill="#020202" opacity="1.000000" stroke="none" 
	d="
M226.660614,250.398865 
	C232.698730,250.679031 238.523148,250.209549 243.868607,251.592026 
	C260.132935,255.798386 268.253754,271.866058 263.927795,290.013336 
	C258.699524,311.945831 233.455887,324.995483 212.494675,316.601593 
	C196.378616,310.147919 189.561508,292.310852 196.638672,274.386841 
	C201.950439,260.934052 212.094467,253.171356 226.660614,250.398865 
M223.957062,279.602051 
	C223.309097,281.451324 222.276672,283.261902 222.085709,285.157196 
	C221.525894,290.713593 225.719574,294.345215 230.737000,292.733826 
	C234.632919,291.482574 236.932648,288.391541 236.767456,284.517365 
	C236.655762,281.898010 235.523514,278.470184 233.616119,276.972565 
	C230.502975,274.528229 227.031372,276.114594 223.957062,279.602051 
z"/>
<path fill="#020202" opacity="1.000000" stroke="none" 
	d="
M643.432373,312.482513 
	C629.967407,321.603027 616.706665,320.647003 602.985718,313.117249 
	C605.878540,303.453217 608.704895,294.011261 611.640442,284.204681 
	C612.758179,284.738373 613.470764,285.086182 614.189453,285.420563 
	C620.875366,288.531097 624.728577,287.077423 626.465149,279.868317 
	C628.679016,270.677673 630.216125,261.322266 631.980957,252.025742 
	C633.678894,243.081680 635.295349,234.122116 636.948425,225.164474 
	C648.096558,225.164474 658.880615,225.164474 670.129211,225.164474 
	C665.933289,246.887695 661.987549,268.407745 657.539490,289.823517 
	C655.678955,298.781281 651.256897,306.588165 643.432373,312.482513 
z"/>
<path fill="#0B0B0B" opacity="1.000000" stroke="none" 
	d="
M513.736084,190.093231 
	C516.369934,200.272247 522.709106,207.837173 528.469238,215.775330 
	C533.353088,222.505981 537.960083,229.380508 539.246216,237.962448 
	C541.104858,250.364624 537.407837,261.258362 530.760193,271.428833 
	C529.377502,273.544281 527.678955,275.453278 525.698608,278.008881 
	C528.001892,270.540863 530.377258,264.001434 532.012390,257.281891 
	C534.911987,245.365616 530.845276,234.999954 523.814819,225.577362 
	C518.654175,218.660767 513.282288,211.901718 507.206055,204.039230 
	C506.887756,210.826675 506.581177,216.478516 506.364960,222.133820 
	C505.595154,242.268311 504.584564,262.398834 504.202301,282.541046 
	C503.954468,295.602600 497.752502,304.660492 486.939728,310.871979 
	C475.840302,317.248138 463.988831,319.993805 451.560242,315.115845 
	C437.991486,309.790405 434.778107,296.610596 443.188904,284.619965 
	C453.352600,270.130280 479.379333,260.311096 498.792755,273.185181 
	C499.172455,264.166595 499.576660,255.462433 499.898102,246.755219 
	C500.696991,225.116150 501.476410,203.476318 502.211853,181.835022 
	C502.306763,179.042648 502.319916,175.725891 505.976349,176.289383 
	C507.906555,176.586838 509.979675,179.126266 511.033112,181.150513 
	C512.384705,183.747757 512.775635,186.844910 513.736084,190.093231 
M455.119232,287.570312 
	C451.664429,291.575500 448.130127,295.515656 444.781586,299.607819 
	C442.379089,302.543945 443.299500,304.842438 446.689880,306.164673 
	C448.526367,306.880920 450.452332,307.802216 452.355591,307.844971 
	C470.049500,308.241974 484.401306,301.036621 496.333282,288.310516 
	C501.423523,282.881531 498.818451,278.548523 491.966217,277.221283 
	C478.376404,274.589081 466.569611,279.437775 455.119232,287.570312 
z"/>
<path fill="#F8F8F8" opacity="1.000000" stroke="none" 
	d="
M713.663879,289.619995 
	C708.715515,293.783051 703.766052,294.042267 701.234497,290.560303 
	C698.606812,286.946198 699.900818,279.342804 704.211609,277.443665 
	C706.662415,276.363922 710.828491,276.263702 712.829102,277.684235 
	C716.959961,280.617371 716.030823,285.177704 713.663879,289.619995 
z"/>
<path fill="#F9F9F9" opacity="1.000000" stroke="none" 
	d="
M224.183533,279.287903 
	C227.031372,276.114594 230.502975,274.528229 233.616119,276.972565 
	C235.523514,278.470184 236.655762,281.898010 236.767456,284.517365 
	C236.932648,288.391541 234.632919,291.482574 230.737000,292.733826 
	C225.719574,294.345215 221.525894,290.713593 222.085709,285.157196 
	C222.276672,283.261902 223.309097,281.451324 224.183533,279.287903 
z"/>
<path fill="#F9F9F9" opacity="1.000000" stroke="none" 
	d="
M455.377136,287.321777 
	C466.569611,279.437775 478.376404,274.589081 491.966217,277.221283 
	C498.818451,278.548523 501.423523,282.881531 496.333282,288.310516 
	C484.401306,301.036621 470.049500,308.241974 452.355591,307.844971 
	C450.452332,307.802216 448.526367,306.880920 446.689880,306.164673 
	C443.299500,304.842438 442.379089,302.543945 444.781586,299.607819 
	C448.130127,295.515656 451.664429,291.575500 455.377136,287.321777 
z"/>
</svg>