<svg version="1.1" id="Layer_1" xmlns="http://www.w3.org/2000/svg" xmlns:xlink="http://www.w3.org/1999/xlink" x="0px" y="0px"
	 width="100%" viewBox="0 0 1024 500" enable-background="new 0 0 1024 500" xml:space="preserve">
<path fill="#FFFFFF" opacity="1.000000" stroke="none" 
	d="
M633.000000,501.000000 
	C422.034515,501.000000 211.569000,501.000000 1.051755,501.000000 
	C1.051755,334.395172 1.051755,167.790314 1.051755,1.092734 
	C342.215546,1.092734 683.431152,1.092734 1024.823364,1.092734 
	C1024.823364,167.666519 1024.823364,334.333252 1024.823364,501.000000 
	C894.456848,501.000000 763.978455,501.000000 633.000000,501.000000 
M519.048218,379.013489 
	C531.833801,381.163513 544.640686,383.195221 557.400879,385.486877 
	C589.507446,391.253052 621.584351,397.184479 653.689087,402.961060 
	C695.115479,410.414856 736.566589,417.731598 777.989929,425.201935 
	C817.617676,432.348480 857.222046,439.624847 896.840759,446.821838 
	C903.322571,447.999268 909.825378,449.061432 916.792664,450.258301 
	C919.605164,435.147400 922.292297,420.820618 924.934448,406.485565 
	C928.100647,389.307648 931.228455,372.122681 935.203674,354.931000 
	C940.287598,354.525635 945.371521,354.120300 950.808472,353.686798 
	C949.454895,330.914185 948.125732,308.552032 946.890808,285.328766 
	C949.591187,270.121155 952.316223,254.917847 954.965881,239.701401 
	C955.372925,237.363876 955.432617,234.965866 955.604431,233.118088 
	C950.911926,231.967834 947.099854,231.033386 943.244446,229.141891 
	C941.340942,194.954056 939.437500,160.766235 937.518677,126.302971 
	C793.060852,134.687057 649.216003,143.035568 504.500610,151.196121 
	C501.212982,150.694016 497.910736,150.272110 494.639954,149.677307 
	C464.198364,144.141541 433.770996,138.526810 403.322266,133.030563 
	C356.511322,124.580841 309.680206,116.243080 262.869812,107.790352 
	C212.951523,98.776421 163.050446,89.667206 113.131485,80.657021 
	C108.996712,79.910706 103.294418,77.747391 101.002296,79.585938 
	C98.441910,81.639671 98.890671,87.500626 98.120171,91.721123 
	C92.981941,119.866325 87.867889,148.015945 81.955956,176.183197 
	C67.410065,177.165329 52.864182,178.147461 37.924213,179.156204 
	C42.386642,255.200241 46.816944,330.696838 51.219383,405.718628 
	C57.630447,405.718628 63.434547,406.004059 69.202942,405.671051 
	C100.268753,403.877411 131.323196,401.887817 162.386612,400.051300 
	C182.157776,398.882385 201.940598,397.911438 221.713089,396.763947 
	C254.773315,394.845276 287.828827,392.845978 320.887543,390.901093 
	C339.329224,389.816132 357.775055,388.801941 376.215942,387.703735 
	C407.776611,385.824249 439.336212,383.926239 470.893494,381.991089 
	C486.670990,381.023590 502.442444,379.956879 519.048218,379.013489 
z"/>
<path fill="#743DFF" opacity="1.000000" stroke="none" 
	d="
M82.745987,176.164139 
	C87.867889,148.015945 92.981941,119.866325 98.120171,91.721123 
	C98.890671,87.500626 98.441910,81.639671 101.002296,79.585938 
	C103.294418,77.747391 108.996712,79.910706 113.131485,80.657021 
	C163.050446,89.667206 212.951523,98.776421 262.869812,107.790352 
	C309.680206,116.243080 356.511322,124.580841 403.322266,133.030563 
	C433.770996,138.526810 464.198364,144.141541 494.639954,149.677307 
	C497.910736,150.272110 501.212982,150.694016 505.214142,151.479156 
	C526.013489,155.361267 546.108521,158.910019 566.181091,162.581512 
	C575.617920,164.307602 585.011475,166.269821 593.915161,168.165009 
	C590.240479,168.239044 587.075256,168.302780 583.910034,168.302872 
	C422.964478,168.307724 262.018921,168.307159 101.073387,168.307159 
	C98.961632,168.307159 96.849869,168.307144 94.201698,168.307144 
	C94.201698,170.762680 94.201714,172.546799 94.201698,174.330917 
	C94.201347,206.819931 94.218391,239.308945 94.190247,271.797943 
	C94.181587,281.789551 94.049454,291.781006 93.583679,301.746277 
	C84.554779,300.137726 75.952187,298.298187 67.262604,297.078125 
	C62.691723,296.436310 61.273499,294.308258 62.048679,290.142883 
	C65.536278,271.402496 69.123657,252.680389 72.529549,233.925278 
	C76.023071,214.687561 79.347534,195.419128 82.745987,176.164139 
z"/>
<path fill="#753DFF" opacity="1.000000" stroke="none" 
	d="
M943.287720,230.098938 
	C947.099854,231.033386 950.911926,231.967834 955.604431,233.118088 
	C955.432617,234.965866 955.372925,237.363876 954.965881,239.701401 
	C952.316223,254.917847 949.591187,270.121155 946.627686,286.041687 
	C944.355408,297.791534 942.293152,308.819214 940.351440,319.868011 
	C938.298767,331.548431 936.360901,343.248993 934.372925,354.940765 
	C931.228455,372.122681 928.100647,389.307648 924.934448,406.485565 
	C922.292297,420.820618 919.605164,435.147400 916.792664,450.258301 
	C909.825378,449.061432 903.322571,447.999268 896.840759,446.821838 
	C857.222046,439.624847 817.617676,432.348480 777.989929,425.201935 
	C736.566589,417.731598 695.115479,410.414856 653.689087,402.961060 
	C621.584351,397.184479 589.507446,391.253052 557.400879,385.486877 
	C544.640686,383.195221 531.833801,381.163513 518.327454,378.718079 
	C506.783264,376.332062 495.959839,374.241486 485.590393,372.113098 
	C488.709229,372.040375 491.374054,371.974945 494.038879,371.974823 
	C626.482544,371.969604 758.926208,371.969910 891.369873,371.969666 
	C893.325745,371.969666 895.281616,371.969696 897.808777,371.969696 
	C897.808777,369.706604 897.808777,367.924255 897.808777,366.141907 
	C897.808777,334.655304 897.788452,303.168640 897.817200,271.682068 
	C897.832092,255.359543 897.933899,239.037094 898.422974,222.749664 
	C902.263733,223.368500 905.674500,223.973022 909.092773,224.532196 
	C920.489624,226.396545 931.889221,228.244614 943.287720,230.098938 
z"/>
<path fill="#4DD5FF" opacity="1.000000" stroke="none" 
	d="
M485.136414,372.150879 
	C495.959839,374.241486 506.783264,376.332062 517.911621,378.678894 
	C502.442444,379.956879 486.670990,381.023590 470.893494,381.991089 
	C439.336212,383.926239 407.776611,385.824249 376.215942,387.703735 
	C357.775055,388.801941 339.329224,389.816132 320.887543,390.901093 
	C287.828827,392.845978 254.773315,394.845276 221.713089,396.763947 
	C201.940598,397.911438 182.157776,398.882385 162.386612,400.051300 
	C131.323196,401.887817 100.268753,403.877411 69.202942,405.671051 
	C63.434547,406.004059 57.630447,405.718628 51.219383,405.718628 
	C46.816944,330.696838 42.386642,255.200241 37.924213,179.156204 
	C52.864182,178.147461 67.410065,177.165329 82.350967,176.173676 
	C79.347534,195.419128 76.023071,214.687561 72.529549,233.925278 
	C69.123657,252.680389 65.536278,271.402496 62.048679,290.142883 
	C61.273499,294.308258 62.691723,296.436310 67.262604,297.078125 
	C75.952187,298.298187 84.554779,300.137726 93.654991,302.231934 
	C94.116486,325.678009 94.116486,348.612183 94.116486,371.976288 
	C96.794189,371.976288 98.762993,371.976318 100.731789,371.976288 
	C225.703949,371.975922 350.676086,371.974274 475.648254,371.982574 
	C478.810974,371.982788 481.973694,372.092316 485.136414,372.150879 
z"/>
<path fill="#4DD5FF" opacity="1.000000" stroke="none" 
	d="
M943.266113,229.620407 
	C931.889221,228.244614 920.489624,226.396545 909.092773,224.532196 
	C905.674500,223.973022 902.263733,223.368500 898.362915,222.311371 
	C897.866211,206.025909 897.607666,190.207886 897.985413,174.405090 
	C898.111450,169.131790 896.423157,168.123596 891.522461,168.131607 
	C804.472412,168.274094 717.422119,168.239197 630.371826,168.230164 
	C618.389465,168.228912 606.407043,168.161713 594.424683,168.125046 
	C585.011475,166.269821 575.617920,164.307602 566.181091,162.581512 
	C546.108521,158.910019 526.013489,155.361267 505.649414,151.573120 
	C649.216003,143.035568 793.060852,134.687057 937.518677,126.302971 
	C939.437500,160.766235 941.340942,194.954056 943.266113,229.620407 
z"/>
<path fill="#50D2FF" opacity="1.000000" stroke="none" 
	d="
M934.788269,354.935883 
	C936.360901,343.248993 938.298767,331.548431 940.351440,319.868011 
	C942.293152,308.819214 944.355408,297.791534 946.580566,286.472229 
	C948.125732,308.552032 949.454895,330.914185 950.808472,353.686798 
	C945.371521,354.120300 940.287598,354.525635 934.788269,354.935883 
z"/>
<path fill="#FEFEFE" opacity="1.000000" stroke="none" 
	d="
M593.915161,168.165009 
	C606.407043,168.161713 618.389465,168.228912 630.371826,168.230164 
	C717.422119,168.239197 804.472412,168.274094 891.522461,168.131607 
	C896.423157,168.123596 898.111450,169.131790 897.985413,174.405090 
	C897.607666,190.207886 897.866211,206.025909 897.936401,222.276291 
	C897.933899,239.037094 897.832092,255.359543 897.817200,271.682068 
	C897.788452,303.168640 897.808777,334.655304 897.808777,366.141907 
	C897.808777,367.924255 897.808777,369.706604 897.808777,371.969696 
	C895.281616,371.969696 893.325745,371.969666 891.369873,371.969666 
	C758.926208,371.969910 626.482544,371.969604 494.038879,371.974823 
	C491.374054,371.974945 488.709229,372.040375 485.590393,372.113098 
	C481.973694,372.092316 478.810974,371.982788 475.648254,371.982574 
	C350.676086,371.974274 225.703949,371.975922 100.731789,371.976288 
	C98.762993,371.976318 96.794189,371.976288 94.116486,371.976288 
	C94.116486,348.612183 94.116486,325.678009 94.045166,302.258179 
	C94.049454,291.781006 94.181587,281.789551 94.190247,271.797943 
	C94.218391,239.308945 94.201347,206.819931 94.201698,174.330917 
	C94.201714,172.546799 94.201698,170.762680 94.201698,168.307144 
	C96.849869,168.307144 98.961632,168.307159 101.073387,168.307159 
	C262.018921,168.307159 422.964478,168.307724 583.910034,168.302872 
	C587.075256,168.302780 590.240479,168.239044 593.915161,168.165009 
M364.078796,275.838287 
	C365.056763,270.960510 366.335693,266.113678 366.841675,261.187408 
	C367.007996,259.567902 365.172485,257.742798 364.252380,256.011719 
	C362.619415,257.210999 360.285248,258.069214 359.501068,259.681335 
	C357.922760,262.926178 357.248627,266.601929 356.080841,270.059143 
	C355.511902,271.743469 355.100403,273.826996 353.883789,274.889496 
	C346.764801,281.106537 339.871613,287.739990 332.048431,292.951080 
	C323.204437,298.842163 318.594330,296.391571 316.108032,286.026062 
	C315.953094,285.380096 315.781891,284.706696 315.807617,284.053497 
	C316.139435,275.625061 316.610779,267.200134 316.782288,258.768921 
	C316.820648,256.884583 315.837433,254.979446 315.324554,253.083878 
	C313.786957,254.340881 311.573883,255.288361 310.831055,256.909546 
	C307.930725,263.239044 305.523987,269.793335 302.881226,276.242523 
	C298.654755,286.556427 292.564819,295.630432 284.221680,303.034454 
	C281.053467,305.846039 277.199890,309.713593 272.860657,307.334778 
	C268.476807,304.931610 269.799133,299.640167 270.455200,295.419617 
	C271.681030,287.533844 273.416382,279.725342 274.559113,271.829590 
	C274.999390,268.787598 274.836700,265.485992 274.089691,262.518951 
	C273.729614,261.088837 271.414551,259.306091 269.918732,259.242828 
	C268.404236,259.178772 265.676056,260.841003 265.455719,262.094513 
	C264.730896,266.218170 261.762695,266.361755 258.868988,266.676025 
	C256.064575,266.980530 253.141418,267.319519 250.400269,266.863251 
	C242.752075,265.590240 234.618988,264.958618 228.982422,258.755432 
	C221.426666,250.440109 216.988831,249.521393 208.450684,256.906830 
	C197.263306,266.583832 189.619263,278.753021 185.966019,293.202576 
	C185.280960,295.912170 184.979019,298.807098 185.048080,301.602997 
	C185.296738,311.670044 193.042694,317.699432 202.928650,316.817261 
	C223.647568,314.968445 239.373566,290.432281 235.336105,271.659882 
	C244.617355,276.506042 254.058334,277.308044 264.544403,273.993103 
	C263.783600,280.306488 262.900391,285.878906 262.493744,291.485901 
	C262.053345,297.558258 261.114746,303.821411 262.105927,309.713287 
	C263.347870,317.096100 268.281494,319.279297 275.544464,317.362946 
	C282.812531,315.445312 288.367676,310.954285 292.679810,305.110077 
	C297.113617,299.100922 300.938934,292.643616 305.058868,286.401123 
	C305.687042,285.449280 306.468201,284.598419 307.092407,283.809784 
	C308.661041,289.017822 309.693237,293.935791 311.614990,298.477356 
	C314.529938,305.365936 320.246185,307.782379 327.141541,304.921936 
	C331.850647,302.968384 336.366211,300.317596 340.542847,297.374664 
	C344.952240,294.267731 348.856567,290.444061 353.489563,286.501160 
	C353.364807,288.349670 353.162933,289.603210 353.216888,290.845673 
	C353.439667,295.979279 353.214294,301.208069 354.152954,306.214508 
	C355.182526,311.705811 358.204712,312.442657 361.956451,308.422272 
	C365.351166,304.784424 368.485596,300.863373 371.396271,296.823303 
	C376.059052,290.351257 380.188690,283.479919 385.088165,277.202332 
	C386.687958,275.152557 389.944275,273.600342 392.523560,273.474670 
	C393.665833,273.419037 395.165222,277.404694 396.200073,279.692657 
	C396.797638,281.013916 396.743835,282.618591 397.066864,284.077148 
	C398.536835,290.713715 399.489349,297.530396 401.671326,303.926331 
	C404.105591,311.061707 410.103912,313.672485 417.330841,311.338013 
	C421.034149,310.141724 424.431946,307.999756 428.422089,306.064911 
	C428.988770,315.129272 435.223938,319.995178 442.661316,322.880829 
	C453.373688,327.037231 464.283356,325.876831 474.746826,321.283905 
	C486.539856,316.107391 493.983185,307.641968 495.810822,294.387054 
	C498.243286,276.745117 501.243073,259.181519 503.984650,241.582016 
	C505.170105,233.972076 506.319580,226.356522 507.692383,217.391846 
	C512.420471,225.252411 516.254822,232.012527 520.456055,238.536392 
	C531.256897,255.308548 530.200745,271.726929 519.423645,288.003357 
	C518.619141,289.218384 517.966003,290.533661 517.242554,291.802338 
	C517.647766,292.083221 518.052979,292.364075 518.458252,292.644958 
	C521.698669,288.612762 525.390808,284.860413 528.094727,280.495850 
	C536.179199,267.445984 538.789429,253.730453 531.536926,239.317856 
	C529.817444,235.900681 528.160034,232.420898 526.092957,229.215683 
	C519.366577,218.785675 515.601624,207.454071 514.407593,195.095001 
	C514.219421,193.147491 511.753937,190.437683 509.812683,189.861450 
	C506.519440,188.883881 506.119171,191.959656 505.710114,194.578537 
	C502.214539,216.957306 498.647980,239.325027 495.085480,261.693298 
	C493.852783,269.433105 492.571472,277.165161 491.239471,285.348328 
	C479.165283,274.892303 465.944458,275.051575 452.768829,278.493286 
	C452.401428,275.869110 452.089752,273.643066 451.778076,271.417023 
	C449.914001,272.860687 448.014130,274.261536 446.205444,275.771545 
	C445.583832,276.290527 445.267914,277.161865 444.680267,277.737396 
	C437.697144,284.576660 431.260162,292.142426 423.534607,298.009460 
	C414.984985,304.502350 408.371246,300.878876 407.031036,290.125824 
	C406.331177,284.510864 405.884644,278.859924 405.032867,273.269562 
	C404.269257,268.257904 403.073334,263.063690 397.429932,261.392517 
	C391.624756,259.673462 387.137756,262.743988 383.263336,266.738220 
	C381.991699,268.049194 380.824310,269.481079 379.749756,270.959839 
	C375.445435,276.883423 371.174438,282.831635 366.940765,288.805878 
	C365.762054,290.469208 364.754211,292.253632 363.667999,293.982513 
	C362.972778,293.452057 362.277557,292.921570 361.582336,292.391113 
	C362.382996,287.155640 363.183685,281.920197 364.078796,275.838287 
M698.378479,256.762939 
	C682.426392,266.501251 673.694702,281.216736 670.425720,299.122406 
	C669.591309,303.692963 671.006165,309.048615 672.634949,313.596893 
	C674.547058,318.936523 678.359680,320.582520 683.421875,318.029419 
	C689.546326,314.940521 695.253296,310.863770 700.695190,306.640137 
	C704.112122,303.988190 706.709839,300.280731 709.775818,296.937012 
	C715.855591,309.074585 723.595642,312.183105 734.603333,306.470459 
	C739.250183,304.058868 743.319946,300.440704 747.409729,297.076477 
	C751.583679,293.643005 755.460388,289.848114 759.438354,286.237701 
	C759.407898,286.912994 759.370117,287.971527 759.310791,289.028870 
	C758.929260,295.833282 758.150513,302.647308 758.322327,309.437469 
	C758.409607,312.884583 759.228760,317.118195 763.872803,317.889618 
	C768.242371,318.615448 769.261475,314.722961 770.898193,311.977722 
	C772.683044,308.984131 774.130249,305.791077 775.864502,302.765167 
	C780.323486,294.985352 784.708923,287.155945 789.447571,279.548035 
	C791.095093,276.902924 793.692932,274.849731 795.856750,272.526184 
	C796.552673,272.705688 797.248596,272.885193 797.944458,273.064697 
	C798.625671,279.407928 799.315735,285.750214 799.985291,292.094696 
	C800.490662,296.884155 800.509521,301.782593 801.583496,306.439148 
	C802.778992,311.622925 807.365662,312.601929 810.923279,308.661163 
	C812.907898,306.462891 814.505066,303.864960 816.005981,301.289246 
	C820.439026,293.682037 824.646118,285.942139 829.142334,278.373413 
	C830.521790,276.051422 832.548828,274.114166 834.279358,272.000732 
	C834.722595,272.122223 835.165833,272.243713 835.609131,272.365234 
	C836.079651,275.065186 836.550964,277.765045 837.020630,280.465149 
	C838.356873,288.146942 839.148010,295.977905 841.196777,303.464691 
	C842.910706,309.727844 847.739319,311.415833 853.844177,309.074097 
	C855.688416,308.366638 857.504761,307.450531 859.131775,306.335144 
	C868.761108,299.733887 876.395020,291.192413 882.445862,281.297272 
	C884.009766,278.739838 884.446960,275.493347 885.401733,272.563354 
	C884.853760,272.319641 884.305786,272.075958 883.757812,271.832245 
	C882.573547,273.127594 881.417419,274.449982 880.200317,275.713623 
	C874.657593,281.468414 869.443909,287.610229 863.405884,292.789917 
	C860.122559,295.606506 854.986694,298.912109 851.474426,298.185852 
	C846.343323,297.124939 846.559265,290.588776 845.975281,285.886749 
	C845.155396,279.284729 845.123779,272.562256 843.938721,266.039612 
	C843.491638,263.579010 841.165405,260.419586 838.962891,259.634064 
	C837.063965,258.956787 833.528137,260.583588 831.776428,262.284027 
	C828.714905,265.255920 826.152710,268.878418 823.950134,272.567871 
	C820.377930,278.551331 817.300476,284.828491 813.936218,290.938690 
	C812.972656,292.688660 811.740051,294.290527 810.630798,295.960266 
	C808.910828,292.959595 808.302063,290.255524 808.002014,287.517670 
	C807.313538,281.235870 807.275452,274.838593 806.053284,268.670502 
	C804.425964,260.457581 797.874817,258.405457 791.672241,264.014954 
	C788.888062,266.532867 786.592712,269.754547 784.641235,272.997375 
	C779.930115,280.825897 775.572144,288.866394 771.023865,296.793945 
	C770.032776,298.521271 768.841187,300.133606 767.742004,301.798889 
	C767.999634,293.257690 769.420593,285.237061 770.519714,277.172577 
	C771.213806,272.080780 771.703186,266.922791 771.689941,261.795990 
	C771.685913,260.229462 769.991150,258.205811 768.513672,257.300995 
	C767.784729,256.854553 765.098083,258.112183 764.500244,259.237701 
	C762.995850,262.069733 762.093628,265.239075 761.115295,268.325562 
	C760.630188,269.855865 761.026184,271.909454 760.141663,273.030426 
	C753.318970,281.676971 746.168152,290.080444 736.256653,295.395691 
	C725.381348,301.227783 717.618652,296.504486 718.128296,284.132721 
	C718.358948,278.531647 719.793640,272.974243 720.761719,267.410858 
	C722.077637,259.848694 717.661621,253.991745 710.055237,254.115814 
	C706.360962,254.176071 702.688049,255.549744 698.378479,256.762939 
M156.508301,274.939056 
	C153.526016,273.921539 150.447449,273.120209 147.580719,271.843262 
	C140.812927,268.828644 133.382324,266.589905 127.620041,262.199554 
	C119.309723,255.867813 120.204956,248.840088 128.740570,242.740082 
	C136.600586,237.122864 145.512589,234.930862 155.089828,234.996048 
	C165.022415,235.063644 167.777725,237.293137 169.632904,248.253937 
	C171.785477,246.053482 173.982056,244.730621 174.788422,242.820786 
	C177.938766,235.359299 174.738556,228.985626 166.408661,226.883804 
	C147.403488,222.088348 130.908310,227.289673 116.925552,240.652115 
	C112.097733,245.265778 111.036736,251.181717 112.599670,257.698761 
	C114.866379,267.150452 121.424660,272.799774 129.638290,276.675690 
	C135.166870,279.284546 141.126770,280.971100 146.862915,283.151276 
	C150.730072,284.621063 154.733994,285.884491 158.337509,287.859253 
	C164.124390,291.030518 164.462234,294.371521 160.086243,299.453125 
	C150.268219,310.854248 129.896133,316.824554 115.894012,311.902618 
	C111.244469,310.268219 109.498085,312.028534 109.345490,315.961395 
	C109.271622,317.865417 110.414848,320.898254 111.863205,321.567780 
	C115.547943,323.271057 119.774780,325.029968 123.678696,324.817749 
	C140.517532,323.902466 155.543106,318.162811 167.183807,305.467682 
	C176.383423,295.434814 174.661377,285.012848 163.003647,278.110138 
	C161.149841,277.012512 159.162567,276.140289 156.508301,274.939056 
M641.085754,312.616974 
	C644.049927,308.838531 647.537354,305.355255 649.869812,301.220428 
	C654.808594,292.465454 657.385559,282.971100 658.246216,272.821899 
	C659.520325,257.797333 659.012024,242.904480 656.681580,228.070084 
	C656.350098,225.960342 654.644104,222.932175 652.985901,222.478165 
	C651.261353,222.005997 648.517090,223.789902 646.818176,225.273651 
	C645.884094,226.089447 645.934570,228.323715 645.967529,229.909561 
	C646.226562,242.379379 646.905212,254.849274 646.818176,267.314697 
	C646.749634,277.138031 645.401123,286.890472 641.025818,295.912109 
	C635.515076,307.274872 625.442444,310.818787 614.117920,305.470581 
	C610.967285,303.982635 607.800659,302.527649 604.668640,301.001617 
	C601.171143,299.297516 598.196106,299.734161 596.037964,303.137115 
	C593.959717,306.414154 595.122559,309.020630 597.779053,311.459473 
	C607.721069,320.586975 629.846497,321.469818 641.085754,312.616974 
z"/>
<path fill="#080808" opacity="1.000000" stroke="none" 
	d="
M364.031555,276.261505 
	C363.183685,281.920197 362.382996,287.155640 361.582336,292.391113 
	C362.277557,292.921570 362.972778,293.452057 363.667999,293.982513 
	C364.754211,292.253632 365.762054,290.469208 366.940765,288.805878 
	C371.174438,282.831635 375.445435,276.883423 379.749756,270.959839 
	C380.824310,269.481079 381.991699,268.049194 383.263336,266.738220 
	C387.137756,262.743988 391.624756,259.673462 397.429932,261.392517 
	C403.073334,263.063690 404.269257,268.257904 405.032867,273.269562 
	C405.884644,278.859924 406.331177,284.510864 407.031036,290.125824 
	C408.371246,300.878876 414.984985,304.502350 423.534607,298.009460 
	C431.260162,292.142426 437.697144,284.576660 444.680267,277.737396 
	C445.267914,277.161865 445.583832,276.290527 446.205444,275.771545 
	C448.014130,274.261536 449.914001,272.860687 451.778076,271.417023 
	C452.089752,273.643066 452.401428,275.869110 452.768829,278.493286 
	C465.944458,275.051575 479.165283,274.892303 491.239471,285.348328 
	C492.571472,277.165161 493.852783,269.433105 495.085480,261.693298 
	C498.647980,239.325027 502.214539,216.957306 505.710114,194.578537 
	C506.119171,191.959656 506.519440,188.883881 509.812683,189.861450 
	C511.753937,190.437683 514.219421,193.147491 514.407593,195.095001 
	C515.601624,207.454071 519.366577,218.785675 526.092957,229.215683 
	C528.160034,232.420898 529.817444,235.900681 531.536926,239.317856 
	C538.789429,253.730453 536.179199,267.445984 528.094727,280.495850 
	C525.390808,284.860413 521.698669,288.612762 518.458252,292.644958 
	C518.052979,292.364075 517.647766,292.083221 517.242554,291.802338 
	C517.966003,290.533661 518.619141,289.218384 519.423645,288.003357 
	C530.200745,271.726929 531.256897,255.308548 520.456055,238.536392 
	C516.254822,232.012527 512.420471,225.252411 507.692383,217.391846 
	C506.319580,226.356522 505.170105,233.972076 503.984650,241.582016 
	C501.243073,259.181519 498.243286,276.745117 495.810822,294.387054 
	C493.983185,307.641968 486.539856,316.107391 474.746826,321.283905 
	C464.283356,325.876831 453.373688,327.037231 442.661316,322.880829 
	C435.223938,319.995178 428.988770,315.129272 428.422089,306.064911 
	C424.431946,307.999756 421.034149,310.141724 417.330841,311.338013 
	C410.103912,313.672485 404.105591,311.061707 401.671326,303.926331 
	C399.489349,297.530396 398.536835,290.713715 397.066864,284.077148 
	C396.743835,282.618591 396.797638,281.013916 396.200073,279.692657 
	C395.165222,277.404694 393.665833,273.419037 392.523560,273.474670 
	C389.944275,273.600342 386.687958,275.152557 385.088165,277.202332 
	C380.188690,283.479919 376.059052,290.351257 371.396271,296.823303 
	C368.485596,300.863373 365.351166,304.784424 361.956451,308.422272 
	C358.204712,312.442657 355.182526,311.705811 354.152954,306.214508 
	C353.214294,301.208069 353.439667,295.979279 353.216888,290.845673 
	C353.162933,289.603210 353.364807,288.349670 353.489563,286.501160 
	C348.856567,290.444061 344.952240,294.267731 340.542847,297.374664 
	C336.366211,300.317596 331.850647,302.968384 327.141541,304.921936 
	C320.246185,307.782379 314.529938,305.365936 311.614990,298.477356 
	C309.693237,293.935791 308.661041,289.017822 307.092407,283.809784 
	C306.468201,284.598419 305.687042,285.449280 305.058868,286.401123 
	C300.938934,292.643616 297.113617,299.100922 292.679810,305.110077 
	C288.367676,310.954285 282.812531,315.445312 275.544464,317.362946 
	C268.281494,319.279297 263.347870,317.096100 262.105927,309.713287 
	C261.114746,303.821411 262.053345,297.558258 262.493744,291.485901 
	C262.900391,285.878906 263.783600,280.306488 264.544403,273.993103 
	C254.058334,277.308044 244.617355,276.506042 235.336105,271.659882 
	C239.373566,290.432281 223.647568,314.968445 202.928650,316.817261 
	C193.042694,317.699432 185.296738,311.670044 185.048080,301.602997 
	C184.979019,298.807098 185.280960,295.912170 185.966019,293.202576 
	C189.619263,278.753021 197.263306,266.583832 208.450684,256.906830 
	C216.988831,249.521393 221.426666,250.440109 228.982422,258.755432 
	C234.618988,264.958618 242.752075,265.590240 250.400269,266.863251 
	C253.141418,267.319519 256.064575,266.980530 258.868988,266.676025 
	C261.762695,266.361755 264.730896,266.218170 265.455719,262.094513 
	C265.676056,260.841003 268.404236,259.178772 269.918732,259.242828 
	C271.414551,259.306091 273.729614,261.088837 274.089691,262.518951 
	C274.836700,265.485992 274.999390,268.787598 274.559113,271.829590 
	C273.416382,279.725342 271.681030,287.533844 270.455200,295.419617 
	C269.799133,299.640167 268.476807,304.931610 272.860657,307.334778 
	C277.199890,309.713593 281.053467,305.846039 284.221680,303.034454 
	C292.564819,295.630432 298.654755,286.556427 302.881226,276.242523 
	C305.523987,269.793335 307.930725,263.239044 310.831055,256.909546 
	C311.573883,255.288361 313.786957,254.340881 315.324554,253.083878 
	C315.837433,254.979446 316.820648,256.884583 316.782288,258.768921 
	C316.610779,267.200134 316.139435,275.625061 315.807617,284.053497 
	C315.781891,284.706696 315.953094,285.380096 316.108032,286.026062 
	C318.594330,296.391571 323.204437,298.842163 332.048431,292.951080 
	C339.871613,287.739990 346.764801,281.106537 353.883789,274.889496 
	C355.100403,273.826996 355.511902,271.743469 356.080841,270.059143 
	C357.248627,266.601929 357.922760,262.926178 359.501068,259.681335 
	C360.285248,258.069214 362.619415,257.210999 364.252380,256.011719 
	C365.172485,257.742798 367.007996,259.567902 366.841675,261.187408 
	C366.335693,266.113678 365.056763,270.960510 364.031555,276.261505 
M436.224945,302.821533 
	C435.176178,304.918488 432.770782,308.310577 433.318054,308.883850 
	C435.464966,311.132690 438.416809,313.623657 441.301544,313.945312 
	C447.148468,314.597290 453.328156,314.764069 459.043335,313.567474 
	C470.181854,311.235352 480.616974,306.962830 488.584930,298.189514 
	C491.140930,295.375122 491.331329,292.472015 488.090912,290.712982 
	C484.575073,288.804474 480.545105,286.987946 476.651581,286.780762 
	C461.144073,285.955688 447.560516,290.768951 436.224945,302.821533 
M227.899384,282.088562 
	C228.230423,270.456299 227.034027,268.416809 216.350952,263.757568 
	C215.229858,263.268616 212.835144,263.733765 212.098953,264.631622 
	C204.424042,273.992035 196.659103,283.383759 195.172714,296.073273 
	C194.169830,304.634979 198.865448,309.056335 207.066818,306.338501 
	C218.248428,302.633057 224.979752,294.359314 227.899384,282.088562 
z"/>
<path fill="#070707" opacity="1.000000" stroke="none" 
	d="
M698.692017,256.545898 
	C702.688049,255.549744 706.360962,254.176071 710.055237,254.115814 
	C717.661621,253.991745 722.077637,259.848694 720.761719,267.410858 
	C719.793640,272.974243 718.358948,278.531647 718.128296,284.132721 
	C717.618652,296.504486 725.381348,301.227783 736.256653,295.395691 
	C746.168152,290.080444 753.318970,281.676971 760.141663,273.030426 
	C761.026184,271.909454 760.630188,269.855865 761.115295,268.325562 
	C762.093628,265.239075 762.995850,262.069733 764.500244,259.237701 
	C765.098083,258.112183 767.784729,256.854553 768.513672,257.300995 
	C769.991150,258.205811 771.685913,260.229462 771.689941,261.795990 
	C771.703186,266.922791 771.213806,272.080780 770.519714,277.172577 
	C769.420593,285.237061 767.999634,293.257690 767.742004,301.798889 
	C768.841187,300.133606 770.032776,298.521271 771.023865,296.793945 
	C775.572144,288.866394 779.930115,280.825897 784.641235,272.997375 
	C786.592712,269.754547 788.888062,266.532867 791.672241,264.014954 
	C797.874817,258.405457 804.425964,260.457581 806.053284,268.670502 
	C807.275452,274.838593 807.313538,281.235870 808.002014,287.517670 
	C808.302063,290.255524 808.910828,292.959595 810.630798,295.960266 
	C811.740051,294.290527 812.972656,292.688660 813.936218,290.938690 
	C817.300476,284.828491 820.377930,278.551331 823.950134,272.567871 
	C826.152710,268.878418 828.714905,265.255920 831.776428,262.284027 
	C833.528137,260.583588 837.063965,258.956787 838.962891,259.634064 
	C841.165405,260.419586 843.491638,263.579010 843.938721,266.039612 
	C845.123779,272.562256 845.155396,279.284729 845.975281,285.886749 
	C846.559265,290.588776 846.343323,297.124939 851.474426,298.185852 
	C854.986694,298.912109 860.122559,295.606506 863.405884,292.789917 
	C869.443909,287.610229 874.657593,281.468414 880.200317,275.713623 
	C881.417419,274.449982 882.573547,273.127594 883.757812,271.832245 
	C884.305786,272.075958 884.853760,272.319641 885.401733,272.563354 
	C884.446960,275.493347 884.009766,278.739838 882.445862,281.297272 
	C876.395020,291.192413 868.761108,299.733887 859.131775,306.335144 
	C857.504761,307.450531 855.688416,308.366638 853.844177,309.074097 
	C847.739319,311.415833 842.910706,309.727844 841.196777,303.464691 
	C839.148010,295.977905 838.356873,288.146942 837.020630,280.465149 
	C836.550964,277.765045 836.079651,275.065186 835.609131,272.365234 
	C835.165833,272.243713 834.722595,272.122223 834.279358,272.000732 
	C832.548828,274.114166 830.521790,276.051422 829.142334,278.373413 
	C824.646118,285.942139 820.439026,293.682037 816.005981,301.289246 
	C814.505066,303.864960 812.907898,306.462891 810.923279,308.661163 
	C807.365662,312.601929 802.778992,311.622925 801.583496,306.439148 
	C800.509521,301.782593 800.490662,296.884155 799.985291,292.094696 
	C799.315735,285.750214 798.625671,279.407928 797.944458,273.064697 
	C797.248596,272.885193 796.552673,272.705688 795.856750,272.526184 
	C793.692932,274.849731 791.095093,276.902924 789.447571,279.548035 
	C784.708923,287.155945 780.323486,294.985352 775.864502,302.765167 
	C774.130249,305.791077 772.683044,308.984131 770.898193,311.977722 
	C769.261475,314.722961 768.242371,318.615448 763.872803,317.889618 
	C759.228760,317.118195 758.409607,312.884583 758.322327,309.437469 
	C758.150513,302.647308 758.929260,295.833282 759.310791,289.028870 
	C759.370117,287.971527 759.407898,286.912994 759.438354,286.237701 
	C755.460388,289.848114 751.583679,293.643005 747.409729,297.076477 
	C743.319946,300.440704 739.250183,304.058868 734.603333,306.470459 
	C723.595642,312.183105 715.855591,309.074585 709.775818,296.937012 
	C706.709839,300.280731 704.112122,303.988190 700.695190,306.640137 
	C695.253296,310.863770 689.546326,314.940521 683.421875,318.029419 
	C678.359680,320.582520 674.547058,318.936523 672.634949,313.596893 
	C671.006165,309.048615 669.591309,303.692963 670.425720,299.122406 
	C673.694702,281.216736 682.426392,266.501251 698.692017,256.545898 
M687.803650,306.491852 
	C702.772827,299.113525 710.175964,286.813141 710.949097,270.399963 
	C711.309631,262.746368 708.228577,260.939606 701.219238,264.305023 
	C700.329468,264.732208 699.464905,265.264771 698.695862,265.882111 
	C687.698547,274.709930 681.622131,286.483887 679.177368,300.076294 
	C677.923950,307.045227 680.482727,308.843597 687.803650,306.491852 
z"/>
<path fill="#060606" opacity="1.000000" stroke="none" 
	d="
M156.872650,275.051453 
	C159.162567,276.140289 161.149841,277.012512 163.003647,278.110138 
	C174.661377,285.012848 176.383423,295.434814 167.183807,305.467682 
	C155.543106,318.162811 140.517532,323.902466 123.678696,324.817749 
	C119.774780,325.029968 115.547943,323.271057 111.863205,321.567780 
	C110.414848,320.898254 109.271622,317.865417 109.345490,315.961395 
	C109.498085,312.028534 111.244469,310.268219 115.894012,311.902618 
	C129.896133,316.824554 150.268219,310.854248 160.086243,299.453125 
	C164.462234,294.371521 164.124390,291.030518 158.337509,287.859253 
	C154.733994,285.884491 150.730072,284.621063 146.862915,283.151276 
	C141.126770,280.971100 135.166870,279.284546 129.638290,276.675690 
	C121.424660,272.799774 114.866379,267.150452 112.599670,257.698761 
	C111.036736,251.181717 112.097733,245.265778 116.925552,240.652115 
	C130.908310,227.289673 147.403488,222.088348 166.408661,226.883804 
	C174.738556,228.985626 177.938766,235.359299 174.788422,242.820786 
	C173.982056,244.730621 171.785477,246.053482 169.632904,248.253937 
	C167.777725,237.293137 165.022415,235.063644 155.089828,234.996048 
	C145.512589,234.930862 136.600586,237.122864 128.740570,242.740082 
	C120.204956,248.840088 119.309723,255.867813 127.620041,262.199554 
	C133.382324,266.589905 140.812927,268.828644 147.580719,271.843262 
	C150.447449,273.120209 153.526016,273.921539 156.872650,275.051453 
z"/>
<path fill="#050505" opacity="1.000000" stroke="none" 
	d="
M640.814636,312.849915 
	C629.846497,321.469818 607.721069,320.586975 597.779053,311.459473 
	C595.122559,309.020630 593.959717,306.414154 596.037964,303.137115 
	C598.196106,299.734161 601.171143,299.297516 604.668640,301.001617 
	C607.800659,302.527649 610.967285,303.982635 614.117920,305.470581 
	C625.442444,310.818787 635.515076,307.274872 641.025818,295.912109 
	C645.401123,286.890472 646.749634,277.138031 646.818176,267.314697 
	C646.905212,254.849274 646.226562,242.379379 645.967529,229.909561 
	C645.934570,228.323715 645.884094,226.089447 646.818176,225.273651 
	C648.517090,223.789902 651.261353,222.005997 652.985901,222.478165 
	C654.644104,222.932175 656.350098,225.960342 656.681580,228.070084 
	C659.012024,242.904480 659.520325,257.797333 658.246216,272.821899 
	C657.385559,282.971100 654.808594,292.465454 649.869812,301.220428 
	C647.537354,305.355255 644.049927,308.838531 640.814636,312.849915 
z"/>
<path fill="#FAFAFA" opacity="1.000000" stroke="none" 
	d="
M436.465820,302.548523 
	C447.560516,290.768951 461.144073,285.955688 476.651581,286.780762 
	C480.545105,286.987946 484.575073,288.804474 488.090912,290.712982 
	C491.331329,292.472015 491.140930,295.375122 488.584930,298.189514 
	C480.616974,306.962830 470.181854,311.235352 459.043335,313.567474 
	C453.328156,314.764069 447.148468,314.597290 441.301544,313.945312 
	C438.416809,313.623657 435.464966,311.132690 433.318054,308.883850 
	C432.770782,308.310577 435.176178,304.918488 436.465820,302.548523 
z"/>
<path fill="#FBFBFB" opacity="1.000000" stroke="none" 
	d="
M227.862122,282.515533 
	C224.979752,294.359314 218.248428,302.633057 207.066818,306.338501 
	C198.865448,309.056335 194.169830,304.634979 195.172714,296.073273 
	C196.659103,283.383759 204.424042,273.992035 212.098953,264.631622 
	C212.835144,263.733765 215.229858,263.268616 216.350952,263.757568 
	C227.034027,268.416809 228.230423,270.456299 227.862122,282.515533 
z"/>
<path fill="#FBFBFB" opacity="1.000000" stroke="none" 
	d="
M687.457520,306.664429 
	C680.482727,308.843597 677.923950,307.045227 679.177368,300.076294 
	C681.622131,286.483887 687.698547,274.709930 698.695862,265.882111 
	C699.464905,265.264771 700.329468,264.732208 701.219238,264.305023 
	C708.228577,260.939606 711.309631,262.746368 710.949097,270.399963 
	C710.175964,286.813141 702.772827,299.113525 687.457520,306.664429 
z"/>
</svg>