<svg version="1.1" id="Layer_1" xmlns="http://www.w3.org/2000/svg" xmlns:xlink="http://www.w3.org/1999/xlink" x="0px" y="0px"
	 width="100%" viewBox="0 0 1024 500" enable-background="new 0 0 1024 500" xml:space="preserve">
<path fill="#FFFFFF" opacity="1.000000" stroke="none" 
	d="
M633.000000,501.000000 
	C422.034515,501.000000 211.569000,501.000000 1.051755,501.000000 
	C1.051755,334.395172 1.051755,167.790314 1.051755,1.092734 
	C342.215546,1.092734 683.431152,1.092734 1024.823364,1.092734 
	C1024.823364,167.666519 1024.823364,334.333252 1024.823364,501.000000 
	C894.456848,501.000000 763.978455,501.000000 633.000000,501.000000 
M943.244446,229.141891 
	C941.337952,194.953995 939.431458,160.766098 937.509827,126.305527 
	C793.060608,134.688431 649.215881,143.036255 504.500610,151.196121 
	C501.213013,150.694016 497.910797,150.272141 494.640045,149.677353 
	C464.198395,144.141525 433.770966,138.526688 403.322174,133.030441 
	C356.512115,124.580864 309.681763,116.243324 262.872223,107.790779 
	C212.953888,98.776855 163.052734,89.667717 113.133759,80.657387 
	C108.998726,79.911026 103.297424,77.746292 101.003967,79.584480 
	C98.443459,81.636703 98.891045,87.498306 98.120567,91.718590 
	C92.982094,119.864616 87.867996,148.015106 81.955956,176.183197 
	C67.407585,177.165573 52.859219,178.147964 37.930546,179.156021 
	C42.384201,255.075470 46.805347,330.440796 51.221912,405.727966 
	C57.522617,405.727966 63.329067,406.011627 69.100304,405.680847 
	C100.672798,403.871094 132.234741,401.878296 163.804169,400.013611 
	C183.247467,398.865204 202.700684,397.884949 222.144028,396.737274 
	C253.879608,394.864075 285.608887,392.884338 317.344452,391.010803 
	C336.954224,389.853119 356.573578,388.858734 376.183411,387.702179 
	C407.752289,385.840271 439.318207,383.927246 470.882629,381.991302 
	C486.663757,381.023376 502.438812,379.956970 519.048218,379.013550 
	C520.540833,379.134857 522.055481,379.132935 523.522827,379.395416 
	C564.143738,386.661743 604.771362,393.891052 645.373596,401.260620 
	C691.857910,409.697815 738.309570,418.314514 784.792847,426.757477 
	C823.593933,433.805145 862.417480,440.729431 901.238342,447.667969 
	C906.361084,448.583557 911.526550,449.260040 916.835876,450.072296 
	C919.379944,436.368744 921.759338,423.634308 924.105896,410.893768 
	C927.540649,392.245087 930.951721,373.592010 935.193970,354.932220 
	C940.280945,354.515198 945.367920,354.098175 950.775757,353.654877 
	C949.434937,330.922913 948.115723,308.556396 946.891174,285.323425 
	C949.929688,267.789154 952.968262,250.254913 955.924255,233.197113 
	C950.904602,231.966415 947.096191,231.032669 943.244446,229.141891 
z"/>
<path fill="#743DFF" opacity="1.000000" stroke="none" 
	d="
M82.745979,176.164139 
	C87.867996,148.015106 92.982094,119.864616 98.120567,91.718590 
	C98.891045,87.498306 98.443459,81.636703 101.003967,79.584480 
	C103.297424,77.746292 108.998726,79.911026 113.133759,80.657387 
	C163.052734,89.667717 212.953888,98.776855 262.872223,107.790779 
	C309.681763,116.243324 356.512115,124.580864 403.322174,133.030441 
	C433.770966,138.526688 464.198395,144.141525 494.640045,149.677353 
	C497.910797,150.272141 501.213013,150.694016 505.214142,151.479156 
	C526.011475,155.360825 546.104553,158.909180 566.175110,162.580170 
	C575.613464,164.306488 585.008728,166.268768 593.914124,168.163971 
	C590.239502,168.237930 587.074280,168.301727 583.909058,168.301819 
	C422.963470,168.306671 262.017883,168.306091 101.072319,168.306107 
	C98.960632,168.306107 96.848938,168.306107 94.200821,168.306107 
	C94.200821,170.762314 94.200829,172.546463 94.200813,174.330612 
	C94.200462,206.819626 94.217499,239.308670 94.189377,271.797668 
	C94.180725,281.789276 94.048691,291.780762 93.583023,301.746094 
	C84.553940,300.137573 75.951096,298.298126 67.261284,297.078003 
	C62.689285,296.436035 61.273918,294.305511 62.048885,290.141266 
	C65.536263,271.401947 69.123421,252.680893 72.529129,233.926834 
	C76.022766,214.688583 79.347389,195.419647 82.745979,176.164139 
z"/>
<path fill="#753DFF" opacity="1.000000" stroke="none" 
	d="
M934.372925,354.940796 
	C930.951721,373.592010 927.540649,392.245087 924.105896,410.893768 
	C921.759338,423.634308 919.379944,436.368744 916.835876,450.072296 
	C911.526550,449.260040 906.361084,448.583557 901.238342,447.667969 
	C862.417480,440.729431 823.593933,433.805145 784.792847,426.757477 
	C738.309570,418.314514 691.857910,409.697815 645.373596,401.260620 
	C604.771362,393.891052 564.143738,386.661743 523.522827,379.395416 
	C522.055481,379.132935 520.540833,379.134857 518.327454,378.718109 
	C506.783417,376.332275 495.960144,374.241852 485.590820,372.113708 
	C488.709534,372.041016 491.374298,371.975555 494.039062,371.975433 
	C626.482910,371.970245 758.926697,371.970612 891.370544,371.970367 
	C893.326416,371.970367 895.282288,371.970367 897.809631,371.970367 
	C897.809631,369.707001 897.809631,367.924652 897.809631,366.142334 
	C897.809631,334.655701 897.789307,303.169006 897.818054,271.682404 
	C897.832947,255.359848 897.934692,239.037369 898.423706,222.749847 
	C902.264404,223.368607 905.675110,223.973190 909.093323,224.532349 
	C920.489990,226.396667 931.889404,228.244675 943.287720,230.098923 
	C947.096191,231.032669 950.904602,231.966415 955.924255,233.197113 
	C952.968262,250.254913 949.929688,267.789154 946.627930,286.039001 
	C944.691895,296.005981 942.979309,305.250397 941.356018,314.510437 
	C938.994568,327.981323 936.697388,341.463470 934.372925,354.940796 
z"/>
<path fill="#4DD5FF" opacity="1.000000" stroke="none" 
	d="
M485.136871,372.151428 
	C495.960144,374.241852 506.783417,376.332275 517.911621,378.678894 
	C502.438812,379.956970 486.663757,381.023376 470.882629,381.991302 
	C439.318207,383.927246 407.752289,385.840271 376.183411,387.702179 
	C356.573578,388.858734 336.954224,389.853119 317.344452,391.010803 
	C285.608887,392.884338 253.879608,394.864075 222.144028,396.737274 
	C202.700684,397.884949 183.247467,398.865204 163.804169,400.013611 
	C132.234741,401.878296 100.672798,403.871094 69.100304,405.680847 
	C63.329067,406.011627 57.522617,405.727966 51.221912,405.727966 
	C46.805347,330.440796 42.384201,255.075470 37.930546,179.156021 
	C52.859219,178.147964 67.407585,177.165573 82.350967,176.173676 
	C79.347389,195.419647 76.022766,214.688583 72.529129,233.926834 
	C69.123421,252.680893 65.536263,271.401947 62.048885,290.141266 
	C61.273918,294.305511 62.689285,296.436035 67.261284,297.078003 
	C75.951096,298.298126 84.553940,300.137573 93.654266,302.231750 
	C94.115646,325.677917 94.115646,348.612183 94.115646,371.976929 
	C96.798759,371.976929 98.764778,371.976959 100.730797,371.976929 
	C225.703415,371.976562 350.676025,371.974854 475.648651,371.983154 
	C478.811401,371.983368 481.974121,372.092896 485.136871,372.151428 
z"/>
<path fill="#4DD5FF" opacity="1.000000" stroke="none" 
	d="
M943.266113,229.620407 
	C931.889404,228.244675 920.489990,226.396667 909.093323,224.532349 
	C905.675110,223.973190 902.264404,223.368607 898.363770,222.311493 
	C897.867126,206.025970 897.608643,190.207840 897.986145,174.404922 
	C898.112122,169.132385 896.425049,168.122574 891.523438,168.130585 
	C804.472778,168.273163 717.421814,168.238220 630.370911,168.229202 
	C618.388428,168.227951 606.406006,168.160782 594.423523,168.124115 
	C585.008728,166.268768 575.613464,164.306488 566.175110,162.580170 
	C546.104553,158.909180 526.011475,155.360825 505.649414,151.573135 
	C649.215881,143.036255 793.060608,134.688431 937.509827,126.305527 
	C939.431458,160.766098 941.337952,194.953995 943.266113,229.620407 
z"/>
<path fill="#50D2FF" opacity="1.000000" stroke="none" 
	d="
M934.783447,354.936523 
	C936.697388,341.463470 938.994568,327.981323 941.356018,314.510437 
	C942.979309,305.250397 944.691895,296.005981 946.580566,286.472229 
	C948.115723,308.556396 949.434937,330.922913 950.775757,353.654877 
	C945.367920,354.098175 940.280945,354.515198 934.783447,354.936523 
z"/>
<path fill="#FEFEFE" opacity="1.000000" stroke="none" 
	d="
M593.914124,168.163986 
	C606.406006,168.160782 618.388428,168.227951 630.370911,168.229202 
	C717.421814,168.238220 804.472778,168.273163 891.523438,168.130585 
	C896.425049,168.122574 898.112122,169.132385 897.986145,174.404922 
	C897.608643,190.207840 897.867126,206.025970 897.937256,222.276489 
	C897.934692,239.037369 897.832947,255.359848 897.818054,271.682404 
	C897.789307,303.169006 897.809631,334.655701 897.809631,366.142334 
	C897.809631,367.924652 897.809631,369.707001 897.809631,371.970367 
	C895.282288,371.970367 893.326416,371.970367 891.370544,371.970367 
	C758.926697,371.970612 626.482910,371.970245 494.039062,371.975433 
	C491.374298,371.975555 488.709534,372.041016 485.590820,372.113708 
	C481.974121,372.092896 478.811401,371.983368 475.648651,371.983154 
	C350.676025,371.974854 225.703415,371.976562 100.730797,371.976929 
	C98.764778,371.976959 96.798759,371.976929 94.115646,371.976929 
	C94.115646,348.612183 94.115646,325.677917 94.044403,302.257996 
	C94.048691,291.780762 94.180725,281.789276 94.189377,271.797668 
	C94.217499,239.308670 94.200462,206.819626 94.200813,174.330612 
	C94.200829,172.546463 94.200821,170.762314 94.200821,168.306107 
	C96.848938,168.306107 98.960632,168.306107 101.072319,168.306107 
	C262.017883,168.306091 422.963470,168.306671 583.909058,168.301819 
	C587.074280,168.301727 590.239502,168.237930 593.914124,168.163986 
M168.904373,216.503433 
	C158.178406,217.361343 147.284256,217.328857 136.771378,219.314789 
	C125.061096,221.526871 117.379173,229.365891 115.110458,241.355881 
	C114.070717,246.850845 113.714233,252.594986 113.946899,258.188751 
	C114.695351,276.183014 124.453087,287.180115 142.315582,289.994202 
	C152.616486,291.617004 163.046417,292.420807 173.734558,293.628998 
	C173.734558,300.634033 173.734558,307.535950 173.734558,314.845276 
	C164.149048,314.418701 154.768051,314.001221 145.100311,313.570984 
	C144.727554,309.297150 144.385605,305.376709 144.029984,301.299225 
	C133.925201,300.844818 124.034035,300.399994 113.928940,299.945557 
	C113.219040,314.577362 117.636040,326.096039 130.360641,333.263947 
	C145.208786,341.628021 161.066910,342.037689 177.219849,338.193054 
	C189.168289,335.349152 198.212921,328.317078 202.037598,316.627319 
	C204.298706,309.716461 204.708694,302.012756 204.863968,294.642700 
	C205.114670,282.742432 199.884872,272.954681 189.308197,267.574066 
	C182.058655,263.886017 173.815704,261.704071 165.765228,260.165253 
	C158.025528,258.685852 149.962112,258.900116 142.045746,258.370483 
	C142.045746,252.165436 142.045746,246.073853 142.045746,239.939484 
	C151.617661,239.939484 160.843307,239.939484 170.255417,239.939484 
	C170.255417,244.471512 170.255417,248.243973 170.255417,252.591736 
	C180.106796,252.591736 189.810638,252.591736 199.852905,252.591736 
	C200.124847,245.685791 199.609329,238.999557 196.330505,232.761673 
	C190.711441,222.071625 180.865250,218.333878 168.904373,216.503433 
M860.507812,328.838318 
	C864.912292,328.838318 869.316711,328.838318 873.003235,328.838318 
	C873.003235,308.739990 873.380554,289.255646 872.879272,269.793884 
	C872.504150,255.226044 862.978455,246.673141 848.416870,246.486923 
	C837.510315,246.347458 828.914246,250.558228 823.239624,260.786713 
	C818.818359,250.824463 811.799011,245.907501 801.399231,246.520737 
	C791.663574,247.094788 784.718689,252.583755 778.446655,260.980713 
	C778.223511,257.219238 778.079590,254.794174 777.933899,252.338898 
	C770.863159,252.338898 763.982605,252.338898 757.303894,252.338898 
	C757.303894,278.250305 757.303894,303.817322 757.303894,329.577484 
	C765.576538,329.129059 773.782959,328.684265 782.712769,328.200226 
	C782.712769,310.254852 782.712769,292.866211 782.712769,275.277283 
	C789.336487,274.938782 795.207581,274.638733 801.658936,274.309021 
	C801.658936,292.072540 801.658936,309.339203 801.658936,327.141418 
	C810.953918,327.141418 819.697998,327.141418 828.943054,327.141418 
	C828.943054,309.028442 828.943054,290.617218 828.943054,272.184082 
	C835.163452,272.184082 840.886902,272.184082 847.616089,272.184082 
	C847.616089,291.071289 847.616089,309.617065 847.616089,328.283417 
	C852.250610,328.499207 855.886230,328.668488 860.507812,328.838318 
M623.439026,337.001099 
	C639.132812,336.487732 650.815979,329.893097 655.399170,314.250336 
	C657.283081,307.820374 657.763611,300.842926 657.973145,294.086273 
	C658.453003,278.617218 658.413818,263.131012 658.506836,247.651321 
	C658.575562,236.218384 658.520325,224.784714 658.520325,212.673386 
	C649.070618,212.673386 639.557251,212.673386 630.131348,212.673386 
	C630.131348,245.723557 630.131348,278.778534 630.131348,311.900085 
	C625.992493,311.900085 622.415344,311.900085 618.359253,311.900085 
	C618.359253,302.899963 618.359253,294.149994 618.359253,285.569000 
	C609.954712,285.569000 602.036682,285.569000 593.483032,285.569000 
	C593.483032,289.083374 593.337708,292.221161 593.515076,295.340546 
	C593.826355,300.812561 593.976624,306.329865 594.827454,311.728424 
	C597.609314,329.378510 605.008667,335.997101 623.439026,337.001099 
M702.263489,266.332489 
	C708.190857,267.468689 714.118164,268.604858 719.897095,269.712585 
	C719.897095,274.390625 719.897095,277.956207 719.897095,280.765442 
	C707.840942,283.195862 696.314270,285.535065 684.780334,287.838074 
	C679.015991,288.989075 674.891602,292.546356 673.390381,297.890198 
	C671.577148,304.344666 670.063843,311.148315 670.092773,317.793579 
	C670.136658,327.882446 678.196167,334.568726 688.369263,335.066742 
	C699.346191,335.604065 708.926331,332.251984 717.744751,325.390900 
	C719.020996,328.422638 720.158752,331.125244 721.112976,333.392029 
	C729.163391,332.569702 736.826111,331.786987 743.615662,331.093445 
	C743.136841,317.364044 742.606995,303.313446 742.177002,289.259827 
	C742.014221,283.939514 742.450684,278.578430 741.967102,273.295166 
	C740.980103,262.513336 735.919312,254.315857 725.284119,250.672028 
	C712.607483,246.328796 699.993835,246.953262 688.037231,253.072510 
	C678.720581,257.840637 673.024414,265.311584 673.258850,276.606689 
	C681.532654,276.606689 689.564819,276.606689 698.040344,276.606689 
	C698.040344,274.138824 697.677917,271.595795 698.191528,269.244019 
	C698.452576,268.048615 700.290710,267.197632 702.263489,266.332489 
M218.978973,315.436157 
	C219.299866,316.202271 219.610062,316.973053 219.943253,317.733765 
	C225.566620,330.572784 234.597061,339.206940 249.191986,339.924774 
	C265.242035,340.714264 276.946106,333.582947 284.317108,319.241455 
	C291.688354,304.899445 288.523621,277.315186 275.965240,263.948792 
	C260.923981,247.939774 234.878799,249.576477 222.934479,268.070496 
	C213.482773,282.705048 214.203445,298.614380 218.978973,315.436157 
M329.410583,336.994568 
	C336.047821,333.544525 342.685059,330.094452 349.048706,326.786621 
	C349.110168,327.047943 349.446991,328.480072 349.886932,330.350586 
	C356.220947,330.350586 362.451050,330.350586 368.849792,330.350586 
	C368.849792,305.179596 368.849792,280.079620 368.849792,254.486816 
	C360.534973,254.486816 352.352081,254.486816 344.104980,254.486816 
	C344.104980,274.281006 344.104980,293.812286 344.104980,313.581116 
	C336.946808,313.581116 330.508331,313.581116 324.228699,313.581116 
	C324.228699,294.524109 324.228699,275.686401 324.228699,256.410309 
	C315.914825,256.410309 307.498779,256.410309 298.813477,256.410309 
	C298.813477,257.264282 298.804504,258.222992 298.814789,259.181519 
	C298.972137,273.818634 299.115936,288.455933 299.302917,303.092682 
	C299.347504,306.585815 299.370239,310.092560 299.689911,313.566650 
	C301.291626,330.974854 311.309937,339.081787 329.410583,336.994568 
M397.018921,257.487000 
	C393.115204,257.278778 389.211456,257.070557 385.272644,256.860474 
	C385.272644,282.278717 385.272644,307.171753 385.272644,332.509491 
	C392.710083,332.174500 400.261414,331.834351 408.444519,331.465759 
	C408.444519,313.802429 408.444519,296.553894 408.444519,278.840546 
	C414.755402,278.339966 420.455872,277.887787 427.245941,277.349182 
	C427.245941,296.661255 427.245941,315.361084 427.245941,334.605591 
	C435.900177,334.605591 443.930359,334.605591 451.993591,334.605591 
	C451.993591,327.883789 451.894012,321.240295 452.014343,314.600739 
	C452.264648,300.788910 453.029022,286.973816 452.843903,273.169983 
	C452.638855,257.881683 444.714966,250.404892 430.926880,252.192429 
	C426.445099,252.773468 421.934937,254.645889 417.905548,256.801910 
	C413.443695,259.189362 409.517700,262.578339 405.244385,265.612061 
	C404.705139,263.067017 404.174164,260.560852 403.650970,258.091583 
	C401.544617,257.883362 399.734528,257.704437 397.018921,257.487000 
M526.691101,247.784775 
	C526.691101,260.999084 526.691101,274.213379 526.691101,287.907013 
	C521.990845,285.894714 518.801636,283.919891 515.344238,283.150635 
	C496.533478,278.965332 480.881134,284.806702 468.331207,299.073608 
	C462.356934,305.865143 459.573975,314.031097 463.215851,322.686127 
	C466.929779,331.512543 474.930603,334.979431 484.040649,335.932037 
	C496.016541,337.184326 506.808136,333.722137 516.534424,326.965759 
	C526.589111,319.981262 531.947449,310.617767 531.956848,297.899231 
	C531.976318,271.576782 532.640930,245.254822 533.035522,218.932602 
	C533.058777,217.377808 533.038513,215.822372 533.038513,212.977615 
	C540.178040,221.770050 546.645691,229.301544 552.621643,237.204788 
	C560.026550,246.997849 563.903931,257.978455 561.179260,270.391235 
	C559.727051,277.007385 557.618164,283.479370 555.518555,291.052185 
	C557.433228,288.621613 558.915344,286.971344 560.140381,285.148315 
	C569.412292,271.350220 574.020386,250.355118 562.132812,233.608536 
	C557.908752,227.657959 553.377563,221.926285 549.042358,216.053482 
	C542.808472,207.608459 539.469055,197.909546 536.857361,187.880280 
	C536.081726,184.901703 534.329712,182.834763 530.786072,183.285172 
	C527.287781,183.729782 527.410400,186.259109 527.383301,188.863449 
	C527.182312,208.190033 526.933167,227.516113 526.691101,247.784775 
z"/>
<path fill="#030303" opacity="1.000000" stroke="none" 
	d="
M169.343994,216.567535 
	C180.865250,218.333878 190.711441,222.071625 196.330505,232.761673 
	C199.609329,238.999557 200.124847,245.685791 199.852905,252.591736 
	C189.810638,252.591736 180.106796,252.591736 170.255417,252.591736 
	C170.255417,248.243973 170.255417,244.471512 170.255417,239.939484 
	C160.843307,239.939484 151.617661,239.939484 142.045746,239.939484 
	C142.045746,246.073853 142.045746,252.165436 142.045746,258.370483 
	C149.962112,258.900116 158.025528,258.685852 165.765228,260.165253 
	C173.815704,261.704071 182.058655,263.886017 189.308197,267.574066 
	C199.884872,272.954681 205.114670,282.742432 204.863968,294.642700 
	C204.708694,302.012756 204.298706,309.716461 202.037598,316.627319 
	C198.212921,328.317078 189.168289,335.349152 177.219849,338.193054 
	C161.066910,342.037689 145.208786,341.628021 130.360641,333.263947 
	C117.636040,326.096039 113.219040,314.577362 113.928940,299.945557 
	C124.034035,300.399994 133.925201,300.844818 144.029984,301.299225 
	C144.385605,305.376709 144.727554,309.297150 145.100311,313.570984 
	C154.768051,314.001221 164.149048,314.418701 173.734558,314.845276 
	C173.734558,307.535950 173.734558,300.634033 173.734558,293.628998 
	C163.046417,292.420807 152.616486,291.617004 142.315582,289.994202 
	C124.453087,287.180115 114.695351,276.183014 113.946899,258.188751 
	C113.714233,252.594986 114.070717,246.850845 115.110458,241.355881 
	C117.379173,229.365891 125.061096,221.526871 136.771378,219.314789 
	C147.284256,217.328857 158.178406,217.361343 169.343994,216.567535 
z"/>
<path fill="#040404" opacity="1.000000" stroke="none" 
	d="
M860.014832,328.838043 
	C855.886230,328.668488 852.250610,328.499207 847.616089,328.283417 
	C847.616089,309.617065 847.616089,291.071289 847.616089,272.184082 
	C840.886902,272.184082 835.163452,272.184082 828.943054,272.184082 
	C828.943054,290.617218 828.943054,309.028442 828.943054,327.141418 
	C819.697998,327.141418 810.953918,327.141418 801.658936,327.141418 
	C801.658936,309.339203 801.658936,292.072540 801.658936,274.309021 
	C795.207581,274.638733 789.336487,274.938782 782.712769,275.277283 
	C782.712769,292.866211 782.712769,310.254852 782.712769,328.200226 
	C773.782959,328.684265 765.576538,329.129059 757.303894,329.577484 
	C757.303894,303.817322 757.303894,278.250305 757.303894,252.338898 
	C763.982605,252.338898 770.863159,252.338898 777.933899,252.338898 
	C778.079590,254.794174 778.223511,257.219238 778.446655,260.980713 
	C784.718689,252.583755 791.663574,247.094788 801.399231,246.520737 
	C811.799011,245.907501 818.818359,250.824463 823.239624,260.786713 
	C828.914246,250.558228 837.510315,246.347458 848.416870,246.486923 
	C862.978455,246.673141 872.504150,255.226044 872.879272,269.793884 
	C873.380554,289.255646 873.003235,308.739990 873.003235,328.838318 
	C869.316711,328.838318 864.912292,328.838318 860.014832,328.838043 
z"/>
<path fill="#040404" opacity="1.000000" stroke="none" 
	d="
M622.976074,337.001465 
	C605.008667,335.997101 597.609314,329.378510 594.827454,311.728424 
	C593.976624,306.329865 593.826355,300.812561 593.515076,295.340546 
	C593.337708,292.221161 593.483032,289.083374 593.483032,285.569000 
	C602.036682,285.569000 609.954712,285.569000 618.359253,285.569000 
	C618.359253,294.149994 618.359253,302.899963 618.359253,311.900085 
	C622.415344,311.900085 625.992493,311.900085 630.131348,311.900085 
	C630.131348,278.778534 630.131348,245.723557 630.131348,212.673386 
	C639.557251,212.673386 649.070618,212.673386 658.520325,212.673386 
	C658.520325,224.784714 658.575562,236.218384 658.506836,247.651321 
	C658.413818,263.131012 658.453003,278.617218 657.973145,294.086273 
	C657.763611,300.842926 657.283081,307.820374 655.399170,314.250336 
	C650.815979,329.893097 639.132812,336.487732 622.976074,337.001465 
z"/>
<path fill="#040404" opacity="1.000000" stroke="none" 
	d="
M701.839722,266.261719 
	C700.290710,267.197632 698.452576,268.048615 698.191528,269.244019 
	C697.677917,271.595795 698.040344,274.138824 698.040344,276.606689 
	C689.564819,276.606689 681.532654,276.606689 673.258850,276.606689 
	C673.024414,265.311584 678.720581,257.840637 688.037231,253.072510 
	C699.993835,246.953262 712.607483,246.328796 725.284119,250.672028 
	C735.919312,254.315857 740.980103,262.513336 741.967102,273.295166 
	C742.450684,278.578430 742.014221,283.939514 742.177002,289.259827 
	C742.606995,303.313446 743.136841,317.364044 743.615662,331.093445 
	C736.826111,331.786987 729.163391,332.569702 721.112976,333.392029 
	C720.158752,331.125244 719.020996,328.422638 717.744751,325.390900 
	C708.926331,332.251984 699.346191,335.604065 688.369263,335.066742 
	C678.196167,334.568726 670.136658,327.882446 670.092773,317.793579 
	C670.063843,311.148315 671.577148,304.344666 673.390381,297.890198 
	C674.891602,292.546356 679.015991,288.989075 684.780334,287.838074 
	C696.314270,285.535065 707.840942,283.195862 719.897095,280.765442 
	C719.897095,277.956207 719.897095,274.390625 719.897095,269.712585 
	C714.118164,268.604858 708.190857,267.468689 701.839722,266.261719 
M714.840210,299.764282 
	C714.130310,299.158783 713.388062,298.004852 712.716309,298.044556 
	C710.078369,298.200378 707.437195,298.609344 704.843262,299.146637 
	C695.631042,301.054993 695.639648,301.089630 695.682800,310.484802 
	C695.690979,312.256927 695.683899,314.029114 695.683899,316.289124 
	C702.048340,315.658752 707.899719,315.079163 713.985291,314.476379 
	C714.288635,309.605988 714.566467,305.144897 714.840210,299.764282 
z"/>
<path fill="#030303" opacity="1.000000" stroke="none" 
	d="
M218.841721,315.066284 
	C214.203445,298.614380 213.482773,282.705048 222.934479,268.070496 
	C234.878799,249.576477 260.923981,247.939774 275.965240,263.948792 
	C288.523621,277.315186 291.688354,304.899445 284.317108,319.241455 
	C276.946106,333.582947 265.242035,340.714264 249.191986,339.924774 
	C234.597061,339.206940 225.566620,330.572784 219.943253,317.733765 
	C219.610062,316.973053 219.299866,316.202271 218.841721,315.066284 
M252.795639,315.987854 
	C255.741760,315.987854 258.687897,315.987854 262.165710,315.987854 
	C261.285095,301.974548 260.419037,288.193298 259.539276,274.193878 
	C253.381561,274.989838 247.852661,275.704498 242.248383,276.428894 
	C241.052216,288.690186 239.894638,300.555878 238.671021,313.098480 
	C243.250366,314.070801 247.566940,314.987335 252.795639,315.987854 
z"/>
<path fill="#040404" opacity="1.000000" stroke="none" 
	d="
M329.001373,337.031128 
	C311.309937,339.081787 301.291626,330.974854 299.689911,313.566650 
	C299.370239,310.092560 299.347504,306.585815 299.302917,303.092682 
	C299.115936,288.455933 298.972137,273.818634 298.814789,259.181519 
	C298.804504,258.222992 298.813477,257.264282 298.813477,256.410309 
	C307.498779,256.410309 315.914825,256.410309 324.228699,256.410309 
	C324.228699,275.686401 324.228699,294.524109 324.228699,313.581116 
	C330.508331,313.581116 336.946808,313.581116 344.104980,313.581116 
	C344.104980,293.812286 344.104980,274.281006 344.104980,254.486816 
	C352.352081,254.486816 360.534973,254.486816 368.849792,254.486816 
	C368.849792,280.079620 368.849792,305.179596 368.849792,330.350586 
	C362.451050,330.350586 356.220947,330.350586 349.886932,330.350586 
	C349.446991,328.480072 349.110168,327.047943 349.048706,326.786621 
	C342.685059,330.094452 336.047821,333.544525 329.001373,337.031128 
z"/>
<path fill="#040404" opacity="1.000000" stroke="none" 
	d="
M397.471680,257.506256 
	C399.734528,257.704437 401.544617,257.883362 403.650970,258.091583 
	C404.174164,260.560852 404.705139,263.067017 405.244385,265.612061 
	C409.517700,262.578339 413.443695,259.189362 417.905548,256.801910 
	C421.934937,254.645889 426.445099,252.773468 430.926880,252.192429 
	C444.714966,250.404892 452.638855,257.881683 452.843903,273.169983 
	C453.029022,286.973816 452.264648,300.788910 452.014343,314.600739 
	C451.894012,321.240295 451.993591,327.883789 451.993591,334.605591 
	C443.930359,334.605591 435.900177,334.605591 427.245941,334.605591 
	C427.245941,315.361084 427.245941,296.661255 427.245941,277.349182 
	C420.455872,277.887787 414.755402,278.339966 408.444519,278.840546 
	C408.444519,296.553894 408.444519,313.802429 408.444519,331.465759 
	C400.261414,331.834351 392.710083,332.174500 385.272644,332.509491 
	C385.272644,307.171753 385.272644,282.278717 385.272644,256.860474 
	C389.211456,257.070557 393.115204,257.278778 397.471680,257.506256 
z"/>
<path fill="#090909" opacity="1.000000" stroke="none" 
	d="
M526.695129,247.313568 
	C526.933167,227.516113 527.182312,208.190033 527.383301,188.863449 
	C527.410400,186.259109 527.287781,183.729782 530.786072,183.285172 
	C534.329712,182.834763 536.081726,184.901703 536.857361,187.880280 
	C539.469055,197.909546 542.808472,207.608459 549.042358,216.053482 
	C553.377563,221.926285 557.908752,227.657959 562.132812,233.608536 
	C574.020386,250.355118 569.412292,271.350220 560.140381,285.148315 
	C558.915344,286.971344 557.433228,288.621613 555.518555,291.052185 
	C557.618164,283.479370 559.727051,277.007385 561.179260,270.391235 
	C563.903931,257.978455 560.026550,246.997849 552.621643,237.204788 
	C546.645691,229.301544 540.178040,221.770050 533.038513,212.977615 
	C533.038513,215.822372 533.058777,217.377808 533.035522,218.932602 
	C532.640930,245.254822 531.976318,271.576782 531.956848,297.899231 
	C531.947449,310.617767 526.589111,319.981262 516.534424,326.965759 
	C506.808136,333.722137 496.016541,337.184326 484.040649,335.932037 
	C474.930603,334.979431 466.929779,331.512543 463.215851,322.686127 
	C459.573975,314.031097 462.356934,305.865143 468.331207,299.073608 
	C480.881134,284.806702 496.533478,278.965332 515.344238,283.150635 
	C518.801636,283.919891 521.990845,285.894714 526.691101,287.907013 
	C526.691101,274.213379 526.691101,260.999084 526.695129,247.313568 
M526.164307,300.045563 
	C525.448486,298.194580 525.246521,295.442505 523.909851,294.680267 
	C521.130920,293.095551 517.742249,291.711151 514.618774,291.741547 
	C495.526703,291.927246 480.154297,299.493896 469.556274,315.762665 
	C465.888031,321.393707 466.917694,323.927216 473.467834,325.651306 
	C474.742401,325.986786 476.107483,326.150879 477.425262,326.123688 
	C497.769623,325.704559 513.817688,317.018646 526.164307,300.045563 
z"/>
<path fill="#F7F7F7" opacity="1.000000" stroke="none" 
	d="
M714.842285,300.224060 
	C714.566467,305.144897 714.288635,309.605988 713.985291,314.476379 
	C707.899719,315.079163 702.048340,315.658752 695.683899,316.289124 
	C695.683899,314.029114 695.690979,312.256927 695.682800,310.484802 
	C695.639648,301.089630 695.631042,301.054993 704.843262,299.146637 
	C707.437195,298.609344 710.078369,298.200378 712.716309,298.044556 
	C713.388062,298.004852 714.130310,299.158783 714.842285,300.224060 
z"/>
<path fill="#FBFBFB" opacity="1.000000" stroke="none" 
	d="
M252.339584,315.945862 
	C247.566940,314.987335 243.250366,314.070801 238.671021,313.098480 
	C239.894638,300.555878 241.052216,288.690186 242.248383,276.428894 
	C247.852661,275.704498 253.381561,274.989838 259.539276,274.193878 
	C260.419037,288.193298 261.285095,301.974548 262.165710,315.987854 
	C258.687897,315.987854 255.741760,315.987854 252.339584,315.945862 
z"/>
<path fill="#FAFAFA" opacity="1.000000" stroke="none" 
	d="
M526.046875,300.426819 
	C513.817688,317.018646 497.769623,325.704559 477.425262,326.123688 
	C476.107483,326.150879 474.742401,325.986786 473.467834,325.651306 
	C466.917694,323.927216 465.888031,321.393707 469.556274,315.762665 
	C480.154297,299.493896 495.526703,291.927246 514.618774,291.741547 
	C517.742249,291.711151 521.130920,293.095551 523.909851,294.680267 
	C525.246521,295.442505 525.448486,298.194580 526.046875,300.426819 
z"/>
</svg>