<svg version="1.1" id="Layer_1" xmlns="http://www.w3.org/2000/svg" xmlns:xlink="http://www.w3.org/1999/xlink" x="0px" y="0px"
	 width="100%" viewBox="0 0 1024 500" enable-background="new 0 0 1024 500" xml:space="preserve">
<path fill="#FFFFFF" opacity="1.000000" stroke="none" 
	d="
M632.000000,501.000000 
	C421.367767,501.000000 211.235565,501.000000 1.051674,501.000000 
	C1.051674,334.395111 1.051674,167.790207 1.051674,1.092652 
	C342.215607,1.092652 683.431213,1.092652 1024.823486,1.092652 
	C1024.823486,167.666519 1024.823486,334.333252 1024.823486,501.000000 
	C894.123474,501.000000 763.311707,501.000000 632.000000,501.000000 
M946.891174,285.323425 
	C949.929688,267.789154 952.968262,250.254913 955.924255,233.197113 
	C950.904602,231.966415 947.096191,231.032669 943.244446,229.141891 
	C941.340942,194.954056 939.437500,160.766235 937.518677,126.302971 
	C793.060852,134.687057 649.216003,143.035568 504.500610,151.196121 
	C501.213013,150.694031 497.910858,150.272141 494.640106,149.677353 
	C464.198334,144.141525 433.770782,138.526688 403.321869,133.030426 
	C356.511597,124.580811 309.681091,116.243202 262.871368,107.790596 
	C212.952316,98.776535 163.050461,89.667191 113.130730,80.656883 
	C108.996071,79.910599 103.293549,77.747696 101.001846,79.586334 
	C98.441513,81.640495 98.890579,87.501190 98.120087,91.721695 
	C92.981918,119.866722 87.867867,148.016144 81.955956,176.183197 
	C67.410080,177.165329 52.864201,178.147461 37.924217,179.156204 
	C42.386642,255.200180 46.816944,330.696777 51.219391,405.718658 
	C57.630356,405.718658 63.434444,406.004120 69.202820,405.671082 
	C100.268623,403.877472 131.323059,401.887878 162.386459,400.051361 
	C182.157623,398.882446 201.940414,397.911469 221.712906,396.763977 
	C254.773117,394.845306 287.828613,392.845917 320.887329,390.901062 
	C339.329102,389.816101 357.775024,388.801941 376.216003,387.703705 
	C407.776672,385.824219 439.336212,383.926239 470.893494,381.991119 
	C486.670990,381.023621 502.442444,379.956879 519.048218,379.013519 
	C520.540771,379.134827 522.055298,379.132935 523.522583,379.395416 
	C564.144470,386.662048 604.773193,393.891724 645.376404,401.261353 
	C691.861206,409.698547 738.313416,418.314941 784.797119,426.757996 
	C823.597839,433.805603 862.421021,440.730103 901.241516,447.668518 
	C906.363525,448.583984 911.528625,449.258636 916.899231,450.079285 
	C919.747559,434.406769 922.397522,419.696228 925.099121,404.995239 
	C928.166199,388.305969 931.279602,371.625244 935.193970,354.932190 
	C940.280945,354.515167 945.367920,354.098145 950.775696,353.654785 
	C949.434937,330.922913 948.115723,308.556396 946.891174,285.323425 
z"/>
<path fill="#743DFF" opacity="1.000000" stroke="none" 
	d="
M82.745987,176.164139 
	C87.867867,148.016144 92.981918,119.866722 98.120087,91.721695 
	C98.890579,87.501190 98.441513,81.640495 101.001846,79.586334 
	C103.293549,77.747696 108.996071,79.910599 113.130730,80.656883 
	C163.050461,89.667191 212.952316,98.776535 262.871368,107.790596 
	C309.681091,116.243202 356.511597,124.580811 403.321869,133.030426 
	C433.770782,138.526688 464.198334,144.141525 494.640106,149.677353 
	C497.910858,150.272141 501.213013,150.694031 505.214142,151.479156 
	C526.012451,155.361023 546.106445,158.909744 566.178040,162.580704 
	C575.614441,164.306580 585.007935,166.267593 593.911743,168.161621 
	C590.070740,168.235352 586.738953,168.299271 583.407104,168.299377 
	C422.628113,168.304291 261.849091,168.303680 101.070107,168.303711 
	C98.958572,168.303711 96.847031,168.303711 94.198845,168.303711 
	C94.198845,170.761368 94.198868,172.545578 94.198845,174.329788 
	C94.198502,206.485580 94.216057,238.641403 94.187416,270.797180 
	C94.178223,281.122040 94.047028,291.446777 93.581612,301.745544 
	C84.552963,300.137360 75.950462,298.298035 67.261009,297.077911 
	C62.689194,296.435974 61.273941,294.305450 62.048878,290.141418 
	C65.536438,271.401306 69.123871,252.679443 72.529732,233.924561 
	C76.023216,214.687088 79.347588,195.418884 82.745987,176.164139 
z"/>
<path fill="#753DFF" opacity="1.000000" stroke="none" 
	d="
M943.287720,230.098923 
	C947.096191,231.032669 950.904602,231.966415 955.924255,233.197113 
	C952.968262,250.254913 949.929688,267.789154 946.627930,286.039001 
	C944.355408,297.791565 942.293152,308.819214 940.351440,319.868042 
	C938.298828,331.548462 936.360901,343.249023 934.372864,354.940796 
	C931.279602,371.625244 928.166199,388.305969 925.099121,404.995239 
	C922.397522,419.696228 919.747559,434.406769 916.899231,450.079285 
	C911.528625,449.258636 906.363525,448.583984 901.241516,447.668518 
	C862.421021,440.730103 823.597839,433.805603 784.797119,426.757996 
	C738.313416,418.314941 691.861206,409.698547 645.376404,401.261353 
	C604.773193,393.891724 564.144470,386.662048 523.522583,379.395416 
	C522.055298,379.132935 520.540771,379.134827 518.327454,378.718109 
	C506.783783,376.332672 495.960846,374.242645 485.591797,372.115112 
	C488.710449,372.042572 491.375244,371.977020 494.040009,371.976929 
	C626.484009,371.971680 758.927979,371.972015 891.372009,371.971771 
	C893.327881,371.971771 895.283752,371.971771 897.811584,371.971771 
	C897.811584,369.707947 897.811523,367.925690 897.811523,366.143402 
	C897.811523,334.656708 897.791321,303.170013 897.819946,271.683350 
	C897.834839,255.360748 897.936279,239.038208 898.425049,222.750397 
	C902.106201,223.324112 905.360535,223.866165 908.615906,224.401474 
	C920.172974,226.301865 931.730408,228.199966 943.287720,230.098923 
z"/>
<path fill="#4DD5FF" opacity="1.000000" stroke="none" 
	d="
M485.137939,372.152588 
	C495.960846,374.242645 506.783783,376.332672 517.911621,378.678894 
	C502.442444,379.956879 486.670990,381.023621 470.893494,381.991119 
	C439.336212,383.926239 407.776672,385.824219 376.216003,387.703705 
	C357.775024,388.801941 339.329102,389.816101 320.887329,390.901062 
	C287.828613,392.845917 254.773117,394.845306 221.712906,396.763977 
	C201.940414,397.911469 182.157623,398.882446 162.386459,400.051361 
	C131.323059,401.887878 100.268623,403.877472 69.202820,405.671082 
	C63.434444,406.004120 57.630356,405.718658 51.219391,405.718658 
	C46.816944,330.696777 42.386642,255.200180 37.924217,179.156204 
	C52.864201,178.147461 67.410080,177.165329 82.350967,176.173676 
	C79.347588,195.418884 76.023216,214.687088 72.529732,233.924561 
	C69.123871,252.679443 65.536438,271.401306 62.048878,290.141418 
	C61.273941,294.305450 62.689194,296.435974 67.261009,297.077911 
	C75.950462,298.298035 84.552963,300.137360 93.652664,302.231323 
	C94.113747,325.677582 94.113747,348.612091 94.113747,371.978302 
	C96.796631,371.978302 98.762535,371.978302 100.728439,371.978271 
	C225.702148,371.977905 350.675842,371.976257 475.649567,371.984558 
	C478.812347,371.984772 481.975159,372.094147 485.137939,372.152588 
z"/>
<path fill="#4DD5FF" opacity="1.000000" stroke="none" 
	d="
M943.266113,229.620407 
	C931.730408,228.199966 920.172974,226.301865 908.615906,224.401474 
	C905.360535,223.866165 902.106201,223.324112 898.365356,222.311981 
	C897.868958,206.026352 897.610962,190.208008 897.987854,174.404785 
	C898.113464,169.134750 896.430298,168.120117 891.525879,168.128235 
	C805.139526,168.271347 718.752930,168.236313 632.366333,168.226990 
	C619.717834,168.225632 607.069336,168.158661 594.420837,168.122055 
	C585.007935,166.267593 575.614441,164.306580 566.178040,162.580704 
	C546.106445,158.909744 526.012451,155.361023 505.649414,151.573120 
	C649.216003,143.035568 793.060852,134.687057 937.518677,126.302971 
	C939.437500,160.766235 941.340942,194.954056 943.266113,229.620407 
z"/>
<path fill="#50D2FF" opacity="1.000000" stroke="none" 
	d="
M934.783447,354.936493 
	C936.360901,343.249023 938.298828,331.548462 940.351440,319.868042 
	C942.293152,308.819214 944.355408,297.791565 946.580566,286.472229 
	C948.115723,308.556396 949.434937,330.922913 950.775696,353.654785 
	C945.367920,354.098145 940.280945,354.515167 934.783447,354.936493 
z"/>
<path fill="#FDFDFE" opacity="1.000000" stroke="none" 
	d="
M593.911743,168.161621 
	C607.069336,168.158661 619.717834,168.225632 632.366333,168.226990 
	C718.752930,168.236313 805.139526,168.271347 891.525879,168.128235 
	C896.430298,168.120117 898.113464,169.134750 897.987854,174.404785 
	C897.610962,190.208008 897.868958,206.026352 897.938904,222.277222 
	C897.936279,239.038208 897.834839,255.360748 897.819946,271.683350 
	C897.791321,303.170013 897.811523,334.656708 897.811523,366.143402 
	C897.811523,367.925690 897.811584,369.707947 897.811584,371.971771 
	C895.283752,371.971771 893.327881,371.971771 891.372009,371.971771 
	C758.927979,371.972015 626.484009,371.971680 494.040009,371.976929 
	C491.375244,371.977020 488.710449,372.042572 485.591797,372.115112 
	C481.975159,372.094147 478.812347,371.984772 475.649567,371.984558 
	C350.675842,371.976257 225.702148,371.977905 100.728439,371.978271 
	C98.762535,371.978302 96.796631,371.978302 94.113747,371.978302 
	C94.113747,348.612091 94.113747,325.677582 94.042694,302.257324 
	C94.047028,291.446777 94.178223,281.122040 94.187416,270.797180 
	C94.216057,238.641403 94.198502,206.485580 94.198845,174.329788 
	C94.198868,172.545578 94.198845,170.761368 94.198845,168.303711 
	C96.847031,168.303711 98.958572,168.303711 101.070107,168.303711 
	C261.849091,168.303680 422.628113,168.304291 583.407104,168.299377 
	C586.738953,168.299271 590.070740,168.235352 593.911743,168.161621 
M765.920044,240.749329 
	C767.607666,271.316925 769.295349,301.884552 770.982239,332.439026 
	C772.751892,332.711182 774.114014,332.920685 775.561951,333.143341 
	C775.757263,335.908264 775.928711,338.335083 776.119812,341.039246 
	C785.230347,340.253662 793.945435,339.502197 803.166260,338.707123 
	C802.271973,323.644165 801.395081,308.875000 800.518188,294.105865 
	C800.808350,294.064514 801.098450,294.023193 801.388611,293.981842 
	C807.837708,308.354462 814.286865,322.727081 820.765503,337.165466 
	C826.035095,336.730927 830.497559,336.048920 834.954224,336.085602 
	C839.230347,336.120789 841.508972,334.914368 842.433472,330.324860 
	C843.642273,324.324402 845.791931,318.512634 847.553101,312.624512 
	C848.783325,308.511383 850.040833,304.406433 851.286194,300.297852 
	C851.746338,300.339325 852.206543,300.380829 852.666687,300.422302 
	C853.200317,308.603882 853.734009,316.785461 854.268311,324.977386 
	C855.819336,325.206543 857.241516,325.416687 858.692627,325.631104 
	C858.891174,328.477997 859.073303,331.089020 859.276550,334.003571 
	C868.625305,333.185974 877.660461,332.395813 887.032898,331.576141 
	C885.003235,295.304901 882.995911,259.431702 880.975037,223.317032 
	C879.377258,223.212357 877.988098,223.121338 876.424866,223.018921 
	C876.201965,219.855362 875.997253,216.948807 875.791077,214.022415 
	C865.226074,215.072647 855.101135,215.932541 845.034424,217.239777 
	C843.545227,217.433167 841.574951,219.516953 841.104858,221.104385 
	C835.915894,238.628906 830.984253,256.229614 825.967041,273.805115 
	C825.512207,275.398193 824.945618,276.959412 824.188538,279.277588 
	C815.501282,259.175476 807.215820,240.003082 798.955200,220.888123 
	C787.054688,222.216949 776.074463,223.443024 764.901062,224.690659 
	C765.261230,230.182739 765.576843,234.994797 765.920044,240.749329 
M374.635651,288.053314 
	C376.340973,303.598297 378.046295,319.143250 379.752472,334.695984 
	C381.435730,334.857452 382.811981,334.989441 384.230865,335.125549 
	C384.611176,337.876923 384.946960,340.306091 385.321869,343.018280 
	C394.519165,341.419922 403.426239,339.871979 412.570007,338.282898 
	C410.666779,320.724060 408.824310,303.725616 406.833862,285.362000 
	C409.730560,289.531830 411.816528,292.665985 414.034363,295.703918 
	C422.677490,307.543091 431.327484,319.377899 440.096924,331.123230 
	C440.815704,332.085968 442.556671,333.021912 443.649017,332.852203 
	C451.994232,331.555725 460.296295,329.981537 469.023376,328.420105 
	C465.140228,292.696167 461.284515,257.224792 457.412598,221.604065 
	C455.668640,221.685349 454.417175,221.743668 453.026093,221.808517 
	C452.571625,218.817978 452.152283,216.058624 451.688751,213.008362 
	C442.593048,214.743301 433.705322,216.438553 424.530090,218.188660 
	C426.424835,235.660675 428.276825,252.738480 430.128784,269.816315 
	C428.342651,268.843445 427.387604,267.575226 426.498596,266.262299 
	C417.454437,252.905167 408.458221,239.515182 399.324951,226.219360 
	C398.444489,224.937653 396.563232,223.221939 395.431763,223.411392 
	C386.303162,224.939713 377.242950,226.876328 367.975250,228.725510 
	C370.174194,248.484894 372.326294,267.823059 374.635651,288.053314 
M323.398987,242.174301 
	C324.898621,255.568588 326.764313,268.937714 327.686615,282.371643 
	C327.983673,286.698181 326.608398,291.665924 324.427155,295.429962 
	C323.205231,297.538635 318.780457,298.451752 315.767914,298.518982 
	C314.651215,298.543884 313.346954,294.656830 312.331360,292.459900 
	C311.936737,291.606323 312.121063,290.491425 312.011169,289.498993 
	C309.890076,270.345245 307.764435,251.192047 305.613739,231.804260 
	C303.974579,231.804260 302.576477,231.804260 301.197418,231.804260 
	C300.720520,228.793411 300.284729,226.041977 299.806366,223.021729 
	C290.471497,224.807098 281.408600,226.540436 272.148254,228.311539 
	C272.148254,229.189407 272.086334,229.837616 272.157257,230.470978 
	C274.471527,251.141296 276.888428,271.800598 279.093170,292.482544 
	C280.652283,307.107849 286.912201,319.608185 296.659637,330.217377 
	C300.103821,333.966095 304.969727,337.235474 309.803925,338.739838 
	C333.203094,346.021301 358.122345,330.394836 360.810974,306.183594 
	C362.042328,295.095184 360.849426,283.647583 359.926605,272.431091 
	C358.565552,255.887970 356.463776,239.405777 354.653107,222.672699 
	C352.956787,222.672699 351.575256,222.672699 350.294373,222.672699 
	C349.865143,219.672165 349.474609,216.942230 349.051666,213.985474 
	C339.383698,215.838715 330.193726,217.600342 320.971985,219.368042 
	C321.771454,227.054230 322.511261,234.166611 323.398987,242.174301 
M538.865356,267.507874 
	C538.865356,258.416656 538.865356,249.325455 538.865356,240.234238 
	C539.546265,240.096298 540.227234,239.958344 540.908142,239.820389 
	C545.662903,246.054932 550.278564,252.401703 555.200256,258.501556 
	C566.859314,272.951508 567.517700,288.372345 559.706116,304.679596 
	C558.935059,306.289215 558.320312,307.973724 557.632996,309.623474 
	C559.894470,308.155609 561.352051,306.390076 562.629395,304.502563 
	C569.368591,294.543976 573.005798,283.803467 571.098328,271.577301 
	C569.679993,262.486725 564.726440,255.125107 559.217590,248.295746 
	C551.730957,239.014465 546.766357,228.722488 544.206177,217.186630 
	C543.494141,213.978333 542.436707,211.349976 538.465088,211.816299 
	C534.346436,212.299881 535.457581,215.694366 535.356140,218.070831 
	C534.183716,245.532028 533.125793,272.998138 532.052612,300.463531 
	C531.985413,302.183472 532.043884,303.908325 532.043884,305.854034 
	C530.832642,305.541199 530.459167,305.547363 530.225342,305.369720 
	C514.674438,293.553162 485.187164,302.047546 475.664673,320.235657 
	C470.696075,329.725830 473.082855,339.300568 482.174896,344.808075 
	C490.766693,350.012604 500.031250,349.850708 509.217957,347.098358 
	C523.771973,342.737915 537.347107,332.991333 537.136719,312.912323 
	C536.981689,298.107727 538.208069,283.288635 538.865356,267.507874 
M724.750305,220.574631 
	C723.426453,219.759796 722.052490,218.169159 720.786560,218.250946 
	C709.003174,219.012390 697.238403,220.061356 685.173035,221.051193 
	C677.134033,258.080841 669.120483,294.993195 661.047363,332.179871 
	C663.716675,332.179871 665.830688,332.179871 668.314148,332.179871 
	C667.774963,335.153107 667.273743,337.916931 666.721863,340.959778 
	C675.712769,340.178040 684.172302,339.566925 692.587036,338.575165 
	C693.832947,338.428314 695.572449,336.647491 695.876648,335.341492 
	C697.195618,329.679230 697.949341,323.887054 699.189331,318.203400 
	C699.475159,316.893311 700.756409,314.916809 701.771667,314.790405 
	C709.313232,313.851624 716.903320,313.302307 723.574829,312.710785 
	C727.338928,320.594452 730.691101,327.615234 734.198242,334.960632 
	C744.298584,334.027893 754.508118,333.085083 765.000244,332.116150 
	C753.402466,297.387970 742.000061,263.223328 730.553711,229.073395 
	C730.213318,228.057877 729.469910,227.153900 728.813843,226.272781 
	C727.572815,224.606018 726.258545,222.993744 724.750305,220.574631 
M160.014786,303.495605 
	C158.768570,285.506317 153.524139,269.639801 135.807281,260.238739 
	C142.600708,254.309158 148.784378,258.427277 155.229218,259.423676 
	C156.034119,252.203384 156.835022,245.294342 157.560898,238.377411 
	C157.868973,235.441727 159.484756,232.021515 154.812668,230.702469 
	C154.333069,230.567078 154.162796,228.669724 154.178894,227.594894 
	C154.205673,225.807037 154.499832,224.023193 154.713730,221.919693 
	C151.080597,220.669220 147.700790,219.231506 144.182495,218.341019 
	C125.924881,213.720001 112.158646,220.465881 106.567024,236.955460 
	C105.195580,240.999817 104.195007,245.390076 104.162949,249.629929 
	C104.032463,266.890289 110.854118,281.114319 123.765457,292.564270 
	C125.319038,293.942017 127.154739,296.667664 126.759392,298.240692 
	C125.852440,301.849457 122.241150,302.643616 119.008415,301.815582 
	C115.032303,300.797089 111.185081,299.169495 107.408546,297.516388 
	C105.032349,296.476288 102.887962,294.906586 100.198189,293.312958 
	C99.339592,300.904663 98.572830,307.966370 97.728401,315.018768 
	C97.366302,318.042938 95.773682,321.348724 100.323044,322.813263 
	C100.840691,322.979889 101.376808,324.593536 101.157722,325.306946 
	C99.363068,331.150940 103.282814,332.821838 107.521782,334.277405 
	C110.974541,335.463013 114.388000,336.850494 117.928879,337.677551 
	C138.749741,342.540894 153.593399,334.363037 158.488205,315.289703 
	C159.390411,311.774109 159.523804,308.061218 160.014786,303.495605 
M170.971420,291.491913 
	C173.774979,305.318695 181.663422,316.411926 190.454010,326.889496 
	C195.492004,332.894318 202.237991,336.509552 209.993393,338.079620 
	C233.947510,342.929108 256.582733,329.619171 263.791046,305.398346 
	C272.882935,274.848358 263.595062,248.686813 242.158615,226.481201 
	C238.164902,222.344177 231.836746,219.573792 226.097565,218.171585 
	C207.332779,213.586914 188.368896,221.920059 178.071411,238.653870 
	C168.092911,254.869370 167.219818,272.484772 170.971420,291.491913 
M644.093262,333.581207 
	C646.404846,328.847412 649.689819,324.333710 650.820618,319.332947 
	C653.013184,309.636627 654.180237,299.690002 655.437073,289.804504 
	C657.742859,271.668457 659.805481,253.501526 661.988037,235.192169 
	C660.238220,234.712799 658.694885,234.289978 657.010864,233.828613 
	C657.340942,230.837814 657.641968,228.110947 657.950012,225.320312 
	C648.545776,223.503784 639.649719,221.785416 630.461914,220.010696 
	C628.930481,234.205368 627.554932,247.928268 625.936218,261.622437 
	C624.824646,271.025330 623.753784,280.461914 621.947632,289.743896 
	C620.680725,296.254791 616.312195,298.249573 609.939392,296.310852 
	C607.757507,295.647064 605.647217,294.747833 603.254578,293.863953 
	C602.420471,301.437103 601.590454,308.701477 600.833374,315.973480 
	C600.501404,319.161774 598.293335,322.972717 603.500671,324.545135 
	C603.892029,324.663300 604.247864,326.107208 604.052917,326.767334 
	C602.545349,331.872162 605.999329,333.523102 609.667480,334.996216 
	C612.898865,336.293915 616.095276,337.796509 619.449524,338.647095 
	C628.134460,340.849396 636.636230,341.371857 644.093262,333.581207 
z"/>
<path fill="#0B0B0B" opacity="1.000000" stroke="none" 
	d="
M765.906250,240.278091 
	C765.576843,234.994797 765.261230,230.182739 764.901062,224.690659 
	C776.074463,223.443024 787.054688,222.216949 798.955200,220.888123 
	C807.215820,240.003082 815.501282,259.175476 824.188538,279.277588 
	C824.945618,276.959412 825.512207,275.398193 825.967041,273.805115 
	C830.984253,256.229614 835.915894,238.628906 841.104858,221.104385 
	C841.574951,219.516953 843.545227,217.433167 845.034424,217.239777 
	C855.101135,215.932541 865.226074,215.072647 875.791077,214.022415 
	C875.997253,216.948807 876.201965,219.855362 876.424866,223.018921 
	C877.988098,223.121338 879.377258,223.212357 880.975037,223.317032 
	C882.995911,259.431702 885.003235,295.304901 887.032898,331.576141 
	C877.660461,332.395813 868.625305,333.185974 859.276550,334.003571 
	C859.073303,331.089020 858.891174,328.477997 858.692627,325.631104 
	C857.241516,325.416687 855.819336,325.206543 854.268311,324.977386 
	C853.734009,316.785461 853.200317,308.603882 852.666687,300.422302 
	C852.206543,300.380829 851.746338,300.339325 851.286194,300.297852 
	C850.040833,304.406433 848.783325,308.511383 847.553101,312.624512 
	C845.791931,318.512634 843.642273,324.324402 842.433472,330.324860 
	C841.508972,334.914368 839.230347,336.120789 834.954224,336.085602 
	C830.497559,336.048920 826.035095,336.730927 820.765503,337.165466 
	C814.286865,322.727081 807.837708,308.354462 801.388611,293.981842 
	C801.098450,294.023193 800.808350,294.064514 800.518188,294.105865 
	C801.395081,308.875000 802.271973,323.644165 803.166260,338.707123 
	C793.945435,339.502197 785.230347,340.253662 776.119812,341.039246 
	C775.928711,338.335083 775.757263,335.908264 775.561951,333.143341 
	C774.114014,332.920685 772.751892,332.711182 770.982239,332.439026 
	C769.295349,301.884552 767.607666,271.316925 765.906250,240.278091 
M772.536438,311.887695 
	C772.832581,317.514496 773.128784,323.141266 773.455017,329.339264 
	C780.839050,328.731689 787.867920,328.153351 795.244812,327.546356 
	C794.296997,309.945465 793.347656,292.825409 792.494324,275.700531 
	C792.407593,273.958954 792.898743,272.188568 793.121704,270.431549 
	C793.661926,270.449005 794.202148,270.466492 794.742310,270.483948 
	C800.935730,285.153015 807.121216,299.825409 813.325134,314.490051 
	C818.251709,326.135284 818.276123,326.219421 830.884521,324.159088 
	C832.351990,323.919281 834.284546,322.286163 834.752136,320.882721 
	C837.060974,313.952423 838.937866,306.878632 840.988525,299.861725 
	C844.379822,288.257751 847.787415,276.658539 851.188171,265.057343 
	C851.687683,265.021301 852.187256,264.985291 852.686829,264.949249 
	C853.095642,266.645813 853.767700,268.326782 853.869080,270.041534 
	C854.389832,278.855499 854.725647,287.680206 855.200378,296.497131 
	C855.653625,304.915894 856.198181,313.329742 856.721741,322.064636 
	C864.422974,321.391815 871.619995,320.763000 879.079102,320.111328 
	C877.016846,285.741425 874.986633,251.906540 872.951904,217.997070 
	C863.059448,218.804718 853.769348,219.563202 844.048035,220.356873 
	C837.533936,243.098557 830.994507,265.928741 824.123535,289.916473 
	C823.039551,287.469635 822.493713,286.294067 821.993408,285.099487 
	C814.102905,266.261841 806.252380,247.407181 798.261719,228.612106 
	C797.675049,227.232025 796.016541,225.224945 794.971497,225.292465 
	C786.051270,225.869003 777.157715,226.857956 768.025024,227.745941 
	C769.517883,255.762329 770.988403,283.357758 772.536438,311.887695 
z"/>
<path fill="#0C0C0C" opacity="1.000000" stroke="none" 
	d="
M374.557007,287.607269 
	C372.326294,267.823059 370.174194,248.484894 367.975250,228.725510 
	C377.242950,226.876328 386.303162,224.939713 395.431763,223.411392 
	C396.563232,223.221939 398.444489,224.937653 399.324951,226.219360 
	C408.458221,239.515182 417.454437,252.905167 426.498596,266.262299 
	C427.387604,267.575226 428.342651,268.843445 430.128784,269.816315 
	C428.276825,252.738480 426.424835,235.660675 424.530090,218.188660 
	C433.705322,216.438553 442.593048,214.743301 451.688751,213.008362 
	C452.152283,216.058624 452.571625,218.817978 453.026093,221.808517 
	C454.417175,221.743668 455.668640,221.685349 457.412598,221.604065 
	C461.284515,257.224792 465.140228,292.696167 469.023376,328.420105 
	C460.296295,329.981537 451.994232,331.555725 443.649017,332.852203 
	C442.556671,333.021912 440.815704,332.085968 440.096924,331.123230 
	C431.327484,319.377899 422.677490,307.543091 414.034363,295.703918 
	C411.816528,292.665985 409.730560,289.531830 406.833862,285.362000 
	C408.824310,303.725616 410.666779,320.724060 412.570007,338.282898 
	C403.426239,339.871979 394.519165,341.419922 385.321869,343.018280 
	C384.946960,340.306091 384.611176,337.876923 384.230865,335.125549 
	C382.811981,334.989441 381.435730,334.857452 379.752472,334.695984 
	C378.046295,319.143250 376.340973,303.598297 374.557007,287.607269 
M429.017944,220.704498 
	C428.783356,223.617966 428.105560,226.575272 428.388519,229.437561 
	C429.845764,244.177170 431.582550,258.888977 433.116394,273.621429 
	C433.269440,275.091705 432.711853,276.635925 432.484100,278.145844 
	C430.158875,276.694763 429.111511,275.220276 428.090881,273.727478 
	C418.141113,259.174957 408.232391,244.594025 398.184692,230.109482 
	C397.312866,228.852692 395.398193,227.286865 394.196533,227.459137 
	C386.506439,228.561493 378.880280,230.110031 371.016632,231.551498 
	C374.721436,265.026062 378.391510,298.186737 382.086731,331.574890 
	C389.819458,330.234406 396.947052,328.998840 404.037384,327.769714 
	C403.961273,326.191071 403.967438,325.187958 403.857056,324.197845 
	C402.050140,307.989197 400.193817,291.785919 398.468536,275.568665 
	C398.310333,274.081909 398.969025,272.508240 399.248383,270.974945 
	C411.533905,287.056396 422.342926,303.013245 433.271515,318.887695 
	C434.167542,320.189209 436.025024,321.938171 437.186188,321.768738 
	C445.011230,320.626801 452.768890,319.022949 460.717407,317.537079 
	C457.018463,283.835999 453.372345,250.615845 449.689636,217.062515 
	C442.908875,218.218933 436.392181,219.330322 429.017944,220.704498 
z"/>
<path fill="#0A0A0A" opacity="1.000000" stroke="none" 
	d="
M323.325012,241.726654 
	C322.511261,234.166611 321.771454,227.054230 320.971985,219.368042 
	C330.193726,217.600342 339.383698,215.838715 349.051666,213.985474 
	C349.474609,216.942230 349.865143,219.672165 350.294373,222.672699 
	C351.575256,222.672699 352.956787,222.672699 354.653107,222.672699 
	C356.463776,239.405777 358.565552,255.887970 359.926605,272.431091 
	C360.849426,283.647583 362.042328,295.095184 360.810974,306.183594 
	C358.122345,330.394836 333.203094,346.021301 309.803925,338.739838 
	C304.969727,337.235474 300.103821,333.966095 296.659637,330.217377 
	C286.912201,319.608185 280.652283,307.107849 279.093170,292.482544 
	C276.888428,271.800598 274.471527,251.141296 272.157257,230.470978 
	C272.086334,229.837616 272.148254,229.189407 272.148254,228.311539 
	C281.408600,226.540436 290.471497,224.807098 299.806366,223.021729 
	C300.284729,226.041977 300.720520,228.793411 301.197418,231.804260 
	C302.576477,231.804260 303.974579,231.804260 305.613739,231.804260 
	C307.764435,251.192047 309.890076,270.345245 312.011169,289.498993 
	C312.121063,290.491425 311.936737,291.606323 312.331360,292.459900 
	C313.346954,294.656830 314.651215,298.543884 315.767914,298.518982 
	C318.780457,298.451752 323.205231,297.538635 324.427155,295.429962 
	C326.608398,291.665924 327.983673,286.698181 327.686615,282.371643 
	C326.764313,268.937714 324.898621,255.568588 323.325012,241.726654 
M278.818726,264.711517 
	C279.230408,268.851715 279.344971,273.047821 280.110931,277.121399 
	C282.190155,288.178650 283.859711,299.385132 287.014771,310.144470 
	C289.409668,318.311401 295.222748,324.617401 303.663025,327.595001 
	C323.556244,334.613068 347.193573,322.342285 351.964569,301.858673 
	C353.702911,294.395386 353.616333,286.370697 353.406128,278.628113 
	C353.194702,270.838684 351.814423,263.079193 350.910187,255.310776 
	C349.473846,242.970657 348.007477,230.634033 346.520569,218.014160 
	C338.800781,219.408066 331.502289,220.725906 324.198181,222.044754 
	C324.127533,222.865417 324.003418,223.353394 324.057098,223.820938 
	C326.221802,242.666504 328.350586,261.516449 330.611725,280.350525 
	C331.323120,286.276062 331.250458,292.010742 327.949890,297.222839 
	C325.327637,301.363770 321.490082,303.352997 316.546204,302.968201 
	C311.889069,302.605682 308.673065,299.949432 307.236969,295.772919 
	C305.737030,291.410736 304.597473,286.829834 304.041687,282.254486 
	C301.816925,263.939240 299.880096,245.588989 297.809082,227.003311 
	C290.028320,228.434387 282.581696,229.804001 274.973969,231.203247 
	C276.251801,242.355377 277.481018,253.083374 278.818726,264.711517 
z"/>
<path fill="#0B0B0B" opacity="1.000000" stroke="none" 
	d="
M538.842163,267.991943 
	C538.208069,283.288635 536.981689,298.107727 537.136719,312.912323 
	C537.347107,332.991333 523.771973,342.737915 509.217957,347.098358 
	C500.031250,349.850708 490.766693,350.012604 482.174896,344.808075 
	C473.082855,339.300568 470.696075,329.725830 475.664673,320.235657 
	C485.187164,302.047546 514.674438,293.553162 530.225342,305.369720 
	C530.459167,305.547363 530.832642,305.541199 532.043884,305.854034 
	C532.043884,303.908325 531.985413,302.183472 532.052612,300.463531 
	C533.125793,272.998138 534.183716,245.532028 535.356140,218.070831 
	C535.457581,215.694366 534.346436,212.299881 538.465088,211.816299 
	C542.436707,211.349976 543.494141,213.978333 544.206177,217.186630 
	C546.766357,228.722488 551.730957,239.014465 559.217590,248.295746 
	C564.726440,255.125107 569.679993,262.486725 571.098328,271.577301 
	C573.005798,283.803467 569.368591,294.543976 562.629395,304.502563 
	C561.352051,306.390076 559.894470,308.155609 557.632996,309.623474 
	C558.320312,307.973724 558.935059,306.289215 559.706116,304.679596 
	C567.517700,288.372345 566.859314,272.951508 555.200256,258.501556 
	C550.278564,252.401703 545.662903,246.054932 540.908142,239.820389 
	C540.227234,239.958344 539.546265,240.096298 538.865356,240.234238 
	C538.865356,249.325455 538.865356,258.416656 538.842163,267.991943 
M488.660858,339.568420 
	C503.967194,339.428680 516.598389,332.930664 527.410156,322.678528 
	C529.571594,320.628937 532.163086,316.234528 531.318359,314.482697 
	C530.114380,311.985962 526.026001,310.683929 522.957886,309.363800 
	C521.383850,308.686523 519.326233,308.840607 517.528076,309.022919 
	C503.618286,310.433044 491.325012,315.257690 482.597931,326.739899 
	C480.632874,329.325317 479.744598,332.729156 478.360657,335.756256 
	C481.483826,337.026733 484.607025,338.297211 488.660858,339.568420 
z"/>
<path fill="#0A0A0A" opacity="1.000000" stroke="none" 
	d="
M724.862488,220.966736 
	C726.258545,222.993744 727.572815,224.606018 728.813843,226.272781 
	C729.469910,227.153900 730.213318,228.057877 730.553711,229.073395 
	C742.000061,263.223328 753.402466,297.387970 765.000244,332.116150 
	C754.508118,333.085083 744.298584,334.027893 734.198242,334.960632 
	C730.691101,327.615234 727.338928,320.594452 723.574829,312.710785 
	C716.903320,313.302307 709.313232,313.851624 701.771667,314.790405 
	C700.756409,314.916809 699.475159,316.893311 699.189331,318.203400 
	C697.949341,323.887054 697.195618,329.679230 695.876648,335.341492 
	C695.572449,336.647491 693.832947,338.428314 692.587036,338.575165 
	C684.172302,339.566925 675.712769,340.178040 666.721863,340.959778 
	C667.273743,337.916931 667.774963,335.153107 668.314148,332.179871 
	C665.830688,332.179871 663.716675,332.179871 661.047363,332.179871 
	C669.120483,294.993195 677.134033,258.080841 685.173035,221.051193 
	C697.238403,220.061356 709.003174,219.012390 720.786560,218.250946 
	C722.052490,218.169159 723.426453,219.759796 724.862488,220.966736 
M741.712830,279.920563 
	C735.178528,260.293976 728.644226,240.667404 722.094177,220.993637 
	C710.186584,222.082352 698.786926,223.124634 687.221802,224.182037 
	C679.820068,259.091278 672.465637,293.777649 665.015137,328.917053 
	C673.073669,328.202148 680.621277,327.532562 688.300659,326.851318 
	C689.797302,318.736389 691.234436,310.943909 692.678467,303.114044 
	C703.156250,302.176025 713.231934,301.273956 723.589600,300.346680 
	C725.962036,307.951813 728.265442,315.335785 730.661438,323.016571 
	C738.865906,322.283752 746.863586,321.569397 755.190308,320.825653 
	C750.662781,307.112030 746.299866,293.897034 741.712830,279.920563 
z"/>
<path fill="#090909" opacity="1.000000" stroke="none" 
	d="
M160.013428,303.967499 
	C159.523804,308.061218 159.390411,311.774109 158.488205,315.289703 
	C153.593399,334.363037 138.749741,342.540894 117.928879,337.677551 
	C114.388000,336.850494 110.974541,335.463013 107.521782,334.277405 
	C103.282814,332.821838 99.363068,331.150940 101.157722,325.306946 
	C101.376808,324.593536 100.840691,322.979889 100.323044,322.813263 
	C95.773682,321.348724 97.366302,318.042938 97.728401,315.018768 
	C98.572830,307.966370 99.339592,300.904663 100.198189,293.312958 
	C102.887962,294.906586 105.032349,296.476288 107.408546,297.516388 
	C111.185081,299.169495 115.032303,300.797089 119.008415,301.815582 
	C122.241150,302.643616 125.852440,301.849457 126.759392,298.240692 
	C127.154739,296.667664 125.319038,293.942017 123.765457,292.564270 
	C110.854118,281.114319 104.032463,266.890289 104.162949,249.629929 
	C104.195007,245.390076 105.195580,240.999817 106.567024,236.955460 
	C112.158646,220.465881 125.924881,213.720001 144.182495,218.341019 
	C147.700790,219.231506 151.080597,220.669220 154.713730,221.919693 
	C154.499832,224.023193 154.205673,225.807037 154.178894,227.594894 
	C154.162796,228.669724 154.333069,230.567078 154.812668,230.702469 
	C159.484756,232.021515 157.868973,235.441727 157.560898,238.377411 
	C156.835022,245.294342 156.034119,252.203384 155.229218,259.423676 
	C148.784378,258.427277 142.600708,254.309158 135.807281,260.238739 
	C153.524139,269.639801 158.768570,285.506317 160.013428,303.967499 
M140.463348,322.148956 
	C158.546295,309.585907 158.927658,280.643433 141.287704,267.598663 
	C137.840393,265.049377 134.106201,262.376740 131.858643,258.888428 
	C130.244949,256.383850 129.639725,251.818085 130.874130,249.289612 
	C132.091751,246.795532 136.024246,244.799210 139.067581,244.246216 
	C142.418610,243.637360 146.113663,244.921890 149.727249,245.390457 
	C150.415939,239.423431 151.200317,233.489700 151.703384,227.532181 
	C151.802628,226.357025 151.179291,224.529800 150.279282,223.949951 
	C136.694351,215.197678 117.762108,219.806870 111.148743,233.944885 
	C104.454956,248.254837 104.204185,265.026917 119.137932,277.335938 
	C122.439430,280.057190 125.429443,283.296234 128.014648,286.711823 
	C131.379074,291.156921 131.390167,297.325470 128.509598,301.190338 
	C125.200783,305.629822 120.582291,305.797394 115.895241,304.299225 
	C111.390892,302.859406 107.060387,300.875671 102.407982,299.033752 
	C101.666061,304.843994 100.847198,310.556732 100.288452,316.294800 
	C100.190895,317.296783 100.905128,318.970734 101.722267,319.379852 
	C113.980377,325.516937 126.509460,329.159729 140.463348,322.148956 
z"/>
<path fill="#0A0A0A" opacity="1.000000" stroke="none" 
	d="
M170.910629,291.075745 
	C167.219818,272.484772 168.092911,254.869370 178.071411,238.653870 
	C188.368896,221.920059 207.332779,213.586914 226.097565,218.171585 
	C231.836746,219.573792 238.164902,222.344177 242.158615,226.481201 
	C263.595062,248.686813 272.882935,274.848358 263.791046,305.398346 
	C256.582733,329.619171 233.947510,342.929108 209.993393,338.079620 
	C202.237991,336.509552 195.492004,332.894318 190.454010,326.889496 
	C181.663422,316.411926 173.774979,305.318695 170.910629,291.075745 
M223.220444,326.983124 
	C240.478455,322.780487 251.331894,311.742004 256.195160,294.994659 
	C261.569519,276.487274 259.720764,258.430756 250.748718,241.324707 
	C246.019409,232.307785 238.839966,225.872879 228.940430,222.733673 
	C208.361557,216.207962 185.720856,226.904922 177.035309,247.969009 
	C168.753357,268.054352 170.296341,288.066071 180.152145,307.215149 
	C188.591736,323.612579 204.226730,330.633453 223.220444,326.983124 
z"/>
<path fill="#0A0A0A" opacity="1.000000" stroke="none" 
	d="
M643.843384,333.838257 
	C636.636230,341.371857 628.134460,340.849396 619.449524,338.647095 
	C616.095276,337.796509 612.898865,336.293915 609.667480,334.996216 
	C605.999329,333.523102 602.545349,331.872162 604.052917,326.767334 
	C604.247864,326.107208 603.892029,324.663300 603.500671,324.545135 
	C598.293335,322.972717 600.501404,319.161774 600.833374,315.973480 
	C601.590454,308.701477 602.420471,301.437103 603.254578,293.863953 
	C605.647217,294.747833 607.757507,295.647064 609.939392,296.310852 
	C616.312195,298.249573 620.680725,296.254791 621.947632,289.743896 
	C623.753784,280.461914 624.824646,271.025330 625.936218,261.622437 
	C627.554932,247.928268 628.930481,234.205368 630.461914,220.010696 
	C639.649719,221.785416 648.545776,223.503784 657.950012,225.320312 
	C657.641968,228.110947 657.340942,230.837814 657.010864,233.828613 
	C658.694885,234.289978 660.238220,234.712799 661.988037,235.192169 
	C659.805481,253.501526 657.742859,271.668457 655.437073,289.804504 
	C654.180237,299.690002 653.013184,309.636627 650.820618,319.332947 
	C649.689819,324.333710 646.404846,328.847412 643.843384,333.838257 
M626.715942,279.135773 
	C626.366028,281.439148 626.110962,283.761658 625.650513,286.042725 
	C623.020447,299.073303 619.238708,301.501160 606.309509,298.576355 
	C606.053833,298.518494 605.725525,298.781738 605.316284,298.939392 
	C604.556824,306.145844 603.792358,313.399597 603.004456,320.876495 
	C606.285278,322.206238 609.288452,323.632050 612.422180,324.659454 
	C631.713074,330.984192 642.233887,325.121521 645.893738,305.076904 
	C648.250244,292.170471 649.374146,279.033142 650.889526,265.980591 
	C652.342529,253.465622 653.587952,240.926544 654.949890,228.160995 
	C647.494629,226.772049 640.363098,225.443420 632.625183,224.001816 
	C630.668640,242.294006 628.745789,260.271210 626.715942,279.135773 
z"/>
<path fill="#F9F9F9" opacity="1.000000" stroke="none" 
	d="
M772.497681,311.420471 
	C770.988403,283.357758 769.517883,255.762329 768.025024,227.745941 
	C777.157715,226.857956 786.051270,225.869003 794.971497,225.292465 
	C796.016541,225.224945 797.675049,227.232025 798.261719,228.612106 
	C806.252380,247.407181 814.102905,266.261841 821.993408,285.099487 
	C822.493713,286.294067 823.039551,287.469635 824.123535,289.916473 
	C830.994507,265.928741 837.533936,243.098557 844.048035,220.356873 
	C853.769348,219.563202 863.059448,218.804718 872.951904,217.997070 
	C874.986633,251.906540 877.016846,285.741425 879.079102,320.111328 
	C871.619995,320.763000 864.422974,321.391815 856.721741,322.064636 
	C856.198181,313.329742 855.653625,304.915894 855.200378,296.497131 
	C854.725647,287.680206 854.389832,278.855499 853.869080,270.041534 
	C853.767700,268.326782 853.095642,266.645813 852.686829,264.949249 
	C852.187256,264.985291 851.687683,265.021301 851.188171,265.057343 
	C847.787415,276.658539 844.379822,288.257751 840.988525,299.861725 
	C838.937866,306.878632 837.060974,313.952423 834.752136,320.882721 
	C834.284546,322.286163 832.351990,323.919281 830.884521,324.159088 
	C818.276123,326.219421 818.251709,326.135284 813.325134,314.490051 
	C807.121216,299.825409 800.935730,285.153015 794.742310,270.483948 
	C794.202148,270.466492 793.661926,270.449005 793.121704,270.431549 
	C792.898743,272.188568 792.407593,273.958954 792.494324,275.700531 
	C793.347656,292.825409 794.296997,309.945465 795.244812,327.546356 
	C787.867920,328.153351 780.839050,328.731689 773.455017,329.339264 
	C773.128784,323.141266 772.832581,317.514496 772.497681,311.420471 
M872.770020,312.928497 
	C871.703613,291.842957 870.654663,270.756531 869.561646,249.672394 
	C869.142456,241.584473 868.622498,233.501801 868.127991,225.067429 
	C861.089172,225.760834 854.549805,226.405045 848.010437,227.049240 
	C853.527893,232.124268 859.734436,227.477188 865.676086,229.126999 
	C865.732300,229.425751 865.926331,230.059097 865.961426,230.701126 
	C867.341553,255.947647 868.667847,281.197266 870.144836,306.438080 
	C870.271667,308.605469 871.385803,310.715088 872.770020,312.928497 
M794.705322,233.487045 
	C794.108704,232.991882 793.481812,232.035400 792.920105,232.072281 
	C786.692993,232.481125 780.475952,233.043976 774.256226,233.565186 
	C774.181885,233.997803 774.107483,234.430435 774.033142,234.863052 
	C775.371704,235.383148 776.716492,236.353027 778.047607,236.334671 
	C781.359497,236.288940 784.715515,236.047836 787.959351,235.406937 
	C791.284790,234.749908 792.832886,235.597702 794.164612,238.938126 
	C800.606934,255.097733 807.383667,271.124481 814.118103,287.166321 
	C814.747131,288.664917 815.910461,289.939178 816.825806,291.317596 
	C817.341919,291.014648 817.857971,290.711700 818.374084,290.408783 
	C810.580261,271.689301 802.786438,252.969864 794.705322,233.487045 
M831.788635,303.150574 
	C828.099182,314.701294 828.099182,314.701294 830.568237,317.105103 
	C835.525757,298.744293 841.624695,280.882019 845.955383,262.556305 
	C845.299744,262.374298 844.644104,262.192261 843.988464,262.010254 
	C839.979126,275.460815 835.969788,288.911407 831.788635,303.150574 
M788.893677,301.566620 
	C788.272949,291.583038 787.652222,281.599487 787.031494,271.615906 
	C786.574036,271.601532 786.116516,271.587128 785.659058,271.572723 
	C785.424377,273.440125 784.913330,275.320404 784.999451,277.172882 
	C785.602600,290.151672 786.278015,303.127899 787.083618,316.095459 
	C787.179565,317.639984 788.201111,319.127045 788.793579,320.640778 
	C789.118958,320.532440 789.444397,320.424133 789.769775,320.315796 
	C789.482849,314.385925 789.195984,308.456085 788.893677,301.566620 
z"/>
<path fill="#F9F9F9" opacity="1.000000" stroke="none" 
	d="
M429.446716,220.573090 
	C436.392181,219.330322 442.908875,218.218933 449.689636,217.062515 
	C453.372345,250.615845 457.018463,283.835999 460.717407,317.537079 
	C452.768890,319.022949 445.011230,320.626801 437.186188,321.768738 
	C436.025024,321.938171 434.167542,320.189209 433.271515,318.887695 
	C422.342926,303.013245 411.533905,287.056396 399.248383,270.974945 
	C398.969025,272.508240 398.310333,274.081909 398.468536,275.568665 
	C400.193817,291.785919 402.050140,307.989197 403.857056,324.197845 
	C403.967438,325.187958 403.961273,326.191071 404.037384,327.769714 
	C396.947052,328.998840 389.819458,330.234406 382.086731,331.574890 
	C378.391510,298.186737 374.721436,265.026062 371.016632,231.551498 
	C378.880280,230.110031 386.506439,228.561493 394.196533,227.459137 
	C395.398193,227.286865 397.312866,228.852692 398.184692,230.109482 
	C408.232391,244.594025 418.141113,259.174957 428.090881,273.727478 
	C429.111511,275.220276 430.158875,276.694763 432.484100,278.145844 
	C432.711853,276.635925 433.269440,275.091705 433.116394,273.621429 
	C431.582550,258.888977 429.845764,244.177170 428.388519,229.437561 
	C428.105560,226.575272 428.783356,223.617966 429.446716,220.573090 
M449.246826,261.123260 
	C447.926941,248.940338 446.607056,236.757431 445.241852,224.155991 
	C441.044098,225.138443 437.505432,225.966644 433.966736,226.794861 
	C434.008118,227.385849 434.049530,227.976852 434.090912,228.567841 
	C436.944733,228.697525 439.798584,228.827209 442.968475,228.971252 
	C443.245544,230.834229 443.628479,232.950241 443.866974,235.082413 
	C446.547729,259.048462 449.179626,283.020081 451.932220,306.977844 
	C452.111267,308.536285 453.171295,309.993500 453.821503,311.497833 
	C454.176941,311.356079 454.532379,311.214355 454.887848,311.072601 
	C453.046387,294.722351 451.204956,278.372070 449.246826,261.123260 
M423.138885,281.358978 
	C425.266846,284.353607 427.394806,287.348206 429.522736,290.342834 
	C429.990021,290.106354 430.457306,289.869873 430.924561,289.633392 
	C430.491577,288.338623 430.323181,286.864655 429.585876,285.775970 
	C418.409149,269.272369 407.180450,252.803757 395.871613,236.390549 
	C395.144257,235.334885 393.561951,234.020691 392.549652,234.152252 
	C387.550110,234.801956 382.608582,235.898239 377.646606,236.837006 
	C377.625397,237.290710 377.604218,237.744415 377.583008,238.198120 
	C378.987274,238.517288 380.400360,239.127808 381.793732,239.085754 
	C383.766479,239.026215 385.764435,238.633347 387.680634,238.118607 
	C391.459229,237.103577 393.860962,238.077118 396.164337,241.588928 
	C404.817352,254.781784 413.880951,267.705322 423.138885,281.358978 
M393.068329,273.714630 
	C392.647949,273.158325 392.227539,272.602020 391.807129,272.045715 
	C391.443054,272.974762 390.683716,273.944183 390.773895,274.826843 
	C392.225464,289.036560 393.753235,303.238892 395.374908,317.430206 
	C395.520355,318.703308 396.432709,319.888763 396.988892,321.114929 
	C397.403625,320.996704 397.818390,320.878448 398.233124,320.760193 
	C396.533051,305.355896 394.832947,289.951630 393.068329,273.714630 
z"/>
<path fill="#F9F9F9" opacity="1.000000" stroke="none" 
	d="
M278.764465,264.261444 
	C277.481018,253.083374 276.251801,242.355377 274.973969,231.203247 
	C282.581696,229.804001 290.028320,228.434387 297.809082,227.003311 
	C299.880096,245.588989 301.816925,263.939240 304.041687,282.254486 
	C304.597473,286.829834 305.737030,291.410736 307.236969,295.772919 
	C308.673065,299.949432 311.889069,302.605682 316.546204,302.968201 
	C321.490082,303.352997 325.327637,301.363770 327.949890,297.222839 
	C331.250458,292.010742 331.323120,286.276062 330.611725,280.350525 
	C328.350586,261.516449 326.221802,242.666504 324.057098,223.820938 
	C324.003418,223.353394 324.127533,222.865417 324.198181,222.044754 
	C331.502289,220.725906 338.800781,219.408066 346.520569,218.014160 
	C348.007477,230.634033 349.473846,242.970657 350.910187,255.310776 
	C351.814423,263.079193 353.194702,270.838684 353.406128,278.628113 
	C353.616333,286.370697 353.702911,294.395386 351.964569,301.858673 
	C347.193573,322.342285 323.556244,334.613068 303.663025,327.595001 
	C295.222748,324.617401 289.409668,318.311401 287.014771,310.144470 
	C283.859711,299.385132 282.190155,288.178650 280.110931,277.121399 
	C279.344971,273.047821 279.230408,268.851715 278.764465,264.261444 
M344.769501,246.723358 
	C343.892120,239.707199 343.014740,232.691040 342.090302,225.298508 
	C337.799744,226.292709 334.237885,227.118073 330.676025,227.943420 
	C330.737213,228.457077 330.798431,228.970718 330.859619,229.484375 
	C333.778076,229.484375 336.696533,229.484375 339.819641,229.484375 
	C340.081146,230.568634 340.475861,231.667068 340.598633,232.795105 
	C342.380981,249.173401 344.523895,265.525238 345.782898,281.944550 
	C347.421875,303.319305 342.332245,310.723907 322.553619,318.245483 
	C321.731628,318.558105 321.381958,320.112579 320.454529,321.701294 
	C336.357025,319.125336 345.178467,312.038544 347.653534,299.191101 
	C348.860809,292.924377 348.849976,286.275635 348.398285,279.869751 
	C347.638184,269.090881 346.086823,258.367798 344.769501,246.723358 
M306.111786,304.365387 
	C304.077026,299.708588 301.087158,295.225433 300.202484,290.359558 
	C298.243439,279.584290 297.321991,268.619110 296.016022,257.726746 
	C295.095398,250.048523 294.238251,242.362686 293.314972,234.352280 
	C289.008179,235.106979 285.399017,235.739426 281.789886,236.371872 
	C281.799805,236.882568 281.809753,237.393250 281.819672,237.903946 
	C284.875153,237.903946 287.930634,237.903946 291.199860,237.903946 
	C292.495514,249.487564 293.499908,260.576355 295.040009,271.590240 
	C296.346680,280.934509 297.789032,290.313995 300.089813,299.446472 
	C301.680786,305.761505 306.226685,310.201569 313.281982,311.600616 
	C313.162933,310.311676 312.790405,309.103546 311.974518,308.442566 
	C310.316284,307.099152 308.418549,306.051300 306.111786,304.365387 
z"/>
<path fill="#FAFAFA" opacity="1.000000" stroke="none" 
	d="
M488.195526,339.568054 
	C484.607025,338.297211 481.483826,337.026733 478.360657,335.756226 
	C479.744598,332.729156 480.632874,329.325317 482.597931,326.739899 
	C491.325012,315.257690 503.618286,310.433044 517.528076,309.022919 
	C519.326233,308.840607 521.383850,308.686523 522.957886,309.363800 
	C526.026001,310.683929 530.114380,311.985962 531.318359,314.482697 
	C532.163086,316.234528 529.571594,320.628937 527.410156,322.678528 
	C516.598389,332.930664 503.967194,339.428680 488.195526,339.568054 
z"/>
<path fill="#FAFAFA" opacity="1.000000" stroke="none" 
	d="
M741.824890,280.301270 
	C746.299866,293.897034 750.662781,307.112030 755.190308,320.825653 
	C746.863586,321.569397 738.865906,322.283752 730.661438,323.016571 
	C728.265442,315.335785 725.962036,307.951813 723.589600,300.346680 
	C713.231934,301.273956 703.156250,302.176025 692.678467,303.114044 
	C691.234436,310.943909 689.797302,318.736389 688.300659,326.851318 
	C680.621277,327.532562 673.073669,328.202148 665.015137,328.917053 
	C672.465637,293.777649 679.820068,259.091278 687.221802,224.182037 
	C698.786926,223.124634 710.186584,222.082352 722.094177,220.993637 
	C728.644226,240.667404 735.178528,260.293976 741.824890,280.301270 
M698.874390,268.229797 
	C697.993591,273.249146 697.112793,278.268494 696.136597,283.831451 
	C703.571289,283.176575 710.531189,282.563507 717.778198,281.925171 
	C713.977112,268.955109 710.371216,256.553619 706.658752,244.184097 
	C706.386658,243.277420 705.344604,242.601837 704.660522,241.818802 
	C704.084351,242.654678 703.156311,243.425369 702.987549,244.336700 
	C701.567993,252.000580 700.287415,259.690186 698.874390,268.229797 
M746.692444,313.958344 
	C744.145996,305.623322 741.734436,297.244232 739.026367,288.962067 
	C732.384827,268.649780 725.606384,248.382248 718.787903,227.809692 
	C709.686829,228.613403 700.791260,229.398972 691.895691,230.184525 
	C691.887207,230.720428 691.878784,231.256332 691.870361,231.792221 
	C700.147400,234.899734 708.723328,230.344437 717.304382,231.493729 
	C717.538757,232.161880 717.819031,232.923325 718.074097,233.693146 
	C726.315369,258.569916 734.527100,283.456573 742.845703,308.307434 
	C743.497437,310.254425 744.892639,311.952576 746.692444,313.958344 
M710.316345,288.970367 
	C695.697571,289.992523 695.697571,289.992523 694.534668,293.498047 
	C703.241028,292.777954 711.728271,292.075989 720.215515,291.374023 
	C720.343445,290.843872 720.471375,290.313721 720.599304,289.783569 
	C719.452087,289.289032 718.320618,288.431854 717.154114,288.381226 
	C715.187622,288.295990 713.198975,288.722137 710.316345,288.970367 
z"/>
<path fill="#F9F9F9" opacity="1.000000" stroke="none" 
	d="
M140.160614,322.367035 
	C126.509460,329.159729 113.980377,325.516937 101.722267,319.379852 
	C100.905128,318.970734 100.190895,317.296783 100.288452,316.294800 
	C100.847198,310.556732 101.666061,304.843994 102.407982,299.033752 
	C107.060387,300.875671 111.390892,302.859406 115.895241,304.299225 
	C120.582291,305.797394 125.200783,305.629822 128.509598,301.190338 
	C131.390167,297.325470 131.379074,291.156921 128.014648,286.711823 
	C125.429443,283.296234 122.439430,280.057190 119.137932,277.335938 
	C104.204185,265.026917 104.454956,248.254837 111.148743,233.944885 
	C117.762108,219.806870 136.694351,215.197678 150.279282,223.949951 
	C151.179291,224.529800 151.802628,226.357025 151.703384,227.532181 
	C151.200317,233.489700 150.415939,239.423431 149.727249,245.390457 
	C146.113663,244.921890 142.418610,243.637360 139.067581,244.246216 
	C136.024246,244.799210 132.091751,246.795532 130.874130,249.289612 
	C129.639725,251.818085 130.244949,256.383850 131.858643,258.888428 
	C134.106201,262.376740 137.840393,265.049377 141.287704,267.598663 
	C158.927658,280.643433 158.546295,309.585907 140.160614,322.367035 
M123.758904,255.849869 
	C123.424965,256.713257 122.547287,257.920166 122.841888,258.386444 
	C125.548233,262.670013 128.112823,267.124329 131.411560,270.928070 
	C134.320511,274.282349 138.499817,276.529144 141.441040,279.862427 
	C148.154907,287.471344 146.902161,296.324402 143.708069,304.801666 
	C140.739929,312.679230 134.146042,315.906067 125.915276,315.970154 
	C123.893120,315.985870 121.870743,315.972473 118.351822,315.972473 
	C120.199799,317.622498 120.746559,318.506470 121.478477,318.703857 
	C130.139069,321.039551 140.565308,316.651276 145.208374,308.813843 
	C152.483810,296.533051 149.913681,282.023956 138.866928,273.072479 
	C137.057297,271.606110 134.847366,270.464294 133.463165,268.676453 
	C130.275360,264.559052 127.481728,260.136475 123.758904,255.849869 
M145.069366,236.223206 
	C145.297089,233.957565 145.524826,231.691925 145.804718,228.907181 
	C142.022125,228.137039 138.445038,227.408752 134.719299,226.650192 
	C134.570984,227.907715 134.372955,228.740463 134.482346,228.783035 
	C137.231827,229.852753 140.013641,230.839340 142.531067,231.747253 
	C142.845535,233.819336 143.133804,235.718826 143.422073,237.618317 
	C143.953918,237.414474 144.485764,237.210648 145.069366,236.223206 
z"/>
<path fill="#FBFBFB" opacity="1.000000" stroke="none" 
	d="
M222.798370,327.035400 
	C204.226730,330.633453 188.591736,323.612579 180.152145,307.215149 
	C170.296341,288.066071 168.753357,268.054352 177.035309,247.969009 
	C185.720856,226.904922 208.361557,216.207962 228.940430,222.733673 
	C238.839966,225.872879 246.019409,232.307785 250.748718,241.324707 
	C259.720764,258.430756 261.569519,276.487274 256.195160,294.994659 
	C251.331894,311.742004 240.478455,322.780487 222.798370,327.035400 
M196.711090,281.630463 
	C197.276520,283.874390 197.639404,286.193817 198.442749,288.349060 
	C201.767258,297.268066 208.125366,302.132874 216.036606,302.006683 
	C223.978973,301.880005 230.817307,296.392456 233.482437,287.421417 
	C236.440414,277.464569 235.551773,267.640839 230.757126,258.428436 
	C227.423309,252.022888 222.292252,247.743439 214.538818,248.015579 
	C206.841721,248.285751 202.093643,252.825653 198.918884,259.351257 
	C195.592804,266.187836 195.464539,273.426056 196.711090,281.630463 
M215.523361,231.042374 
	C228.715561,230.518570 238.671661,236.411133 244.238159,247.927261 
	C247.689682,255.067825 249.851944,263.248901 250.674362,271.162323 
	C252.874313,292.330688 243.185074,312.996582 221.881134,317.344452 
	C221.072266,317.509552 220.549835,319.078308 219.087830,321.117065 
	C232.910355,318.245911 242.864288,312.199585 248.181839,300.798523 
	C257.723053,280.341644 256.468262,260.056610 244.170685,241.052917 
	C237.410858,230.606781 227.058075,226.120728 214.598511,227.142593 
	C213.063354,227.268494 211.640442,228.762939 210.165512,229.623199 
	C211.647141,230.113388 213.128754,230.603577 215.523361,231.042374 
M195.909866,295.380371 
	C194.481689,292.048370 193.053513,288.716400 191.374802,284.799866 
	C188.339432,293.501801 199.981857,308.765839 210.467072,310.300293 
	C205.479797,305.320068 200.845703,300.692535 195.909866,295.380371 
z"/>
<path fill="#F9F9F9" opacity="1.000000" stroke="none" 
	d="
M626.769409,278.692078 
	C628.745789,260.271210 630.668640,242.294006 632.625183,224.001816 
	C640.363098,225.443420 647.494629,226.772049 654.949890,228.160995 
	C653.587952,240.926544 652.342529,253.465622 650.889526,265.980591 
	C649.374146,279.033142 648.250244,292.170471 645.893738,305.076904 
	C642.233887,325.121521 631.713074,330.984192 612.422180,324.659454 
	C609.288452,323.632050 606.285278,322.206238 603.004456,320.876495 
	C603.792358,313.399597 604.556824,306.145844 605.316284,298.939392 
	C605.725525,298.781738 606.053833,298.518494 606.309509,298.576355 
	C619.238708,301.501160 623.020447,299.073303 625.650513,286.042725 
	C626.110962,283.761658 626.366028,281.439148 626.769409,278.692078 
M647.761536,248.277267 
	C648.213745,243.379517 648.665955,238.481766 649.135193,233.399185 
	C645.050293,232.709702 641.538574,232.116959 638.026855,231.524216 
	C637.825989,232.101746 637.625183,232.679276 637.424377,233.256805 
	C640.357361,234.419891 643.290283,235.582977 646.626526,236.905991 
	C644.088135,258.383270 641.835144,280.025269 638.870117,301.569244 
	C637.076782,314.599457 633.746643,317.178528 620.912476,318.691345 
	C621.784485,319.711548 622.824219,320.710327 623.990051,320.889587 
	C629.822571,321.786224 635.135010,319.398224 637.582336,313.885956 
	C639.641235,309.248810 641.251160,304.205872 641.910217,299.191467 
	C644.096436,282.555969 645.763611,265.852203 647.761536,248.277267 
z"/>
<path fill="#1F1F1F" opacity="1.000000" stroke="none" 
	d="
M872.405640,312.890015 
	C871.385803,310.715088 870.271667,308.605469 870.144836,306.438080 
	C868.667847,281.197266 867.341553,255.947647 865.961426,230.701126 
	C865.926331,230.059097 865.732300,229.425751 865.676086,229.126999 
	C859.734436,227.477188 853.527893,232.124268 848.010437,227.049240 
	C854.549805,226.405045 861.089172,225.760834 868.127991,225.067429 
	C868.622498,233.501801 869.142456,241.584473 869.561646,249.672394 
	C870.654663,270.756531 871.703613,291.842957 872.405640,312.890015 
z"/>
<path fill="#181818" opacity="1.000000" stroke="none" 
	d="
M794.848999,233.868713 
	C802.786438,252.969864 810.580261,271.689301 818.374084,290.408783 
	C817.857971,290.711700 817.341919,291.014648 816.825806,291.317596 
	C815.910461,289.939178 814.747131,288.664917 814.118103,287.166321 
	C807.383667,271.124481 800.606934,255.097733 794.164612,238.938126 
	C792.832886,235.597702 791.284790,234.749908 787.959351,235.406937 
	C784.715515,236.047836 781.359497,236.288940 778.047607,236.334671 
	C776.716492,236.353027 775.371704,235.383148 774.033142,234.863052 
	C774.107483,234.430435 774.181885,233.997803 774.256226,233.565186 
	C780.475952,233.043976 786.692993,232.481125 792.920105,232.072281 
	C793.481812,232.035400 794.108704,232.991882 794.848999,233.868713 
z"/>
<path fill="#1C1C1C" opacity="1.000000" stroke="none" 
	d="
M831.874512,302.756287 
	C835.969788,288.911407 839.979126,275.460815 843.988464,262.010254 
	C844.644104,262.192261 845.299744,262.374298 845.955383,262.556305 
	C841.624695,280.882019 835.525757,298.744293 830.568237,317.105103 
	C828.099182,314.701294 828.099182,314.701294 831.874512,302.756287 
z"/>
<path fill="#202020" opacity="1.000000" stroke="none" 
	d="
M788.901367,302.046417 
	C789.195984,308.456085 789.482849,314.385925 789.769775,320.315796 
	C789.444397,320.424133 789.118958,320.532440 788.793579,320.640778 
	C788.201111,319.127045 787.179565,317.639984 787.083618,316.095459 
	C786.278015,303.127899 785.602600,290.151672 784.999451,277.172882 
	C784.913330,275.320404 785.424377,273.440125 785.659058,271.572723 
	C786.116516,271.587128 786.574036,271.601532 787.031494,271.615906 
	C787.652222,281.599487 788.272949,291.583038 788.901367,302.046417 
z"/>
<path fill="#1C1C1C" opacity="1.000000" stroke="none" 
	d="
M449.305176,261.572540 
	C451.204956,278.372070 453.046387,294.722351 454.887848,311.072601 
	C454.532379,311.214355 454.176941,311.356079 453.821503,311.497833 
	C453.171295,309.993500 452.111267,308.536285 451.932220,306.977844 
	C449.179626,283.020081 446.547729,259.048462 443.866974,235.082413 
	C443.628479,232.950241 443.245544,230.834229 442.968475,228.971252 
	C439.798584,228.827209 436.944733,228.697525 434.090912,228.567841 
	C434.049530,227.976852 434.008118,227.385849 433.966736,226.794861 
	C437.505432,225.966644 441.044098,225.138443 445.241852,224.155991 
	C446.607056,236.757431 447.926941,248.940338 449.305176,261.572540 
z"/>
<path fill="#181818" opacity="1.000000" stroke="none" 
	d="
M422.964783,281.044373 
	C413.880951,267.705322 404.817352,254.781784 396.164337,241.588928 
	C393.860962,238.077118 391.459229,237.103577 387.680634,238.118607 
	C385.764435,238.633347 383.766479,239.026215 381.793732,239.085754 
	C380.400360,239.127808 378.987274,238.517288 377.583008,238.198120 
	C377.604218,237.744415 377.625397,237.290710 377.646606,236.837006 
	C382.608582,235.898239 387.550110,234.801956 392.549652,234.152252 
	C393.561951,234.020691 395.144257,235.334885 395.871613,236.390549 
	C407.180450,252.803757 418.409149,269.272369 429.585876,285.775970 
	C430.323181,286.864655 430.491577,288.338623 430.924561,289.633392 
	C430.457306,289.869873 429.990021,290.106354 429.522736,290.342834 
	C427.394806,287.348206 425.266846,284.353607 422.964783,281.044373 
z"/>
<path fill="#1B1B1B" opacity="1.000000" stroke="none" 
	d="
M393.100586,274.130981 
	C394.832947,289.951630 396.533051,305.355896 398.233124,320.760193 
	C397.818390,320.878448 397.403625,320.996704 396.988892,321.114929 
	C396.432709,319.888763 395.520355,318.703308 395.374908,317.430206 
	C393.753235,303.238892 392.225464,289.036560 390.773895,274.826843 
	C390.683716,273.944183 391.443054,272.974762 391.807129,272.045715 
	C392.227539,272.602020 392.647949,273.158325 393.100586,274.130981 
z"/>
<path fill="#161616" opacity="1.000000" stroke="none" 
	d="
M344.818909,247.172302 
	C346.086823,258.367798 347.638184,269.090881 348.398285,279.869751 
	C348.849976,286.275635 348.860809,292.924377 347.653534,299.191101 
	C345.178467,312.038544 336.357025,319.125336 320.454529,321.701294 
	C321.381958,320.112579 321.731628,318.558105 322.553619,318.245483 
	C342.332245,310.723907 347.421875,303.319305 345.782898,281.944550 
	C344.523895,265.525238 342.380981,249.173401 340.598633,232.795105 
	C340.475861,231.667068 340.081146,230.568634 339.819641,229.484375 
	C336.696533,229.484375 333.778076,229.484375 330.859619,229.484375 
	C330.798431,228.970718 330.737213,228.457077 330.676025,227.943420 
	C334.237885,227.118073 337.799744,226.292709 342.090302,225.298508 
	C343.014740,232.691040 343.892120,239.707199 344.818909,247.172302 
z"/>
<path fill="#191919" opacity="1.000000" stroke="none" 
	d="
M306.365662,304.623535 
	C308.418549,306.051300 310.316284,307.099152 311.974518,308.442566 
	C312.790405,309.103546 313.162933,310.311676 313.281982,311.600616 
	C306.226685,310.201569 301.680786,305.761505 300.089813,299.446472 
	C297.789032,290.313995 296.346680,280.934509 295.040009,271.590240 
	C293.499908,260.576355 292.495514,249.487564 291.199860,237.903946 
	C287.930634,237.903946 284.875153,237.903946 281.819672,237.903946 
	C281.809753,237.393250 281.799805,236.882568 281.789886,236.371872 
	C285.399017,235.739426 289.008179,235.106979 293.314972,234.352280 
	C294.238251,242.362686 295.095398,250.048523 296.016022,257.726746 
	C297.321991,268.619110 298.243439,279.584290 300.202484,290.359558 
	C301.087158,295.225433 304.077026,299.708588 306.365662,304.623535 
z"/>
<path fill="#0B0B0B" opacity="1.000000" stroke="none" 
	d="
M698.919678,267.800934 
	C700.287415,259.690186 701.567993,252.000580 702.987549,244.336700 
	C703.156311,243.425369 704.084351,242.654678 704.660522,241.818802 
	C705.344604,242.601837 706.386658,243.277420 706.658752,244.184097 
	C710.371216,256.553619 713.977112,268.955109 717.778198,281.925171 
	C710.531189,282.563507 703.571289,283.176575 696.136597,283.831451 
	C697.112793,278.268494 697.993591,273.249146 698.919678,267.800934 
M706.999023,272.463440 
	C706.679871,274.523865 706.360718,276.584290 705.967224,279.124817 
	C709.007080,278.661102 711.501831,278.280518 714.156555,277.875549 
	C712.506836,272.516663 711.033203,267.729797 709.106506,261.471069 
	C708.240356,265.838745 707.666565,268.732056 706.999023,272.463440 
z"/>
<path fill="#191919" opacity="1.000000" stroke="none" 
	d="
M746.317383,313.862366 
	C744.892639,311.952576 743.497437,310.254425 742.845703,308.307434 
	C734.527100,283.456573 726.315369,258.569916 718.074097,233.693146 
	C717.819031,232.923325 717.538757,232.161880 717.304382,231.493729 
	C708.723328,230.344437 700.147400,234.899734 691.870361,231.792221 
	C691.878784,231.256332 691.887207,230.720428 691.895691,230.184525 
	C700.791260,229.398972 709.686829,228.613403 718.787903,227.809692 
	C725.606384,248.382248 732.384827,268.649780 739.026367,288.962067 
	C741.734436,297.244232 744.145996,305.623322 746.317383,313.862366 
z"/>
<path fill="#1B1B1B" opacity="1.000000" stroke="none" 
	d="
M710.767944,288.951782 
	C713.198975,288.722137 715.187622,288.295990 717.154114,288.381226 
	C718.320618,288.431854 719.452087,289.289032 720.599304,289.783569 
	C720.471375,290.313721 720.343445,290.843872 720.215515,291.374023 
	C711.728271,292.075989 703.241028,292.777954 694.534668,293.498047 
	C695.697571,289.992523 695.697571,289.992523 710.767944,288.951782 
z"/>
<path fill="#131313" opacity="1.000000" stroke="none" 
	d="
M124.143524,255.843796 
	C127.481728,260.136475 130.275360,264.559052 133.463165,268.676453 
	C134.847366,270.464294 137.057297,271.606110 138.866928,273.072479 
	C149.913681,282.023956 152.483810,296.533051 145.208374,308.813843 
	C140.565308,316.651276 130.139069,321.039551 121.478477,318.703857 
	C120.746559,318.506470 120.199799,317.622498 118.351822,315.972473 
	C121.870743,315.972473 123.893120,315.985870 125.915276,315.970154 
	C134.146042,315.906067 140.739929,312.679230 143.708069,304.801666 
	C146.902161,296.324402 148.154907,287.471344 141.441040,279.862427 
	C138.499817,276.529144 134.320511,274.282349 131.411560,270.928070 
	C128.112823,267.124329 125.548233,262.670013 122.841888,258.386444 
	C122.547287,257.920166 123.424965,256.713257 124.143524,255.843796 
z"/>
<path fill="#1F1F1F" opacity="1.000000" stroke="none" 
	d="
M145.043488,236.615005 
	C144.485764,237.210648 143.953918,237.414474 143.422073,237.618317 
	C143.133804,235.718826 142.845535,233.819336 142.531067,231.747253 
	C140.013641,230.839340 137.231827,229.852753 134.482346,228.783035 
	C134.372955,228.740463 134.570984,227.907715 134.719299,226.650192 
	C138.445038,227.408752 142.022125,228.137039 145.804718,228.907181 
	C145.524826,231.691925 145.297089,233.957565 145.043488,236.615005 
z"/>
<path fill="#090909" opacity="1.000000" stroke="none" 
	d="
M196.614136,281.203156 
	C195.464539,273.426056 195.592804,266.187836 198.918884,259.351257 
	C202.093643,252.825653 206.841721,248.285751 214.538818,248.015579 
	C222.292252,247.743439 227.423309,252.022888 230.757126,258.428436 
	C235.551773,267.640839 236.440414,277.464569 233.482437,287.421417 
	C230.817307,296.392456 223.978973,301.880005 216.036606,302.006683 
	C208.125366,302.132874 201.767258,297.268066 198.442749,288.349060 
	C197.639404,286.193817 197.276520,283.874390 196.614136,281.203156 
M230.850967,266.999207 
	C228.670868,260.521942 223.106033,257.614105 216.479996,259.492798 
	C211.245590,260.976929 208.057373,264.695770 206.115005,269.488525 
	C203.058533,277.030365 203.371567,284.785614 205.605728,292.439850 
	C206.044586,293.943359 207.606918,295.476105 209.050110,296.270386 
	C217.480057,300.909943 228.069504,296.019806 230.558807,285.509399 
	C231.888565,279.894867 230.921005,273.736298 230.850967,266.999207 
z"/>
<path fill="#121212" opacity="1.000000" stroke="none" 
	d="
M215.066864,231.068069 
	C213.128754,230.603577 211.647141,230.113388 210.165512,229.623199 
	C211.640442,228.762939 213.063354,227.268494 214.598511,227.142593 
	C227.058075,226.120728 237.410858,230.606781 244.170685,241.052917 
	C256.468262,260.056610 257.723053,280.341644 248.181839,300.798523 
	C242.864288,312.199585 232.910355,318.245911 219.087830,321.117065 
	C220.549835,319.078308 221.072266,317.509552 221.881134,317.344452 
	C243.185074,312.996582 252.874313,292.330688 250.674362,271.162323 
	C249.851944,263.248901 247.689682,255.067825 244.238159,247.927261 
	C238.671661,236.411133 228.715561,230.518570 215.066864,231.068069 
z"/>
<path fill="#161616" opacity="1.000000" stroke="none" 
	d="
M196.060730,295.722656 
	C200.845703,300.692535 205.479797,305.320068 210.467072,310.300293 
	C199.981857,308.765839 188.339432,293.501801 191.374802,284.799866 
	C193.053513,288.716400 194.481689,292.048370 196.060730,295.722656 
z"/>
<path fill="#191919" opacity="1.000000" stroke="none" 
	d="
M647.695740,248.725937 
	C645.763611,265.852203 644.096436,282.555969 641.910217,299.191467 
	C641.251160,304.205872 639.641235,309.248810 637.582336,313.885956 
	C635.135010,319.398224 629.822571,321.786224 623.990051,320.889587 
	C622.824219,320.710327 621.784485,319.711548 620.912476,318.691345 
	C633.746643,317.178528 637.076782,314.599457 638.870117,301.569244 
	C641.835144,280.025269 644.088135,258.383270 646.626526,236.905991 
	C643.290283,235.582977 640.357361,234.419891 637.424377,233.256805 
	C637.625183,232.679276 637.825989,232.101746 638.026855,231.524216 
	C641.538574,232.116959 645.050293,232.709702 649.135193,233.399185 
	C648.665955,238.481766 648.213745,243.379517 647.695740,248.725937 
z"/>
<path fill="#ECECEC" opacity="1.000000" stroke="none" 
	d="
M707.045898,272.044434 
	C707.666565,268.732056 708.240356,265.838745 709.106506,261.471069 
	C711.033203,267.729797 712.506836,272.516663 714.156555,277.875549 
	C711.501831,278.280518 709.007080,278.661102 705.967224,279.124817 
	C706.360718,276.584290 706.679871,274.523865 707.045898,272.044434 
z"/>
<path fill="#FBFBFB" opacity="1.000000" stroke="none" 
	d="
M230.920593,267.411224 
	C230.921005,273.736298 231.888565,279.894867 230.558807,285.509399 
	C228.069504,296.019806 217.480057,300.909943 209.050110,296.270386 
	C207.606918,295.476105 206.044586,293.943359 205.605728,292.439850 
	C203.371567,284.785614 203.058533,277.030365 206.115005,269.488525 
	C208.057373,264.695770 211.245590,260.976929 216.479996,259.492798 
	C223.106033,257.614105 228.670868,260.521942 230.920593,267.411224 
z"/>
</svg>