<svg version="1.1" id="Layer_1" xmlns="http://www.w3.org/2000/svg" xmlns:xlink="http://www.w3.org/1999/xlink" x="0px" y="0px"
	 width="100%" viewBox="0 0 1024 500" enable-background="new 0 0 1024 500" xml:space="preserve">
<path fill="#FFFFFF" opacity="1.000000" stroke="none" 
	d="
M633.000000,501.000000 
	C423.534271,501.000000 214.568512,500.990356 5.602808,501.081390 
	C2.046517,501.082947 0.888016,500.585419 0.891109,496.604156 
	C1.018381,332.797760 1.017679,168.991272 0.889881,5.184897 
	C0.886929,1.401489 1.883521,0.917297 5.313816,0.918185 
	C343.758301,1.005838 682.202820,1.004971 1020.647339,0.928034 
	C1023.966675,0.927279 1025.121338,1.251377 1025.118164,5.146048 
	C1024.980591,169.119049 1024.984497,333.092194 1025.102295,497.065247 
	C1025.104858,500.620239 1024.219360,501.087860 1020.935974,501.085327 
	C891.790710,500.984894 762.645325,501.000000 633.000000,501.000000 
z"/>
<path fill="#743DFF" opacity="1.000000" stroke="none" 
	d="
M82.467224,176.500092 
	C87.867867,148.016052 92.981911,119.866539 98.120094,91.721436 
	C98.890594,87.500938 98.434669,81.942383 100.960701,79.452118 
	C103.809708,76.643463 109.015831,80.022545 113.114594,80.750214 
	C163.059265,89.617020 212.951874,98.776466 262.870544,107.790459 
	C309.680420,116.243088 356.511078,124.580711 403.321472,133.030350 
	C433.770477,138.526627 464.198090,144.141479 494.639954,149.677307 
	C497.910736,150.272125 501.212982,150.694016 504.935852,151.290100 
	C522.257690,152.095108 538.600586,156.349976 555.159973,159.150986 
	C566.487366,161.067032 577.862305,162.785522 589.084167,165.287979 
	C590.919678,165.697311 593.714294,165.010330 593.558960,168.523224 
	C589.970520,170.057465 586.601562,169.601395 583.295349,169.601868 
	C424.574707,169.624634 265.854065,169.619064 107.133446,169.626450 
	C94.697044,169.627029 95.640968,169.060043 95.631912,180.931168 
	C95.603554,218.071442 95.625465,255.211746 95.613808,292.352051 
	C95.612968,295.010864 95.789886,297.685547 95.018608,300.754761 
	C93.501007,303.463654 91.378525,302.738617 89.488838,302.425079 
	C82.107803,301.200531 74.736275,299.903931 67.403320,298.422058 
	C61.168697,297.162109 59.922340,295.348816 61.079948,288.977234 
	C65.419327,265.093079 69.750320,241.207840 73.983948,217.304398 
	C76.042473,205.681763 77.927284,194.024734 80.326263,182.463333 
	C80.729507,180.519958 80.924423,178.498489 82.467224,176.500092 
z"/>
<path fill="#753DFF" opacity="1.000000" stroke="none" 
	d="
M942.932251,229.823761 
	C945.981384,231.495956 948.998352,232.171021 951.876099,232.083649 
	C956.333008,231.948318 955.878418,234.560471 955.401367,237.259949 
	C953.464905,248.218140 951.408203,259.154999 949.443787,270.108337 
	C948.536072,275.169830 947.738647,280.251129 946.843872,285.756653 
	C944.973328,307.905487 939.783997,329.058655 936.047852,350.454498 
	C935.819824,351.760101 935.525330,353.063843 934.600708,354.584076 
	C931.228394,372.122406 928.100952,389.307159 924.934082,406.484650 
	C922.523132,419.561829 919.899597,432.602722 917.717224,445.717438 
	C917.017639,449.921387 914.721069,450.230408 911.523560,449.643555 
	C900.404968,447.602936 889.307068,445.448700 878.182251,443.443268 
	C836.427551,435.916534 794.656982,428.478149 752.908569,420.916870 
	C717.054016,414.423065 681.231628,407.751343 645.376831,401.259186 
	C604.770447,393.906647 564.144470,386.662048 523.522583,379.395416 
	C522.055298,379.132935 520.540771,379.134827 518.632446,378.974304 
	C508.612366,378.649261 499.292023,376.421875 489.904358,374.698761 
	C488.059357,374.360107 485.326721,374.940674 485.409332,371.501770 
	C488.994110,369.933563 492.366547,370.399475 495.673645,370.398865 
	C625.654602,370.374969 755.635498,370.382263 885.616455,370.372528 
	C897.392578,370.371643 896.358215,371.006226 896.366577,359.467865 
	C896.397095,317.307373 896.374207,275.146912 896.388000,232.986420 
	C896.388977,230.160614 896.169617,227.314621 897.033325,224.080170 
	C898.192139,221.909424 899.902710,221.663193 901.545593,221.920029 
	C915.294617,224.069397 929.064758,226.120224 942.932251,229.823761 
z"/>
<path fill="#4DD5FF" opacity="1.000000" stroke="none" 
	d="
M484.792786,371.789490 
	C495.959503,374.241180 506.783081,376.331940 517.911621,378.678894 
	C502.442413,379.956879 486.670990,381.023529 470.893463,381.991058 
	C439.336182,383.926208 407.776581,385.824249 376.215912,387.703735 
	C357.775024,388.801941 339.329193,389.816101 320.887512,390.901062 
	C287.828796,392.845917 254.772232,394.827606 221.713394,396.770355 
	C203.438004,397.844330 185.158447,398.847534 166.883163,399.923340 
	C134.156784,401.849854 101.432739,403.816162 68.706284,405.741577 
	C63.885696,406.025177 59.040844,406.002136 54.239014,406.456818 
	C51.605831,406.706116 51.135365,405.596313 51.011150,403.393738 
	C50.074127,386.778107 49.062645,370.166656 48.077194,353.553741 
	C46.126133,320.662354 44.153965,287.772217 42.235565,254.878937 
	C41.111477,235.605072 40.082314,216.325714 38.992336,197.049850 
	C38.719913,192.232178 38.490292,187.407516 38.024994,182.607010 
	C37.745575,179.724243 38.846985,178.979507 41.618813,178.824158 
	C55.071606,178.070129 68.511497,177.085892 82.350967,176.173676 
	C79.347504,195.419205 76.023010,214.687714 72.529480,233.925507 
	C69.123589,252.680695 65.536240,271.402924 62.048626,290.143341 
	C61.273369,294.309113 62.692482,296.436432 67.263100,297.078186 
	C75.952721,298.298218 84.555344,300.137848 93.584312,301.746521 
	C96.067284,303.968323 95.585220,306.755737 95.593910,309.363464 
	C95.652191,326.856476 95.614525,344.349731 95.626198,361.842926 
	C95.631874,370.350006 95.644402,370.372437 104.261986,370.372833 
	C227.047455,370.378510 349.832947,370.368652 472.618408,370.410950 
	C476.569153,370.412323 480.631714,369.662567 484.792786,371.789490 
z"/>
<path fill="#4DD5FF" opacity="1.000000" stroke="none" 
	d="
M943.266113,229.620407 
	C931.704041,229.381958 920.533813,226.127426 909.093994,224.520111 
	C905.665405,224.038391 902.263245,223.368347 898.422424,222.749390 
	C896.044128,220.664139 896.426941,218.058182 896.414246,215.604736 
	C896.350281,203.272263 896.397156,190.939377 896.382690,178.606659 
	C896.372192,169.685471 896.329346,169.623077 887.566772,169.620193 
	C847.235413,169.606934 806.903992,169.614716 766.572632,169.614426 
	C712.408569,169.614029 658.244507,169.621292 604.080444,169.596268 
	C601.104980,169.594894 598.063599,170.008591 594.812195,168.434799 
	C585.198975,165.325027 575.612976,164.335907 566.179932,162.592834 
	C546.113953,158.884995 526.013794,155.361343 505.649414,151.573135 
	C532.791626,149.880783 560.215149,148.430679 587.631897,146.861618 
	C627.841125,144.560486 668.045898,142.180099 708.251831,139.822250 
	C736.162964,138.185410 764.072510,136.522186 791.983582,134.884430 
	C826.541138,132.856689 861.101257,130.870819 895.656799,128.808884 
	C908.444946,128.045807 921.230347,127.207619 934.001648,126.207909 
	C937.535583,125.931282 937.690674,127.843819 937.828186,130.422455 
	C938.421692,141.557022 939.162598,152.683655 939.769409,163.817581 
	C940.956177,185.590790 942.089172,207.366959 943.266113,229.620407 
z"/>
<path fill="#50D2FF" opacity="1.000000" stroke="none" 
	d="
M934.783447,354.936523 
	C935.428467,343.090485 938.534485,331.591003 940.391479,319.874146 
	C942.147034,308.796967 944.355408,297.791565 946.580566,286.472229 
	C948.108459,307.593475 949.398071,328.998535 950.763062,350.398743 
	C950.918518,352.836761 950.440125,354.052765 947.626160,354.081390 
	C943.479614,354.123566 939.337830,354.625854 934.783447,354.936523 
z"/>
<path fill="#FEFEFF" opacity="1.000000" stroke="none" 
	d="
M593.916260,168.166046 
	C606.075317,168.162628 617.724670,168.229980 629.374084,168.231155 
	C716.756592,168.240082 804.139160,168.274902 891.521423,168.132660 
	C896.420898,168.124680 898.110840,169.130676 897.984680,174.405151 
	C897.606628,190.207809 897.865356,206.025726 897.935669,222.275940 
	C897.933167,243.034988 897.838623,263.355743 897.815674,283.676544 
	C897.784424,311.331390 897.692993,338.987274 897.923157,366.640259 
	C897.960754,371.149414 896.686829,372.071503 892.368713,372.067596 
	C759.258789,371.947327 626.148804,371.969086 493.038788,371.974213 
	C490.707184,371.974304 488.375610,372.039734 485.589966,372.112518 
	C481.806610,372.091858 478.477264,371.982391 475.147949,371.982178 
	C350.176270,371.973755 225.204529,371.936096 100.233109,372.112244 
	C94.957886,372.119659 93.996544,370.586243 94.054176,365.727661 
	C94.303177,344.735840 94.134209,323.739075 94.045929,302.258484 
	C94.050194,287.782684 94.174324,273.792572 94.191338,259.802338 
	C94.225769,231.478622 94.201385,203.154846 94.202972,174.831100 
	C94.203339,168.312363 94.206528,168.308762 100.574577,168.308716 
	C260.853668,168.307724 421.132782,168.308273 581.411865,168.302994 
	C585.410156,168.302856 589.408386,168.239853 593.916260,168.166046 
z"/>
<path fill="#010101" opacity="1.000000" stroke="none" 
	d="
M182.720764,274.553711 
	C182.881744,285.978607 183.820389,296.981354 182.061050,307.908600 
	C180.707230,316.317169 176.784821,319.863251 168.261658,319.951385 
	C153.771042,320.101288 139.276123,320.110962 124.786034,319.933533 
	C116.284470,319.829437 112.368538,316.195221 110.925079,307.883148 
	C108.400452,293.345398 108.479210,293.228973 123.605133,289.322174 
	C123.727997,289.730988 123.950302,290.142670 123.962929,290.560669 
	C124.278130,300.998962 124.274216,300.999115 134.560028,300.999084 
	C144.721313,300.999084 154.886246,300.844788 165.041794,301.086212 
	C168.406952,301.166199 169.229507,300.122894 169.068985,296.941437 
	C168.809082,291.790619 168.824341,286.608917 169.066864,281.456390 
	C169.204285,278.536774 168.186234,277.906494 165.440750,277.939301 
	C153.448822,278.082642 141.454132,278.026703 129.460587,277.993408 
	C117.989426,277.961578 114.030037,274.923309 112.648361,263.510223 
	C111.368324,252.936661 111.255676,242.234726 112.988953,231.652557 
	C114.235298,224.043198 117.995255,220.364059 125.752991,220.184845 
	C140.236252,219.850281 154.739807,219.813889 169.221008,220.189453 
	C177.768097,220.411102 181.259430,224.629135 182.706375,234.538391 
	C183.940750,242.991943 183.908310,243.061859 175.910141,245.718582 
	C173.726929,246.443756 171.515411,247.083679 169.303101,247.766968 
	C168.420395,244.174561 170.650406,239.314072 168.239716,237.651001 
	C165.732574,235.921387 161.222015,237.029251 157.587021,237.014008 
	C148.258804,236.974869 138.928802,237.094055 129.602875,236.942459 
	C126.917969,236.898788 125.716415,237.418579 125.948074,240.413864 
	C126.418602,246.497894 125.382500,252.638718 126.509361,258.713318 
	C132.308136,258.808563 138.106598,258.947113 143.905746,258.987854 
	C150.735123,259.035858 157.565094,258.998047 164.394806,258.999329 
	C177.585785,259.001801 180.395233,261.325439 182.720764,274.553711 
z"/>
<path fill="#010101" opacity="1.000000" stroke="none" 
	d="
M259.891144,320.000397 
	C246.926254,320.000336 234.445343,320.041595 221.964859,319.986450 
	C213.003830,319.946808 210.040924,317.458344 208.580032,308.688629 
	C208.145615,306.080902 208.033173,303.395599 208.023972,300.744934 
	C207.973083,286.101074 208.003906,271.456909 207.996613,256.812866 
	C207.995026,253.645477 208.167053,250.511612 208.858856,247.395035 
	C210.248978,241.132355 212.960098,238.254120 219.367706,238.152771 
	C234.838623,237.908096 250.319244,237.897278 265.789429,238.166763 
	C272.208893,238.278580 274.757263,241.112930 276.172943,247.526779 
	C276.861786,250.647507 277.001343,253.782745 277.000977,256.947296 
	C276.999268,271.424927 277.001282,285.902588 276.998230,300.380219 
	C276.997986,301.544861 276.991089,302.710266 276.950073,303.874023 
	C276.491943,316.863434 273.283081,319.982849 259.891144,320.000397 
z"/>
<path fill="#020202" opacity="1.000000" stroke="none" 
	d="
M882.002014,296.000000 
	C882.002136,303.165802 881.862000,309.835968 882.068359,316.495392 
	C882.156128,319.328766 881.316833,320.078217 878.495850,320.078583 
	C869.997986,320.079651 869.997986,320.215332 869.997986,311.490295 
	C869.997986,296.178040 869.997986,280.865784 869.997986,265.178223 
	C868.170471,266.171631 867.813599,267.840729 867.125610,269.163574 
	C860.610657,281.690582 854.181580,294.262329 847.661133,306.786407 
	C846.957397,308.138092 846.765015,310.207520 844.448486,310.049927 
	C842.499084,309.917328 842.353088,308.130646 841.686096,306.902710 
	C835.103638,294.784241 828.566284,282.641266 822.012695,270.507080 
	C821.272339,269.136292 820.511108,267.776764 819.001953,266.690521 
	C819.001953,282.954773 818.803467,299.223022 819.132751,315.480591 
	C819.222107,319.891815 817.425110,320.108948 814.011963,320.091797 
	C810.646484,320.074890 808.815430,319.961060 808.866882,315.506256 
	C809.144043,291.512543 808.954102,267.513702 809.087097,243.517532 
	C809.096985,241.731277 807.366333,238.355164 810.491577,238.224564 
	C813.977722,238.078873 818.210083,235.988937 820.879517,241.185791 
	C828.089905,255.222626 835.790955,269.007538 843.307739,282.886780 
	C843.855774,283.898773 844.487000,284.865753 845.439392,286.453735 
	C847.873535,281.921722 850.083008,277.804810 852.295349,273.689453 
	C858.195251,262.714539 864.087830,251.735657 870.004150,240.769608 
	C871.216003,238.523346 879.578918,236.630234 881.421570,238.227371 
	C882.589417,239.239578 881.972046,240.742264 881.974854,242.007050 
	C882.014832,259.837952 882.002014,277.669006 882.002014,296.000000 
z"/>
<path fill="#0B0B0B" opacity="1.000000" stroke="none" 
	d="
M533.039673,293.274170 
	C533.024597,304.224823 528.355103,312.263733 519.902405,318.173584 
	C507.830963,326.613434 494.750854,330.510315 480.400665,325.030304 
	C467.072083,319.940491 463.847168,306.705139 471.985077,294.877625 
	C481.653259,280.826019 507.419189,269.985596 527.819702,283.037842 
	C528.192749,273.901520 528.585693,265.003357 528.913696,256.102783 
	C529.704895,234.632706 530.481018,213.162003 531.218750,191.690048 
	C531.307983,189.093750 531.207397,186.551254 534.655334,186.065094 
	C537.890747,185.608917 539.541870,187.839676 539.922485,190.247177 
	C542.474915,206.389740 552.074463,218.814392 561.320679,231.405182 
	C573.370117,247.813263 569.489807,268.772217 558.773987,282.315033 
	C557.483826,283.945465 557.365784,286.822937 553.816406,287.234558 
	C557.233826,280.807037 559.783691,274.714325 561.115479,268.015106 
	C563.426208,256.391724 560.436768,246.148376 553.861145,236.898575 
	C548.521301,229.387177 543.050537,221.904953 536.059937,214.716217 
	C535.050781,241.130844 534.063232,266.977692 533.039673,293.274170 
z"/>
<path fill="#010101" opacity="1.000000" stroke="none" 
	d="
M401.732574,246.255005 
	C414.367493,261.498871 426.767365,276.473541 439.998901,292.452576 
	C439.998901,287.125763 439.998901,282.907196 439.998901,278.688629 
	C439.998932,266.363464 440.122711,254.036194 439.913849,241.714554 
	C439.860077,238.543121 440.778137,237.878464 443.792542,237.917786 
	C451.999054,238.024841 452.001038,237.869873 452.001038,246.290314 
	C452.001038,268.941986 452.042389,291.593872 451.925079,314.244934 
	C451.915344,316.119324 453.494202,319.354675 450.732147,319.754456 
	C447.620209,320.204926 443.973541,321.358429 441.135803,317.798187 
	C430.139343,304.002136 418.930664,290.375153 407.790131,276.694092 
	C404.795044,273.015991 401.761322,269.369385 398.001068,264.804871 
	C398.001068,279.536194 398.001068,293.118713 398.001068,306.701263 
	C398.001068,308.866486 398.001099,311.031738 398.001068,313.196960 
	C398.001038,320.004761 397.984467,319.718323 391.308533,320.104095 
	C387.026581,320.351532 385.820862,319.300720 385.872009,314.798065 
	C386.142609,290.983551 385.967041,267.164246 386.064667,243.347076 
	C386.071838,241.601837 384.779022,238.530518 387.169922,238.255600 
	C390.148590,237.913071 393.813538,236.424545 396.397247,239.843918 
	C397.999878,241.964874 399.791046,243.943359 401.732574,246.255005 
z"/>
<path fill="#010101" opacity="1.000000" stroke="none" 
	d="
M701.000000,277.000000 
	C700.654114,287.637329 701.825012,297.819153 700.085571,307.916138 
	C698.641479,316.298279 694.800659,319.817352 686.271057,319.954437 
	C676.113037,320.117737 665.948792,320.104309 655.790161,319.963776 
	C647.227295,319.845337 643.357483,316.367279 641.915466,308.014832 
	C640.172363,297.918274 641.380981,287.733887 640.968872,277.598846 
	C640.888428,275.619629 641.880310,275.154083 643.512756,274.719055 
	C647.508057,273.654327 651.446228,272.374817 656.000061,271.003204 
	C656.000061,279.919312 656.178223,288.493866 655.911682,297.054565 
	C655.806091,300.447235 656.916138,301.168640 660.068481,301.071625 
	C667.390625,300.846283 674.731873,300.804352 682.049988,301.086823 
	C685.437805,301.217560 686.086975,300.086548 686.070312,296.937317 
	C685.942261,272.785492 686.097107,248.631927 685.899109,224.481064 
	C685.868103,220.697479 686.832275,219.817169 690.529053,219.900925 
	C700.995850,220.138016 701.000000,219.954300 701.000000,230.526917 
	C701.000000,245.851273 701.000000,261.175629 701.000000,277.000000 
z"/>
<path fill="#010101" opacity="1.000000" stroke="none" 
	d="
M318.088257,305.000275 
	C327.408966,305.000275 336.246765,304.820129 345.070709,305.090820 
	C348.499329,305.195984 349.090027,304.026184 349.068481,300.914520 
	C348.933502,281.417816 349.131195,261.918152 348.890106,242.423508 
	C348.841736,238.511398 350.014282,237.807312 353.591400,237.911728 
	C361.994232,238.157013 361.999725,237.968933 361.999725,246.598541 
	C361.999725,264.263031 362.000092,281.927551 361.998962,299.592041 
	C361.998871,300.925079 362.014465,302.258881 361.977509,303.591064 
	C361.609650,316.850403 358.375366,319.998657 345.135834,319.999512 
	C334.303833,320.000214 323.471375,320.059357 312.639954,319.979980 
	C303.984924,319.916565 300.899170,317.347931 299.550873,308.877319 
	C299.031036,305.611298 299.030487,302.241699 299.022400,298.918701 
	C298.976624,280.087799 299.134460,261.254974 298.890381,242.427109 
	C298.839752,238.522049 300.003082,237.805801 303.587769,237.911133 
	C311.994141,238.158112 311.999725,237.968506 311.999725,246.595062 
	C311.999725,264.259583 312.198395,281.927795 311.867859,299.586121 
	C311.779022,304.331329 313.278503,305.736389 318.088257,305.000275 
z"/>
<path fill="#030303" opacity="1.000000" stroke="none" 
	d="
M732.648193,284.574127 
	C738.261414,269.962097 743.755859,255.718506 749.100403,241.418869 
	C750.035095,238.917999 751.148193,237.538391 754.059998,237.938080 
	C756.185120,238.229797 758.389160,238.101669 760.545288,237.962418 
	C762.312378,237.848251 763.248962,238.502335 763.888550,240.149536 
	C774.150574,266.579071 784.456665,292.991455 794.749451,319.399506 
	C794.303345,319.658905 794.062927,319.917725 793.813477,319.926727 
	C780.551086,320.405396 780.292358,320.489014 776.129456,307.939423 
	C774.559692,303.207123 772.460266,301.563080 767.427063,301.865540 
	C758.963867,302.374054 750.445496,302.118622 741.955627,301.937134 
	C739.326721,301.880890 737.974304,302.707153 737.389771,305.212463 
	C737.052673,306.657288 736.428772,308.036682 735.914734,309.438477 
	C731.824463,320.592285 731.823059,320.591766 719.107727,319.771271 
	C723.593445,308.080292 728.035950,296.501892 732.648193,284.574127 
z"/>
<path fill="#FFFFFF" opacity="1.000000" stroke="none" 
	d="
M263.998016,270.001465 
	C263.997925,280.497650 263.893921,290.495789 264.063995,300.489258 
	C264.112091,303.313141 263.323425,304.100922 260.494080,304.064026 
	C248.500473,303.907745 236.502487,303.908264 224.508865,304.063873 
	C221.684204,304.100525 220.909454,303.318298 220.936600,300.492798 
	C221.077484,285.832825 221.077087,271.170013 220.936752,256.510010 
	C220.909729,253.689041 221.676651,252.898956 224.505875,252.935791 
	C236.499481,253.092056 248.497452,253.091614 260.491089,252.936050 
	C263.315582,252.899429 264.215698,253.670456 264.059998,256.509766 
	C263.823120,260.828522 263.997986,265.169891 263.998016,270.001465 
z"/>
<path fill="#F9F9F9" opacity="1.000000" stroke="none" 
	d="
M510.216125,310.206055 
	C501.563171,315.323761 492.687256,318.290924 482.879028,317.917603 
	C481.882355,317.879700 480.864502,317.923370 479.894470,317.734344 
	C472.105652,316.216522 470.995575,313.540741 475.421417,307.063843 
	C485.200073,292.753448 505.752411,283.650635 520.973816,287.177948 
	C527.834595,288.767761 530.325012,292.818176 525.339111,298.390381 
	C521.049377,303.184479 516.217346,307.094604 510.216125,310.206055 
z"/>
<path fill="#F9F9F9" opacity="1.000000" stroke="none" 
	d="
M751.662842,265.626434 
	C753.109253,261.555389 754.399536,257.848267 756.110901,252.931091 
	C760.244202,264.266510 763.904846,274.409637 767.658875,284.518158 
	C768.465515,286.690338 767.631653,287.047577 765.694153,287.029541 
	C758.748047,286.964966 751.801025,287.004242 744.212280,287.004242 
	C746.753906,279.682190 749.130310,272.836273 751.662842,265.626434 
z"/>
</svg>