<svg version="1.1" id="Layer_1" xmlns="http://www.w3.org/2000/svg" xmlns:xlink="http://www.w3.org/1999/xlink" x="0px" y="0px"
	 width="100%" viewBox="0 0 1024 500" enable-background="new 0 0 1024 500" xml:space="preserve">
<path fill="#FFFFFF" opacity="1.000000" stroke="none" 
	d="
M632.000000,501.000000 
	C422.867523,501.000000 214.235077,500.990326 5.602645,501.081390 
	C2.046084,501.082947 0.888037,500.584930 0.891129,496.604004 
	C1.018362,332.797607 1.017686,168.991119 0.889848,5.184734 
	C0.886895,1.400872 1.884127,0.917335 5.313980,0.918223 
	C343.758484,1.005834 682.203003,1.004974 1020.647522,0.927993 
	C1023.967346,0.927238 1025.121216,1.252025 1025.118042,5.146211 
	C1024.980469,169.119217 1024.984497,333.092346 1025.102173,497.065399 
	C1025.104736,500.620758 1024.218750,501.087891 1020.935791,501.085327 
	C891.457214,500.984985 761.978638,501.000000 632.000000,501.000000 
z"/>
<path fill="#733CFF" opacity="1.000000" stroke="none" 
	d="
M81.833336,176.327423 
	C83.780731,165.644363 86.209068,155.439499 87.253891,145.094925 
	C88.029167,137.419052 90.056694,129.978653 91.480316,122.537537 
	C93.037376,114.398994 94.002403,106.038361 96.281914,97.939034 
	C97.885880,92.240028 97.345444,85.946449 99.914238,80.299744 
	C100.251350,79.558693 99.661652,78.396011 99.475883,77.275848 
	C234.843597,101.625168 370.304749,125.991295 506.007874,150.692719 
	C533.911682,154.522202 561.132874,160.587082 588.599976,165.219330 
	C590.539795,165.546494 593.578003,164.782730 593.570923,168.514709 
	C589.984619,170.058151 586.615295,169.599487 583.309448,169.599976 
	C425.092865,169.622894 266.876282,169.611816 108.659698,169.633087 
	C94.026283,169.635056 95.666595,168.444809 95.641045,182.899857 
	C95.576576,219.372833 95.623650,255.846008 95.612144,292.319092 
	C95.611305,294.978699 95.785233,297.653534 95.029724,300.724548 
	C93.350471,303.631744 91.059204,302.650757 89.029518,302.341461 
	C81.798943,301.239471 74.648903,299.682495 67.456932,298.358917 
	C61.269211,297.220123 59.922066,295.378387 61.086712,289.008179 
	C63.597157,275.277008 66.219009,261.564819 68.681732,247.825836 
	C72.640320,225.741837 76.296638,203.603683 80.508163,181.564545 
	C80.819160,179.937073 80.981850,178.267517 81.833336,176.327423 
z"/>
<path fill="#733CFF" opacity="1.000000" stroke="none" 
	d="
M935.150391,354.685181 
	C932.939575,364.682465 931.166443,374.408569 929.801453,384.078186 
	C928.637451,392.323914 926.672913,400.443787 925.623474,408.730743 
	C924.520264,417.442780 923.203674,426.330383 920.658447,434.913055 
	C919.138062,440.039764 918.657043,445.474731 917.705933,450.787109 
	C912.719482,449.377869 907.615662,450.734344 902.774475,449.050323 
	C895.541199,446.534149 887.812988,446.227020 880.366089,444.502319 
	C873.439880,442.898224 866.144409,442.481110 859.090393,441.005219 
	C849.541077,439.007202 839.912109,437.243561 830.340637,435.559326 
	C821.059509,433.926208 811.719421,432.147461 802.375427,430.695679 
	C795.469788,429.622711 788.475525,428.687622 781.571533,427.361359 
	C771.648621,425.455170 761.711426,423.561584 751.763306,421.780243 
	C742.796204,420.174561 733.807434,418.563507 724.828796,416.987030 
	C716.963623,415.606049 708.995667,414.370514 701.273804,412.652466 
	C692.870789,410.782898 684.290833,409.912903 675.934448,407.663757 
	C668.306519,405.610687 660.154175,405.583466 652.405762,403.878143 
	C644.938843,402.234711 637.346924,401.396027 629.897644,399.576996 
	C621.371094,397.494934 612.574158,396.534546 603.913086,394.984039 
	C595.929138,393.554749 587.971985,391.975677 579.997803,390.490845 
	C577.106567,389.952484 574.217041,389.320923 571.297058,389.037170 
	C564.344971,388.361572 557.397034,386.976105 550.693665,385.562286 
	C540.496216,383.411530 530.193237,381.969116 519.576172,379.866058 
	C510.029297,378.111450 500.789978,377.028015 491.730194,374.989349 
	C489.665710,374.524780 486.500854,375.291138 486.536316,371.420319 
	C490.144562,369.961792 493.510468,370.400543 496.819702,370.399963 
	C626.596313,370.377380 756.372864,370.382874 886.149475,370.377106 
	C897.252808,370.376617 896.364380,370.792542 896.370728,359.946472 
	C896.395508,317.631653 896.376526,275.316803 896.390015,233.001984 
	C896.390869,230.177170 896.174194,227.332703 897.026123,224.098480 
	C898.312195,221.744751 900.207275,221.648041 901.989746,221.948547 
	C915.799744,224.277008 929.641968,226.434067 943.705078,229.667236 
	C947.992188,231.663971 952.207703,230.720505 955.119934,230.991913 
	C956.685425,231.381287 956.407715,231.645157 956.437683,231.973663 
	C957.299683,241.423767 953.863525,250.376068 952.482788,259.476776 
	C951.388367,266.690338 951.213318,274.377228 948.361633,281.403259 
	C947.705566,283.019531 947.861755,284.965424 947.305176,286.997437 
	C944.307312,309.804718 939.379089,331.977295 935.150391,354.685181 
z"/>
<path fill="#4CD6FF" opacity="1.000000" stroke="none" 
	d="
M485.508667,371.771423 
	C494.006470,374.392151 502.381622,375.516602 510.682312,377.017944 
	C513.428101,377.514557 516.313354,377.487701 518.938599,379.519165 
	C504.104828,380.552521 489.035583,380.995789 474.012238,382.077026 
	C456.859833,383.311523 439.697296,384.213623 422.529663,385.148865 
	C411.144379,385.769073 399.748718,386.348267 388.371246,387.093079 
	C371.047913,388.227173 353.727600,389.282196 336.387115,390.146027 
	C325.335480,390.696503 314.286255,391.489532 303.230957,392.127991 
	C286.069031,393.119110 268.919861,394.282562 251.744904,395.128265 
	C240.525940,395.680695 229.307922,396.462189 218.090317,397.138733 
	C200.929596,398.173737 183.773987,399.230316 166.603607,400.129913 
	C155.551315,400.708984 144.502151,401.479156 133.447784,402.126434 
	C115.787086,403.160553 98.122368,404.157349 80.471329,405.262024 
	C72.099403,405.785919 63.606926,405.215118 55.289330,406.949066 
	C52.870033,407.453400 51.502220,406.947296 50.749073,403.616974 
	C49.152950,396.559113 49.925537,389.428650 49.348503,382.389618 
	C48.621780,373.524536 48.272427,364.525452 47.834694,355.597504 
	C46.944088,337.433044 45.751301,319.281342 44.850464,301.111145 
	C44.327347,290.559784 43.491428,280.013641 42.901466,269.453247 
	C41.905460,251.624603 40.788506,233.803009 39.801769,215.972855 
	C39.144562,204.097244 38.379898,192.216461 37.691422,180.335419 
	C37.550301,177.900070 38.946991,177.977615 40.385166,178.033066 
	C47.362350,178.302109 54.288307,177.139114 61.214249,177.149902 
	C67.877144,177.160263 74.389282,175.510849 81.492630,175.945236 
	C83.723389,177.379578 82.366135,179.025513 82.097908,180.520691 
	C75.772285,215.782394 69.394691,251.034790 63.021404,286.287933 
	C62.874416,287.100952 62.679703,287.906067 62.485867,288.709717 
	C60.935226,295.139099 61.647903,295.966034 68.256584,297.071594 
	C76.593941,298.466400 84.881340,300.159729 93.580261,301.753418 
	C96.066261,303.974609 95.582428,306.760956 95.591141,309.366638 
	C95.649582,326.848541 95.612312,344.330719 95.623329,361.812805 
	C95.628716,370.352173 95.640350,370.374969 104.211411,370.375397 
	C224.754623,370.381561 345.297852,370.358398 465.841034,370.436462 
	C472.275909,370.440613 478.812653,369.363586 485.508667,371.771423 
z"/>
<path fill="#4CD6FF" opacity="1.000000" stroke="none" 
	d="
M944.046814,229.475494 
	C935.818054,230.320618 928.005493,227.597290 919.970642,226.437469 
	C912.902039,225.417130 905.888367,224.016724 898.424255,222.748016 
	C896.044739,220.662369 896.428772,218.056152 896.416077,215.602829 
	C896.352295,203.270187 896.399048,190.937149 896.384460,178.604263 
	C896.373962,169.683441 896.331116,169.621246 887.567322,169.618423 
	C846.902100,169.605255 806.236877,169.612976 765.571655,169.612671 
	C711.740234,169.612289 657.908752,169.619614 604.077332,169.594437 
	C601.102051,169.593048 598.060181,170.008331 594.811523,168.426285 
	C584.403442,165.159225 574.004944,164.100174 563.789368,162.125381 
	C544.780823,158.450867 525.709473,155.101120 506.457092,151.322083 
	C525.413452,150.175659 544.533386,148.594574 563.709351,147.844940 
	C574.422363,147.426163 585.135559,146.507294 595.855652,145.877884 
	C613.843994,144.821732 631.828735,143.769730 649.826050,142.852768 
	C660.374695,142.315323 670.917297,141.486206 681.474915,140.895035 
	C699.298462,139.897018 717.112366,138.753799 734.942749,137.828583 
	C745.323303,137.289917 755.710754,136.583633 766.095703,135.947189 
	C784.081299,134.845032 802.055542,133.643936 820.062378,132.837463 
	C830.276001,132.380051 840.483215,131.455109 850.712524,130.912796 
	C868.870789,129.950073 887.009705,128.674026 905.179565,127.822334 
	C914.891235,127.367104 924.597046,126.359299 934.333679,125.958008 
	C937.128723,125.842812 937.971924,126.736565 938.076477,129.591766 
	C938.548584,142.480988 939.457886,155.353287 940.157593,168.231506 
	C941.080811,185.223495 942.510498,202.188553 943.074524,219.208450 
	C943.182617,222.470917 944.338440,225.690155 944.046814,229.475494 
z"/>
<path fill="#4DD2FF" opacity="1.000000" stroke="none" 
	d="
M935.521606,355.049957 
	C933.167725,350.385986 935.651062,346.003723 936.389954,341.617859 
	C939.468262,323.346405 943.100342,305.168182 946.747803,287.095520 
	C949.170166,294.592163 948.108337,302.262848 948.671509,309.744141 
	C949.348145,318.733032 950.450378,327.789215 950.054871,336.884430 
	C949.877319,340.969910 950.995850,344.998535 951.159363,349.128296 
	C951.340881,353.713684 949.132019,354.860107 945.422974,354.975464 
	C942.278259,355.073303 939.128540,355.009491 935.521606,355.049957 
z"/>
<path fill="#FEFEFE" opacity="1.000000" stroke="none" 
	d="
M593.916870,168.157318 
	C599.085083,168.154922 603.743652,168.227844 608.402283,168.228165 
	C702.773804,168.234802 797.145447,168.269241 891.516785,168.130096 
	C896.416565,168.122879 898.113159,169.127441 897.987366,174.403976 
	C897.610474,190.206467 897.868042,206.024078 897.938049,222.273819 
	C897.935242,225.041229 897.818176,227.370575 897.817627,229.699966 
	C897.806824,275.032532 897.820557,320.365112 897.798462,365.697693 
	C897.794861,372.961212 898.544556,371.957611 891.318115,371.958618 
	C758.820312,371.977112 626.322510,371.971985 493.824738,371.975616 
	C491.491913,371.975677 489.159058,372.021973 486.341125,372.087280 
	C483.360779,372.077820 480.865540,371.984192 478.370270,371.984039 
	C352.476898,371.977203 226.583527,371.983154 100.690155,371.966034 
	C93.410385,371.965057 94.187668,372.949310 94.171173,365.197937 
	C94.126884,344.382568 94.129288,323.567078 94.041695,302.267090 
	C94.047852,289.125153 94.178329,276.467865 94.192482,263.810425 
	C94.225639,234.153046 94.202682,204.495605 94.203377,174.838196 
	C94.203529,168.308121 94.205292,168.304855 100.562363,168.304825 
	C260.345825,168.304169 420.129272,168.305099 579.912720,168.299774 
	C584.410889,168.299622 588.909119,168.233948 593.916870,168.157318 
z"/>
<path fill="#040404" opacity="1.000000" stroke="none" 
	d="
M144.897675,231.786652 
	C134.977539,241.719971 137.509811,253.305923 150.314880,258.228607 
	C158.412781,261.341705 167.034012,262.502594 175.295288,264.995941 
	C178.471329,265.954529 181.710129,266.814636 184.736816,268.139008 
	C195.526337,272.860138 202.965897,280.468994 203.881897,292.746185 
	C204.843536,305.634735 199.647003,315.832306 188.783981,322.787720 
	C174.638290,331.845001 149.783447,331.048248 136.018860,321.436096 
	C126.968208,315.115753 122.371109,306.262360 121.122803,295.465485 
	C120.866951,293.252625 120.884239,291.665009 123.964195,291.768280 
	C126.936806,291.867950 130.292023,290.363068 132.819489,291.314850 
	C135.633453,292.374512 134.701675,296.449799 135.623840,299.133850 
	C137.308167,304.036377 139.921112,308.158844 144.261780,310.989929 
	C155.265396,318.166809 167.018173,319.067261 178.989929,314.072235 
	C186.413345,310.974915 190.263977,304.940216 189.969223,296.703735 
	C189.690247,288.908112 185.161682,284.223358 178.251434,281.529663 
	C169.872864,278.263580 160.979980,276.739044 152.430634,274.052307 
	C148.639389,272.860870 144.811874,271.636719 141.237961,269.930634 
	C131.881958,265.464325 125.919296,258.254181 125.090935,247.646530 
	C124.214073,236.417801 128.628952,227.488297 137.942551,221.183319 
	C151.339569,212.114029 175.167145,212.996658 187.973114,222.878540 
	C195.266586,228.506638 198.730347,236.186081 199.898956,245.114319 
	C200.157333,247.088287 199.870239,248.417175 197.449722,248.141022 
	C197.124008,248.103836 196.785278,248.168198 196.453613,248.197266 
	C193.634689,248.444290 190.444519,249.626602 188.097351,248.691650 
	C185.536148,247.671448 186.370880,243.811157 185.470001,241.266724 
	C183.401779,235.425247 179.855957,230.983810 173.949203,229.008453 
	C164.059616,225.701141 154.347763,225.896881 144.897675,231.786652 
z"/>
<path fill="#020202" opacity="1.000000" stroke="none" 
	d="
M798.284302,246.037628 
	C808.474792,245.719711 816.412048,248.733154 820.934204,258.774292 
	C825.353271,253.584885 829.808533,249.021896 836.191528,247.102646 
	C852.538147,242.187515 866.161499,251.236069 866.763733,268.391113 
	C867.417908,287.027130 866.951965,305.701874 867.028076,324.359528 
	C867.035339,326.138000 866.724731,326.886230 864.639404,327.073212 
	C853.991211,328.028107 853.999023,328.113708 853.998962,317.631866 
	C853.998901,303.971161 854.002991,290.310455 853.994019,276.649750 
	C853.992859,274.817902 854.004395,272.980530 853.875366,271.155212 
	C853.306152,263.097900 850.158203,258.674255 844.055359,257.252625 
	C837.378479,255.697281 829.616699,259.154144 826.172424,265.371002 
	C823.690735,269.850342 823.003174,274.781921 823.002258,279.833832 
	C822.999756,294.160919 822.864075,308.490234 823.096924,322.813538 
	C823.155701,326.427643 822.081299,327.171204 818.676758,327.089081 
	C810.003174,326.879791 809.998962,327.055969 809.998962,318.176849 
	C809.998962,304.182953 810.003540,290.189056 809.993286,276.195160 
	C809.991943,274.363617 810.017456,272.522827 809.853943,270.702179 
	C809.138855,262.743622 805.651672,258.147888 799.648376,257.128723 
	C792.322388,255.885071 784.998352,259.674866 781.987915,266.419861 
	C779.638245,271.684143 779.055359,277.327728 779.025574,283.008331 
	C778.955627,296.335480 778.890869,309.664856 779.080688,322.989655 
	C779.127014,326.241638 778.279358,327.141235 775.001587,327.088226 
	C766.001587,326.942566 765.998962,327.107758 765.998962,318.001160 
	C765.998962,296.177338 766.095398,274.352661 765.904907,252.530533 
	C765.872803,248.850052 766.688721,247.247101 770.477600,247.990524 
	C770.798401,248.053482 771.142334,247.998932 771.475525,247.998810 
	C777.907959,247.996460 777.909119,247.996445 778.000244,254.462646 
	C778.011169,255.236664 778.001709,256.010986 778.001709,257.968536 
	C783.544922,250.663422 789.863464,246.850281 798.284302,246.037628 
z"/>
<path fill="#0C0C0C" opacity="1.000000" stroke="none" 
	d="
M532.556763,191.248077 
	C535.189636,203.910950 541.982727,213.927704 549.659729,223.433975 
	C561.279297,237.822311 564.667297,253.532074 557.613464,271.006653 
	C555.136536,277.142792 551.432556,282.464355 547.262451,287.464172 
	C546.890076,287.268463 546.517639,287.072754 546.145203,286.877014 
	C547.050171,284.980988 547.972412,283.093018 548.857300,281.187653 
	C556.842163,263.994385 555.825989,247.815613 543.924866,232.529083 
	C538.550110,225.625458 533.368286,218.580978 526.964539,211.333176 
	C526.494385,222.902283 526.034058,233.757675 525.616638,244.614716 
	C524.989990,260.914948 524.099976,277.212250 523.874146,293.518463 
	C523.681824,307.399109 516.765686,316.774994 505.310547,323.256317 
	C493.712311,329.818665 481.412903,332.464111 468.482208,327.387390 
	C455.243591,322.189728 451.164825,309.573456 458.628998,297.244781 
	C469.015564,280.089050 497.997925,270.222443 515.668274,282.113770 
	C519.309021,284.563782 518.394287,281.366669 518.455750,279.717773 
	C519.343506,255.918320 520.186279,232.117218 521.053162,208.316971 
	C521.313782,201.162003 521.713806,194.010361 521.848267,186.853394 
	C521.900696,184.064560 522.267822,181.854584 525.548462,181.436813 
	C528.718811,181.033142 530.007324,183.306717 531.034973,185.581085 
	C531.775330,187.219727 531.989014,189.096329 532.556763,191.248077 
z"/>
<path fill="#040404" opacity="1.000000" stroke="none" 
	d="
M684.757996,296.967468 
	C690.190369,284.860321 700.962891,282.647919 712.041626,281.084015 
	C718.958130,280.107666 725.838196,279.052032 732.588989,277.171967 
	C735.026794,276.492981 736.076111,275.559387 736.070007,272.819702 
	C736.049866,263.757721 732.647156,259.264862 723.717102,257.500580 
	C718.582642,256.486176 713.427490,256.767975 708.389465,258.171326 
	C703.885376,259.425903 700.850708,262.524139 699.445129,266.843750 
	C698.405884,270.037506 697.322327,271.170013 693.564087,270.397034 
	C683.944885,268.418610 683.632874,268.098389 688.622559,259.435364 
	C691.481628,254.471588 695.549377,250.888077 700.903748,249.007782 
	C711.883728,245.151993 723.096985,244.667755 734.239807,248.056274 
	C742.142395,250.459427 747.322327,255.515976 748.267700,264.308563 
	C749.804321,278.600189 748.609924,292.920288 749.034668,307.220947 
	C749.227905,313.729126 749.575806,320.171295 751.704956,326.393463 
	C740.149048,328.609955 739.186707,328.094543 735.629456,317.654297 
	C733.458252,319.259949 731.393494,320.887329 729.229126,322.369263 
	C721.827271,327.437408 713.654297,329.750671 704.688354,328.873108 
	C687.891602,327.229004 679.518250,314.035950 684.757996,296.967468 
z"/>
<path fill="#040404" opacity="1.000000" stroke="none" 
	d="
M213.098785,282.272705 
	C213.690140,278.531250 214.024124,275.197632 214.850616,271.990906 
	C219.213181,255.064758 232.145874,245.474564 249.679810,246.009079 
	C265.708221,246.497711 278.751984,257.899567 281.861572,274.304535 
	C283.650482,283.742218 283.563202,293.186798 281.229370,302.547485 
	C276.876251,320.007416 263.801086,329.742249 245.796356,328.969666 
	C229.614075,328.275269 216.898026,316.510345 214.010300,299.665802 
	C213.047272,294.048248 212.839111,288.411438 213.098785,282.272705 
z"/>
<path fill="#020202" opacity="1.000000" stroke="none" 
	d="
M414.094360,257.473816 
	C401.094849,256.047272 393.970062,261.271271 391.862061,273.614258 
	C390.026245,284.363678 391.321899,295.226257 391.030121,306.033752 
	C390.868286,312.027374 390.884552,318.032288 391.057190,324.025299 
	C391.127899,326.478973 390.307495,326.995178 387.967377,327.067657 
	C377.996124,327.376465 377.998932,327.466705 377.998932,317.462036 
	C377.998932,295.969269 378.129669,274.475037 377.886414,252.985016 
	C377.838928,248.790817 378.898407,247.245956 383.027893,247.968811 
	C384.159454,248.166916 385.375061,248.136703 386.517517,247.971817 
	C389.369049,247.560257 390.385956,248.685699 390.041534,251.515579 
	C389.824554,253.298264 390.001068,255.128845 390.001068,258.020020 
	C396.532959,249.345352 404.555695,245.613022 414.489075,245.995300 
	C427.236328,246.485855 435.219727,253.577499 437.267761,266.113007 
	C438.324982,272.583984 437.941223,279.075897 437.979248,285.561340 
	C438.053558,298.223328 437.967438,310.886200 438.032166,323.548279 
	C438.043732,325.807068 437.928528,327.046722 434.945801,327.101959 
	C424.995850,327.286316 425.005829,327.452057 424.997345,317.440674 
	C424.985168,303.112549 425.101105,288.782349 424.886108,274.457184 
	C424.773315,266.942169 422.940277,260.139740 414.094360,257.473816 
z"/>
<path fill="#020202" opacity="1.000000" stroke="none" 
	d="
M346.391937,248.399719 
	C358.001373,247.847183 358.001343,247.847183 358.001343,259.222290 
	C358.001343,280.375977 357.815765,301.532532 358.142975,322.681152 
	C358.216858,327.457642 355.988220,327.251129 352.813965,327.013916 
	C349.988831,326.802765 346.038849,328.369293 346.954681,322.817993 
	C347.237671,321.102692 346.998627,319.301270 346.998627,316.360657 
	C340.089661,325.483032 331.854156,329.509369 321.480774,328.993469 
	C309.094482,328.377472 300.779999,320.863800 298.794098,308.617279 
	C298.014252,303.808136 298.006866,299.001587 298.002808,294.175446 
	C297.991058,280.184021 298.136322,266.190338 297.903809,252.202774 
	C297.844147,248.613892 298.873230,247.824600 302.305237,247.908981 
	C310.996948,248.122650 310.987518,247.942230 311.004486,256.801758 
	C311.032196,271.292114 310.892883,285.786194 311.182678,300.271484 
	C311.388580,310.563568 314.584290,315.221313 321.872162,317.372345 
	C330.889221,320.033722 340.998657,314.866608 344.003326,305.981506 
	C345.564331,301.365601 346.007904,296.570251 346.006592,291.713837 
	C346.002716,277.389771 346.036041,263.065674 346.391937,248.399719 
z"/>
<path fill="#020202" opacity="1.000000" stroke="none" 
	d="
M666.002197,222.109314 
	C666.002197,245.585464 665.999939,268.571381 666.004395,291.557312 
	C666.005188,295.556763 665.795288,299.523560 665.216980,303.501068 
	C662.395813,322.903961 648.855591,332.367035 629.583313,328.278839 
	C616.602173,325.525116 606.209106,309.439850 608.943970,296.559387 
	C609.305115,294.858704 610.239563,295.045807 611.360291,294.867493 
	C621.261719,293.291962 621.260071,293.281586 622.959961,303.227692 
	C624.839478,314.224579 632.554932,319.420288 642.069946,316.146454 
	C646.889404,314.488281 649.873779,311.224335 650.917908,306.252991 
	C651.776489,302.165314 652.022766,298.021027 652.016174,293.839996 
	C651.978333,270.021301 652.156860,246.200577 651.864258,222.385422 
	C651.805420,217.597473 653.337097,216.337448 657.622742,216.968033 
	C658.927002,217.159958 660.320496,217.198547 661.609009,216.960403 
	C665.597290,216.223282 666.594238,218.128983 666.002197,222.109314 
z"/>
<path fill="#0C0C0C" opacity="1.000000" stroke="none" 
	d="
M545.506409,288.507690 
	C545.486755,288.508514 545.526062,288.506866 545.506409,288.507690 
z"/>
<path fill="#F9F9F9" opacity="1.000000" stroke="none" 
	d="
M475.198761,296.092285 
	C486.548218,289.631287 498.075958,284.772949 511.054565,287.681030 
	C519.847107,289.651154 520.451233,294.189087 515.544373,299.413391 
	C502.979889,312.790833 487.769989,320.223938 469.174744,319.720551 
	C466.955444,319.660461 464.642670,318.609222 462.599854,317.571320 
	C459.911163,316.205200 459.400177,314.095978 461.189453,311.387268 
	C464.987427,305.637665 469.724731,300.776367 475.198761,296.092285 
z"/>
<path fill="#FBFBFB" opacity="1.000000" stroke="none" 
	d="
M734.056030,304.760559 
	C728.294128,315.493195 716.157471,320.505890 705.062256,317.070099 
	C699.366577,315.306366 696.139832,311.333466 696.004333,305.917664 
	C695.861816,300.220886 698.917664,295.781158 704.799683,294.076324 
	C714.846130,291.164459 725.522644,291.084503 735.768555,287.105011 
	C736.233398,293.191681 736.224976,298.865051 734.056030,304.760559 
z"/>
<path fill="#FCFCFC" opacity="1.000000" stroke="none" 
	d="
M226.076874,283.311279 
	C226.782608,279.268158 227.111176,275.567200 228.230927,272.123535 
	C231.244553,262.855438 239.033737,256.997864 247.747009,257.002716 
	C256.824799,257.007782 264.820374,262.825378 267.794220,272.188354 
	C270.942383,282.100281 270.988098,292.206421 267.956787,302.169922 
	C264.969604,311.988342 257.010132,318.110199 247.940857,317.996368 
	C238.686462,317.880249 231.068817,311.795685 227.959686,302.036591 
	C226.061813,296.079468 225.800354,289.952240 226.076874,283.311279 
z"/>
</svg>