<svg version="1.1" id="Layer_1" xmlns="http://www.w3.org/2000/svg" xmlns:xlink="http://www.w3.org/1999/xlink" x="0px" y="0px"
	 width="100%" viewBox="0 0 1024 500" enable-background="new 0 0 1024 500" xml:space="preserve">
<path fill="#FFFFFF" opacity="1.000000" stroke="none" 
	d="
M631.000000,501.000000 
	C422.200806,501.000000 213.901627,500.990265 5.602481,501.081390 
	C2.045586,501.082947 0.888059,500.584351 0.891151,496.603821 
	C1.018364,332.797424 1.017692,168.990952 0.889816,5.184570 
	C0.886861,1.400255 1.884733,0.917372 5.314144,0.918260 
	C343.758636,1.005831 682.203125,1.004977 1020.647644,0.927960 
	C1023.967834,0.927204 1025.121216,1.252578 1025.118042,5.146375 
	C1024.980469,169.119385 1024.984497,333.092529 1025.102295,497.065582 
	C1025.104858,500.621338 1024.218140,501.087860 1020.935608,501.085327 
	C891.123779,500.985077 761.311890,501.000000 631.000000,501.000000 
z"/>
<path fill="#733CFF" opacity="1.000000" stroke="none" 
	d="
M81.831749,175.334015 
	C87.916237,142.468903 93.898979,110.025230 99.969131,77.107559 
	C102.240524,75.693970 104.196396,78.775887 106.581223,78.882988 
	C116.378181,79.322975 125.973190,81.700447 135.427048,83.530403 
	C144.583664,85.302834 153.932404,86.909706 163.096741,88.544838 
	C176.698090,90.971642 190.212692,94.104942 204.056717,95.675117 
	C211.750748,96.547752 219.809631,98.491631 227.649918,100.096703 
	C240.668518,102.761894 253.770279,105.156364 266.901642,107.336868 
	C275.829163,108.819321 284.868835,110.187958 293.791138,112.061432 
	C307.252319,114.887970 320.805603,117.498405 334.406281,119.777237 
	C342.756897,121.176407 351.188263,122.263275 359.526154,123.924461 
	C367.144318,125.442261 374.906281,126.731544 382.504059,128.282623 
	C391.599731,130.139481 400.771393,131.605240 409.887817,133.266403 
	C417.900208,134.726410 426.017487,136.005264 434.035248,137.367493 
	C441.447205,138.626816 448.941711,140.282272 456.370667,141.834991 
	C466.790527,144.012833 477.494598,144.862930 487.875031,147.184525 
	C493.139618,148.361954 498.557465,148.448837 504.096497,150.104294 
	C518.457764,152.334335 532.339905,155.018692 546.242065,157.587692 
	C560.497620,160.221985 574.821533,162.475693 589.045166,165.277557 
	C590.905823,165.644104 593.654175,165.051132 593.592163,168.498093 
	C590.011658,170.063980 586.640991,169.599289 583.335632,169.599762 
	C425.443268,169.622894 267.550934,169.606628 109.658577,169.640015 
	C93.680237,169.643387 95.686409,168.039276 95.647652,183.900864 
	C95.559341,220.042679 95.623779,256.184845 95.612175,292.326874 
	C95.611320,294.986145 95.785912,297.660828 95.027359,300.730865 
	C93.344109,303.631592 91.054298,302.650787 89.025154,302.341614 
	C81.796562,301.240204 74.648582,299.683289 67.458565,298.360413 
	C61.271214,297.221985 59.921158,295.380310 61.082783,289.014709 
	C63.587990,275.286407 66.192635,261.575256 68.684532,247.844925 
	C73.045242,223.817398 76.792007,199.678864 81.831749,175.334015 
z"/>
<path fill="#733CFF" opacity="1.000000" stroke="none" 
	d="
M935.139160,355.691833 
	C932.479614,365.274292 931.213379,374.773285 929.817261,384.102203 
	C928.586670,392.325287 926.228394,400.345947 925.728760,408.788849 
	C925.217957,417.420776 922.516174,425.920990 920.801697,434.484528 
	C919.714661,439.914307 918.678955,445.354370 917.618103,450.800629 
	C912.700439,449.341064 907.575867,450.759766 902.734009,449.047577 
	C895.507324,446.492004 887.765564,446.266174 880.321106,444.480591 
	C873.569824,442.861206 866.437134,442.468689 859.529541,441.049408 
	C849.811340,439.052673 840.026001,437.209442 830.285828,435.540710 
	C820.990112,433.948151 811.669861,432.082916 802.306702,430.692291 
	C795.547546,429.688385 788.692749,428.847900 781.951355,427.506134 
	C771.880371,425.501648 761.776428,423.651154 751.683960,421.780548 
	C742.718506,420.118866 733.721191,418.564911 724.741272,416.980560 
	C716.875977,415.592865 708.908752,414.342957 701.181641,412.641693 
	C692.778687,410.791656 684.237122,409.545959 675.832214,407.723907 
	C668.293152,406.089600 660.460388,405.166107 652.803101,403.826263 
	C645.137756,402.485016 637.401672,401.447754 629.796021,399.531982 
	C621.443909,397.428223 612.796143,396.512482 604.293823,394.986328 
	C596.149719,393.524475 588.012024,392.017609 579.903687,390.371674 
	C577.333618,389.849976 574.655884,389.392609 572.158447,389.204346 
	C564.989197,388.664001 557.937866,386.959778 551.062012,385.561462 
	C541.027649,383.520813 530.832275,382.298798 520.445435,379.871002 
	C510.867615,378.609222 501.784271,376.971558 492.723633,375.210297 
	C490.336090,374.746246 487.733276,374.801544 485.977356,372.390015 
	C488.523193,369.885498 491.468262,370.413025 494.242767,370.408661 
	C523.734253,370.362000 553.225708,370.381042 582.717224,370.380890 
	C684.021301,370.380280 785.325439,370.381561 886.629517,370.379425 
	C896.375793,370.379211 896.379517,370.372101 896.379944,360.460419 
	C896.381836,317.972687 896.376526,275.484955 896.390015,232.997208 
	C896.390869,230.171967 896.173096,227.326920 897.028687,224.092468 
	C898.500244,221.552353 900.584839,221.671082 902.544861,222.003754 
	C916.482849,224.369553 930.403625,226.836136 944.679565,229.642151 
	C947.886230,231.954880 951.126770,230.702103 954.176270,230.965897 
	C955.763000,231.103165 956.291504,230.962814 956.196228,233.259720 
	C955.711182,244.959763 952.819641,256.229065 950.714355,267.639771 
	C950.598633,268.266968 950.004761,268.887848 950.077087,269.455048 
	C950.740173,274.648193 949.314514,279.457855 947.684998,284.527832 
	C946.093994,294.436554 944.695190,304.090210 942.847107,313.672150 
	C940.176758,327.517517 937.694580,341.399933 935.139160,355.691833 
z"/>
<path fill="#FFD101" opacity="1.000000" stroke="none" 
	d="
M485.037842,371.886536 
	C495.568146,374.171692 505.758942,376.082916 515.940613,378.041931 
	C517.217407,378.287567 518.445557,378.785828 519.858154,379.500366 
	C512.345886,382.370361 504.304321,380.968781 496.467010,381.656708 
	C487.631165,382.432251 478.643890,382.778870 469.722534,383.151398 
	C451.762482,383.901306 433.836273,385.390259 415.862457,386.157654 
	C405.674408,386.592651 395.462921,387.333710 385.289978,388.141174 
	C371.669006,389.222382 357.980072,389.159515 344.398315,390.900879 
	C338.523651,391.654083 332.519409,391.460144 326.608673,391.707245 
	C317.853149,392.073334 309.102417,392.788361 300.344452,393.143646 
	C282.215698,393.879150 264.118622,395.332672 245.983215,396.172699 
	C235.461166,396.660065 224.928513,397.416412 214.401321,398.071106 
	C196.285034,399.197876 178.180756,400.393280 160.038788,401.152710 
	C149.349045,401.600159 138.659653,402.490784 127.962135,403.111603 
	C110.342506,404.134186 92.721069,405.153534 75.109581,406.244781 
	C68.165146,406.675079 61.233036,406.582642 54.310253,407.016357 
	C51.098946,407.217560 50.049625,405.896667 49.920753,402.648193 
	C49.417099,389.952423 48.418953,377.282593 47.853180,364.582428 
	C47.354656,353.391785 46.546265,342.199158 45.866436,331.009277 
	C44.826340,313.889465 43.755505,296.776093 42.885784,279.644043 
	C42.326046,268.618134 41.497517,257.599579 40.871708,246.568954 
	C39.881420,229.114105 38.636292,211.675964 37.807091,194.206894 
	C37.598007,189.802048 37.057556,185.356094 37.020351,180.907089 
	C37.010025,179.672562 36.611088,177.849884 38.730049,178.086868 
	C41.461330,178.392349 43.935329,176.911896 46.518353,177.065933 
	C55.327770,177.591263 64.001305,175.506836 72.807671,175.929886 
	C75.540588,176.061172 78.315201,175.324677 81.502106,174.949036 
	C83.556435,176.337219 82.593979,177.993210 82.311203,179.557892 
	C76.405174,212.237625 70.498421,244.917236 64.548248,277.588959 
	C63.808090,281.653107 63.247341,285.732727 62.116661,289.755096 
	C60.710766,294.756531 62.027435,296.095184 67.240112,296.986237 
	C75.908363,298.468048 84.553909,300.082703 93.598068,301.683899 
	C96.062737,303.929962 95.579201,306.714752 95.587776,309.322205 
	C95.645302,326.809906 95.610207,344.297882 95.618820,361.785767 
	C95.623039,370.359497 95.631668,370.379456 104.142548,370.379822 
	C227.390472,370.384979 350.638397,370.376953 473.886322,370.411713 
	C477.505859,370.412750 481.238708,369.764374 485.037842,371.886536 
z"/>
<path fill="#FFD101" opacity="1.000000" stroke="none" 
	d="
M945.026978,229.473434 
	C942.606323,231.134720 940.203613,230.115234 937.821533,229.692017 
	C924.832947,227.384277 911.854675,225.018494 898.449768,222.626526 
	C896.040344,220.547424 896.431946,217.937164 896.419250,215.486511 
	C896.353455,202.822678 896.414856,190.158401 896.380737,177.494370 
	C896.360474,169.973160 896.041138,169.626434 888.465393,169.622833 
	C835.976013,169.597809 783.486694,169.611755 730.997314,169.610443 
	C688.672546,169.609375 646.347839,169.618301 604.023071,169.593353 
	C601.214355,169.591705 598.337036,169.968613 595.290894,168.342163 
	C576.843567,164.667892 558.770020,161.296295 540.685425,157.984985 
	C529.452515,155.928253 518.200623,153.975464 506.965942,151.928513 
	C506.203430,151.789566 505.513794,151.250565 504.638702,150.523163 
	C514.577698,149.767319 524.689453,149.676315 534.754089,148.939850 
	C552.028503,147.675797 569.311707,146.724777 586.610229,145.864761 
	C597.633606,145.316727 608.655212,144.520401 619.682007,143.875641 
	C636.967773,142.864899 654.242737,141.728867 671.540955,140.865814 
	C682.731567,140.307495 693.930115,139.616196 705.113281,138.883041 
	C722.229492,137.760956 739.344727,136.760620 756.474243,135.867188 
	C767.665466,135.283463 778.858643,134.553421 790.046997,133.862732 
	C807.165833,132.805939 824.284058,131.811234 841.409302,130.865097 
	C853.267151,130.210007 865.130554,129.581833 876.982178,128.859329 
	C895.430847,127.734657 913.843933,126.224327 932.343079,125.834763 
	C937.754211,125.720802 938.736877,128.390808 938.962402,132.376617 
	C939.717651,145.727570 940.094666,159.103470 941.052795,172.438477 
	C942.306030,189.880493 943.616638,207.312500 944.039185,224.800766 
	C944.073669,226.224747 944.669006,227.635147 945.026978,229.473434 
z"/>
<path fill="#FCCE06" opacity="1.000000" stroke="none" 
	d="
M935.499146,356.062347 
	C933.166687,351.229980 935.694336,346.716095 936.451111,342.145172 
	C939.479065,323.857147 942.944275,305.641449 946.276672,287.404266 
	C946.421021,286.614563 946.851807,285.877167 947.492798,284.977661 
	C948.436829,298.693542 949.406372,312.535095 950.270264,326.365204 
	C950.797974,334.813873 950.553711,343.235443 951.045532,351.651245 
	C951.196716,354.238525 950.402100,355.281769 947.719604,355.041382 
	C943.756958,354.686279 939.958191,356.703400 935.499146,356.062347 
z"/>
<path fill="#FEFEFE" opacity="1.000000" stroke="none" 
	d="
M594.371155,168.034027 
	C636.741455,168.117584 678.561035,168.274231 720.380737,168.311829 
	C777.700623,168.363373 835.020691,168.373230 892.340271,168.227341 
	C896.684143,168.216263 897.993530,169.223434 897.917908,173.726074 
	C897.649353,189.716263 897.862061,205.714554 897.959595,222.145065 
	C897.954468,233.901703 897.828308,245.222992 897.820007,256.544373 
	C897.793213,292.855774 897.826172,329.167145 897.796631,365.478546 
	C897.790588,372.929016 898.633606,371.957916 891.544739,371.958893 
	C759.291382,371.977264 627.037964,371.971130 494.784607,371.981781 
	C491.956055,371.981995 489.127533,372.118713 485.839539,372.218811 
	C481.220184,372.153778 477.060242,371.981750 472.900299,371.981262 
	C348.644226,371.966980 224.388123,371.940338 100.132210,372.081665 
	C95.379547,372.087067 94.018890,371.054352 94.084648,366.146088 
	C94.367996,344.996826 94.179436,323.841309 94.074905,302.207214 
	C94.058983,285.072510 94.170708,268.418732 94.193497,251.764786 
	C94.228607,226.111969 94.202278,200.459076 94.203072,174.806213 
	C94.203270,168.307541 94.205124,168.304382 100.591362,168.304352 
	C261.338226,168.303680 422.085052,168.305420 582.831909,168.293259 
	C586.494751,168.292984 590.157654,168.137238 594.371155,168.034027 
z"/>
<path fill="#030303" opacity="1.000000" stroke="none" 
	d="
M118.244415,274.608063 
	C112.246559,262.048492 112.357956,249.404861 116.320435,236.842285 
	C118.416618,230.196518 122.858749,224.745270 129.547974,221.992203 
	C146.422043,215.047409 163.759659,213.623260 181.131317,219.646240 
	C193.952667,224.091568 201.298080,236.956360 199.988937,250.500488 
	C199.769424,252.771606 198.872131,253.256729 196.889496,253.190964 
	C188.742188,252.920670 180.593262,252.653641 172.442825,252.549957 
	C169.818329,252.516586 170.109833,250.969193 170.091309,249.251175 
	C169.989441,239.795670 169.970551,239.786743 160.443512,239.199371 
	C159.115509,239.117493 157.778763,239.172943 156.446075,239.172363 
	C141.597900,239.165833 141.725204,239.167191 141.612228,254.188644 
	C141.584686,257.850403 142.379913,259.042999 146.249512,258.927734 
	C157.600143,258.589600 168.857162,259.570679 179.767654,263.056610 
	C196.795410,268.496979 204.769196,279.717804 205.089920,297.522827 
	C205.285385,308.373871 203.374130,318.292511 196.172302,326.785217 
	C190.054733,333.999359 182.066299,337.808899 172.965973,339.210571 
	C157.357834,341.614563 142.098770,341.020142 128.311813,332.015106 
	C117.701775,325.085022 113.712555,314.803284 113.779266,302.536407 
	C113.789604,300.633698 114.377525,299.867676 116.361107,299.972778 
	C124.833275,300.421753 133.307755,300.896454 141.787628,301.093628 
	C144.814865,301.163971 144.209610,303.054230 144.346695,304.773132 
	C145.067307,313.808411 145.070923,313.751160 154.179398,314.018066 
	C159.664200,314.178772 165.148865,314.467163 170.621506,314.864655 
	C173.150528,315.048340 174.182892,314.374054 174.056747,311.629883 
	C173.842773,306.975769 173.817673,302.294525 174.066528,297.643616 
	C174.248428,294.243958 173.089096,293.182526 169.647705,292.897491 
	C158.890823,292.006531 148.047958,291.742767 137.489578,289.044250 
	C129.173920,286.918915 122.725975,282.415619 118.244415,274.608063 
z"/>
<path fill="#040404" opacity="1.000000" stroke="none" 
	d="
M869.857056,258.324402 
	C872.792419,264.175568 873.218323,270.136169 873.296936,276.140503 
	C873.506287,292.120697 873.483398,308.106873 873.954773,324.078827 
	C874.085022,328.493286 872.628052,329.391418 868.658081,329.076019 
	C863.027466,328.628723 857.356628,328.541809 851.704590,328.575317 
	C849.016907,328.591217 847.916687,328.044525 848.039307,325.015015 
	C848.699707,308.696716 848.011963,292.397919 847.098206,276.099884 
	C846.926575,273.038025 846.384766,271.668671 842.965820,271.927216 
	C838.518127,272.263641 832.475647,270.292389 829.961487,272.520752 
	C827.016785,275.130798 829.099792,281.273926 829.046692,285.875244 
	C828.900757,298.530273 828.852051,311.188904 829.004517,323.843201 
	C829.044800,327.182861 828.224060,328.046539 824.804871,327.613800 
	C818.390442,326.801971 811.900574,326.118622 805.423340,326.869354 
	C802.122986,327.251862 801.618286,325.832367 801.629761,322.938934 
	C801.688660,308.120361 801.435364,293.299927 801.567993,278.482635 
	C801.600159,274.884399 800.676758,273.849274 797.090698,274.429688 
	C793.665344,274.984070 790.119568,275.063385 786.641235,274.940735 
	C783.545654,274.831573 782.847778,276.077362 782.625488,278.983978 
	C781.492188,293.798523 782.388245,308.614105 782.391602,323.425262 
	C782.392456,327.155212 781.559998,328.695557 777.484436,328.625366 
	C771.684021,328.525543 765.861206,329.057587 760.067322,329.548676 
	C757.443787,329.770996 756.656555,329.104706 756.828491,326.369141 
	C758.312500,302.749390 758.052917,279.114838 757.008972,255.487564 
	C756.882324,252.622452 757.697998,251.704041 760.525513,251.943329 
	C763.336548,252.181229 766.183411,251.995377 769.014587,251.995377 
	C777.295410,251.995377 777.295410,251.995361 778.946228,260.409180 
	C784.737488,252.473511 791.752197,247.039658 801.549011,246.519501 
	C811.921814,245.968765 818.971008,250.868286 823.218079,260.885529 
	C829.166870,250.062546 838.249817,246.176270 849.541138,246.478836 
	C858.337402,246.714569 865.299255,250.090240 869.857056,258.324402 
z"/>
<path fill="#040404" opacity="1.000000" stroke="none" 
	d="
M647.706909,327.711151 
	C635.316162,339.326019 612.457764,340.191711 602.321899,329.577026 
	C596.341614,323.314117 594.806763,315.251251 594.086426,307.089630 
	C593.561035,301.137543 593.903870,295.113708 593.637329,289.131744 
	C593.514832,286.380371 594.237793,285.338470 597.196838,285.408142 
	C603.178894,285.549011 609.175598,285.374023 615.156677,285.111237 
	C617.802673,284.994934 618.621399,285.907349 618.565308,288.504639 
	C618.421509,295.165253 618.634399,301.834045 618.461304,308.493256 
	C618.391296,311.184418 618.955139,312.233826 621.950500,312.244354 
	C630.031311,312.272827 630.069763,312.436798 630.275635,304.246735 
	C631.007935,275.107239 629.835999,245.975037 629.840149,216.837372 
	C629.840637,213.129593 630.446899,211.554398 634.606567,211.952637 
	C641.386353,212.601700 648.222900,212.895325 655.034180,212.874863 
	C658.338196,212.864929 659.152771,213.820587 659.073730,217.031342 
	C658.602600,236.175018 658.399231,255.325104 657.982971,274.470367 
	C657.737122,285.773254 659.014221,297.126465 656.975891,308.373047 
	C655.677917,315.534607 653.015381,322.067657 647.706909,327.711151 
z"/>
<path fill="#040404" opacity="1.000000" stroke="none" 
	d="
M698.161865,267.638855 
	C697.851257,276.951416 697.844910,277.049438 688.955017,276.472656 
	C684.787903,276.202301 680.640381,276.224365 676.532837,276.755249 
	C673.371460,277.163849 672.961792,276.046021 673.287170,273.191040 
	C674.397400,263.446960 680.048950,257.040710 688.359009,252.921097 
	C700.382324,246.960709 712.938232,246.342163 725.603394,250.818604 
	C736.050049,254.510910 740.918945,262.614319 741.951843,273.150452 
	C742.469238,278.427521 742.360107,283.799866 742.121216,289.110535 
	C741.528015,302.293579 741.979492,315.398804 744.469238,328.377594 
	C744.940308,330.833527 744.964172,332.356140 741.814453,331.725555 
	C736.272461,330.616028 730.852173,331.812347 725.584412,333.175873 
	C722.102844,334.076996 720.420410,333.414276 719.691406,329.913879 
	C718.902771,326.128052 717.523743,325.254944 713.905029,327.965179 
	C705.698181,334.111725 696.102661,335.952209 686.038635,334.887878 
	C677.099792,333.942535 670.723511,327.011841 669.884338,317.949493 
	C669.290222,311.534302 670.416077,305.397614 672.636658,299.387909 
	C674.928894,293.184235 678.940857,289.235352 685.559998,287.499542 
	C695.563110,284.876282 705.686401,283.059021 715.943787,282.105164 
	C719.308533,281.792236 720.525146,280.941864 720.357910,277.438568 
	C719.995422,269.847717 720.196533,269.690216 712.737732,268.060577 
	C707.989929,267.023285 703.202698,265.152496 698.161865,267.638855 
z"/>
<path fill="#030303" opacity="1.000000" stroke="none" 
	d="
M223.297668,267.337616 
	C235.345917,250.248352 259.837097,248.296494 274.699921,262.654510 
	C288.473419,275.960205 291.878143,303.901855 284.438019,318.973907 
	C278.189117,331.632782 268.161560,338.922485 253.967667,339.933655 
	C239.689896,340.950714 228.763351,334.872986 222.334549,322.393921 
	C212.981445,304.238464 212.704269,285.746521 223.297668,267.337616 
z"/>
<path fill="#040404" opacity="1.000000" stroke="none" 
	d="
M347.818420,325.853088 
	C339.103485,335.093506 328.997040,339.538025 316.605835,336.605255 
	C306.133911,334.126740 301.533081,326.347626 300.050934,316.417938 
	C299.415222,312.159058 299.060944,307.755188 299.376495,303.476044 
	C300.446198,288.970306 299.595398,274.506836 298.736481,260.052460 
	C298.508453,256.216125 299.822754,255.725815 303.084045,255.934814 
	C309.057373,256.317596 315.062988,256.574097 321.039551,256.386627 
	C324.611481,256.274536 325.068939,257.733704 324.966125,260.752686 
	C324.416321,276.893005 324.152985,293.043884 323.495300,309.179077 
	C323.341400,312.954254 324.272736,314.445892 328.091003,313.852539 
	C329.891052,313.572845 331.736847,313.529175 333.564148,313.493256 
	C344.071655,313.286438 344.045715,313.297028 344.480255,302.996521 
	C345.112518,288.008972 344.915466,273.025024 344.070923,258.057739 
	C343.884460,254.753357 344.752106,253.741302 348.067474,253.924423 
	C353.715302,254.236374 359.387238,254.119553 365.049164,254.164993 
	C367.678833,254.186096 369.125763,254.762207 369.099670,258.111633 
	C368.920563,281.096649 368.944244,304.084106 369.078125,327.069733 
	C369.096283,330.181824 368.260590,331.241425 365.168823,330.878632 
	C362.370209,330.550293 359.523499,330.515137 356.699982,330.544281 
	C352.821930,330.584259 348.971497,330.761414 347.818420,325.853088 
z"/>
<path fill="#040404" opacity="1.000000" stroke="none" 
	d="
M419.745483,255.617065 
	C423.561066,253.829407 427.140747,252.440369 430.979095,252.058792 
	C444.818207,250.683060 452.658173,257.935577 452.848267,273.245819 
	C453.019653,287.052673 452.255524,300.869507 452.014008,314.683868 
	C451.912170,320.508698 451.978119,326.342804 452.199005,332.163940 
	C452.292084,334.616913 451.525330,335.322021 449.120636,335.183655 
	C443.143616,334.839691 437.150391,334.518738 431.169617,334.604462 
	C428.014038,334.649689 427.235718,333.689789 427.425476,330.627136 
	C428.414520,314.660797 428.418823,298.705658 427.068451,282.732544 
	C426.701965,278.397491 425.756958,276.791321 421.231171,277.752655 
	C417.234924,278.601501 411.675476,276.752411 409.424438,279.696320 
	C407.498993,282.214325 408.837036,287.330292 408.956604,291.290375 
	C409.328979,303.621613 408.478882,315.922272 408.221497,328.237305 
	C408.175873,330.419769 407.832611,331.575073 405.296509,331.637878 
	C399.312408,331.786194 393.332031,332.155182 387.355988,332.528931 
	C383.884491,332.746033 384.796326,330.349213 384.828522,328.497589 
	C385.164215,309.188782 386.302917,289.891449 385.679260,270.569489 
	C385.561127,266.910278 385.362030,263.249420 385.048126,259.602417 
	C384.861877,257.438507 385.431641,256.686890 387.768219,256.929596 
	C392.392883,257.410034 397.050110,257.608307 401.698792,257.809540 
	C403.327362,257.880035 404.024048,258.435516 404.154388,260.128265 
	C404.293884,261.940094 404.817932,263.722260 405.246307,265.881073 
	C409.958435,262.342865 414.133392,258.260254 419.745483,255.617065 
z"/>
<path fill="#0C0C0C" opacity="1.000000" stroke="none" 
	d="
M529.644470,308.768158 
	C529.159729,321.686890 522.071960,329.898102 511.975159,335.836395 
	C500.322052,342.690002 487.883331,345.552307 474.760864,340.485382 
	C461.014954,335.177856 456.969849,321.946533 464.961914,309.629883 
	C475.941345,292.709198 504.547241,283.345642 521.825623,295.216766 
	C525.125977,297.484283 524.403137,294.676514 524.462463,293.031708 
	C525.416443,266.573975 526.348572,240.115509 527.299683,213.657684 
	C527.473083,208.833344 527.789001,204.012741 527.879456,199.187424 
	C527.920776,196.983780 528.281555,195.281235 530.736267,194.618073 
	C533.251892,193.938431 534.981201,194.892792 536.138916,197.008560 
	C536.761475,198.146286 537.296753,199.399643 537.543579,200.664780 
	C540.229309,214.433578 547.105835,226.030899 555.849060,236.743820 
	C567.418884,250.920044 570.551147,266.564453 563.685364,283.875641 
	C561.394592,289.651367 557.689331,294.532104 554.209473,299.563232 
	C553.928650,299.969238 553.107361,300.001404 551.774170,300.482880 
	C555.267639,293.541565 557.928284,287.145172 559.307983,280.127136 
	C561.821716,267.341125 557.857971,256.539154 550.596558,246.476135 
	C545.259460,239.079819 539.757324,231.804901 532.926331,224.380829 
	C531.822449,252.743881 530.741150,280.526550 529.644470,308.768158 
z"/>
<path fill="#F7F7F7" opacity="1.000000" stroke="none" 
	d="
M700.787231,315.877441 
	C696.785645,316.762268 695.483398,315.788757 695.571350,311.778473 
	C695.813416,300.738190 695.599976,300.733521 706.513794,298.931946 
	C715.353333,297.472717 715.355530,297.472900 714.648804,306.423798 
	C714.583496,307.250824 714.321777,308.086914 714.396057,308.896362 
	C714.818726,313.505951 712.941895,315.520752 708.171509,315.122864 
	C705.902893,314.933685 703.564453,315.581207 700.787231,315.877441 
z"/>
<path fill="#FBFBFB" opacity="1.000000" stroke="none" 
	d="
M248.574387,275.599915 
	C259.585327,273.981323 259.537506,273.984100 260.151001,284.518127 
	C260.701660,293.972809 261.302338,303.425964 262.037079,312.867645 
	C262.239868,315.473450 261.509186,316.606079 258.842590,316.176544 
	C258.518585,316.124329 258.178864,316.167328 257.846466,316.169983 
	C251.981689,316.217163 245.455734,316.458923 240.925232,313.137207 
	C235.611084,309.240936 240.545380,302.859039 240.282120,297.571075 
	C240.029144,292.489685 241.654037,287.333405 241.607193,282.217773 
	C241.562180,277.304321 243.329041,275.236176 248.574387,275.599915 
z"/>
<path fill="#F9F9F9" opacity="1.000000" stroke="none" 
	d="
M514.947632,318.982178 
	C503.476562,327.084229 491.643250,333.182770 477.441833,332.811890 
	C476.280884,332.781555 475.093323,332.835632 473.965759,332.611176 
	C465.698547,330.965302 464.673645,328.248840 469.317444,321.335144 
	C480.626526,304.497955 503.497253,297.282806 517.062683,300.642609 
	C525.830566,302.814209 526.350464,307.108002 521.589233,312.456879 
	C519.588745,314.704285 517.593628,316.906372 514.947632,318.982178 
z"/>
</svg>