<svg version="1.1" id="Layer_1" xmlns="http://www.w3.org/2000/svg" xmlns:xlink="http://www.w3.org/1999/xlink" x="0px" y="0px"
	 width="100%" viewBox="0 0 1024 500" enable-background="new 0 0 1024 500" xml:space="preserve">
<path fill="#FFFFFF" opacity="1.000000" stroke="none" 
	d="
M631.000000,501.000000 
	C420.701050,501.000000 210.902115,501.000000 1.051592,501.000000 
	C1.051592,334.395050 1.051592,167.790100 1.051592,1.092570 
	C342.215637,1.092570 683.431274,1.092570 1024.823486,1.092570 
	C1024.823486,167.666519 1024.823486,334.333252 1024.823486,501.000000 
	C893.790039,501.000000 762.645020,501.000000 631.000000,501.000000 
M520.870972,379.908386 
	C530.905823,381.934387 540.913818,384.108887 550.984802,385.935547 
	C558.002686,387.208435 565.110901,387.978729 572.170837,389.026733 
	C574.757263,389.410675 577.323120,389.935791 579.894470,390.417175 
	C588.027771,391.939789 596.149719,393.524475 604.293823,394.986328 
	C612.796143,396.512482 621.334778,397.839050 629.828247,399.410858 
	C637.496887,400.830017 645.098999,402.616730 652.780029,403.958038 
	C660.453430,405.298035 668.231384,406.056305 675.884583,407.490753 
	C684.337952,409.075134 692.669861,411.301208 701.113708,412.944611 
	C708.953918,414.470551 716.886536,415.514832 724.751648,416.921295 
	C733.731140,418.526978 742.674988,420.330719 751.645203,421.989716 
	C761.742065,423.857117 771.847473,425.678772 781.955933,427.482483 
	C788.718201,428.689087 795.479492,429.910797 802.264099,430.980164 
	C811.613647,432.453827 821.017395,433.604126 830.337769,435.236328 
	C840.108521,436.947357 849.787292,439.178467 859.545959,440.965424 
	C866.458984,442.231293 873.470337,442.963501 880.378967,444.249664 
	C887.871033,445.644470 895.266907,447.555084 902.758484,448.953186 
	C907.626587,449.861694 912.590637,450.255890 917.600342,450.891724 
	C918.678955,445.354370 919.714661,439.914307 920.801697,434.484528 
	C922.516174,425.920990 924.462219,417.398285 925.943054,408.795135 
	C927.355774,400.587799 928.082825,392.262177 929.505310,384.056854 
	C931.127625,374.698608 933.185608,365.415924 935.944031,356.024292 
	C940.826599,355.617310 945.709229,355.210358 951.447754,354.732025 
	C950.960327,345.123871 950.493042,335.752228 950.007751,326.381561 
	C949.290649,312.533966 948.560730,298.687042 947.533691,284.215790 
	C948.337524,282.108948 949.445190,280.063599 949.886536,277.883362 
	C951.070923,272.031677 952.124939,266.143799 952.947815,260.230927 
	C954.288635,250.594940 955.404663,240.927658 956.575623,231.591553 
	C952.403381,230.977402 948.726868,230.436203 945.003723,229.051849 
	C944.669006,227.635147 944.118591,226.231445 944.032288,224.799759 
	C942.980225,207.349777 941.934570,189.898911 941.020142,172.441330 
	C940.544250,163.355820 940.508423,154.245422 939.939087,145.167252 
	C939.543213,138.854660 938.577698,132.577774 937.853516,126.168404 
	C936.300293,126.093697 935.318359,125.962234 934.345703,126.012138 
	C915.226562,126.993126 896.107666,127.977539 876.990662,128.999420 
	C865.130920,129.633377 853.273865,130.317856 841.416931,131.002686 
	C824.295898,131.991547 807.175720,132.997101 790.055664,134.003571 
	C778.863770,134.661560 767.672974,135.339706 756.481079,135.998199 
	C739.361450,137.005463 722.241028,137.999756 705.121399,139.006866 
	C693.929749,139.665222 682.739502,140.345612 671.547607,140.999756 
	C654.262085,142.010056 636.975220,142.997070 619.689941,144.011948 
	C608.664734,144.659271 597.642273,145.354279 586.617004,146.000656 
	C569.331604,147.014023 552.048584,148.073883 534.757385,148.977936 
	C524.674438,149.505112 514.577698,149.767319 503.705872,150.059860 
	C498.443054,149.038177 493.199219,147.903183 487.913452,147.018738 
	C477.402588,145.259979 466.837769,143.809097 456.354706,141.903793 
	C448.885345,140.546219 441.554962,138.424896 434.086273,137.062531 
	C426.056519,135.597824 417.906403,134.799057 409.865875,133.385162 
	C400.731262,131.778870 391.677032,129.720551 382.555756,128.031998 
	C374.887451,126.612411 367.163483,125.496239 359.481781,124.145409 
	C351.125031,122.675865 342.794128,121.060150 334.442139,119.562630 
	C320.876801,117.130356 307.290985,114.810074 293.737915,112.311867 
	C284.788879,110.662300 275.905579,108.653145 266.950653,107.039001 
	C253.857147,104.678848 240.701859,102.658096 227.619537,100.240372 
	C219.740158,98.784203 212.002106,96.537720 204.106842,95.198875 
	C190.452209,92.883362 176.688339,91.208618 163.040451,88.857796 
	C153.807785,87.267487 144.744019,84.702232 135.515625,83.079811 
	C125.925301,81.393761 116.214111,80.405510 106.586830,78.911980 
	C104.217331,78.544395 101.968460,77.399223 100.037086,76.739006 
	C93.898979,110.025253 87.916237,142.468918 81.070724,174.985474 
	C66.506508,176.023315 51.942295,177.061157 36.579689,178.155899 
	C37.076454,183.782974 37.656700,188.983124 37.973881,194.199280 
	C39.035030,211.650223 39.990513,229.107574 41.009430,246.561142 
	C41.653168,257.588013 42.349686,268.611786 43.001385,279.638184 
	C44.013252,296.758453 45.003017,313.880005 46.010029,331.000549 
	C46.668331,342.192657 47.375530,353.381989 47.997276,364.576111 
	C48.701977,377.263702 49.449234,389.950989 49.921932,402.647980 
	C50.042931,405.898010 51.098564,407.203339 54.310333,407.019318 
	C61.235092,406.622498 68.168404,406.376282 75.093987,405.992157 
	C92.715645,405.014832 110.336075,404.014252 127.954842,402.986023 
	C138.649536,402.361877 149.337860,401.627716 160.033218,401.016174 
	C178.152695,399.980164 196.277100,399.030212 214.396255,397.988922 
	C224.925873,397.383759 235.446518,396.622498 245.976151,396.017395 
	C264.094940,394.976227 282.215179,393.955505 300.339661,393.020172 
	C309.094299,392.568359 317.861877,392.371613 326.620056,391.980652 
	C332.552429,391.715851 338.482910,391.375183 344.406769,390.961090 
	C358.033173,390.008545 371.652985,388.961853 385.279358,388.008301 
	C395.468384,387.295288 405.660095,386.610626 415.856567,386.015259 
	C433.807312,384.967102 451.759857,383.944000 469.717102,383.016144 
	C478.637421,382.555267 487.580078,382.494965 496.493805,381.946899 
	C504.349457,381.463867 512.178955,380.554657 520.870972,379.908386 
z"/>
<path fill="#733CFF" opacity="1.000000" stroke="none" 
	d="
M81.933495,174.912582 
	C87.916237,142.468918 93.898979,110.025253 100.037086,76.739006 
	C101.968460,77.399223 104.217331,78.544395 106.586830,78.911980 
	C116.214111,80.405510 125.925301,81.393761 135.515625,83.079811 
	C144.744019,84.702232 153.807785,87.267487 163.040451,88.857796 
	C176.688339,91.208618 190.452209,92.883362 204.106842,95.198875 
	C212.002106,96.537720 219.740158,98.784203 227.619537,100.240372 
	C240.701859,102.658096 253.857147,104.678848 266.950653,107.039001 
	C275.905579,108.653145 284.788879,110.662300 293.737915,112.311867 
	C307.290985,114.810074 320.876801,117.130356 334.442139,119.562630 
	C342.794128,121.060150 351.125031,122.675865 359.481781,124.145409 
	C367.163483,125.496239 374.887451,126.612411 382.555756,128.031998 
	C391.677032,129.720551 400.731262,131.778870 409.865875,133.385162 
	C417.906403,134.799057 426.056519,135.597824 434.086273,137.062531 
	C441.554962,138.424896 448.885345,140.546219 456.354706,141.903793 
	C466.837769,143.809097 477.402588,145.259979 487.913452,147.018738 
	C493.199219,147.903183 498.443054,149.038177 504.248077,150.478729 
	C505.513824,151.250565 506.203491,151.789551 506.966034,151.928482 
	C518.201111,153.975510 529.453430,155.928284 540.686707,157.985184 
	C558.771973,161.296738 576.846191,164.668686 594.374023,168.035553 
	C590.160156,168.139023 586.497314,168.294434 582.834412,168.294708 
	C422.253204,168.306854 261.672028,168.305267 101.090828,168.305344 
	C98.978127,168.305344 96.865425,168.305344 94.203926,168.305344 
	C94.203926,170.735077 94.203926,172.521866 94.203926,174.308640 
	C94.203926,206.458191 94.222069,238.607758 94.193436,270.757294 
	C94.184242,281.080872 94.051559,291.404297 93.538376,301.662872 
	C84.421852,300.048798 75.782516,298.182892 67.047028,297.075043 
	C62.182865,296.458160 61.382885,293.848450 62.007511,290.017761 
	C62.700256,285.769287 63.842838,281.596100 64.613388,277.358093 
	C70.539062,244.767029 76.437515,212.170959 82.267662,179.562714 
	C82.532761,178.079987 82.061691,176.465637 81.933495,174.912582 
z"/>
<path fill="#733CFF" opacity="1.000000" stroke="none" 
	d="
M935.054199,356.100372 
	C933.185608,365.415924 931.127625,374.698608 929.505310,384.056854 
	C928.082825,392.262177 927.355774,400.587799 925.943054,408.795135 
	C924.462219,417.398285 922.516174,425.920990 920.801697,434.484528 
	C919.714661,439.914307 918.678955,445.354370 917.600342,450.891724 
	C912.590637,450.255890 907.626587,449.861694 902.758484,448.953186 
	C895.266907,447.555084 887.871033,445.644470 880.378967,444.249664 
	C873.470337,442.963501 866.458984,442.231293 859.545959,440.965424 
	C849.787292,439.178467 840.108521,436.947357 830.337769,435.236328 
	C821.017395,433.604126 811.613647,432.453827 802.264099,430.980164 
	C795.479492,429.910797 788.718201,428.689087 781.955933,427.482483 
	C771.847473,425.678772 761.742065,423.857117 751.645203,421.989716 
	C742.674988,420.330719 733.731140,418.526978 724.751648,416.921295 
	C716.886536,415.514832 708.953918,414.470551 701.113708,412.944611 
	C692.669861,411.301208 684.337952,409.075134 675.884583,407.490753 
	C668.231384,406.056305 660.453430,405.298035 652.780029,403.958038 
	C645.098999,402.616730 637.496887,400.830017 629.828247,399.410858 
	C621.334778,397.839050 612.796143,396.512482 604.293823,394.986328 
	C596.149719,393.524475 588.027771,391.939789 579.894470,390.417175 
	C577.323120,389.935791 574.757263,389.410675 572.170837,389.026733 
	C565.110901,387.978729 558.002686,387.208435 550.984802,385.935547 
	C540.913818,384.108887 530.905823,381.934387 520.283630,379.537720 
	C518.445496,378.785828 517.217285,378.287537 515.940430,378.041809 
	C505.758362,376.082306 495.567078,374.170654 485.838135,372.217285 
	C489.126251,372.117462 491.954834,371.981140 494.783417,371.980927 
	C627.036804,371.970367 759.290222,371.971588 891.543640,371.971466 
	C893.481567,371.971466 895.419495,371.971466 897.808899,371.971466 
	C897.808899,369.409973 897.808899,367.444061 897.808899,365.478119 
	C897.808899,324.669434 897.799011,283.860779 897.818665,243.052094 
	C897.821960,236.228012 897.953430,229.403992 898.448730,222.626236 
	C911.853943,225.018372 924.826843,227.417557 937.826599,229.661026 
	C940.177917,230.066788 942.639587,229.833359 945.050293,229.895020 
	C948.726868,230.436203 952.403381,230.977402 956.575623,231.591553 
	C955.404663,240.927658 954.288635,250.594940 952.947815,260.230927 
	C952.124939,266.143799 951.070923,272.031677 949.886536,277.883362 
	C949.445190,280.063599 948.337524,282.108948 947.344360,284.662170 
	C946.856262,285.869263 946.422668,286.605347 946.278442,287.394348 
	C942.945312,305.634338 939.564209,323.866302 936.391357,342.134399 
	C935.593384,346.728546 935.481445,351.441833 935.054199,356.100372 
z"/>
<path fill="#FFD101" opacity="1.000000" stroke="none" 
	d="
M485.378632,372.244293 
	C495.567078,374.170654 505.758362,376.082306 515.940430,378.041809 
	C517.217285,378.287537 518.445496,378.785828 519.858154,379.500366 
	C512.178955,380.554657 504.349457,381.463867 496.493805,381.946899 
	C487.580078,382.494965 478.637421,382.555267 469.717102,383.016144 
	C451.759857,383.944000 433.807312,384.967102 415.856567,386.015259 
	C405.660095,386.610626 395.468384,387.295288 385.279358,388.008301 
	C371.652985,388.961853 358.033173,390.008545 344.406769,390.961090 
	C338.482910,391.375183 332.552429,391.715851 326.620056,391.980652 
	C317.861877,392.371613 309.094299,392.568359 300.339661,393.020172 
	C282.215179,393.955505 264.094940,394.976227 245.976151,396.017395 
	C235.446518,396.622498 224.925873,397.383759 214.396255,397.988922 
	C196.277100,399.030212 178.152695,399.980164 160.033218,401.016174 
	C149.337860,401.627716 138.649536,402.361877 127.954842,402.986023 
	C110.336075,404.014252 92.715645,405.014832 75.093987,405.992157 
	C68.168404,406.376282 61.235092,406.622498 54.310333,407.019318 
	C51.098564,407.203339 50.042931,405.898010 49.921932,402.647980 
	C49.449234,389.950989 48.701977,377.263702 47.997276,364.576111 
	C47.375530,353.381989 46.668331,342.192657 46.010029,331.000549 
	C45.003017,313.880005 44.013252,296.758453 43.001385,279.638184 
	C42.349686,268.611786 41.653168,257.588013 41.009430,246.561142 
	C39.990513,229.107574 39.035030,211.650223 37.973881,194.199280 
	C37.656700,188.983124 37.076454,183.782974 36.579689,178.155899 
	C51.942295,177.061157 66.506508,176.023315 81.502106,174.949036 
	C82.061691,176.465637 82.532761,178.079987 82.267662,179.562714 
	C76.437515,212.170959 70.539062,244.767029 64.613388,277.358093 
	C63.842838,281.596100 62.700256,285.769287 62.007511,290.017761 
	C61.382885,293.848450 62.182865,296.458160 67.047028,297.075043 
	C75.782516,298.182892 84.421852,300.048798 93.629356,302.072571 
	C94.157341,325.616241 94.157341,348.685303 94.157341,371.968964 
	C97.030685,371.968964 99.022408,371.968964 101.014130,371.968964 
	C224.974396,371.968994 348.934662,371.966309 472.894928,371.980591 
	C477.056152,371.981049 481.217407,372.152527 485.378632,372.244293 
z"/>
<path fill="#FFD101" opacity="1.000000" stroke="none" 
	d="
M945.026978,229.473434 
	C942.639587,229.833359 940.177917,230.066788 937.826599,229.661026 
	C924.826843,227.417557 911.853943,225.018372 898.381653,222.190979 
	C897.891418,204.108902 897.891418,186.508377 897.891418,168.325760 
	C895.259827,168.325760 893.299927,168.325760 891.339966,168.325760 
	C844.851501,168.325775 798.362915,168.365967 751.874512,168.315125 
	C699.557983,168.257919 647.241516,168.118683 594.925049,168.015121 
	C576.846191,164.668686 558.771973,161.296738 540.686707,157.985184 
	C529.453430,155.928284 518.201111,153.975510 506.966034,151.928482 
	C506.203491,151.789551 505.513824,151.250565 504.638702,150.523163 
	C514.577698,149.767319 524.674438,149.505112 534.757385,148.977936 
	C552.048584,148.073883 569.331604,147.014023 586.617004,146.000656 
	C597.642273,145.354279 608.664734,144.659271 619.689941,144.011948 
	C636.975220,142.997070 654.262085,142.010056 671.547607,140.999756 
	C682.739502,140.345612 693.929749,139.665222 705.121399,139.006866 
	C722.241028,137.999756 739.361450,137.005463 756.481079,135.998199 
	C767.672974,135.339706 778.863770,134.661560 790.055664,134.003571 
	C807.175720,132.997101 824.295898,131.991547 841.416931,131.002686 
	C853.273865,130.317856 865.130920,129.633377 876.990662,128.999420 
	C896.107666,127.977539 915.226562,126.993126 934.345703,126.012138 
	C935.318359,125.962234 936.300293,126.093697 937.853516,126.168404 
	C938.577698,132.577774 939.543213,138.854660 939.939087,145.167252 
	C940.508423,154.245422 940.544250,163.355820 941.020142,172.441330 
	C941.934570,189.898911 942.980225,207.349777 944.032288,224.799759 
	C944.118591,226.231445 944.669006,227.635147 945.026978,229.473434 
z"/>
<path fill="#FCCE06" opacity="1.000000" stroke="none" 
	d="
M935.499146,356.062317 
	C935.481445,351.441833 935.593384,346.728546 936.391357,342.134399 
	C939.564209,323.866302 942.945312,305.634338 946.278442,287.394348 
	C946.422668,286.605347 946.856262,285.869263 947.495667,284.974182 
	C948.560730,298.687042 949.290649,312.533966 950.007751,326.381561 
	C950.493042,335.752228 950.960327,345.123871 951.447754,354.732025 
	C945.709229,355.210358 940.826599,355.617310 935.499146,356.062317 
z"/>
<path fill="#FEFEFE" opacity="1.000000" stroke="none" 
	d="
M594.374023,168.035553 
	C647.241516,168.118683 699.557983,168.257919 751.874512,168.315125 
	C798.362915,168.365967 844.851501,168.325775 891.339966,168.325760 
	C893.299927,168.325760 895.259827,168.325760 897.891418,168.325760 
	C897.891418,186.508377 897.891418,204.108902 897.958496,222.144684 
	C897.953430,229.403992 897.821960,236.228012 897.818665,243.052094 
	C897.799011,283.860779 897.808899,324.669434 897.808899,365.478119 
	C897.808899,367.444061 897.808899,369.409973 897.808899,371.971466 
	C895.419495,371.971466 893.481567,371.971466 891.543640,371.971466 
	C759.290222,371.971588 627.036804,371.970367 494.783417,371.980927 
	C491.954834,371.981140 489.126251,372.117462 485.838135,372.217285 
	C481.217407,372.152527 477.056152,371.981049 472.894928,371.980591 
	C348.934662,371.966309 224.974396,371.968994 101.014130,371.968964 
	C99.022408,371.968964 97.030685,371.968964 94.157341,371.968964 
	C94.157341,348.685303 94.157341,325.616241 94.066360,302.137512 
	C94.051559,291.404297 94.184242,281.080872 94.193436,270.757294 
	C94.222069,238.607758 94.203926,206.458191 94.203926,174.308640 
	C94.203926,172.521866 94.203926,170.735077 94.203926,168.305344 
	C96.865425,168.305344 98.978127,168.305344 101.090828,168.305344 
	C261.672028,168.305267 422.253204,168.306854 582.834412,168.294708 
	C586.497314,168.294434 590.160156,168.139023 594.374023,168.035553 
M139.643478,239.538528 
	C142.061630,236.491165 143.885284,232.484177 146.997070,230.556503 
	C163.736237,220.186996 183.417175,229.018509 187.034195,248.129562 
	C187.082123,248.382782 187.396240,248.585632 187.777832,249.040573 
	C191.684174,248.660995 195.754852,248.265472 200.042252,247.848877 
	C199.151733,234.504044 193.627762,224.530350 181.512360,219.046722 
	C169.956497,213.816360 157.908890,213.589493 145.928085,217.294769 
	C133.585754,221.111893 125.475632,231.706436 125.014267,243.704651 
	C124.523270,256.473328 130.947479,265.816498 144.009415,271.159760 
	C146.766663,272.287689 149.614029,273.222321 152.471161,274.073975 
	C161.214233,276.680115 170.063400,278.958649 178.713943,281.837463 
	C185.202530,283.996765 189.288269,288.693756 189.916595,295.746979 
	C190.584366,303.242950 187.541809,309.027191 181.183807,313.001038 
	C163.311646,324.171356 138.771210,314.084808 134.334763,293.773010 
	C134.138931,292.876404 133.968674,291.974213 133.750870,290.898804 
	C129.276474,291.337769 125.212936,291.736420 120.979759,292.151733 
	C121.494759,304.567261 126.022011,314.429291 136.043365,321.443878 
	C149.799210,331.072540 174.672394,331.838440 188.799759,322.778778 
	C199.655807,315.816925 204.832458,305.620148 203.884888,292.731750 
	C202.997803,280.666473 195.721848,273.096436 185.191864,268.312744 
	C182.037766,266.879852 178.634384,265.946960 175.282990,265.006744 
	C166.978119,262.676788 158.511963,260.850494 150.343567,258.123901 
	C140.744446,254.919754 138.290619,250.416382 139.643478,239.538528 
M867.001038,286.500183 
	C866.979553,280.670837 867.151306,274.833008 866.895874,269.013947 
	C866.382568,257.323486 861.183716,249.584518 852.082031,247.109558 
	C841.584656,244.255112 832.331909,246.538620 824.727234,254.559799 
	C823.532349,255.820084 822.408386,257.147614 820.993896,258.732971 
	C816.789429,249.590012 809.604919,246.082336 800.369385,245.992081 
	C791.231750,245.902771 784.149353,250.120224 777.755737,258.000092 
	C777.755737,253.731476 777.755737,250.971390 777.755737,248.281387 
	C773.695801,248.281387 769.955994,248.281387 766.267334,248.281387 
	C766.267334,274.626740 766.267334,300.688690 766.267334,326.731598 
	C770.612610,326.731598 774.684143,326.731598 779.001038,326.731598 
	C779.001038,312.498901 778.735229,298.526978 779.126892,284.573486 
	C779.292419,278.674591 780.151550,272.595215 781.933044,266.991333 
	C784.250000,259.703186 792.023376,255.881393 799.578918,257.120483 
	C805.735779,258.130188 809.273438,262.901672 809.886658,271.126862 
	C810.022644,272.950684 809.993774,274.788818 809.994690,276.620361 
	C810.002258,291.944183 809.992859,307.267975 810.009277,322.591797 
	C810.010803,324.020630 810.155090,325.449341 810.222290,326.679932 
	C814.713623,326.679932 818.785645,326.679932 823.001099,326.679932 
	C823.001099,311.048828 822.795044,295.733978 823.124329,280.430634 
	C823.225647,275.721375 824.116760,270.778198 825.838562,266.412384 
	C828.556519,259.521118 836.357056,255.869141 843.466736,257.139404 
	C849.976379,258.302490 853.388000,262.984283 853.896912,271.549347 
	C854.015320,273.542328 853.994080,275.545074 853.994995,277.543304 
	C854.002258,292.533997 853.992676,307.524689 854.009094,322.515381 
	C854.010620,323.950439 854.153198,325.385406 854.224182,326.707275 
	C858.660889,326.707275 862.732971,326.707275 867.001038,326.707275 
	C867.001038,313.442963 867.001038,300.471497 867.001038,286.500183 
M521.561096,220.551407 
	C521.727051,217.691330 521.893005,214.831238 522.120544,210.909866 
	C528.543213,219.165146 534.457214,226.322495 539.873657,233.838440 
	C547.011475,243.742981 551.314270,254.616302 548.114624,267.074219 
	C546.377625,273.837128 543.982239,280.431000 541.889648,287.082611 
	C542.110962,287.002014 542.960449,286.965729 543.209900,286.560242 
	C546.413696,281.353882 550.188477,276.372833 552.549255,270.797211 
	C559.817505,253.630875 556.279053,237.970474 544.856689,223.663666 
	C538.094482,215.193832 531.671204,206.484863 528.803223,195.752563 
	C527.944519,192.539230 527.515320,189.096619 526.022644,186.206665 
	C524.994629,184.216202 522.608337,181.920273 520.591492,181.669128 
	C517.022949,181.224762 516.942993,184.440582 516.847046,187.284531 
	C516.060242,210.598862 515.188538,233.910339 514.329346,257.222198 
	C514.013123,265.802246 513.661011,274.380981 513.324890,282.969727 
	C512.519104,282.969727 512.109680,283.100464 511.913330,282.951111 
	C495.034058,270.113434 465.575226,279.117950 454.108398,296.396759 
	C445.990509,308.629211 449.937958,322.039215 463.523254,327.412323 
	C475.901031,332.307831 487.833344,330.011169 499.065979,323.956299 
	C510.695160,317.687592 518.418030,308.666718 518.786804,294.424744 
	C519.416199,270.115936 520.572021,245.820770 521.561096,220.551407 
M751.594482,326.715179 
	C750.731689,317.989044 749.519409,309.280029 749.091309,300.532623 
	C748.506287,288.579407 748.700989,276.589539 748.214172,264.629547 
	C747.846863,255.605545 742.207703,250.453110 734.072021,248.003464 
	C723.259827,244.747894 712.369080,245.153229 701.688049,248.742737 
	C692.143250,251.950424 687.314636,259.178284 685.085449,268.936310 
	C689.490479,269.647797 693.553833,270.304108 698.037720,271.028351 
	C700.416321,259.012878 709.001465,256.627869 719.416260,256.997894 
	C731.963806,257.443726 736.993591,263.235199 735.590332,276.511932 
	C730.292114,277.655457 724.798157,278.839752 719.304810,280.027313 
	C711.701599,281.670959 703.810425,282.523987 696.567871,285.159302 
	C687.161499,288.582001 682.479065,297.556000 683.024170,307.934326 
	C683.513550,317.251923 689.025024,324.997772 698.253723,327.303192 
	C703.578003,328.633240 709.711304,329.391937 714.874695,328.059875 
	C722.210571,326.167328 728.988708,322.113312 735.974304,318.996613 
	C739.181519,327.073181 739.181519,327.073517 749.770630,327.002258 
	C750.103333,327.000031 750.435852,326.975922 751.594482,326.715179 
M217.666611,310.755737 
	C224.802246,323.967865 237.646347,330.635925 252.493027,328.835938 
	C267.015869,327.075256 277.419189,317.668701 281.154144,302.888367 
	C283.557159,293.379089 283.689789,283.781982 281.838898,274.194336 
	C278.672363,257.791412 265.648865,246.476852 249.627838,246.007050 
	C232.120682,245.493668 219.108612,255.054001 214.861984,271.983307 
	C211.625870,284.884247 212.138245,297.679565 217.666611,310.755737 
M438.001007,291.500000 
	C437.771454,283.187775 438.139893,274.805511 437.176727,266.579163 
	C435.607513,253.176636 427.001404,246.172623 413.456787,245.980682 
	C403.882568,245.845001 396.295563,249.758453 389.821167,258.197418 
	C389.821167,254.022919 389.821167,251.114380 389.821167,248.282593 
	C385.693176,248.282593 381.953522,248.282593 378.263977,248.282593 
	C378.263977,274.625854 378.263977,300.684662 378.263977,326.735718 
	C382.605286,326.735718 386.675995,326.735718 391.001099,326.735718 
	C391.001099,311.844574 390.744965,297.210541 391.135071,282.593781 
	C391.278595,277.216339 392.234131,271.615356 394.093964,266.587891 
	C396.715027,259.502808 404.804535,255.891434 412.663910,257.134705 
	C419.374207,258.196228 423.326813,262.568542 424.561554,270.588074 
	C424.939331,273.041504 424.974854,275.564148 424.980988,278.055573 
	C425.017303,292.877167 424.992645,307.698822 425.009186,322.520477 
	C425.010773,323.954956 425.153656,325.389282 425.224640,326.706268 
	C429.663605,326.706268 433.735229,326.706268 438.000977,326.706268 
	C438.000977,315.108490 438.000977,303.804260 438.001007,291.500000 
M319.366669,316.487457 
	C314.625702,314.141174 311.988892,310.292816 311.725250,305.051727 
	C311.357544,297.741119 311.101349,290.419647 311.031036,283.100586 
	C310.919525,271.495331 311.001312,259.888184 311.001312,248.251068 
	C306.424683,248.251068 302.352661,248.251068 298.189697,248.251068 
	C298.189697,267.132629 297.943512,285.766998 298.294250,304.390076 
	C298.467865,313.608337 301.625366,321.655426 310.692474,326.177734 
	C321.595703,331.615845 335.465515,329.227356 343.713745,320.299835 
	C344.635864,319.301788 345.553925,318.299957 347.216949,316.492065 
	C347.216949,320.715729 347.216949,323.783539 347.216949,326.686157 
	C351.036041,326.686157 354.441559,326.686157 357.691254,326.686157 
	C357.691254,300.299316 357.691254,274.228638 357.691254,248.313278 
	C353.632721,248.313278 349.892090,248.313278 345.998688,248.313278 
	C345.998688,256.610565 346.113007,264.596069 345.969269,272.576965 
	C345.795593,282.221710 346.093536,291.946198 344.936981,301.484558 
	C343.368317,314.421631 332.746307,320.558044 319.366669,316.487457 
M614.963501,294.569214 
	C613.037292,294.762573 611.111145,294.955933 608.270386,295.241089 
	C609.401428,301.172638 609.974854,306.812073 611.601135,312.129517 
	C614.479736,321.541687 621.110779,326.969971 630.925781,328.664642 
	C649.293335,331.835938 662.614380,322.377045 665.068787,304.080505 
	C665.620300,299.969025 665.946716,295.795593 665.961731,291.649170 
	C666.045654,268.491974 666.002075,245.334305 666.002136,222.176804 
	C666.002136,220.561844 666.002136,218.946884 666.002136,217.223816 
	C661.145020,217.223816 656.740662,217.223816 651.997864,217.223816 
	C651.997864,219.073761 651.997864,220.702515 651.997864,222.331268 
	C651.997864,246.155182 652.038574,269.979248 651.956360,293.802856 
	C651.943176,297.613373 651.622437,301.460938 651.018372,305.223053 
	C649.882446,312.296844 645.122864,316.505676 638.216614,316.972809 
	C631.095154,317.454437 626.003662,314.123474 624.001526,307.096313 
	C622.795898,302.864807 622.280518,298.436676 621.434448,293.989014 
	C619.494690,294.145142 617.676941,294.291504 614.963501,294.569214 
M540.526062,288.506866 
	C540.526062,288.506866 540.486755,288.508514 540.526062,288.506866 
z"/>
<path fill="#040404" opacity="1.000000" stroke="none" 
	d="
M139.491119,239.915939 
	C138.290619,250.416382 140.744446,254.919754 150.343567,258.123901 
	C158.511963,260.850494 166.978119,262.676788 175.282990,265.006744 
	C178.634384,265.946960 182.037766,266.879852 185.191864,268.312744 
	C195.721848,273.096436 202.997803,280.666473 203.884888,292.731750 
	C204.832458,305.620148 199.655807,315.816925 188.799759,322.778778 
	C174.672394,331.838440 149.799210,331.072540 136.043365,321.443878 
	C126.022011,314.429291 121.494759,304.567261 120.979759,292.151733 
	C125.212936,291.736420 129.276474,291.337769 133.750870,290.898804 
	C133.968674,291.974213 134.138931,292.876404 134.334763,293.773010 
	C138.771210,314.084808 163.311646,324.171356 181.183807,313.001038 
	C187.541809,309.027191 190.584366,303.242950 189.916595,295.746979 
	C189.288269,288.693756 185.202530,283.996765 178.713943,281.837463 
	C170.063400,278.958649 161.214233,276.680115 152.471161,274.073975 
	C149.614029,273.222321 146.766663,272.287689 144.009415,271.159760 
	C130.947479,265.816498 124.523270,256.473328 125.014267,243.704651 
	C125.475632,231.706436 133.585754,221.111893 145.928085,217.294769 
	C157.908890,213.589493 169.956497,213.816360 181.512360,219.046722 
	C193.627762,224.530350 199.151733,234.504044 200.042252,247.848877 
	C195.754852,248.265472 191.684174,248.660995 187.777832,249.040573 
	C187.396240,248.585632 187.082123,248.382782 187.034195,248.129562 
	C183.417175,229.018509 163.736237,220.186996 146.997070,230.556503 
	C143.885284,232.484177 142.061630,236.491165 139.491119,239.915939 
z"/>
<path fill="#020202" opacity="1.000000" stroke="none" 
	d="
M867.001038,287.000122 
	C867.001038,300.471497 867.001038,313.442963 867.001038,326.707275 
	C862.732971,326.707275 858.660889,326.707275 854.224182,326.707275 
	C854.153198,325.385406 854.010620,323.950439 854.009094,322.515381 
	C853.992676,307.524689 854.002258,292.533997 853.994995,277.543304 
	C853.994080,275.545074 854.015320,273.542328 853.896912,271.549347 
	C853.388000,262.984283 849.976379,258.302490 843.466736,257.139404 
	C836.357056,255.869141 828.556519,259.521118 825.838562,266.412384 
	C824.116760,270.778198 823.225647,275.721375 823.124329,280.430634 
	C822.795044,295.733978 823.001099,311.048828 823.001099,326.679932 
	C818.785645,326.679932 814.713623,326.679932 810.222290,326.679932 
	C810.155090,325.449341 810.010803,324.020630 810.009277,322.591797 
	C809.992859,307.267975 810.002258,291.944183 809.994690,276.620361 
	C809.993774,274.788818 810.022644,272.950684 809.886658,271.126862 
	C809.273438,262.901672 805.735779,258.130188 799.578918,257.120483 
	C792.023376,255.881393 784.250000,259.703186 781.933044,266.991333 
	C780.151550,272.595215 779.292419,278.674591 779.126892,284.573486 
	C778.735229,298.526978 779.001038,312.498901 779.001038,326.731598 
	C774.684143,326.731598 770.612610,326.731598 766.267334,326.731598 
	C766.267334,300.688690 766.267334,274.626740 766.267334,248.281387 
	C769.955994,248.281387 773.695801,248.281387 777.755737,248.281387 
	C777.755737,250.971390 777.755737,253.731476 777.755737,258.000092 
	C784.149353,250.120224 791.231750,245.902771 800.369385,245.992081 
	C809.604919,246.082336 816.789429,249.590012 820.993896,258.732971 
	C822.408386,257.147614 823.532349,255.820084 824.727234,254.559799 
	C832.331909,246.538620 841.584656,244.255112 852.082031,247.109558 
	C861.183716,249.584518 866.382568,257.323486 866.895874,269.013947 
	C867.151306,274.833008 866.979553,280.670837 867.001038,287.000122 
z"/>
<path fill="#0C0C0C" opacity="1.000000" stroke="none" 
	d="
M521.533875,221.035645 
	C520.572021,245.820770 519.416199,270.115936 518.786804,294.424744 
	C518.418030,308.666718 510.695160,317.687592 499.065979,323.956299 
	C487.833344,330.011169 475.901031,332.307831 463.523254,327.412323 
	C449.937958,322.039215 445.990509,308.629211 454.108398,296.396759 
	C465.575226,279.117950 495.034058,270.113434 511.913330,282.951111 
	C512.109680,283.100464 512.519104,282.969727 513.324890,282.969727 
	C513.661011,274.380981 514.013123,265.802246 514.329346,257.222198 
	C515.188538,233.910339 516.060242,210.598862 516.847046,187.284531 
	C516.942993,184.440582 517.022949,181.224762 520.591492,181.669128 
	C522.608337,181.920273 524.994629,184.216202 526.022644,186.206665 
	C527.515320,189.096619 527.944519,192.539230 528.803223,195.752563 
	C531.671204,206.484863 538.094482,215.193832 544.856689,223.663666 
	C556.279053,237.970474 559.817505,253.630875 552.549255,270.797211 
	C550.188477,276.372833 546.413696,281.353882 543.209900,286.560242 
	C542.960449,286.965729 542.110962,287.002014 541.889648,287.082611 
	C543.982239,280.431000 546.377625,273.837128 548.114624,267.074219 
	C551.314270,254.616302 547.011475,243.742981 539.873657,233.838440 
	C534.457214,226.322495 528.543213,219.165146 522.120544,210.909866 
	C521.893005,214.831238 521.727051,217.691330 521.533875,221.035645 
M487.800903,315.442596 
	C496.286652,311.190338 504.590942,306.818726 510.825897,299.214844 
	C515.610962,293.379242 513.571106,289.431763 506.237640,287.645905 
	C492.551117,284.312866 469.460175,291.495819 458.147125,308.591980 
	C453.768707,315.208527 454.517426,317.461365 462.290222,319.449371 
	C463.557007,319.773407 464.975494,320.002411 466.234375,319.776489 
	C473.205200,318.525543 480.148346,317.120239 487.800903,315.442596 
z"/>
<path fill="#040404" opacity="1.000000" stroke="none" 
	d="
M751.181519,326.838623 
	C750.435852,326.975922 750.103333,327.000031 749.770630,327.002258 
	C739.181519,327.073517 739.181519,327.073181 735.974304,318.996613 
	C728.988708,322.113312 722.210571,326.167328 714.874695,328.059875 
	C709.711304,329.391937 703.578003,328.633240 698.253723,327.303192 
	C689.025024,324.997772 683.513550,317.251923 683.024170,307.934326 
	C682.479065,297.556000 687.161499,288.582001 696.567871,285.159302 
	C703.810425,282.523987 711.701599,281.670959 719.304810,280.027313 
	C724.798157,278.839752 730.292114,277.655457 735.590332,276.511932 
	C736.993591,263.235199 731.963806,257.443726 719.416260,256.997894 
	C709.001465,256.627869 700.416321,259.012878 698.037720,271.028351 
	C693.553833,270.304108 689.490479,269.647797 685.085449,268.936310 
	C687.314636,259.178284 692.143250,251.950424 701.688049,248.742737 
	C712.369080,245.153229 723.259827,244.747894 734.072021,248.003464 
	C742.207703,250.453110 747.846863,255.605545 748.214172,264.629547 
	C748.700989,276.589539 748.506287,288.579407 749.091309,300.532623 
	C749.519409,309.280029 750.731689,317.989044 751.181519,326.838623 
M734.957825,302.108032 
	C735.410217,297.247467 735.862549,292.386902 736.303711,287.646729 
	C725.340637,289.865417 715.046448,291.680725 704.897522,294.104370 
	C698.920105,295.531769 695.900696,300.125580 696.003906,305.821625 
	C696.102173,311.241028 699.313721,315.264526 704.964050,317.047363 
	C717.095703,320.875214 730.097046,314.709381 734.957825,302.108032 
z"/>
<path fill="#040404" opacity="1.000000" stroke="none" 
	d="
M217.463287,310.437622 
	C212.138245,297.679565 211.625870,284.884247 214.861984,271.983307 
	C219.108612,255.054001 232.120682,245.493668 249.627838,246.007050 
	C265.648865,246.476852 278.672363,257.791412 281.838898,274.194336 
	C283.689789,283.781982 283.557159,293.379089 281.154144,302.888367 
	C277.419189,317.668701 267.015869,327.075256 252.493027,328.835938 
	C237.646347,330.635925 224.802246,323.967865 217.463287,310.437622 
M267.438477,303.706055 
	C270.836548,293.622589 271.028168,283.423950 268.066681,273.258362 
	C265.117920,263.136658 257.310242,257.038635 247.831253,257.002899 
	C238.700989,256.968475 230.957947,263.068176 227.971619,273.021484 
	C225.181763,282.319946 225.133026,291.757446 227.742310,301.104584 
	C230.504532,310.999634 237.659302,317.282501 246.507339,317.952911 
	C255.496933,318.634064 262.426727,314.084869 267.438477,303.706055 
z"/>
<path fill="#020202" opacity="1.000000" stroke="none" 
	d="
M438.000977,292.000000 
	C438.000977,303.804260 438.000977,315.108490 438.000977,326.706268 
	C433.735229,326.706268 429.663605,326.706268 425.224640,326.706268 
	C425.153656,325.389282 425.010773,323.954956 425.009186,322.520477 
	C424.992645,307.698822 425.017303,292.877167 424.980988,278.055573 
	C424.974854,275.564148 424.939331,273.041504 424.561554,270.588074 
	C423.326813,262.568542 419.374207,258.196228 412.663910,257.134705 
	C404.804535,255.891434 396.715027,259.502808 394.093964,266.587891 
	C392.234131,271.615356 391.278595,277.216339 391.135071,282.593781 
	C390.744965,297.210541 391.001099,311.844574 391.001099,326.735718 
	C386.675995,326.735718 382.605286,326.735718 378.263977,326.735718 
	C378.263977,300.684662 378.263977,274.625854 378.263977,248.282593 
	C381.953522,248.282593 385.693176,248.282593 389.821167,248.282593 
	C389.821167,251.114380 389.821167,254.022919 389.821167,258.197418 
	C396.295563,249.758453 403.882568,245.845001 413.456787,245.980682 
	C427.001404,246.172623 435.607513,253.176636 437.176727,266.579163 
	C438.139893,274.805511 437.771454,283.187775 438.000977,292.000000 
z"/>
<path fill="#020202" opacity="1.000000" stroke="none" 
	d="
M319.719421,316.667480 
	C332.746307,320.558044 343.368317,314.421631 344.936981,301.484558 
	C346.093536,291.946198 345.795593,282.221710 345.969269,272.576965 
	C346.113007,264.596069 345.998688,256.610565 345.998688,248.313278 
	C349.892090,248.313278 353.632721,248.313278 357.691254,248.313278 
	C357.691254,274.228638 357.691254,300.299316 357.691254,326.686157 
	C354.441559,326.686157 351.036041,326.686157 347.216949,326.686157 
	C347.216949,323.783539 347.216949,320.715729 347.216949,316.492065 
	C345.553925,318.299957 344.635864,319.301788 343.713745,320.299835 
	C335.465515,329.227356 321.595703,331.615845 310.692474,326.177734 
	C301.625366,321.655426 298.467865,313.608337 298.294250,304.390076 
	C297.943512,285.766998 298.189697,267.132629 298.189697,248.251068 
	C302.352661,248.251068 306.424683,248.251068 311.001312,248.251068 
	C311.001312,259.888184 310.919525,271.495331 311.031036,283.100586 
	C311.101349,290.419647 311.357544,297.741119 311.725250,305.051727 
	C311.988892,310.292816 314.625702,314.141174 319.719421,316.667480 
z"/>
<path fill="#020202" opacity="1.000000" stroke="none" 
	d="
M615.411316,294.503540 
	C617.676941,294.291504 619.494690,294.145142 621.434448,293.989014 
	C622.280518,298.436676 622.795898,302.864807 624.001526,307.096313 
	C626.003662,314.123474 631.095154,317.454437 638.216614,316.972809 
	C645.122864,316.505676 649.882446,312.296844 651.018372,305.223053 
	C651.622437,301.460938 651.943176,297.613373 651.956360,293.802856 
	C652.038574,269.979248 651.997864,246.155182 651.997864,222.331268 
	C651.997864,220.702515 651.997864,219.073761 651.997864,217.223816 
	C656.740662,217.223816 661.145020,217.223816 666.002136,217.223816 
	C666.002136,218.946884 666.002136,220.561844 666.002136,222.176804 
	C666.002075,245.334305 666.045654,268.491974 665.961731,291.649170 
	C665.946716,295.795593 665.620300,299.969025 665.068787,304.080505 
	C662.614380,322.377045 649.293335,331.835938 630.925781,328.664642 
	C621.110779,326.969971 614.479736,321.541687 611.601135,312.129517 
	C609.974854,306.812073 609.401428,301.172638 608.270386,295.241089 
	C611.111145,294.955933 613.037292,294.762573 615.411316,294.503540 
z"/>
<path fill="#0C0C0C" opacity="1.000000" stroke="none" 
	d="
M540.506409,288.507690 
	C540.486755,288.508514 540.526062,288.506866 540.506409,288.507690 
z"/>
<path fill="#F9F9F9" opacity="1.000000" stroke="none" 
	d="
M487.450928,315.605194 
	C480.148346,317.120239 473.205200,318.525543 466.234375,319.776489 
	C464.975494,320.002411 463.557007,319.773407 462.290222,319.449371 
	C454.517426,317.461365 453.768707,315.208527 458.147125,308.591980 
	C469.460175,291.495819 492.551117,284.312866 506.237640,287.645905 
	C513.571106,289.431763 515.610962,293.379242 510.825897,299.214844 
	C504.590942,306.818726 496.286652,311.190338 487.450928,315.605194 
z"/>
<path fill="#FBFBFB" opacity="1.000000" stroke="none" 
	d="
M734.871460,302.506409 
	C730.097046,314.709381 717.095703,320.875214 704.964050,317.047363 
	C699.313721,315.264526 696.102173,311.241028 696.003906,305.821625 
	C695.900696,300.125580 698.920105,295.531769 704.897522,294.104370 
	C715.046448,291.680725 725.340637,289.865417 736.303711,287.646729 
	C735.862549,292.386902 735.410217,297.247467 734.871460,302.506409 
z"/>
<path fill="#FCFCFC" opacity="1.000000" stroke="none" 
	d="
M267.280884,304.062622 
	C262.426727,314.084869 255.496933,318.634064 246.507339,317.952911 
	C237.659302,317.282501 230.504532,310.999634 227.742310,301.104584 
	C225.133026,291.757446 225.181763,282.319946 227.971619,273.021484 
	C230.957947,263.068176 238.700989,256.968475 247.831253,257.002899 
	C257.310242,257.038635 265.117920,263.136658 268.066681,273.258362 
	C271.028168,283.423950 270.836548,293.622589 267.280884,304.062622 
z"/>
</svg>