<svg version="1.1" id="Layer_1" xmlns="http://www.w3.org/2000/svg" xmlns:xlink="http://www.w3.org/1999/xlink" x="0px" y="0px"
	 width="100%" viewBox="0 0 1024 500" enable-background="new 0 0 1024 500" xml:space="preserve">
<path fill="#FFFFFF" opacity="1.000000" stroke="none" 
	d="
M630.000000,501.000000 
	C421.534088,501.000000 213.568192,500.990295 5.602317,501.081451 
	C2.045151,501.083008 0.888079,500.583862 0.891169,496.603668 
	C1.018362,332.797272 1.017699,168.990784 0.889783,5.184406 
	C0.886828,1.399638 1.885340,0.917410 5.314308,0.918297 
	C343.758789,1.005827 682.203308,1.004980 1020.647827,0.927919 
	C1023.968506,0.927163 1025.121216,1.253230 1025.118042,5.146539 
	C1024.980469,169.119537 1024.984497,333.092682 1025.102295,497.065735 
	C1025.104858,500.621735 1024.217773,501.087799 1020.935486,501.085266 
	C890.790344,500.985077 760.645203,501.000000 630.000000,501.000000 
z"/>
<path fill="#733CFF" opacity="1.000000" stroke="none" 
	d="
M81.830193,175.336334 
	C87.916237,142.468903 93.898979,110.025238 99.969131,77.107559 
	C102.240524,75.693970 104.196396,78.775887 106.581223,78.882988 
	C116.378181,79.322975 125.973190,81.700447 135.427048,83.530403 
	C144.583664,85.302834 153.932404,86.909706 163.096741,88.544838 
	C176.698090,90.971642 190.212692,94.104942 204.056717,95.675117 
	C211.750748,96.547752 219.809631,98.491631 227.649918,100.096703 
	C240.668518,102.761894 253.770279,105.156364 266.901642,107.336868 
	C275.829163,108.819321 284.868835,110.187958 293.791138,112.061432 
	C307.252319,114.887970 320.805603,117.498405 334.406281,119.777237 
	C342.756897,121.176407 351.188263,122.263275 359.526154,123.924461 
	C367.144318,125.442261 374.906281,126.731544 382.504059,128.282623 
	C391.599731,130.139481 400.771393,131.605240 409.887817,133.266403 
	C417.900208,134.726410 426.017487,136.005264 434.035248,137.367493 
	C441.447205,138.626816 448.941711,140.282272 456.370667,141.834991 
	C466.790527,144.012833 477.494598,144.862930 487.875031,147.184525 
	C493.139618,148.361954 498.557465,148.448837 504.096497,150.104294 
	C518.389832,152.336136 532.201355,155.033844 546.044739,157.554703 
	C559.913147,160.080109 573.806152,162.468674 587.673889,164.997528 
	C589.608154,165.350235 591.654602,165.507339 593.169922,167.470642 
	C591.761963,169.430634 589.890015,169.456787 588.065674,169.556030 
	C585.735901,169.682755 583.401184,169.618698 581.068604,169.618713 
	C422.940338,169.620407 264.812073,169.618546 106.683807,169.623398 
	C94.702339,169.623779 95.639427,169.245087 95.630508,180.893738 
	C95.602325,217.718094 95.624054,254.542496 95.612587,291.366882 
	C95.611755,294.028412 95.784874,296.705353 95.026001,299.779968 
	C93.368919,302.704590 90.912987,302.434814 88.639854,302.153137 
	C80.879303,301.191284 73.240051,299.495117 65.589256,297.928864 
	C61.098095,297.009460 60.090881,294.792236 61.052467,289.081909 
	C62.791637,278.753876 64.765533,268.465149 66.710632,258.175964 
	C71.682510,231.875717 75.770813,205.417816 80.947090,179.155823 
	C81.171829,178.015625 81.288048,176.850952 81.830193,175.336334 
z"/>
<path fill="#733CFF" opacity="1.000000" stroke="none" 
	d="
M944.679565,229.642151 
	C947.886230,231.954880 951.126770,230.702103 954.176270,230.965897 
	C955.763000,231.103165 956.291504,230.962814 956.196228,233.259720 
	C955.711182,244.959763 952.819641,256.229065 950.714355,267.639771 
	C950.598633,268.266968 950.004761,268.887848 950.077087,269.455048 
	C950.740173,274.648193 949.314514,279.457855 947.684998,284.527832 
	C946.328918,290.769043 945.814392,296.874878 944.733337,302.881226 
	C941.588501,320.352783 938.257568,337.791443 935.139160,355.691772 
	C932.479614,365.274292 931.213379,374.773285 929.817261,384.102203 
	C928.586670,392.325287 926.228394,400.345947 925.728760,408.788849 
	C925.217957,417.420776 922.516174,425.920990 920.801697,434.484528 
	C919.714661,439.914307 918.678955,445.354370 917.618103,450.800629 
	C912.700439,449.341064 907.575867,450.759766 902.734009,449.047577 
	C895.507324,446.492004 887.765564,446.266174 880.321106,444.480591 
	C873.569824,442.861206 866.437134,442.468689 859.529541,441.049408 
	C849.811340,439.052673 840.026001,437.209442 830.285828,435.540710 
	C820.990112,433.948151 811.669861,432.082916 802.306702,430.692291 
	C795.547546,429.688385 788.692749,428.847900 781.951355,427.506134 
	C771.880371,425.501648 761.776428,423.651154 751.683960,421.780548 
	C742.718506,420.118866 733.721191,418.564911 724.741272,416.980560 
	C716.875977,415.592865 708.908752,414.342957 701.181641,412.641693 
	C692.778687,410.791656 684.237122,409.545959 675.832214,407.723907 
	C668.293152,406.089600 660.460388,405.166107 652.803101,403.826263 
	C645.137756,402.485016 637.401672,401.447754 629.796021,399.531982 
	C621.443909,397.428223 612.796143,396.512482 604.293823,394.986328 
	C596.149719,393.524475 588.012024,392.017609 579.903687,390.371674 
	C577.333618,389.849976 574.655884,389.392609 572.158447,389.204346 
	C564.989197,388.664001 557.937866,386.959778 551.062012,385.561462 
	C541.027649,383.520813 530.832275,382.298798 520.445435,379.871002 
	C510.867615,378.609222 501.784271,376.971558 492.723633,375.210297 
	C490.336090,374.746246 487.733276,374.801544 485.977356,372.390015 
	C488.523193,369.885498 491.468262,370.413025 494.242767,370.408661 
	C523.734253,370.362000 553.225708,370.381042 582.717224,370.380890 
	C684.021301,370.380280 785.325439,370.381561 886.629517,370.379425 
	C896.375793,370.379211 896.379517,370.372101 896.379944,360.460419 
	C896.381836,317.972687 896.376526,275.484955 896.390015,232.997208 
	C896.390869,230.171967 896.173096,227.326920 897.028687,224.092468 
	C898.500244,221.552353 900.584839,221.671082 902.544861,222.003754 
	C916.482849,224.369553 930.403625,226.836136 944.679565,229.642151 
z"/>
<path fill="#FFD101" opacity="1.000000" stroke="none" 
	d="
M485.041626,371.889526 
	C495.570099,374.173431 505.760193,376.083710 515.941040,378.041931 
	C517.217651,378.287476 518.445740,378.785828 519.858154,379.500336 
	C512.345886,382.370361 504.304321,380.968781 496.467010,381.656708 
	C487.631165,382.432251 478.643890,382.778870 469.722534,383.151398 
	C451.762482,383.901306 433.836273,385.390259 415.862457,386.157654 
	C405.674408,386.592651 395.462921,387.333710 385.289978,388.141174 
	C371.669006,389.222382 357.980072,389.159515 344.398315,390.900879 
	C338.523651,391.654083 332.519409,391.460144 326.608673,391.707245 
	C317.853149,392.073334 309.102417,392.788361 300.344452,393.143646 
	C282.215698,393.879150 264.118622,395.332672 245.983215,396.172699 
	C235.461166,396.660065 224.928513,397.416412 214.401321,398.071106 
	C196.285034,399.197876 178.180756,400.393280 160.038788,401.152710 
	C149.349045,401.600159 138.659653,402.490784 127.962135,403.111603 
	C110.342506,404.134186 92.721069,405.153534 75.109581,406.244781 
	C68.165146,406.675079 61.233036,406.582642 54.310253,407.016357 
	C51.098946,407.217560 50.049625,405.896667 49.920753,402.648193 
	C49.417099,389.952423 48.418953,377.282593 47.853180,364.582428 
	C47.354656,353.391785 46.546265,342.199158 45.866436,331.009277 
	C44.826340,313.889465 43.755505,296.776093 42.885784,279.644043 
	C42.326046,268.618134 41.497517,257.599579 40.871708,246.568954 
	C39.881420,229.114105 38.636292,211.675964 37.807091,194.206894 
	C37.598007,189.802048 37.057556,185.356094 37.020351,180.907089 
	C37.010025,179.672562 36.611088,177.849884 38.730049,178.086868 
	C41.461330,178.392349 43.935329,176.911896 46.518353,177.065933 
	C55.327770,177.591263 64.001305,175.506836 72.807671,175.929886 
	C75.540588,176.061172 78.315201,175.324677 81.502106,174.949036 
	C83.560898,176.341843 82.591637,178.002228 82.308693,179.569946 
	C76.425186,212.168030 70.544228,244.766617 64.608063,277.355133 
	C63.836361,281.591644 63.207932,285.843872 62.084496,290.040802 
	C61.091824,293.749146 62.180191,296.457306 67.044647,297.074585 
	C75.779915,298.183167 84.419159,300.048309 93.535355,301.662109 
	C96.066124,303.922668 95.589462,306.711365 95.582176,309.316437 
	C95.533302,326.804565 95.668800,344.292419 95.620079,361.780426 
	C95.596153,370.365387 95.625221,370.382843 104.100838,370.383148 
	C227.530548,370.387665 350.960236,370.380524 474.389954,370.412170 
	C477.846252,370.413055 481.411499,369.816437 485.041626,371.889526 
z"/>
<path fill="#FFD101" opacity="1.000000" stroke="none" 
	d="
M945.026978,229.473434 
	C942.606445,231.134705 940.203796,230.115280 937.821777,229.692062 
	C924.833740,227.384415 911.856018,225.018723 898.451782,222.627029 
	C896.040588,220.549911 896.434509,217.940201 896.421814,215.490982 
	C896.355957,202.832275 896.415466,190.173111 896.384155,177.514191 
	C896.365479,169.966370 896.054565,169.623337 888.510864,169.619888 
	C836.042725,169.595886 783.574524,169.609161 731.106384,169.607864 
	C688.798706,169.606827 646.491089,169.617035 604.183411,169.590591 
	C601.045349,169.588623 597.823975,169.974045 594.522827,168.022217 
	C565.588806,162.503845 537.019775,157.315506 508.449097,152.135834 
	C507.162781,151.902634 505.758636,152.055420 504.638702,150.523163 
	C514.577698,149.767319 524.689453,149.676315 534.754089,148.939850 
	C552.028503,147.675797 569.311707,146.724777 586.610229,145.864761 
	C597.633606,145.316727 608.655212,144.520401 619.682007,143.875641 
	C636.967773,142.864899 654.242737,141.728867 671.540955,140.865814 
	C682.731567,140.307495 693.930115,139.616196 705.113281,138.883041 
	C722.229492,137.760956 739.344727,136.760620 756.474243,135.867188 
	C767.665466,135.283463 778.858643,134.553421 790.046997,133.862732 
	C807.165833,132.805939 824.284058,131.811234 841.409302,130.865097 
	C853.267151,130.210007 865.130554,129.581833 876.982178,128.859329 
	C895.430847,127.734657 913.843933,126.224327 932.343079,125.834763 
	C937.754211,125.720802 938.736877,128.390808 938.962402,132.376617 
	C939.717651,145.727570 940.094666,159.103470 941.052795,172.438477 
	C942.306030,189.880493 943.616638,207.312500 944.039185,224.800766 
	C944.073669,226.224747 944.669006,227.635147 945.026978,229.473434 
z"/>
<path fill="#FCCE06" opacity="1.000000" stroke="none" 
	d="
M935.499146,356.062347 
	C933.166748,351.230133 935.694275,346.716370 936.451111,342.145569 
	C939.479187,323.857361 942.944214,305.641327 946.276672,287.403931 
	C946.420959,286.614258 946.851990,285.876984 947.492920,284.977570 
	C948.436829,298.693542 949.406372,312.535095 950.270264,326.365204 
	C950.797974,334.813873 950.553711,343.235443 951.045532,351.651245 
	C951.196716,354.238525 950.402100,355.281769 947.719604,355.041382 
	C943.756958,354.686279 939.958191,356.703400 935.499146,356.062347 
z"/>
<path fill="#FDFDFD" opacity="1.000000" stroke="none" 
	d="
M593.649414,167.787888 
	C599.142700,167.901245 604.127197,168.293823 609.111755,168.295761 
	C703.200745,168.332367 797.289734,168.322586 891.378723,168.323120 
	C897.800842,168.323166 897.793640,168.325546 897.804321,174.752289 
	C897.830444,190.404984 897.863953,206.057678 897.961609,222.145721 
	C897.956543,233.902405 897.830322,245.223694 897.821960,256.545074 
	C897.795166,292.856445 897.828125,329.167786 897.798584,365.479156 
	C897.792542,372.928528 898.635193,371.959442 891.546875,371.960419 
	C759.293579,371.978729 627.040222,371.972687 494.786926,371.983337 
	C491.958435,371.983551 489.129974,372.120728 485.842163,372.221222 
	C481.221649,372.155884 477.060425,371.982941 472.899200,371.982452 
	C348.603394,371.968079 224.307556,371.937073 100.011948,372.094238 
	C95.048340,372.100525 94.039574,370.731049 94.094826,366.024658 
	C94.343193,344.867920 94.173485,323.706268 94.063370,302.136627 
	C94.048340,287.575623 94.172874,273.424438 94.190430,259.273132 
	C94.225136,231.295090 94.181725,203.316971 94.213173,175.338928 
	C94.221710,167.742325 93.124725,168.307251 101.051750,168.306885 
	C261.925690,168.299576 422.799591,168.303665 583.673523,168.283859 
	C586.829224,168.283463 589.984863,168.023911 593.649414,167.787888 
z"/>
<path fill="#0B0B0B" opacity="1.000000" stroke="none" 
	d="
M853.905579,319.129639 
	C853.459778,312.481537 853.019775,306.286804 852.579773,300.092041 
	C852.150024,300.084839 851.720276,300.077637 851.290527,300.070465 
	C848.230896,310.369659 844.937378,320.608032 842.233276,330.999756 
	C841.232239,334.846558 839.461182,336.276642 835.758911,335.975159 
	C834.771606,335.894745 833.763489,336.043213 832.766541,336.111328 
	C820.620239,336.941254 819.811096,336.458160 814.973328,325.176971 
	C810.983765,315.873657 807.035278,306.552734 803.046082,297.249298 
	C802.554932,296.103790 801.924683,295.017853 801.251160,293.692352 
	C798.703308,295.810272 800.964722,297.577942 801.038330,299.269684 
	C801.559509,311.244659 802.235779,323.213989 802.998047,335.176483 
	C803.165222,337.799774 802.741089,338.973846 799.683960,339.110809 
	C792.872253,339.415985 786.073486,340.140869 779.290039,340.883179 
	C776.731384,341.163116 775.757751,340.543030 775.790039,337.814880 
	C775.817383,335.503723 776.894714,332.143250 772.153931,332.651459 
	C770.364502,332.843262 770.994812,330.618713 770.925293,329.443909 
	C769.606384,307.172943 768.330811,284.899414 767.054993,262.625916 
	C766.407593,251.322678 765.885132,240.010666 765.069092,228.719757 
	C764.841980,225.577866 765.602539,224.323547 768.879883,224.044556 
	C777.665405,223.296631 786.440369,222.347580 795.180298,221.183823 
	C797.957458,220.814041 798.718079,222.024704 799.848450,224.155472 
	C809.005554,241.417542 815.476074,259.839355 823.229187,277.704742 
	C823.340942,277.962189 823.702637,278.111206 824.503906,278.764008 
	C827.377625,268.759003 830.185181,259.026215 832.967346,249.286209 
	C835.658569,239.864746 838.433960,230.464981 840.934509,220.992874 
	C841.705872,218.071014 843.134644,217.154541 846.063171,216.930817 
	C854.689087,216.271866 863.305847,215.389648 871.884949,214.276703 
	C875.083618,213.861740 876.358215,214.363419 876.193848,217.883972 
	C876.083374,220.248886 874.811890,224.026062 879.975952,223.244385 
	C881.493347,223.014709 881.006592,225.009430 881.065552,226.035583 
	C882.736389,255.123306 884.368286,284.213257 886.013794,313.302429 
	C886.295776,318.289093 886.539124,323.279663 886.942566,328.256897 
	C887.135193,330.632751 886.719177,331.839966 883.894043,331.999054 
	C876.751465,332.401398 869.614746,333.048676 862.507507,333.872681 
	C859.462524,334.225739 858.888916,333.050629 858.910645,330.371155 
	C858.929504,328.046875 860.053040,325.116394 855.371521,325.044861 
	C852.624390,325.002899 854.575134,321.436066 853.905579,319.129639 
z"/>
<path fill="#0C0C0C" opacity="1.000000" stroke="none" 
	d="
M581.945435,272.042847 
	C580.113586,281.817932 575.010559,289.314789 568.726318,296.209564 
	C570.956177,289.744812 573.825806,283.643036 575.210632,276.877502 
	C577.771240,264.367462 574.474426,253.396317 567.375916,243.443008 
	C561.834229,235.672699 556.125061,227.967636 548.946167,220.483093 
	C548.484924,231.930054 548.030151,242.801102 547.612793,253.673584 
	C546.987122,269.972656 546.099792,286.268585 545.865845,302.573639 
	C545.669922,316.231201 538.941284,325.561676 527.691833,332.031342 
	C515.984497,338.764343 503.552612,341.528900 490.432251,336.361969 
	C477.076294,331.102325 473.070923,317.968475 480.898590,305.754913 
	C491.817841,288.717590 520.397339,279.417419 537.726807,291.135925 
	C541.527100,293.705780 540.384888,290.124359 540.439941,288.658234 
	C541.432861,262.198486 542.351685,235.735992 543.301025,209.274612 
	C543.474060,204.449554 543.782898,199.628342 543.885986,194.802292 
	C543.930298,192.731400 544.475830,191.257797 546.635803,190.665070 
	C548.819824,190.065765 550.436157,190.596146 551.840820,192.480637 
	C552.789185,193.752884 553.233032,195.112274 553.520142,196.565018 
	C556.237244,210.309601 563.106812,221.887253 571.757385,232.690155 
	C580.869385,244.069229 585.958984,256.721710 581.945435,272.042847 
z"/>
<path fill="#0C0C0C" opacity="1.000000" stroke="none" 
	d="
M411.072052,324.731750 
	C411.509857,329.453003 413.911438,334.606537 411.680267,337.736694 
	C409.596130,340.660645 403.968475,339.594513 399.936035,340.464844 
	C397.175049,341.060730 394.320465,341.274628 391.603790,342.012726 
	C387.130463,343.228058 383.935913,343.053925 384.496063,337.087952 
	C384.562561,336.379364 383.869293,334.937439 383.620605,334.957855 
	C377.049805,335.498505 379.414337,330.233826 379.085327,327.429047 
	C375.401306,296.023163 372.029480,264.580627 368.360107,233.172897 
	C367.937622,229.556641 368.506317,228.257019 372.324951,227.745743 
	C379.397247,226.798843 386.446075,225.426498 393.361877,223.669281 
	C396.686523,222.824524 398.045868,223.993698 399.690338,226.470856 
	C408.519897,239.771271 417.505493,252.968170 426.446167,266.194763 
	C427.342926,267.521332 428.299835,268.807251 430.113556,269.823456 
	C429.264496,261.852051 428.421814,253.879990 427.564636,245.909470 
	C426.674805,237.635803 425.865265,229.351608 424.814362,221.098282 
	C424.507874,218.691437 425.229767,217.964081 427.514496,217.571030 
	C434.884705,216.303116 442.236969,214.902634 449.545715,213.320267 
	C452.424438,212.697037 451.685822,214.613098 452.231781,216.055069 
	C453.050446,218.217194 450.720825,222.814407 456.433136,221.666534 
	C457.797089,221.392456 457.711761,223.706528 457.850250,224.974762 
	C460.216492,246.648102 462.562103,268.323700 464.910797,289.998962 
	C466.147797,301.414673 467.242279,312.848572 468.702637,324.235596 
	C469.141937,327.660980 468.419037,328.807587 464.870636,329.237732 
	C458.279877,330.036682 451.741180,331.369873 445.240631,332.760498 
	C442.311859,333.386993 441.040009,332.093933 439.159271,330.080261 
	C426.819885,316.868622 418.450226,300.781219 406.878662,285.748230 
	C408.338226,299.258209 409.689789,311.768555 411.072052,324.731750 
z"/>
<path fill="#0A0A0A" opacity="1.000000" stroke="none" 
	d="
M296.445984,223.726730 
	C299.685394,222.306961 299.922699,223.928894 300.437744,226.238388 
	C300.937439,228.479034 299.161499,232.877640 304.621490,231.835526 
	C306.161682,231.541565 305.830505,233.488144 305.947632,234.551819 
	C308.005737,253.246155 309.934998,271.955841 312.190247,290.626160 
	C312.555389,293.648865 311.166840,298.164307 316.411713,298.940704 
	C320.726410,299.579376 325.075775,296.750946 326.828461,292.065399 
	C329.419464,285.138611 327.309540,278.183411 326.627716,271.301971 
	C325.019897,255.075211 323.108490,238.877075 321.152130,222.687637 
	C320.806793,219.829727 321.718872,219.069794 324.389801,218.651459 
	C331.448090,217.545959 338.511810,216.333832 345.446808,214.644669 
	C348.707581,213.850449 349.453125,214.755325 349.777954,217.694290 
	C350.027344,219.950516 348.514374,223.934418 353.683289,222.755020 
	C354.908234,222.475494 354.846039,224.073990 354.948181,225.023834 
	C357.279510,246.700165 359.746735,268.363312 361.861481,290.060791 
	C362.706879,298.734711 361.822540,307.393646 358.609863,315.602142 
	C352.170471,332.055237 338.965027,338.511932 322.348877,339.957184 
	C308.788269,341.136719 299.717346,334.860016 291.648743,324.317810 
	C280.144714,309.286957 279.124268,291.793732 277.088562,274.339966 
	C275.449921,260.290863 274.002228,246.219193 272.303162,232.177704 
	C271.967957,229.407394 272.171844,228.087418 275.446777,227.629593 
	C282.352417,226.664169 289.177307,225.121078 296.445984,223.726730 
z"/>
<path fill="#0A0A0A" opacity="1.000000" stroke="none" 
	d="
M674.998535,267.875519 
	C678.053284,253.650650 681.143188,239.861389 683.993042,226.022705 
	C684.699768,222.591156 685.650146,220.741882 689.774414,220.566528 
	C699.915283,220.135345 710.027527,219.024384 720.150085,218.173218 
	C722.149353,218.005127 723.372314,218.131729 724.831055,220.367722 
	C735.653931,236.957794 739.076538,256.352722 745.687012,274.507507 
	C752.445801,293.069733 758.287659,311.965881 764.522461,330.718658 
	C764.617065,331.003143 764.603821,331.323486 764.700378,332.114380 
	C755.104187,333.030640 745.526978,333.946320 735.949402,334.857635 
	C734.931641,334.954529 733.638428,335.012756 733.482910,333.804321 
	C732.636047,327.226257 725.901062,323.369049 725.661316,316.481323 
	C725.556274,313.465240 723.764465,312.456543 720.607239,312.873016 
	C715.000427,313.612671 709.336365,313.969940 703.685303,314.301025 
	C700.735535,314.473907 699.352966,315.596466 698.950745,318.701355 
	C698.225281,324.301575 696.880371,329.819244 696.055786,335.409973 
	C695.720886,337.679932 694.730530,338.558594 692.569336,338.733368 
	C684.122070,339.416382 675.681274,340.179230 666.709900,340.958282 
	C666.989380,339.313171 667.041016,337.881592 667.489563,336.587524 
	C668.669189,333.183899 668.394348,331.143127 664.008179,332.142792 
	C661.262756,332.768494 661.148132,331.634308 661.688049,329.205109 
	C666.196045,308.920807 670.546875,288.601562 674.998535,267.875519 
z"/>
<path fill="#090909" opacity="1.000000" stroke="none" 
	d="
M116.688347,285.309265 
	C107.726379,272.824982 101.966454,259.824890 104.719398,244.222885 
	C108.515526,222.708755 123.481766,212.921722 144.587082,218.457855 
	C146.512894,218.963028 148.394424,219.635254 150.302765,220.209213 
	C153.468704,221.161392 155.644775,222.535843 154.317978,226.543549 
	C153.668488,228.505402 153.362305,230.932510 156.518768,231.620453 
	C158.278900,232.004044 158.110672,233.469696 157.967560,234.811707 
	C157.191193,242.092255 156.354904,249.366928 155.651855,256.654510 
	C155.411011,259.150940 154.444931,259.698242 152.121597,258.810822 
	C148.361633,257.374634 144.447617,256.491821 140.399612,257.260712 
	C138.956009,257.534912 137.295776,258.101807 136.926483,259.735382 
	C136.540726,261.441681 138.354172,261.843445 139.380829,262.383545 
	C156.420334,271.347534 162.942383,299.720520 158.656677,315.217773 
	C153.411942,334.182861 138.911621,342.461792 118.065643,337.735291 
	C113.197334,336.631470 108.513458,334.920807 103.997017,332.778595 
	C103.247658,332.423126 101.860474,331.983307 101.880394,331.648682 
	C102.196068,326.347198 97.617569,322.286316 97.571716,317.645660 
	C97.493629,309.740723 99.216972,301.817993 100.245674,293.393311 
	C103.313469,295.171478 106.079330,296.920990 108.975693,298.417999 
	C112.975891,300.485535 117.102936,302.306946 121.778694,301.928345 
	C124.309006,301.723480 126.019089,300.350311 127.136078,298.039734 
	C128.463013,295.294800 125.905655,294.609711 124.704185,293.319214 
	C122.212196,290.642487 119.530945,288.142029 116.688347,285.309265 
z"/>
<path fill="#0A0A0A" opacity="1.000000" stroke="none" 
	d="
M184.623810,319.381775 
	C172.634537,304.346802 168.140762,287.366486 169.059464,268.765930 
	C169.627502,257.265045 172.613281,246.486588 179.182770,236.881775 
	C189.757706,221.420822 208.121460,214.063034 226.263641,217.976120 
	C232.420609,219.304092 238.123245,221.883423 242.384567,226.430527 
	C263.353638,248.805862 272.811249,274.655731 263.878204,305.063324 
	C256.315857,330.805206 230.633499,344.774658 206.459961,337.144714 
	C196.947372,334.142242 190.067963,327.942383 184.623810,319.381775 
z"/>
<path fill="#0A0A0A" opacity="1.000000" stroke="none" 
	d="
M622.747437,339.349823 
	C617.840698,338.578552 613.724426,336.822723 609.614563,335.009583 
	C605.982117,333.407043 602.543091,331.812134 604.055420,326.729462 
	C604.249817,326.076141 603.876404,324.638000 603.477478,324.517365 
	C598.252197,322.937073 600.522705,319.105103 600.843262,315.941010 
	C601.579773,308.671051 602.423279,301.411957 603.254822,293.862976 
	C605.810547,294.808472 608.071533,295.814453 610.428101,296.483276 
	C616.262207,298.139160 620.279480,296.041656 621.938721,290.237030 
	C624.606201,280.905029 624.819336,271.192413 625.938599,261.628052 
	C627.446228,248.744659 628.766235,235.838440 630.042786,222.929733 
	C630.287415,220.455688 631.031250,219.963669 633.488586,220.520767 
	C640.449829,222.098938 647.453369,223.562042 654.507141,224.627930 
	C657.683350,225.107895 658.355225,226.296509 657.640930,229.153030 
	C657.014465,231.658554 655.928223,234.599060 660.390991,234.734146 
	C662.109741,234.786163 661.985046,236.041046 661.820251,237.246948 
	C658.217651,263.603516 656.129272,290.152161 651.796570,316.413391 
	C651.342163,319.167603 650.317322,321.860992 649.301636,324.483643 
	C644.404968,337.127258 636.695251,341.507935 622.747437,339.349823 
z"/>
<path fill="#F9F9F9" opacity="1.000000" stroke="none" 
	d="
M771.371887,291.526947 
	C770.277649,271.429230 769.338257,251.792160 768.074402,232.175980 
	C767.831543,228.405594 768.921997,227.310150 772.503784,227.112747 
	C779.316650,226.737259 786.123291,226.071365 792.896606,225.235306 
	C795.837463,224.872284 797.211853,225.622131 798.385193,228.491180 
	C806.116150,247.394882 814.082153,266.202484 821.975952,285.039551 
	C822.481750,286.246643 823.024475,287.438232 823.707947,288.997192 
	C825.499756,287.328979 825.450806,285.232483 825.958069,283.478882 
	C831.682556,263.690063 837.381470,243.893204 842.906738,224.048279 
	C843.700867,221.196045 844.793335,220.054245 847.887390,219.926697 
	C855.036865,219.631927 862.175598,218.922470 869.296814,218.173431 
	C871.906372,217.898926 873.030212,218.201050 873.200073,221.295044 
	C874.706238,248.741852 876.404175,276.178162 878.053528,303.617065 
	C878.323486,308.107117 878.526367,312.605316 878.967712,317.079285 
	C879.197266,319.406494 878.567871,320.310822 876.119385,320.447235 
	C870.800964,320.743500 865.483154,321.218567 860.198730,321.886505 
	C857.344360,322.247314 856.512512,321.308167 856.385498,318.514191 
	C855.689331,303.203308 854.816956,287.900482 854.007751,272.594727 
	C853.963867,271.762756 854.016602,270.919312 853.900024,270.098877 
	C853.659180,268.402893 854.550171,265.695129 852.172913,265.525635 
	C850.173279,265.383057 850.336060,268.095337 849.868530,269.677490 
	C844.924683,286.406647 839.933838,303.122894 835.174622,319.904724 
	C834.337463,322.856873 833.219238,324.148529 829.989990,324.495087 
	C818.200134,325.760254 818.214783,325.911377 813.588074,314.995026 
	C807.755249,301.233093 801.951294,287.458771 796.045471,273.728210 
	C795.557129,272.592804 795.785095,270.276001 793.573303,270.818298 
	C791.542114,271.316254 792.279480,273.257050 792.352966,274.644775 
	C793.207275,290.781189 794.007080,306.921875 795.076477,323.044495 
	C795.318298,326.691162 794.494324,328.094299 790.638062,328.060974 
	C786.159424,328.022247 781.653381,328.536774 777.199768,329.120331 
	C774.100464,329.526428 773.209595,328.522186 773.098938,325.434906 
	C772.699158,314.282410 772.000000,303.140656 771.371887,291.526947 
z"/>
<path fill="#F9F9F9" opacity="1.000000" stroke="none" 
	d="
M493.281921,328.823303 
	C492.015137,328.798401 491.164215,328.858887 490.360901,328.691315 
	C481.459930,326.834534 480.220978,324.022736 485.690887,316.896179 
	C497.651642,301.312927 513.482544,293.794159 533.064636,296.782104 
	C541.979858,298.142487 542.396790,303.213531 537.547424,308.415131 
	C525.689514,321.134277 511.253845,328.294220 493.281921,328.823303 
z"/>
<path fill="#F9F9F9" opacity="1.000000" stroke="none" 
	d="
M453.319641,250.645508 
	C455.710297,272.267944 457.987427,293.448090 460.406006,314.612091 
	C460.674042,316.957184 460.230988,317.771698 457.809784,318.153107 
	C451.243958,319.187439 444.702454,320.428497 438.210846,321.857849 
	C435.350098,322.487701 434.422760,320.726807 433.204163,318.931519 
	C423.024292,303.934021 412.839569,288.939667 402.589874,273.989929 
	C401.839539,272.895538 401.553345,270.686218 399.576019,271.311951 
	C397.406830,271.998474 398.232361,273.985352 398.411407,275.578186 
	C400.214630,291.619141 401.966156,307.666260 403.868866,323.695404 
	C404.218231,326.638428 403.850067,328.276215 400.391998,328.535675 
	C396.593628,328.820587 392.830536,329.651184 389.069214,330.337952 
	C382.038605,331.621674 382.001709,331.654572 381.224457,324.630798 
	C377.911346,294.691406 374.668030,264.744141 371.261963,234.815369 
	C370.927795,231.879227 371.839294,231.197891 374.539642,230.833344 
	C380.631500,230.010925 386.728973,229.027802 392.698547,227.588837 
	C395.603363,226.888626 396.818878,227.849777 398.291748,230.030807 
	C408.343536,244.915390 418.491730,259.735321 428.708923,274.506866 
	C429.594086,275.786560 429.874847,278.563965 432.340790,277.603271 
	C434.421082,276.792847 433.248871,274.649628 433.090332,273.127472 
	C431.417816,257.071259 429.753235,241.013123 427.870789,224.980835 
	C427.502136,221.841064 428.227081,220.485016 431.431732,220.076508 
	C436.540741,219.425247 441.636047,218.566879 446.673431,217.496399 
	C449.046143,216.992172 449.834686,217.346481 450.069946,219.911560 
	C450.996948,230.019318 452.167419,240.104736 453.319641,250.645508 
z"/>
<path fill="#F9F9F9" opacity="1.000000" stroke="none" 
	d="
M327.279694,252.637482 
	C326.227173,243.427231 325.347046,234.648880 324.176147,225.909485 
	C323.792847,223.048416 324.335846,221.741135 327.405426,221.323990 
	C333.002380,220.563416 338.563507,219.497223 344.102875,218.376999 
	C346.123688,217.968323 346.732605,218.571106 346.944916,220.503403 
	C349.235260,241.344193 351.660675,262.170410 353.878662,283.018768 
	C354.497406,288.834595 353.945740,294.682831 352.623932,300.389801 
	C348.605835,317.737854 336.620697,327.425354 317.563446,328.861359 
	C302.607513,329.988281 293.284912,324.428894 286.994446,310.759766 
	C282.090393,300.103394 281.394226,288.593781 280.076996,277.216187 
	C278.450317,263.165741 277.102417,249.081070 275.293579,235.055099 
	C274.855591,231.658981 275.979370,230.771866 278.898621,230.339600 
	C284.160278,229.560486 289.431732,228.738525 294.609192,227.544754 
	C297.281616,226.928543 297.914948,227.478882 298.195068,230.164749 
	C300.007843,247.544739 302.023987,264.903503 303.960327,282.270660 
	C304.478149,286.914917 305.258514,291.507294 307.161865,295.803772 
	C308.960571,299.864044 311.893890,302.610321 316.553345,302.968994 
	C321.498016,303.349640 325.313019,301.346008 327.957153,297.218323 
	C330.671814,292.980591 331.434723,288.229034 330.899872,283.324066 
	C329.799744,273.234741 328.535583,263.163330 327.279694,252.637482 
z"/>
<path fill="#FAFAFA" opacity="1.000000" stroke="none" 
	d="
M730.579468,246.404388 
	C738.847107,271.324219 746.945374,295.884583 755.164124,320.810272 
	C747.602417,321.513550 740.362244,322.133057 733.136841,322.892273 
	C731.018616,323.114838 730.312378,322.287750 729.768372,320.325073 
	C728.173523,314.570312 726.246765,308.908417 724.559448,303.177887 
	C723.965271,301.159973 723.237488,300.255890 720.769775,300.543457 
	C712.343689,301.525269 703.882935,302.250244 695.419373,302.844513 
	C693.074219,303.009216 692.333496,303.928589 692.001282,306.085876 
	C691.116394,311.832397 689.810913,317.519318 689.074219,323.281250 
	C688.699402,326.213379 687.575989,327.087128 684.694214,327.228424 
	C678.255615,327.544128 671.838623,328.300171 665.007385,328.913208 
	C670.587830,302.627350 676.070618,276.831879 681.537048,251.032974 
	C683.121155,243.556427 684.722778,236.082489 686.185486,228.581818 
	C686.773499,225.566376 687.582397,223.850281 691.419922,223.692398 
	C700.383972,223.323547 709.331848,222.282104 718.248901,221.203842 
	C721.403870,220.822357 722.575317,221.817398 723.440613,224.756348 
	C725.548523,231.915909 728.060669,238.956451 730.579468,246.404388 
z"/>
<path fill="#F9F9F9" opacity="1.000000" stroke="none" 
	d="
M125.151718,282.886780 
	C121.432823,279.280151 117.878479,276.015045 114.483727,272.591705 
	C101.761147,259.761871 107.051155,235.239105 116.373955,226.508438 
	C124.296303,219.089294 141.082840,217.718002 150.526245,223.860657 
	C152.056610,224.856094 151.945053,225.918304 151.804413,227.201523 
	C151.134705,233.311707 150.418793,239.416809 149.708359,245.619400 
	C146.322861,245.204971 143.217896,243.917587 139.857712,243.962265 
	C135.694443,244.017639 132.199249,245.317902 130.489685,249.280930 
	C128.847534,253.087708 129.585510,256.769165 132.309402,259.978027 
	C134.810043,262.923859 137.879623,265.197571 140.983063,267.450958 
	C156.159256,278.470245 158.713943,303.494598 146.037125,317.464294 
	C137.613113,326.747467 126.905441,327.259735 115.657570,324.825989 
	C100.256607,321.493622 99.528763,320.326904 101.693604,304.979065 
	C101.879311,303.662506 102.000824,302.330444 102.046501,301.001953 
	C102.127663,298.641296 103.115860,298.649078 104.862038,299.686432 
	C108.148598,301.638824 111.572632,303.281616 115.324272,304.231567 
	C120.258774,305.481110 124.965652,305.845337 128.465073,301.238861 
	C131.483658,297.265320 131.168854,291.156677 127.850380,286.293518 
	C127.102814,285.197968 126.213570,284.199097 125.151718,282.886780 
z"/>
<path fill="#FBFBFB" opacity="1.000000" stroke="none" 
	d="
M189.159424,318.882843 
	C173.991348,303.535950 170.763809,284.827423 172.544449,264.711212 
	C173.347015,255.644424 176.277756,247.170959 181.561722,239.658646 
	C191.347839,225.745499 205.041367,219.694717 221.684494,221.268845 
	C237.288162,222.744644 247.324570,232.241333 253.149582,246.311447 
	C260.650330,264.429260 261.664978,282.899506 253.968170,301.146301 
	C242.781754,327.665924 210.755020,336.404114 189.159424,318.882843 
z"/>
<path fill="#F9F9F9" opacity="1.000000" stroke="none" 
	d="
M627.195679,273.330109 
	C628.854919,258.156799 630.534912,243.439697 632.021606,228.703125 
	C632.356750,225.380936 632.767517,223.551529 636.959900,224.751114 
	C642.051147,226.207916 647.373535,226.898727 652.626587,227.726212 
	C654.552429,228.029572 655.082336,228.738846 654.831421,230.636307 
	C651.559204,255.379196 650.400146,280.394226 645.937256,304.968079 
	C642.248657,325.278290 631.626770,331.070465 612.054749,324.556458 
	C603.175171,321.601105 603.160645,321.599884 603.949463,312.403839 
	C604.262390,308.756409 604.851440,305.121185 604.950562,301.470520 
	C605.030884,298.515106 606.164307,298.455078 608.623718,299.069458 
	C618.156189,301.450775 622.720032,298.613342 624.956055,289.078217 
	C626.135010,284.050903 626.857666,278.942139 627.195679,273.330109 
z"/>
<path fill="#1F1F1F" opacity="1.000000" stroke="none" 
	d="
M870.080688,306.616760 
	C868.716614,281.445587 867.302307,256.720001 866.100403,231.984131 
	C865.951538,228.920181 864.915283,228.469070 862.279541,228.880554 
	C859.001282,229.392349 855.668701,229.547745 852.365417,229.910690 
	C850.260376,230.141998 848.379944,230.121933 848.099060,227.061584 
	C853.903381,226.457825 859.683899,225.983368 865.423523,225.206650 
	C868.347656,224.810928 868.222168,226.522629 868.325928,228.427353 
	C869.220703,244.857880 870.140991,261.287018 871.055725,277.716461 
	C871.708374,289.438812 872.364136,301.160919 873.035095,313.180664 
	C869.971680,311.750031 870.216248,309.324768 870.080688,306.616760 
z"/>
<path fill="#181818" opacity="1.000000" stroke="none" 
	d="
M789.961792,235.227448 
	C784.415710,235.441284 779.142273,237.738358 774.203064,235.138351 
	C774.198975,234.626785 774.194885,234.115219 774.190796,233.603668 
	C780.234070,233.074249 786.279541,232.568085 792.319275,232.001190 
	C794.114746,231.832657 794.507080,233.094940 795.021729,234.331482 
	C802.469482,252.226471 809.929504,270.116394 817.355042,288.020599 
	C817.734436,288.935272 819.078247,290.323944 817.242737,290.833618 
	C815.189880,291.403656 815.017883,289.282684 814.483704,288.004700 
	C807.647339,271.649384 800.867065,255.270569 794.008972,238.924377 
	C793.321777,237.286438 793.400574,234.659637 789.961792,235.227448 
z"/>
<path fill="#1C1C1C" opacity="1.000000" stroke="none" 
	d="
M838.239868,290.373993 
	C835.862793,298.568237 833.634521,306.384064 831.271118,314.158813 
	C830.984924,315.100220 831.608704,317.412903 829.388611,316.609406 
	C827.861755,316.056824 828.381653,314.511414 828.786743,313.159332 
	C831.690430,303.467651 834.517212,293.752930 837.379456,284.048767 
	C839.256104,277.686066 841.113953,271.317230 843.075012,264.980499 
	C843.396301,263.942413 843.242065,261.860260 845.202148,262.574860 
	C846.631653,263.096069 845.783264,264.535126 845.463196,265.625885 
	C843.081299,273.742004 840.717346,281.863373 838.239868,290.373993 
z"/>
<path fill="#202020" opacity="1.000000" stroke="none" 
	d="
M788.665955,298.244568 
	C789.060608,305.866486 789.415100,313.015717 789.779419,320.362274 
	C787.220154,319.786591 787.105164,317.888245 787.002502,315.915619 
	C786.335693,303.104889 785.629456,290.296204 784.976074,277.484802 
	C784.868042,275.366882 784.388184,273.087433 786.760864,271.415375 
	C788.222046,280.206543 787.738281,289.043549 788.665955,298.244568 
z"/>
<path fill="#1C1C1C" opacity="1.000000" stroke="none" 
	d="
M450.811157,297.320648 
	C448.499817,276.710266 446.230774,256.548218 443.965149,236.385773 
	C443.816528,235.063370 443.637878,233.740814 443.571259,232.413422 
	C443.426025,229.519577 442.573334,227.749207 439.135132,228.956146 
	C438.112488,229.315140 436.813232,229.218781 435.733612,228.953262 
	C435.123596,228.803253 434.427826,227.951691 434.267517,227.294861 
	C434.076813,226.513535 435.055054,226.414185 435.648499,226.180939 
	C443.892029,222.941010 445.189270,223.829514 446.141968,232.550995 
	C448.923126,258.011139 451.825134,283.458038 454.671967,308.911011 
	C454.762665,309.722107 454.768158,310.542755 454.857147,312.147949 
	C450.324677,307.690430 451.756927,302.403564 450.811157,297.320648 
z"/>
<path fill="#181818" opacity="1.000000" stroke="none" 
	d="
M416.881531,272.140015 
	C409.568878,261.412079 402.363922,251.044800 395.362640,240.541779 
	C393.773499,238.157822 392.276215,237.031601 389.335205,237.898880 
	C386.965851,238.597626 384.418060,238.667603 381.977386,239.156174 
	C380.194824,239.513016 378.684448,239.487747 377.558197,237.204102 
	C382.563599,235.279617 387.829407,235.142273 392.857208,234.012863 
	C394.574829,233.627045 395.088318,235.188705 395.798431,236.226074 
	C407.150879,252.809708 418.484375,269.406311 429.792664,286.020081 
	C430.564514,287.154022 432.196808,288.617126 430.167236,289.744080 
	C428.535919,290.649933 428.159363,288.544708 427.516296,287.637848 
	C423.961975,282.625305 420.534149,277.523041 416.881531,272.140015 
z"/>
<path fill="#1B1B1B" opacity="1.000000" stroke="none" 
	d="
M395.742401,297.256622 
	C396.585083,305.401184 397.366272,313.094940 398.169006,321.001038 
	C395.365448,320.311829 395.414551,318.286682 395.224701,316.571136 
	C393.709412,302.880157 392.241882,289.183777 390.822266,275.482574 
	C390.703308,274.334473 389.682556,272.460876 391.663940,272.182007 
	C393.796234,271.881866 393.003479,273.989594 393.137329,275.049225 
	C394.052307,282.292938 394.847229,289.551819 395.742401,297.256622 
z"/>
<path fill="#161616" opacity="1.000000" stroke="none" 
	d="
M331.528687,227.678284 
	C341.934357,225.498322 342.055420,225.483170 343.319244,235.585800 
	C345.260925,251.107315 347.102020,266.642700 348.811829,282.191376 
	C349.544830,288.857025 349.080139,295.511841 346.981842,301.944458 
	C343.290436,313.260651 335.021149,319.105591 323.679230,321.157623 
	C322.731628,321.329071 321.344086,322.367340 320.974548,320.343079 
	C320.694366,318.807953 321.516724,318.296509 322.877686,318.087097 
	C343.780609,314.870514 347.286194,297.299652 345.692108,280.074799 
	C344.281189,264.829010 342.372833,249.629730 340.866119,234.391922 
	C340.501709,230.706589 339.815033,228.439209 335.368378,229.960892 
	C333.668518,230.542587 331.307648,231.089188 331.528687,227.678284 
z"/>
<path fill="#191919" opacity="1.000000" stroke="none" 
	d="
M295.011658,248.869720 
	C296.694824,263.005463 298.118561,276.722473 300.093567,290.359619 
	C301.218201,298.125183 304.109283,305.176636 312.214417,308.503479 
	C313.423309,308.999634 314.209686,309.646576 313.383392,311.109039 
	C312.437439,312.783234 311.421967,311.639893 310.466736,311.222290 
	C304.918793,308.796844 301.750244,304.318665 299.676849,298.826080 
	C296.400421,290.146637 296.111908,280.959106 295.018372,271.916565 
	C293.801666,261.855835 292.703156,251.778229 291.755798,241.688934 
	C291.443390,238.362045 290.186371,237.405106 287.043152,238.458359 
	C285.005127,239.141296 282.768890,239.748245 281.802429,236.741287 
	C282.081879,236.515823 282.280396,236.220245 282.520264,236.181625 
	C293.498169,234.414017 293.498596,234.416641 295.011658,248.869720 
z"/>
<path fill="#0B0B0B" opacity="1.000000" stroke="none" 
	d="
M702.539612,283.205505 
	C696.164978,283.971863 696.090576,283.959290 697.060669,278.218018 
	C698.967163,266.935974 700.969849,255.670227 702.918030,244.395187 
	C703.111206,243.277588 702.923096,241.999771 704.588745,241.810318 
	C706.016846,241.647903 706.229858,242.760132 706.491699,243.641846 
	C710.248657,256.291168 713.964661,268.952667 717.800598,281.985413 
	C712.549988,282.404663 707.763367,282.786865 702.539612,283.205505 
z"/>
<path fill="#191919" opacity="1.000000" stroke="none" 
	d="
M746.966431,312.871582 
	C743.482056,313.807465 743.626953,310.775970 742.980713,308.838959 
	C734.950012,284.766968 726.839478,260.718750 719.188721,236.525467 
	C717.704834,231.833115 715.895142,230.633209 711.229004,231.545624 
	C706.197205,232.529541 700.979858,232.557312 695.846069,233.030563 
	C693.864929,233.213196 692.098450,233.147446 691.890747,230.207840 
	C699.963440,229.477051 708.046204,228.868057 716.094666,227.956436 
	C719.320007,227.591095 719.442322,229.774597 720.099548,231.759857 
	C728.073486,255.844711 736.051880,279.928101 744.035645,304.009705 
	C744.974609,306.841858 745.952759,309.661041 746.966431,312.871582 
z"/>
<path fill="#1B1B1B" opacity="1.000000" stroke="none" 
	d="
M695.958923,290.227692 
	C703.138000,289.570862 709.927795,288.984131 716.714478,288.363464 
	C718.198181,288.227753 719.947937,287.668671 720.179810,289.902161 
	C720.400879,292.030457 718.437256,291.528107 717.361938,291.628235 
	C710.576111,292.259979 703.776062,292.737640 696.982544,293.288605 
	C693.781006,293.548218 693.866699,292.309601 695.958923,290.227692 
z"/>
<path fill="#131313" opacity="1.000000" stroke="none" 
	d="
M137.515228,312.712524 
	C149.133469,302.402954 148.951111,285.589630 137.398788,275.943604 
	C134.081238,273.173492 130.493729,270.720490 127.676613,267.378326 
	C125.514664,264.813477 123.578041,262.117554 122.870514,258.770294 
	C122.672859,257.835236 121.488029,256.501923 123.425568,255.953278 
	C125.472183,255.373764 124.916946,257.168427 125.231697,258.067444 
	C126.716400,262.308289 129.630615,265.470184 132.938751,268.313416 
	C134.956390,270.047485 137.112686,271.619049 139.174820,273.302643 
	C150.056305,282.186676 152.444473,297.692230 144.777191,309.589752 
	C140.190094,316.707642 130.431763,320.674225 122.061050,318.852875 
	C120.896019,318.599396 119.582794,318.505859 119.893654,316.841705 
	C120.159492,315.418518 121.397385,315.841400 122.312370,315.901062 
	C127.548607,316.242432 132.623337,315.834473 137.515228,312.712524 
z"/>
<path fill="#1F1F1F" opacity="1.000000" stroke="none" 
	d="
M139.560883,227.404358 
	C146.575272,229.042236 146.575272,229.042236 144.453064,238.440674 
	C144.318222,238.345993 144.088013,238.272049 144.062256,238.153641 
	C143.010300,233.315033 141.363693,229.147079 135.129684,229.801682 
	C134.963272,229.819153 134.554916,228.765793 134.486496,228.185028 
	C134.391266,227.376694 135.029053,227.019775 135.730103,227.032837 
	C136.877579,227.054214 138.022797,227.197235 139.560883,227.404358 
z"/>
<path fill="#080808" opacity="1.000000" stroke="none" 
	d="
M195.991577,274.006775 
	C195.971786,265.986572 197.652893,258.995667 203.009384,253.330795 
	C209.788284,246.161606 220.099350,246.118454 226.951996,253.153442 
	C236.104874,262.549835 237.865051,282.835297 230.473251,293.734406 
	C222.844681,304.982605 208.397308,304.894775 201.029648,293.507538 
	C197.291809,287.730469 196.117691,281.227173 195.991577,274.006775 
z"/>
<path fill="#121212" opacity="1.000000" stroke="none" 
	d="
M231.994644,234.781464 
	C226.409744,231.719315 220.767227,230.798019 214.821762,231.015778 
	C213.201935,231.075104 210.255432,232.830399 210.261383,229.335587 
	C210.266251,226.487747 213.131012,227.194839 214.883713,227.072754 
	C226.954636,226.231873 237.118820,230.466339 243.766998,240.498352 
	C256.626556,259.903168 257.890045,280.635071 247.799072,301.553619 
	C242.931946,311.643127 234.009888,317.501862 223.126358,320.187500 
	C222.140015,320.430878 220.858734,321.567688 220.193466,319.801422 
	C219.504486,317.972260 220.848190,317.484528 222.229202,317.169312 
	C243.547668,312.303528 253.427826,292.087311 250.546234,267.752197 
	C248.962982,254.381454 244.282944,242.622482 231.994644,234.781464 
z"/>
<path fill="#161616" opacity="1.000000" stroke="none" 
	d="
M194.765244,292.985596 
	C197.635010,299.509674 201.795670,304.299866 208.109680,306.971191 
	C209.468872,307.546265 210.636292,308.166840 209.930603,309.849182 
	C209.124191,311.771637 207.830536,310.175018 207.097290,309.863129 
	C197.299103,305.695343 192.995956,297.249084 190.148880,287.717377 
	C189.883118,286.827698 189.998642,286.050262 190.969650,285.707977 
	C192.111893,285.305267 192.382141,286.288879 192.650299,286.993958 
	C193.357635,288.853577 193.961472,290.752594 194.765244,292.985596 
z"/>
<path fill="#191919" opacity="1.000000" stroke="none" 
	d="
M643.590881,263.473267 
	C644.437073,255.755066 644.992981,248.451874 646.068115,241.225937 
	C646.645386,237.345566 645.835876,235.254974 641.658997,235.168427 
	C639.652222,235.126862 638.054321,234.480682 637.921631,231.912842 
	C641.293884,231.303192 644.421936,232.704666 647.616333,233.213715 
	C650.116211,233.612076 649.017395,235.914078 648.867859,237.341354 
	C647.136780,253.867432 645.299561,270.382385 643.491394,286.900391 
	C642.642761,294.652893 642.126526,302.465088 639.446899,309.893890 
	C636.463257,318.165344 631.161682,321.938385 623.914856,320.939087 
	C622.663025,320.766479 620.885132,320.969879 620.984436,319.069580 
	C621.102478,316.809631 622.954834,317.959595 624.061401,317.955841 
	C631.222168,317.931488 634.557678,315.677856 637.032104,308.708130 
	C640.521423,298.879547 640.567505,288.470032 641.929138,278.286133 
	C642.567444,273.512146 642.994080,268.709900 643.590881,263.473267 
z"/>
<path fill="#ECECEC" opacity="1.000000" stroke="none" 
	d="
M706.492310,275.393616 
	C707.333862,270.946228 708.057190,266.908356 708.780518,262.870453 
	C709.040955,262.883484 709.301392,262.896484 709.561768,262.909515 
	C711.040588,267.737091 712.519348,272.564667 713.998108,277.392212 
	C706.729309,279.730499 706.390198,279.657654 706.492310,275.393616 
z"/>
<path fill="#FBFBFB" opacity="1.000000" stroke="none" 
	d="
M216.735352,297.945435 
	C208.029007,297.632874 205.741745,295.785156 204.486984,287.738586 
	C203.422318,280.911224 203.603012,274.127289 206.910782,267.812622 
	C209.624420,262.632172 213.648117,259.200714 219.786804,259.024200 
	C226.124649,258.841949 229.671066,261.670410 230.991425,267.857300 
	C232.147293,273.273407 232.571228,278.694763 231.092896,284.136169 
	C229.109161,291.437866 225.019608,296.585754 216.735352,297.945435 
z"/>
</svg>